<?xml version="1.0" encoding="UTF-8" standalone="no"?>
<svg
   width="16"
   height="16"
   id="svg2985"
   version="1.1"
   viewBox="0 0 16 16.000001"
   xmlns="http://www.w3.org/2000/svg"
   xmlns:svg="http://www.w3.org/2000/svg"
   xmlns:rdf="http://www.w3.org/1999/02/22-rdf-syntax-ns#"
   xmlns:cc="http://creativecommons.org/ns#"
   xmlns:dc="http://purl.org/dc/elements/1.1/">
  <defs
     id="defs2987">
    <linearGradient
       id="linearGradient6402">
      <stop
         id="stop6404"
         offset="0"
         style="stop-color:#000000;stop-opacity:1;" />
      <stop
         id="stop6406"
         offset="1"
         style="stop-color:#000000;stop-opacity:0;" />
    </linearGradient>
    <linearGradient
       id="linearGradient3816">
      <stop
         id="stop3818"
         offset="0"
         style="stop-color:#ffa576;stop-opacity:1;" />
      <stop
         style="stop-color:#f45400;stop-opacity:1;"
         offset="1"
         id="stop3782" />
    </linearGradient>
  </defs>
  <metadata
     id="metadata2990">
    <rdf:RDF>
      <cc:Work
         rdf:about="">
        <dc:format>image/svg+xml</dc:format>
        <dc:type
           rdf:resource="http://purl.org/dc/dcmitype/StillImage" />
      </cc:Work>
    </rdf:RDF>
  </metadata>
  <g
     id="layer1"
     transform="translate(-160,-668.9996)">
    <path
       id="path11669-6-7-9-8-5"
       d="m 168.00001,668.99956 c -4.4183,10e-6 -8.00001,3.58171 -8.00001,8.00002 0,4.41827 3.58172,8 8.00001,8.00001 4.41825,-10e-6 7.99998,-3.58174 7.99999,-8.00001 0,-4.41831 -3.58174,-8.00001 -7.99999,-8.00002 z m -0.0781,3.58821 c 2.47968,2e-5 4.48986,2.01022 4.48985,4.48993 -10e-6,2.4797 -2.01017,4.48986 -4.48985,4.48987 -2.47971,0 -4.4899,-2.01017 -4.4899,-4.48987 -1e-5,-2.47971 2.01018,-4.48993 4.4899,-4.48993 z"
       style="fill:#8d8d8d;fill-opacity:1;stroke:none;stroke-width:0.8;stroke-linecap:butt;stroke-linejoin:miter;stroke-miterlimit:4;stroke-dasharray:none;stroke-opacity:1;paint-order:normal" />
    <path
       id="path11669-6-0-7-5-8"
       d="m 168,672.49956 c -2.48534,10e-6 -4.5,2.01467 -4.5,4.50002 0,2.48534 2.01466,4.5 4.5,4.50001 2.48536,-10e-6 4.5,-2.01467 4.5,-4.50001 0,-2.48535 -2.01464,-4.50001 -4.5,-4.50002 z"
       style="fill:none;fill-opacity:1;stroke:#303030;stroke-width:1;stroke-linecap:butt;stroke-linejoin:miter;stroke-miterlimit:4;stroke-dasharray:none;stroke-opacity:1;paint-order:normal" />
    <rect
       transform="scale(1,-1)"
       y="-684.99957"
       x="160"
       height="16.000015"
       width="16"
       id="rect6561-8-1-9-9-5-5-9-9-1-3-94-1-6-6-4-5-8-7-3"
       style="opacity:0.99;fill:none;stroke:none" />
    <path
       style="fill:#d0ec86;fill-opacity:1;stroke:none;stroke-width:0.8;stroke-linecap:butt;stroke-linejoin:miter;stroke-miterlimit:4;stroke-dasharray:none;stroke-opacity:1;paint-order:normal"
       d="m 168.00001,668.99956 c -4.4183,10e-6 -8.00001,3.58171 -8.00001,8.00002 0,4.41827 3.58172,8 8.00001,8.00001 4.41825,-10e-6 7.99998,-3.58174 7.99999,-8.00001 0,-4.41831 -3.58174,-8.00001 -7.99999,-8.00002 z m -0.0781,3.58821 c 2.47968,2e-5 4.48986,2.01022 4.48985,4.48993 -10e-6,2.4797 -2.01017,4.48986 -4.48985,4.48987 -2.47971,0 -4.4899,-2.01017 -4.4899,-4.48987 -1e-5,-2.47971 2.01018,-4.48993 4.4899,-4.48993 z"
       id="path6969" />
    <path
       style="fill:none;fill-opacity:1;stroke:#435800;stroke-width:1;stroke-linecap:butt;stroke-linejoin:miter;stroke-miterlimit:4;stroke-dasharray:none;stroke-opacity:1;paint-order:normal"
       d="m 168,672.49956 c -2.48534,10e-6 -4.5,2.01467 -4.5,4.50002 0,2.48534 2.01466,4.5 4.5,4.50001 2.48536,-10e-6 4.5,-2.01467 4.5,-4.50001 0,-2.48535 -2.01464,-4.50001 -4.5,-4.50002 z"
       id="path6971" />
    <rect
       style="opacity:0.99;fill:none;stroke:none"
       id="rect6973"
       width="16"
       height="16.000015"
       x="160"
       y="-684.99957"
       transform="scale(1,-1)" />
  </g>
</svg>
