/* XPM */
static char * tourbook48_32_xpm[] = {
"48 48 572 2",
"  	c None",
". 	c #738BD7",
"+ 	c #748BD7",
"@ 	c #7D97EE",
"# 	c #94A9F3",
"$ 	c #A3B7F7",
"% 	c #A0B5F6",
"& 	c #85A0F5",
"* 	c #7590E6",
"= 	c #7896ED",
"- 	c #7199FF",
"; 	c #7BA0FE",
"> 	c #A6C0FF",
", 	c #C7D4FB",
"' 	c #D8DFFA",
") 	c #D0DAFA",
"! 	c #8AA4F4",
"~ 	c #768EDC",
"{ 	c #A57972",
"] 	c #A58185",
"^ 	c #8D8BBF",
"/ 	c #7694EE",
"( 	c #86A8FF",
"_ 	c #C1CEF9",
": 	c #BFCBF4",
"< 	c #7793F0",
"[ 	c #DC6400",
"} 	c #F67401",
"| 	c #F7760B",
"1 	c #DE7831",
"2 	c #A58290",
"3 	c #7492EE",
"4 	c #95B1FC",
"5 	c #839CF0",
"6 	c #C86816",
"7 	c #E67616",
"8 	c #F17C19",
"9 	c #EF7714",
"0 	c #F67409",
"a 	c #FC7201",
"b 	c #D87738",
"c 	c #8586BE",
"d 	c #7699FD",
"e 	c #C36F20",
"f 	c #CE6E14",
"g 	c #D66C0B",
"h 	c #D46B0D",
"i 	c #DC7113",
"j 	c #F17D15",
"k 	c #F17B13",
"l 	c #F07813",
"m 	c #EE7714",
"n 	c #F17716",
"o 	c #F16E04",
"p 	c #CE5F0C",
"q 	c #828CC7",
"r 	c #D17112",
"s 	c #DC7610",
"t 	c #E97E14",
"u 	c #EE8318",
"v 	c #ED821A",
"w 	c #EE8118",
"x 	c #F58217",
"y 	c #F07F17",
"z 	c #F07C16",
"A 	c #F27B15",
"B 	c #F27914",
"C 	c #DB6509",
"D 	c #D27615",
"E 	c #E17D13",
"F 	c #EA871C",
"G 	c #F28C1E",
"H 	c #F38B1C",
"I 	c #F2871A",
"J 	c #F28519",
"K 	c #F28419",
"L 	c #E87B14",
"M 	c #DA6D0D",
"N 	c #D56B0F",
"O 	c #DD6D0D",
"P 	c #DC6B0B",
"Q 	c #D3660C",
"R 	c #BF6721",
"S 	c #D17917",
"T 	c #E28215",
"U 	c #ED8E1E",
"V 	c #F29120",
"W 	c #F38F1D",
"X 	c #F18B1C",
"Y 	c #F1891B",
"Z 	c #F1871A",
"` 	c #F3871A",
" .	c #EA7E16",
"..	c #C86B18",
"+.	c #D57C15",
"@.	c #E28617",
"#.	c #ED9321",
"$.	c #F39722",
"%.	c #F39420",
"&.	c #F1901F",
"*.	c #F18E1D",
"=.	c #F28D1D",
"-.	c #F28B1C",
";.	c #F2891A",
">.	c #F3891C",
",.	c #E5780F",
"'.	c #CD7D1E",
").	c #DD8518",
"!.	c #EB9925",
"~.	c #F39F27",
"{.	c #F39A23",
"].	c #F19621",
"^.	c #F29420",
"/.	c #F2921F",
"(.	c #F1901E",
"_.	c #F28C1D",
":.	c #F18A1B",
"<.	c #F28A1C",
"[.	c #E1770F",
"}.	c #CC8020",
"|.	c #E4921F",
"1.	c #F1A52A",
"2.	c #F4A227",
"3.	c #F19D25",
"4.	c #F19B24",
"5.	c #F29822",
"6.	c #F29521",
"7.	c #F1931F",
"8.	c #F1911F",
"9.	c #F3911F",
"0.	c #F28E1E",
"a.	c #F28B1D",
"b.	c #E27910",
"c.	c #CC881F",
"d.	c #E79D26",
"e.	c #F5AD2D",
"f.	c #F2A62A",
"g.	c #F1A228",
"h.	c #F2A026",
"i.	c #F29E25",
"j.	c #F19A23",
"k.	c #F19622",
"l.	c #F19322",
"m.	c #E8881A",
"n.	c #D87A16",
"o.	c #EC891C",
"p.	c #F48E1E",
"q.	c #E67C11",
"r.	c #BF8B2A",
"s.	c #DF9E28",
"t.	c #F6B230",
"u.	c #F1AA2C",
"v.	c #F2A82B",
"w.	c #F1A528",
"x.	c #F2A227",
"y.	c #F29F26",
"z.	c #F49B24",
"A.	c #ED9221",
"B.	c #DE7E13",
"C.	c #C77621",
"D.	c #C5731F",
"E.	c #E68318",
"F.	c #F58F1E",
"G.	c #EA8317",
"H.	c #C6701E",
"I.	c #D09923",
"J.	c #F2B332",
"K.	c #F3B02E",
"L.	c #F2AC2D",
"M.	c #F3AA2B",
"N.	c #F1A328",
"O.	c #F1A026",
"P.	c #F3A026",
"Q.	c #E69020",
"R.	c #D47B18",
"S.	c #DE7A10",
"T.	c #F28F1F",
"U.	c #F08A1D",
"V.	c #D57312",
"W.	c #B38D37",
"X.	c #DDA72A",
"Y.	c #F6B832",
"Z.	c #F2B12F",
"`.	c #F3AE2E",
" +	c #F3AC2C",
".+	c #F3A92B",
"++	c #F4A62A",
"@+	c #E39021",
"#+	c #D47913",
"$+	c #C77521",
"%+	c #E78519",
"&+	c #F5901F",
"*+	c #E37D14",
"=+	c #BE7127",
"-+	c #B18D3B",
";+	c #E2AA2B",
">+	c #F5B933",
",+	c #F2B330",
"'+	c #F2B02F",
")+	c #F3AE2D",
"!+	c #F2AA2C",
"~+	c #F4AA2B",
"{+	c #E29122",
"]+	c #CD7B1C",
"^+	c #DA770F",
"/+	c #EF8D1F",
"(+	c #F08B1D",
"_+	c #D67414",
":+	c #B7722F",
"<+	c #B38D38",
"[+	c #DEA72B",
"}+	c #F6BA34",
"|+	c #F1B531",
"1+	c #F3B230",
"2+	c #F2B02E",
"3+	c #F3AC2D",
"4+	c #E49524",
"5+	c #D4811E",
"6+	c #C17B2B",
"7+	c #C0772B",
"8+	c #DE7B12",
"9+	c #F18F20",
"0+	c #F18B1D",
"a+	c #DF7913",
"b+	c #CF6E13",
"c+	c #BE6E25",
"d+	c #CF9B24",
"e+	c #F2B834",
"f+	c #F3B732",
"g+	c #F2B331",
"h+	c #F3B22F",
"i+	c #F3AB2C",
"j+	c #F5AC2C",
"k+	c #F0A428",
"l+	c #E6911E",
"m+	c #DB8316",
"n+	c #CB7B20",
"o+	c #BE762B",
"p+	c #DE780E",
"q+	c #EA861B",
"r+	c #F28C1F",
"s+	c #EE871C",
"t+	c #E77C13",
"u+	c #DD720D",
"v+	c #D56D0D",
"w+	c #C96D1A",
"x+	c #C56C1E",
"y+	c #B98F31",
"z+	c #DAA329",
"A+	c #F4BA35",
"B+	c #F5B833",
"C+	c #F3B330",
"D+	c #F2AD2D",
"E+	c #F2AA2B",
"F+	c #F3A82A",
"G+	c #F3A72B",
"H+	c #F1A128",
"I+	c #E99421",
"J+	c #DF8316",
"K+	c #CD791C",
"L+	c #CB731A",
"M+	c #DA7610",
"N+	c #E57D13",
"O+	c #EA8219",
"P+	c #ED841A",
"Q+	c #ED831C",
"R+	c #E57B17",
"S+	c #D2690C",
"T+	c #BD902B",
"U+	c #D59E24",
"V+	c #E8AF2F",
"W+	c #F3B532",
"X+	c #F5B531",
"Y+	c #F5B12F",
"Z+	c #F3AD2D",
"`+	c #F2A92B",
" @	c #F1A529",
".@	c #F3A228",
"+@	c #F19F27",
"@@	c #EA9320",
"#@	c #DE8014",
"$@	c #C77721",
"%@	c #C97019",
"&@	c #D07014",
"*@	c #DB710B",
"=@	c #DB700D",
"-@	c #D66908",
";@	c #BC912D",
">@	c #CD9924",
",@	c #DCA027",
"'@	c #E8A62A",
")@	c #F0AC2D",
"!@	c #F4AD2E",
"~@	c #F5AB2C",
"{@	c #F3A72A",
"]@	c #F1A227",
"^@	c #F19E26",
"/@	c #F39E25",
"(@	c #F29B25",
"_@	c #E48819",
":@	c #D37714",
"<@	c #BE8A2D",
"[@	c #CE8E22",
"}@	c #DD931E",
"|@	c #E69A24",
"1@	c #EDA128",
"2@	c #F4A428",
"3@	c #F29B23",
"4@	c #F29B26",
"5@	c #DE7F13",
"6@	c #C58326",
"7@	c #D3831C",
"8@	c #DF8817",
"9@	c #E19020",
"0@	c #EC9A25",
"a@	c #F29D25",
"b@	c #F19A25",
"c@	c #7A94E8",
"d@	c #7B94E5",
"e@	c #7B95E9",
"f@	c #7B90D4",
"g@	c #CA7A1D",
"h@	c #E18F20",
"i@	c #F5A228",
"j@	c #EE9925",
"k@	c #D97D14",
"l@	c #7A92DF",
"m@	c #7B95E8",
"n@	c #7B94E6",
"o@	c #7A95E8",
"p@	c #7A92DC",
"q@	c #7A95EE",
"r@	c #7794EF",
"s@	c #7490EA",
"t@	c #738FEA",
"u@	c #7390EA",
"v@	c #7692EE",
"w@	c #7996F2",
"x@	c #7A94E9",
"y@	c #C37E2C",
"z@	c #E99620",
"A@	c #F5A529",
"B@	c #EB9521",
"C@	c #CC7B20",
"D@	c #7995F1",
"E@	c #7591EC",
"F@	c #728FEA",
"G@	c #7693EF",
"H@	c #7A92E3",
"I@	c #7996F0",
"J@	c #7793ED",
"K@	c #738EE8",
"L@	c #7E97EA",
"M@	c #8EA5EE",
"N@	c #96ABF0",
"O@	c #92A8F0",
"P@	c #849CEC",
"Q@	c #7590E8",
"R@	c #7996F3",
"S@	c #7990DB",
"T@	c #C88027",
"U@	c #EB9B23",
"V@	c #F4A82B",
"W@	c #E38F1D",
"X@	c #7991DD",
"Y@	c #7996F4",
"Z@	c #7490E9",
"`@	c #7691E8",
" #	c #88A0ED",
".#	c #99AEF1",
"+#	c #92A8EF",
"@#	c #819AEB",
"##	c #738FE7",
"$#	c #7692EC",
"%#	c #7A96F0",
"&#	c #7997F9",
"*#	c #7590E7",
"=#	c #7E98EB",
"-#	c #AABCF5",
";#	c #C6D3FB",
">#	c #CED9FC",
",#	c #D0DAFD",
"'#	c #CED9FD",
")#	c #CBD6FC",
"!#	c #B7C6F7",
"~#	c #8CA3EE",
"{#	c #748FE7",
"]#	c #7991DE",
"^#	c #D0851E",
"/#	c #EEA229",
"(#	c #DE8617",
"_#	c #7A91DD",
":#	c #8FA6F0",
"<#	c #BBCAF8",
"[#	c #CCD8FC",
"}#	c #D0DBFD",
"|#	c #CFDAFD",
"1#	c #C9D5FC",
"2#	c #AFC0F6",
"3#	c #809AEC",
"4#	c #7490E8",
"5#	c #7997F6",
"6#	c #7996F1",
"7#	c #859EED",
"8#	c #C3D0FA",
"9#	c #D1DCFD",
"0#	c #CBD7FC",
"a#	c #C9D6FC",
"b#	c #C8D5FB",
"c#	c #CAD6FC",
"d#	c #CFDAFC",
"e#	c #9BB0F2",
"f#	c #D78D1D",
"g#	c #F3AA2D",
"h#	c #EFA328",
"i#	c #D2801D",
"j#	c #A0B4F3",
"k#	c #CDD9FC",
"l#	c #C9D5FB",
"m#	c #C5D2FB",
"n#	c #88A0EE",
"o#	c #7793EE",
"p#	c #7C97EB",
"q#	c #C2D0FA",
"r#	c #C7D3FB",
"s#	c #C8D4FC",
"t#	c #90A7F0",
"u#	c #748FE8",
"v#	c #7A96EF",
"w#	c #DD951F",
"x#	c #F6B131",
"y#	c #E89822",
"z#	c #C77E25",
"A#	c #7A96EE",
"B#	c #738FE8",
"C#	c #93AAF0",
"D#	c #D1DBFD",
"E#	c #C8D5FC",
"F#	c #CDD8FC",
"G#	c #7993E4",
"H#	c #7A95EB",
"I#	c #728EE9",
"J#	c #A9BBF5",
"K#	c #D2DCFE",
"L#	c #C8D4FB",
"M#	c #C1CFFA",
"N#	c #7B94E9",
"O#	c #7894F1",
"P#	c #BE8B2C",
"Q#	c #E3A229",
"R#	c #F6B231",
"S#	c #DE8C1B",
"T#	c #7794F1",
"U#	c #7C96EA",
"V#	c #CCD7FC",
"W#	c #ABBDF5",
"X#	c #728EE8",
"Y#	c #7A96F1",
"Z#	c #7793EA",
"`#	c #7C96EB",
" $	c #C5D2FA",
".$	c #CAD5FB",
"+$	c #95ABF0",
"@$	c #CD9625",
"#$	c #F4B532",
"$$	c #CE851F",
"%$	c #7A94E6",
"&$	c #96ACF1",
"*$	c #CAD6FB",
"=$	c #7D97EC",
"-$	c #7792E9",
";$	c #7B96EB",
">$	c #8CA3EF",
",$	c #CAD5FC",
"'$	c #A8BBF4",
")$	c #CE981F",
"!$	c #E4A92E",
"~$	c #E29F27",
"{$	c #B88335",
"]$	c #7996EE",
"^$	c #C9D4FC",
"/$	c #7A95EA",
"($	c #738FE9",
"_$	c #94A9F0",
":$	c #B1C1F6",
"<$	c #7590E9",
"[$	c #7A95ED",
"}$	c #B88E31",
"|$	c #D19019",
"1$	c #7A94ED",
"2$	c #B0C1F6",
"3$	c #C9D6FB",
"4$	c #93A9F0",
"5$	c #7B95EB",
"6$	c #7C95EA",
"7$	c #90A6EF",
"8$	c #ACBEF5",
"9$	c #7995EE",
"0$	c #8FA6EF",
"a$	c #7B95EA",
"b$	c #7A96ED",
"c$	c #7691E9",
"d$	c #829BEC",
"e$	c #9DB1F2",
"f$	c #9CB0F2",
"g$	c #819AEC",
"h$	c #7692E9",
"i$	c #7994EB",
"j$	c #7390E9",
"k$	c #B5C5F7",
"l$	c #829BEB",
"m$	c #7B8FD0",
"n$	c #7B90D0",
"o$	c #B2C3F7",
"p$	c #89A1EE",
"q$	c #D3DDFD",
"r$	c #A3B6F4",
"s$	c #728EE7",
"t$	c #7997F4",
"u$	c #D2DDFD",
"v$	c #879FED",
"w$	c #7590EB",
"x$	c #738EE7",
"y$	c #9AAEF2",
"z$	c #CFDBFD",
"A$	c #B4C4F7",
"B$	c #7894ED",
"C$	c #7993E2",
"D$	c #7993E3",
"E$	c #7895EF",
"F$	c #CDD9FD",
"G$	c #CEDAFD",
"H$	c #7A96F2",
"I$	c #90A7EF",
"J$	c #A4B7F4",
"K$	c #7893EB",
"L$	c #7995EC",
"M$	c #7A93E6",
"N$	c #7994EE",
"O$	c #A0B3F3",
"P$	c #BDCCF9",
"Q$	c #8CA4EF",
"R$	c #7A8FD4",
"S$	c #7992E3",
"T$	c #7A96F4",
"U$	c #7A95E9",
"V$	c #95AAF0",
"W$	c #B1C2F6",
"X$	c #ADBEF5",
"Y$	c #9DB2F2",
"Z$	c #829CEC",
"`$	c #728DE7",
" %	c #7995EF",
".%	c #7993E9",
"+%	c #7F99EB",
"@%	c #A8BBF5",
"#%	c #A5B8F4",
"$%	c #7892E9",
"%%	c #7A97F4",
"&%	c #748FE9",
"*%	c #728EEA",
"=%	c #7592EF",
"-%	c #7992E4",
";%	c #7A91D7",
">%	c #7693F0",
",%	c #7390EC",
"'%	c #7795F2",
")%	c #7A96F3",
"!%	c #7A8FD2",
"~%	c #7B8FD4",
"{%	c #7A95EF",
"]%	c #7B92E0",
"                                                                                                ",
"                                                                                                ",
"                                                              . +                               ",
"                                                          @ # $ % & *                           ",
"                                                      = - ; > , ' ) ! ~                         ",
"                                                        { ] ^ / ( _ : <                         ",
"                                                        [ } | 1 2 3 4 5                         ",
"                                                      6 7 8 9 0 a b c d                         ",
"                                              e f g h i j k l m n o p q                         ",
"                                          r s t u v w x y z A B m C                             ",
"                                      D E F G H I J K L M N O P Q R                             ",
"                                  S T U V W X Y Z `  ...                                        ",
"                              +.@.#.$.%.&.*.=.-.;.>.,.                                          ",
"                          '.).!.~.{.].^./.(.*._.:.<.[.                                          ",
"                        }.|.1.2.3.4.5.6.7.8.9.0.X a.b.                                          ",
"                      c.d.e.f.g.h.i.j.k.6.l.m.n.o.p.q.                                          ",
"                    r.s.t.u.v.w.x.y.4.z.A.B.C.D.E.F.G.H.                                        ",
"                    I.J.K.L.M.f.N.O.P.Q.R.      S.T.U.V.                                        ",
"                  W.X.Y.Z.`. +.+f.++@+#+        $+%+&+*+=+                                      ",
"                  -+;+>+,+'+)+!+~+{+]+            ^+/+(+_+:+                                    ",
"                  <+[+}+|+1+2+3+M.4+5+6+          7+8+9+0+a+b+c+                                ",
"                    d+e+f+g+h+`.i+j+k+l+m+n+        o+p+q+r+s+t+u+v+w+x+                        ",
"                    y+z+A+B+C+'+D+E+F+G+H+I+J+K+        L+M+N+O+P+Q+R+S+                        ",
"                      T+U+V+W+X+Y+Z+`+ @N..@+@@@#@$@          %@&@*@=@-@                        ",
"                          ;@>@,@'@)@!@~@{@]@^@/@(@_@:@                                          ",
"                                <@[@}@|@1@1.2@y.3@4@5@                                          ",
"                                      6@7@8@9@0@a@b@#@                                          ",
"                c@d@e@f@                    g@h@i@j@k@                  l@m@n@o@                ",
"          p@q@r@s@t@u@v@w@x@                y@z@A@B@C@              x@D@E@t@F@t@G@w@H@          ",
"        I@J@K@L@M@N@O@P@Q@s@R@S@            T@U@V@W@            X@Y@Z@`@ #N@.#+#@###$#%#        ",
"      &#*#=#-#;#>#,#'#)#!#~#{#%#]#          ^#/#G+(#          _#I@{#:#<#[#,#}#|#1#2#3#4#5#      ",
"    6#Q@7#8#9#0#a#b#a#c#|#d#e###w@          f#g#h#i#          w@##j#}#k#l#1#b#1#c#}#m#n#4#6#    ",
"  l@o#p#q#>#r#1#c#1#1#a#s#c#}#t#u#v#        w#x#y#z#        A#B#C#D#l#E#1#1#c#1#1#, F#m#=#$#G#  ",
"  H#I#J#K#L#c#c#c#c#c#c#c#E#F#M#N#O#      P#Q#R#S#          T#U#8#V#1#c#c#c#c#c#c#c#, 9#W#X#Y#  ",
"q@Z#`# $0#c#.$c#c#c#c#c#c#c#b#|#+$u@n@    @$#$)@$$        %$t@&$|#L#c#c#c#c#c#c#c#*$1#V#;#=$-$D@",
";$Z@>$F#*$c#1#1#c#1#1#c#1#,$1#d#'$B#A#    )$!$~${$        ]$u#J#d#^$c#a#1#1#a#1#,$a#c#c#k#>$s@/$",
"`#($_$|#1#a#c#c#c#c#c#c#c#c#1#>#:$<$[$      }$|$          1$<$2$>#1#c#c#c#c#c#c#c#c#l#3$|#4$t@5$",
"6$($7$>#1#3$c#c#c#c#c#c#c#c#E#d#8$Z@9$                    ]$Z@W#d#E#c#c#c#c#c#c#c#c#,$l#>#0$s@a$",
"b$c$d$.$c#c#1#,$c#1#1#c#,$,$l#|#e$t@/$                    /$t@f$|#L#,$a#,$1#a#1#c#a#a#0#b#g$h$6#",
"  i$j$k$,#b#c#c#c#c#c#c#,$a#c#L#l$G@m$                    n$G@g$, )#1#c#c#c#c#c#c#c#L#}#o$B#v#  ",
"  /$s@p$>#c#1#c#c#c#c#c#l#, q$r$s$t$                        R@s$j#u$, 3$c#c#c#c#*$1#c#F#v$w$x@  ",
"    6#x$y$z$F#E#l#E#E#1#c#u$A$h$B$C$                        D$E$`@2$q$0#s#b#E#s#1#F$G$&$x$H$    ",
"    X@I@x$I$_ d#|#>#d#|#E#J$-$K$L$                            M$N$`@O$;#|#|#>#d#>#P$Q$x$w@R$    ",
"      S$T$B#U$V$'$W$X$Y$Z$`$B$ %                                .%D@s$+%.#@%X$#%I$$%u#%%C$      ",
"          6#T#t@($Z@&%*%=%Y@-%                                    ;%w@>%F@($Z@I#,%'%)%          ",
"              c@%#9$ %H#!%                                            ~%/$v#{%v#]%              ",
"                                                                                                ",
"                                                                                                "};
