/* XPM */
static char * tourbook48_32_xpm[] = {
"48 48 482 2",
"  	c None",
". 	c #7994E9",
"+ 	c #7A94E9",
"@ 	c #7B95E7",
"# 	c #7A95E8",
"$ 	c #7590E8",
"% 	c #7C96E8",
"& 	c #8BA2EB",
"* 	c #96ABEE",
"= 	c #99AEEE",
"- 	c #90A7ED",
"; 	c #819AE9",
"> 	c #7A95E9",
", 	c #738EE4",
"' 	c #758FE3",
") 	c #7F97E6",
"! 	c #90A6EA",
"~ 	c #A0B3F0",
"{ 	c #ADBEF3",
"] 	c #B0BFF4",
"^ 	c #A1B4F0",
"/ 	c #859DE9",
"( 	c #7994E6",
"_ 	c #A29CA4",
": 	c #A7959A",
"< 	c #9D91AE",
"[ 	c #9195CB",
"} 	c #8F9FE0",
"| 	c #9AACEC",
"1 	c #A5B6F1",
"2 	c #97ACEE",
"3 	c #7E98E6",
"4 	c #EC972B",
"5 	c #E98023",
"6 	c #E07930",
"7 	c #D07B4E",
"8 	c #B5827B",
"9 	c #9A8BB0",
"0 	c #8D9ADA",
"a 	c #8DA3EB",
"b 	c #8098E7",
"c 	c #F2AA2D",
"d 	c #F3891A",
"e 	c #F37812",
"f 	c #F37611",
"g 	c #F27412",
"h 	c #EC721B",
"i 	c #D9763B",
"j 	c #B08584",
"k 	c #8895D1",
"l 	c #7892E4",
"m 	c #F2BA35",
"n 	c #F2B532",
"o 	c #F29723",
"p 	c #F38015",
"q 	c #F47A13",
"r 	c #F47712",
"s 	c #F47511",
"t 	c #F47310",
"u 	c #F17010",
"v 	c #E57C2B",
"w 	c #B2998B",
"x 	c #7C93DB",
"y 	c #F2B834",
"z 	c #F2AD2E",
"A 	c #F3A429",
"B 	c #F39D25",
"C 	c #F39822",
"D 	c #F3901E",
"E 	c #F38519",
"F 	c #F47E15",
"G 	c #F47B14",
"H 	c #F47913",
"I 	c #F37410",
"J 	c #F37610",
"K 	c #F28B1B",
"L 	c #E4AA43",
"M 	c #F3B632",
"N 	c #F3AB2C",
"O 	c #F39E26",
"P 	c #F39521",
"Q 	c #F38E1E",
"R 	c #F38A1B",
"S 	c #F3871A",
"T 	c #F38419",
"U 	c #F38217",
"V 	c #F38418",
"W 	c #F38016",
"X 	c #F37D15",
"Y 	c #F47F15",
"Z 	c #F2B732",
"` 	c #F3AB2D",
" .	c #F3A026",
"..	c #F39722",
"+.	c #F49220",
"@.	c #F38F1E",
"#.	c #F48C1D",
"$.	c #F48A1C",
"%.	c #F4881B",
"&.	c #F3891B",
"*.	c #F3A228",
"=.	c #F2A62B",
"-.	c #F39F27",
";.	c #F39E25",
">.	c #F2A228",
",.	c #F3AF2F",
"'.	c #F3BA34",
").	c #F3AE2E",
"!.	c #F3A329",
"~.	c #F39C24",
"{.	c #F39723",
"].	c #F49522",
"^.	c #F49321",
"/.	c #F49020",
"(.	c #F48E1E",
"_.	c #F48B1C",
":.	c #F3B331",
"<.	c #F2BC36",
"[.	c #F3B330",
"}.	c #F3AA2C",
"|.	c #F39D26",
"1.	c #F49B25",
"2.	c #F49924",
"3.	c #F49723",
"4.	c #F49422",
"5.	c #F4901F",
"6.	c #F48D1E",
"7.	c #F3A328",
"8.	c #F3B934",
"9.	c #F3A82B",
"0.	c #F4A129",
"a.	c #F49F28",
"b.	c #F49D26",
"c.	c #F49824",
"d.	c #F49623",
"e.	c #F49421",
"f.	c #F49120",
"g.	c #F48F1F",
"h.	c #F3901F",
"i.	c #F3A62A",
"j.	c #F3B030",
"k.	c #F4AA2C",
"l.	c #F4A82C",
"m.	c #F4A52B",
"n.	c #F4A32A",
"o.	c #F4A128",
"p.	c #F49F27",
"q.	c #F49C26",
"r.	c #F49A25",
"s.	c #F49823",
"t.	c #F49521",
"u.	c #F39320",
"v.	c #F3911E",
"w.	c #F3BB35",
"x.	c #F3B231",
"y.	c #F3AE2F",
"z.	c #F4AC2E",
"A.	c #F4A92D",
"B.	c #F4A72C",
"C.	c #F4A229",
"D.	c #F4A028",
"E.	c #F49E27",
"F.	c #F39B24",
"G.	c #F39F26",
"H.	c #F39321",
"I.	c #F4911F",
"J.	c #F3BE37",
"K.	c #F3B633",
"L.	c #F4B231",
"M.	c #F4B031",
"N.	c #F4AD2F",
"O.	c #F4AB2E",
"P.	c #F4A62B",
"Q.	c #F4A42A",
"R.	c #F3A229",
"S.	c #F3AC2D",
"T.	c #F39A23",
"U.	c #F3921F",
"V.	c #F3B130",
"W.	c #F2C43A",
"X.	c #F3BC36",
"Y.	c #F4B333",
"Z.	c #F4B131",
"`.	c #F4AF30",
" +	c #F4AA2E",
".+	c #F3A42A",
"++	c #F3AA2D",
"@+	c #F4B431",
"#+	c #F2BD36",
"$+	c #F39421",
"%+	c #F3A92C",
"&+	c #F2C33A",
"*+	c #F3B834",
"=+	c #F4B534",
"-+	c #F4B332",
";+	c #F4AE30",
">+	c #F2B02F",
",+	c #F3A128",
"'+	c #F1BA34",
")+	c #F3BD37",
"!+	c #F4B935",
"~+	c #F4B734",
"{+	c #F4B533",
"]+	c #F4B232",
"^+	c #F4AE2F",
"/+	c #F3AD2E",
"(+	c #F1BE36",
"_+	c #F39622",
":+	c #F39923",
"<+	c #F2AF2F",
"[+	c #F3C53A",
"}+	c #F3BF39",
"|+	c #F3BB36",
"1+	c #F4B835",
"2+	c #F4B634",
"3+	c #F4B433",
"4+	c #F3B230",
"5+	c #F2B231",
"6+	c #F39621",
"7+	c #F2AE2E",
"8+	c #F2C139",
"9+	c #F4BA36",
"0+	c #F2BB36",
"a+	c #F49A23",
"b+	c #F2AB2C",
"c+	c #F2B230",
"d+	c #F1B733",
"e+	c #F3BF38",
"f+	c #F4B030",
"g+	c #F2BA34",
"h+	c #F2A82B",
"i+	c #F39420",
"j+	c #F39A24",
"k+	c #F2BD37",
"l+	c #F4BB36",
"m+	c #F4B934",
"n+	c #F4AB2D",
"o+	c #F2B733",
"p+	c #F3BE35",
"q+	c #F2B432",
"r+	c #F3A529",
"s+	c #F39520",
"t+	c #F3911F",
"u+	c #F2BB35",
"v+	c #F3C33A",
"w+	c #F3C038",
"x+	c #F4A82B",
"y+	c #F3A72A",
"z+	c #F2B431",
"A+	c #F2B030",
"B+	c #F2AD2D",
"C+	c #F3B12F",
"D+	c #F3BC35",
"E+	c #F3C239",
"F+	c #F4B130",
"G+	c #F4AC2F",
"H+	c #F3A52A",
"I+	c #F2C339",
"J+	c #F2BF38",
"K+	c #F3B733",
"L+	c #F4A92C",
"M+	c #F2C239",
"N+	c #F2BE37",
"O+	c #F3BA35",
"P+	c #F3B02F",
"Q+	c #F4A82D",
"R+	c #F3A72B",
"S+	c #F3B432",
"T+	c #F3C43A",
"U+	c #F3A62B",
"V+	c #F2B934",
"W+	c #7791E5",
"X+	c #728EE6",
"Y+	c #6F8CE8",
"Z+	c #6E8BE9",
"`+	c #6D8BE9",
" @	c #F3A92D",
".@	c #F2BE36",
"+@	c #748EE6",
"@@	c #708CE7",
"#@	c #6C8AE9",
"$@	c #6E8CE8",
"%@	c #728DE6",
"&@	c #728EE7",
"*@	c #708DE9",
"=@	c #7793EC",
"-@	c #829CEF",
";@	c #8BA3F0",
">@	c #8FA6F0",
",@	c #8CA4F0",
"'@	c #849DEF",
")@	c #7894EC",
"!@	c #718DE7",
"~@	c #F3AD2F",
"{@	c #738FE6",
"]@	c #708DE8",
"^@	c #7591EB",
"/@	c #7F9AEE",
"(@	c #88A1F0",
"_@	c #8AA2F0",
":@	c #839CEF",
"<@	c #718EE9",
"[@	c #738FEA",
"}@	c #849EEF",
"|@	c #9BB0F3",
"1@	c #ABBDF6",
"2@	c #B4C4F8",
"3@	c #B7C6F8",
"4@	c #B4C5F8",
"5@	c #ACBEF6",
"6@	c #9DB2F4",
"7@	c #869FEF",
"8@	c #7490EB",
"9@	c #708DE7",
"0@	c #F4AF2F",
"a@	c #708EEA",
"b@	c #95ABF2",
"c@	c #A6B9F6",
"d@	c #B0C1F7",
"e@	c #B3C4F7",
"f@	c #B2C2F7",
"g@	c #AABCF6",
"h@	c #7490EA",
"i@	c #88A1EF",
"j@	c #A6B9F5",
"k@	c #B9C8F9",
"l@	c #C2CFFA",
"m@	c #C5D2FB",
"n@	c #C6D2FC",
"o@	c #C2CFFB",
"p@	c #BAC9F9",
"q@	c #A8BBF6",
"r@	c #7390EA",
"s@	c #718DE6",
"t@	c #F2C038",
"u@	c #F3B533",
"v@	c #F3B131",
"w@	c #F3BD36",
"x@	c #718DE9",
"y@	c #859EEE",
"z@	c #A2B6F4",
"A@	c #B7C7F8",
"B@	c #C1CEFA",
"C@	c #C2D0FB",
"D@	c #BBC9F9",
"E@	c #8EA6F0",
"F@	c #708DE6",
"G@	c #6E8BE8",
"H@	c #839CEE",
"I@	c #A5B8F5",
"J@	c #BCCBFA",
"K@	c #C6D2FB",
"L@	c #C8D5FC",
"M@	c #C9D5FC",
"N@	c #CAD6FC",
"O@	c #C9D6FC",
"P@	c #C6D3FB",
"Q@	c #BDCCFA",
"R@	c #A9BBF6",
"S@	c #859EEF",
"T@	c #6F8CE9",
"U@	c #7E99ED",
"V@	c #C4D1FB",
"W@	c #C8D4FC",
"X@	c #BFCDFA",
"Y@	c #89A1EF",
"Z@	c #708CE5",
"`@	c #6F8BE6",
" #	c #99AFF3",
".#	c #B8C8F9",
"+#	c #CAD7FC",
"@#	c #9CB1F3",
"##	c #7793EB",
"$#	c #6E8BE6",
"%#	c #708BE6",
"&#	c #93A9F1",
"*#	c #B6C6F8",
"=#	c #BCCBF9",
"-#	c #9FB4F4",
";#	c #7B96EC",
">#	c #6D8AE7",
",#	c #6F8BE7",
"'#	c #7E98ED",
")#	c #CBD6FD",
"!#	c #CBD7FD",
"~#	c #CBD7FC",
"{#	c #C2D0FA",
"]#	c #829CEE",
"^#	c #6F8BE8",
"/#	c #6E8BE7",
"(#	c #7C97EC",
"_#	c #A3B7F4",
":#	c #C0CEFA",
"<#	c #C3D0FB",
"[#	c #AFC0F7",
"}#	c #6F8BE9",
"|#	c #879FEF",
"1#	c #B1C2F7",
"2#	c #B3C4F8",
"3#	c #F3B935",
"4#	c #F3C137",
"5#	c #849DEE",
"6#	c #ADBEF6",
"7#	c #C3D1FB",
"8#	c #B7C6F9",
"9#	c #92A9F1",
"0#	c #718EEA",
"a#	c #89A2F0",
"b#	c #B6C6F9",
"c#	c #8EA6F1",
"d#	c #6F8DEA",
"e#	c #F3C53B",
"f#	c #6D8AE9",
"g#	c #87A0EF",
"h#	c #CAD6FD",
"i#	c #C7D4FC",
"j#	c #96ACF2",
"k#	c #6E8CE7",
"l#	c #6E8CE9",
"m#	c #AEBFF6",
"n#	c #C6D3FC",
"o#	c #B8C7F9",
"p#	c #93AAF1",
"q#	c #708DEA",
"r#	c #7F99ED",
"s#	c #C1CFFA",
"t#	c #B1C1F8",
"u#	c #738EE6",
"v#	c #CBD6FC",
"w#	c #BBCAF9",
"x#	c #7893EC",
"y#	c #7491EB",
"z#	c #95ACF2",
"A#	c #C7D4FB",
"B#	c #A2B6F5",
"C#	c #7D97ED",
"D#	c #A7BAF5",
"E#	c #BECCFA",
"F#	c #C7D3FB",
"G#	c #708EE9",
"H#	c #7691E5",
"I#	c #819BEE",
"J#	c #BDCBF9",
"K#	c #728FEA",
"L#	c #748FE6",
"M#	c #708CE6",
"N#	c #728FEB",
"O#	c #738FEB",
"P#	c #6F8CE6",
"Q#	c #89A1F0",
"R#	c #B9C9F9",
"S#	c #BDCBFA",
"T#	c #AEBFF7",
"U#	c #7692EC",
"V#	c #6A88E7",
"W#	c #718FEB",
"X#	c #9DB2F3",
"Y#	c #B5C5F8",
"Z#	c #ADBFF7",
"`#	c #9EB3F4",
" $	c #88A0EF",
".$	c #7390EB",
"+$	c #718EEB",
"@$	c #849EEE",
"#$	c #AFC1F7",
"$$	c #A1B5F4",
"%$	c #7591EC",
"&$	c #6B88E8",
"*$	c #6F8CEA",
"=$	c #7A95ED",
"-$	c #90A7F1",
";$	c #87A0F0",
">$	c #7B95ED",
",$	c #8FA6F1",
"'$	c #91A8F1",
")$	c #7C97ED",
"!$	c #718FEA",
"~$	c #728DE5",
"{$	c #6F8CE7",
"]$	c #718DE5",
"^$	c #7490E5",
"/$	c #7691E4",
"                                                                                                ",
"                                                            . + @ #                             ",
"                                                        $ % & * = - ; >                         ",
"                                                      , ' ) ! ~ { ] ^ / (                       ",
"                                                        _ : < [ } | 1 2 3                       ",
"                                                        4 5 6 7 8 9 0 a b                       ",
"                                                      c d e f g h i j k l                       ",
"                                                  m n o p q r s t u v w x                       ",
"                                          y z A B C D E F G H r I J K L                         ",
"                                      M N O P Q R S T U V V W X Y R A                           ",
"                                  Z `  ...+.@.#.$.%.&.P *.=.-.;.>.,.                            ",
"                              '.).!.~.{.].^./.(.#._...:.                                        ",
"                          <.[.}.*.|.1.2.3.4.+.5.6.(.7.                                          ",
"                        8.,.9.A 0.a.b.1.c.d.e.f.g.h.i.                                          ",
"                      '.j.k.l.m.n.o.p.q.r.s.t.u.f.v.*.                                          ",
"                    w.x.y.z.A.B.m.C.D.E.1.F.G.B H.I.B y                                         ",
"                  J.K.L.M.N.O.A.P.Q.C.D.R.S.8.:.T.U...V.                                        ",
"                W.X.K.Y.Z.`.N. +l.i..+++@+    #+A $+$+%+                                        ",
"                &+X.*+=+-+Z.;+z.}.%+,.w.        >+F.$+,+'+                                      ",
"                W.)+!+~+{+]+M.^+/+:.(+          #+i._+:+<+                                      ",
"                [+}+|+1+2+3+Z.,.4+J.              5+O 6+O 7+                                    ",
"                  8+X.9+1+=+Y.Z.j.:.K.0+            }.a+t.:+*.b+c+d+                            ",
"                  W.e+|+9+~+{+-+f+y./+y.:.g+          h+B ..i+i+_+j+O b+k+                      ",
"                    &+e+l+m+2+3+]+`.N.n+++` j.o+      p+q+z r+|.:+s+t+G.u+                      ",
"                      v+w+X.*+K.x.Z.`.N. +x+y+9./+z+#+        g+M A+B+C+D+                      ",
"                          E+w+|+K.:.F+N.G+A.B.H+A H+j.                                          ",
"                              I+J+w.K+:.^+` L+B.Q.!.,.                                          ",
"                                    M+N+O+K.P+Q+P.R+S+                                          ",
"                                          T+D+/+U+++V+                                          ",
"          W+X+Y+Z+`+Z+Y+X+W+                w./+ @,..@              +@@@`+#@#@$@%@W+            ",
"        &@*@=@-@;@>@,@'@)@*@!@              *+~@z.:.            {@]@^@/@(@,@_@:@)@<@!@          ",
"      !@[@}@|@1@2@3@4@5@6@7@8@9@          E+K.0@,.*+          X+a@/@b@c@d@e@f@g@|@7@h@9@        ",
"    %@[@i@j@k@l@m@n@m@o@p@q@,@r@s@        t@u@f+v@w@        X+x@y@z@A@B@m@n@m@C@D@1@E@^@F@      ",
"    G@H@I@J@K@L@M@N@O@M@P@Q@R@S@T@        J.u@L.M t@        G@U@z@p@V@W@M@N@O@M@P@X@1@Y@*@Z@    ",
"  `@^@ #.#m@M@N@N@+#N@N@M@P@D@@###$#      )+2+3+8.        %#[@&#*#V@M@N@N@N@N@N@M@P@=#-#;#>#    ",
"  ,#'#q@B@L@N@)#!#~#~#~#N@L@{#1@]#^#    W.)+*+2+#+        /#(#_#:#W@N@)#!#~#~#~#N@M@<#[#i@G@    ",
"  }#|#1#V@O@N@!#!#~#~#~#N@O@m@2#;@*@    W.J.3#8.4#        G@5#6#7#M@N@!#!#~#~#~#N@N@P@8#9#0#    ",
"  Z+a#2@m@N@N@!#!#!#!#!#!#O@P@b#c#d#    e#E+J.J.&+        f#g#d@m@O@N@!#!#!#!#!#h#N@i#k@j#0#k#  ",
"  T@g#f@V@M@N@!#!#!#!#!#h#O@m@2@;@*@        W.M+          l#S@m#V@M@N@!#!#!#!#!#h#N@n#o#p#q#X+  ",
"  9@r#g@s#L@N@!#!#!#!#!#h#M@C@5@H@]@                      9@'#j@:#L@N@!#!#!#!#!#N@M@V@t#_@]@    ",
"  u#^@ #k@P@M@N@v#!#~#N@M@P@w#@#x#&@                      {@y#z#o#m@M@N@N@!#~#N@O@A#Q@B#C#!@    ",
"    Y+S@D#E#P@M@O@N@N@M@F#X@1@g#G#H#                        Y+I#j@J#K@L@O@N@N@M@A#B@[#,@K#L#    ",
"    M#N#_@q@D@C@K@P@K@<#w#g@E@O#P#                          F@q#Q#D#R#C@K@P@P@V@S#T#9#U#/#      ",
"      V#W#7@X#6#Y#A@Y#Z#`# $.$V#                              V#+$@$|@5@Y#A@*##$$$,@%$&$        ",
"        >#*$=$7@-$p#-$;$>$*@>#                                  >#T@x#S@,$p#'$Q#)$0#>#          ",
"            /#G@x@!$<@Y+,#~$                                        {$G@*@!$0#Y+/#]$            ",
"                  ^$/$                                                    ^$H#                  ",
"                                                                                                "};
