/* XPM */
static char * tourbook48_32_xpm[] = {
"48 48 655 2",
"  	c None",
". 	c #2172DB",
"+ 	c #2B79DF",
"@ 	c #337FE1",
"# 	c #3B84E6",
"$ 	c #428AE7",
"% 	c #488DE8",
"& 	c #4B90EA",
"* 	c #4E91EB",
"= 	c #1A6EDA",
"- 	c #2B7DE6",
"; 	c #4591F3",
"> 	c #539AF8",
", 	c #5CA0F8",
"' 	c #65A5F9",
") 	c #6FAAF9",
"! 	c #78B0F9",
"~ 	c #81B5FA",
"{ 	c #87B9F9",
"] 	c #71A9F3",
"^ 	c #5D9CF0",
"/ 	c #1167D6",
"( 	c #267CEC",
"_ 	c #398BF7",
": 	c #4290F7",
"< 	c #4B96F7",
"[ 	c #559BF8",
"} 	c #5EA1F8",
"| 	c #67A6F9",
"1 	c #70ABF9",
"2 	c #7AB1F9",
"3 	c #83B6FA",
"4 	c #8CBCFA",
"5 	c #95C1FB",
"6 	c #9FC6FB",
"7 	c #88B8F8",
"8 	c #63A1F5",
"9 	c #0C61D1",
"0 	c #1369DA",
"a 	c #176CDA",
"b 	c #1D71DD",
"c 	c #2576DF",
"d 	c #3986EA",
"e 	c #5097F4",
"f 	c #60A2F8",
"g 	c #69A7F9",
"h 	c #72ACF9",
"i 	c #7BB2FA",
"j 	c #85B7FA",
"k 	c #8EBDFA",
"l 	c #97C2FB",
"m 	c #A0C7FB",
"n 	c #AACDFC",
"o 	c #90BCF9",
"p 	c #2A79DE",
"q 	c #3680E4",
"r 	c #438CE9",
"s 	c #63A0F3",
"t 	c #7DB3FA",
"u 	c #86B8FA",
"v 	c #90BEFA",
"w 	c #99C3FB",
"x 	c #A2C8FB",
"y 	c #ABCEFC",
"z 	c #B5D3FC",
"A 	c #73ACF8",
"B 	c #C33802",
"C 	c #C23802",
"D 	c #4B90E9",
"E 	c #78AEF6",
"F 	c #91BFFB",
"G 	c #9BC4FB",
"H 	c #A4C9FB",
"I 	c #ADCFFC",
"J 	c #B6D4FC",
"K 	c #8EBDF9",
"L 	c #C84402",
"M 	c #D14803",
"N 	c #DE4D05",
"O 	c #E95104",
"P 	c #F15305",
"Q 	c #F85405",
"R 	c #FE5506",
"S 	c #FD5306",
"T 	c #F64E05",
"U 	c #EE4904",
"V 	c #E54603",
"W 	c #D84002",
"X 	c #CB3C01",
"Y 	c #5D9CEF",
"Z 	c #8FBCF9",
"` 	c #A5CAFB",
" .	c #AFD0FC",
"..	c #B8D5FC",
"+.	c #9DC6FB",
"@.	c #D35103",
"#.	c #E55C05",
"$.	c #FA6607",
"%.	c #FF6708",
"&.	c #FF6607",
"*.	c #FF6407",
"=.	c #FF6207",
"-.	c #FF6007",
";.	c #FF5E07",
">.	c #FF5C07",
",.	c #FF5A06",
"'.	c #FF5806",
").	c #FF5606",
"!.	c #FF5406",
"~.	c #FF5206",
"{.	c #F54C04",
"].	c #DA4202",
"^.	c #C83B02",
"/.	c #5899EE",
"(.	c #81B4F6",
"_.	c #B0D1FC",
":.	c #BAD6FC",
"<.	c #A6CBFC",
"[.	c #D15503",
"}.	c #ED6A06",
"|.	c #FF7609",
"1.	c #FF7409",
"2.	c #FF7209",
"3.	c #FF7008",
"4.	c #FF6E08",
"5.	c #FF6C08",
"6.	c #FF6A08",
"7.	c #FF6808",
"8.	c #FF6608",
"9.	c #FF6107",
"0.	c #FF5B06",
"a.	c #FF5906",
"b.	c #FF5706",
"c.	c #FD5406",
"d.	c #DE4603",
"e.	c #C63C02",
"f.	c #7EB2F7",
"g.	c #BBD7FC",
"h.	c #91BEFB",
"i.	c #CF5802",
"j.	c #E96F07",
"k.	c #FF820A",
"l.	c #FF800A",
"m.	c #FF7E0A",
"n.	c #FF7C0A",
"o.	c #FF7B09",
"p.	c #FF7809",
"q.	c #FF7309",
"r.	c #FF7109",
"s.	c #FF6F08",
"t.	c #FF6D08",
"u.	c #FF6B08",
"v.	c #FF6908",
"w.	c #FF6507",
"x.	c #FF6307",
"y.	c #FF5F07",
"z.	c #FF5D07",
"A.	c #FB5706",
"B.	c #D64602",
"C.	c #7BB1F8",
"D.	c #7EB3FA",
"E.	c #D46103",
"F.	c #F68409",
"G.	c #FF8D0B",
"H.	c #FF8B0B",
"I.	c #FF890B",
"J.	c #FF870B",
"K.	c #FF850A",
"L.	c #FF830A",
"M.	c #FF810A",
"N.	c #FF7F0A",
"O.	c #FF7D0A",
"P.	c #FF7909",
"Q.	c #FF7709",
"R.	c #FF7509",
"S.	c #E65104",
"T.	c #71ABF9",
"U.	c #DA6B05",
"V.	c #FB920E",
"W.	c #FF960D",
"X.	c #FF950C",
"Y.	c #FF930C",
"Z.	c #FF910C",
"`.	c #FF8F0B",
" +	c #FF880B",
".+	c #FF850B",
"++	c #FF7A09",
"@+	c #EF5C06",
"#+	c #CB4602",
"$+	c #DA6E08",
"%+	c #FE9916",
"&+	c #FF9915",
"*+	c #FF9814",
"=+	c #FF9812",
"-+	c #FF9711",
";+	c #FF960F",
">+	c #FF960E",
",+	c #FF940C",
"'+	c #FF920C",
")+	c #FF900B",
"!+	c #FF8E0B",
"~+	c #FF8C0B",
"{+	c #FF8A0B",
"]+	c #FF860B",
"^+	c #FF840A",
"/+	c #F56407",
"(+	c #CC4B02",
"_+	c #DA6F09",
":+	c #FB981C",
"<+	c #FF9C1D",
"[+	c #FF9C1B",
"}+	c #FF9B1A",
"|+	c #FF9A18",
"1+	c #FF9A17",
"2+	c #FF9914",
"3+	c #FF9813",
"4+	c #FF9710",
"5+	c #FF950D",
"6+	c #FF900C",
"7+	c #FF7B0A",
"8+	c #EC6506",
"9+	c #DA7109",
"0+	c #F7971F",
"a+	c #FFA024",
"b+	c #FF9F23",
"c+	c #FF9E21",
"d+	c #FF9E20",
"e+	c #FF9D1E",
"f+	c #FF9C1C",
"g+	c #FF9B19",
"h+	c #FF9916",
"i+	c #FF9712",
"j+	c #E46305",
"k+	c #EB891A",
"l+	c #FFA32C",
"m+	c #FFA22A",
"n+	c #FFA229",
"o+	c #FFA127",
"p+	c #FFA026",
"q+	c #FF9F22",
"r+	c #FF9D1F",
"s+	c #FF9B1B",
"t+	c #FF9A16",
"u+	c #D45A03",
"v+	c #DE7B10",
"w+	c #FEA532",
"x+	c #FFA532",
"y+	c #FFA530",
"z+	c #FFA42F",
"A+	c #FFA42D",
"B+	c #FFA22B",
"C+	c #FFA128",
"D+	c #FFA126",
"E+	c #FFA025",
"F+	c #FE9D21",
"G+	c #F6921A",
"H+	c #E98212",
"I+	c #E1790E",
"J+	c #DC720A",
"K+	c #DE720A",
"L+	c #E2770B",
"M+	c #ED840F",
"N+	c #F99213",
"O+	c #F37B09",
"P+	c #F19529",
"Q+	c #FFA939",
"R+	c #FFA838",
"S+	c #FFA836",
"T+	c #FFA735",
"U+	c #FFA634",
"V+	c #FFA632",
"W+	c #FFA531",
"X+	c #FFA52F",
"Y+	c #FFA42E",
"Z+	c #FFA32B",
"`+	c #F59420",
" @	c #DB720B",
".@	c #DE730A",
"+@	c #FC9718",
"@@	c #DA6705",
"#@	c #E28416",
"$@	c #FFAC41",
"%@	c #FFAB3F",
"&@	c #FFAB3E",
"*@	c #FFAA3D",
"=@	c #FFAA3B",
"-@	c #FFA93A",
";@	c #FFA837",
">@	c #FFA736",
",@	c #FFA734",
"'@	c #FFA633",
")@	c #FEA430",
"!@	c #E88518",
"~@	c #D86E08",
"{@	c #F08B16",
"]@	c #F78D0A",
"^@	c #ED9427",
"/@	c #FFAF47",
"(@	c #FFAE46",
"_@	c #FFAE44",
":@	c #FFAD43",
"<@	c #FFAC40",
"[@	c #FFAA3C",
"}@	c #E17E12",
"|@	c #EB8615",
"1@	c #D96B06",
"2@	c #FBAC46",
"3@	c #FFB14D",
"4@	c #FFB14C",
"5@	c #FFB04A",
"6@	c #FFB049",
"7@	c #FFAE45",
"8@	c #FFAD42",
"9@	c #EA8E21",
"0@	c #DB710A",
"a@	c #F99922",
"b@	c #E47A0C",
"c@	c #E88E1F",
"d@	c #FFB555",
"e@	c #FFB453",
"f@	c #FFB452",
"g@	c #FFB350",
"h@	c #FFB24F",
"i@	c #FFB24D",
"j@	c #FFB04B",
"k@	c #FFAF48",
"l@	c #F7A339",
"m@	c #DF7810",
"n@	c #F7931A",
"o@	c #ED992B",
"p@	c #FFB75B",
"q@	c #FFB759",
"r@	c #FFB658",
"s@	c #FFB656",
"t@	c #FFB454",
"u@	c #FFB351",
"v@	c #FFB34F",
"w@	c #FFB24E",
"x@	c #E58817",
"y@	c #EC8D1F",
"z@	c #DA700A",
"A@	c #F1A037",
"B@	c #FFBA61",
"C@	c #FFB95F",
"D@	c #FFB95E",
"E@	c #FFB85D",
"F@	c #FFB85B",
"G@	c #FFB75A",
"H@	c #FFB657",
"I@	c #FFB556",
"J@	c #FCB04D",
"K@	c #E68419",
"L@	c #FFA32D",
"M@	c #DE780E",
"N@	c #F6AA49",
"O@	c #FFBD67",
"P@	c #FFBC66",
"Q@	c #FFBC64",
"R@	c #FFBB63",
"S@	c #FFBA60",
"T@	c #FFB95D",
"U@	c #FFB85C",
"V@	c #F5A63F",
"W@	c #E28215",
"X@	c #E37E14",
"Y@	c #F9B45A",
"Z@	c #FFC06D",
"`@	c #FFBF6C",
" #	c #FFBE6A",
".#	c #FFBE69",
"+#	c #FFBD68",
"@#	c #FFBC65",
"##	c #FFBB62",
"$#	c #EF9B2F",
"%#	c #DE7F10",
"&#	c #FDAB40",
"*#	c #E68519",
"=#	c #FCBD6B",
"-#	c #FFC273",
";#	c #FFC272",
">#	c #FFC170",
",#	c #FFC06F",
"'#	c #FFBE6B",
")#	c #EC972B",
"!#	c #F7A43A",
"~#	c #E88A1D",
"{#	c #FBBC69",
"]#	c #FFC579",
"^#	c #FFC478",
"/#	c #FFC477",
"(#	c #FFC375",
"_#	c #FFC274",
":#	c #FFC171",
"<#	c #FFC16F",
"[#	c #FFC06E",
"}#	c #EE9D32",
"|#	c #FCAD48",
"1#	c #FFAD44",
"2#	c #E98B1E",
"3#	c #F8B660",
"4#	c #FFC880",
"5#	c #FFC77E",
"6#	c #FFC67D",
"7#	c #FFC67B",
"8#	c #FFC57A",
"9#	c #FFC376",
"0#	c #FFC374",
"a#	c #F4A948",
"b#	c #E78C1A",
"c#	c #FFB14B",
"d#	c #E88C1F",
"e#	c #F5AF52",
"f#	c #FFCA86",
"g#	c #FFCA84",
"h#	c #FFC983",
"i#	c #FFC881",
"j#	c #FFC77F",
"k#	c #FFC77D",
"l#	c #FFC67C",
"m#	c #FBBB67",
"n#	c #EB9526",
"o#	c #FFB554",
"p#	c #E78E1D",
"q#	c #F2A846",
"r#	c #FFCD8C",
"s#	c #FFCC8A",
"t#	c #FFCC89",
"u#	c #FFCB88",
"v#	c #FFCA85",
"w#	c #FFC982",
"x#	c #E9911F",
"y#	c #EF9D31",
"z#	c #E78B1B",
"A#	c #F0A037",
"B#	c #FFD092",
"C#	c #FFCF90",
"D#	c #FFCE8F",
"E#	c #FFCE8E",
"F#	c #FFCD8B",
"G#	c #FFCB87",
"H#	c #F4AC50",
"I#	c #E88F1A",
"J#	c #FDBA62",
"K#	c #FCB354",
"L#	c #ED9523",
"M#	c #FECF91",
"N#	c #FFD297",
"O#	c #FFD195",
"P#	c #FFD094",
"Q#	c #FFCF91",
"R#	c #FFCF8F",
"S#	c #FFCD8D",
"T#	c #EE9C32",
"U#	c #F5AD4D",
"V#	c #FFBB64",
"W#	c #F2A23A",
"X#	c #F8B867",
"Y#	c #FFD49D",
"Z#	c #FFD49B",
"`#	c #FFD39A",
" $	c #FFD298",
".$	c #FFD196",
"+$	c #FFD194",
"@$	c #FFD093",
"#$	c #F2CA97",
"$$	c #F8C684",
"%$	c #ED9522",
"&$	c #EE9C31",
"*$	c #FFBF6D",
"=$	c #FFBF6B",
"-$	c #EB9628",
";$	c #9DB0CC",
">$	c #CAC6C1",
",$	c #FFD6A1",
"'$	c #FFD6A0",
")$	c #FFD59F",
"!$	c #FFD59D",
"~$	c #FFD49C",
"{$	c #E5CAA8",
"]$	c #AEBBCE",
"^$	c #A8C0E1",
"/$	c #B2CDF3",
"($	c #AEC9EE",
"_$	c #ADBCD2",
":$	c #AF9E88",
"<$	c #EFA139",
"[$	c #FEC47A",
"}$	c #FEBD6A",
"|$	c #E78E1A",
"1$	c #73A9F7",
"2$	c #E2EEFF",
"3$	c #B6CFF2",
"4$	c #C8C6C4",
"5$	c #FFD8A6",
"6$	c #FED8A5",
"7$	c #C5C3C0",
"8$	c #A6BEDF",
"9$	c #B5D0F6",
"0$	c #E0ECFF",
"a$	c #E3EEFF",
"b$	c #C3D9F9",
"c$	c #91A9CC",
"d$	c #C29458",
"e$	c #EB9523",
"f$	c #F9B662",
"g$	c #F0A23C",
"h$	c #91BDF6",
"i$	c #D3E5FE",
"j$	c #B4CFF6",
"k$	c #9CBDEA",
"l$	c #9DBDE9",
"m$	c #C2DAFB",
"n$	c #D4E5FE",
"o$	c #D4E6FE",
"p$	c #D3E6FE",
"q$	c #9FBEEA",
"r$	c #9DA1A9",
"s$	c #EEA240",
"t$	c #EF9B2D",
"u$	c #EC9421",
"v$	c #EF9C32",
"w$	c #F1A33F",
"x$	c #F4AD4F",
"y$	c #FECA86",
"z$	c #FFCE8D",
"A$	c #FDC173",
"B$	c #E88F1C",
"C$	c #B0CFFB",
"D$	c #C4DCFE",
"E$	c #C5DCFE",
"F$	c #C5DDFE",
"G$	c #B8D4FB",
"H$	c #8CAEDC",
"I$	c #D5C4AE",
"J$	c #FDCD8F",
"K$	c #FED093",
"L$	c #FFD399",
"M$	c #FFD296",
"N$	c #FFC984",
"O$	c #F1A13A",
"P$	c #5090E4",
"Q$	c #B4D3FD",
"R$	c #B5D3FD",
"S$	c #B5D4FD",
"T$	c #B6D4FD",
"U$	c #95BAEC",
"V$	c #9AAEC9",
"W$	c #F8D3A3",
"X$	c #FFD59E",
"Y$	c #FABE6F",
"Z$	c #5B96E5",
"`$	c #A5CAFD",
" %	c #A6CAFD",
".%	c #A6CBFD",
"+%	c #A7CBFD",
"@%	c #81A7DA",
"#%	c #C2BDB6",
"$%	c #FED7A4",
"%%	c #FFD7A2",
"&%	c #FDC985",
"*%	c #EC9626",
"=%	c #5C97E4",
"-%	c #96C1FC",
";%	c #97C2FD",
">%	c #98C2FD",
",%	c #98C3FD",
"'%	c #99C3FD",
")%	c #87B4F2",
"!%	c #79A3DC",
"~%	c #8AA7CE",
"{%	c #A2AEBF",
"]%	c #C2BBB3",
"^%	c #C5BCB1",
"/%	c #D3C1AA",
"(%	c #E5C9A5",
"_%	c #EE9B30",
":%	c #649CE9",
"<%	c #87B9FC",
"[%	c #88B9FC",
"}%	c #89B9FC",
"|%	c #89BAFC",
"1%	c #8ABAFC",
"2%	c #87B8FA",
"3%	c #7CAFF5",
"4%	c #7BAEF4",
"5%	c #74A9F1",
"6%	c #70A3E8",
"7%	c #7298CD",
"8%	c #EFCFA5",
"9%	c #FED49D",
"0%	c #F1A23A",
"a%	c #6DA6F5",
"b%	c #78B0FC",
"c%	c #79B0FC",
"d%	c #7AB1FC",
"e%	c #7BB1FC",
"f%	c #7BB2FC",
"g%	c #77AFFA",
"h%	c #91A4BD",
"i%	c #FDD299",
"j%	c #EF9D32",
"k%	c #2B70C9",
"l%	c #69A7FB",
"m%	c #6AA7FB",
"n%	c #6AA8FB",
"o%	c #6BA8FB",
"p%	c #6CA8FB",
"q%	c #6CA9FB",
"r%	c #619EF0",
"s%	c #ABA7A1",
"t%	c #EF9929",
"u%	c #2B6ECA",
"v%	c #5A9EFB",
"w%	c #5B9EFB",
"x%	c #5B9FFB",
"y%	c #5C9FFB",
"z%	c #5DA0FB",
"A%	c #517DBA",
"B%	c #1C63BE",
"C%	c #4A94F9",
"D%	c #4B95FA",
"E%	c #4B96FA",
"F%	c #4C96FA",
"G%	c #4D96FA",
"H%	c #4D97FA",
"I%	c #4E97FA",
"J%	c #478DEA",
"K%	c #4A73A8",
"L%	c #2B74D5",
"M%	c #4290FA",
"N%	c #428FF9",
"O%	c #337EE3",
"P%	c #256ECE",
"Q%	c #3077D7",
"R%	c #3D8AF2",
"S%	c #3E7CD0",
"T%	c #4977B5",
"U%	c #50719F",
"V%	c #1F66C5",
"W%	c #266ECE",
"X%	c #2871D2",
"Y%	c #236BCA",
"Z%	c #185EB9",
"`%	c #175EBA",
" &	c #2A66B5",
".&	c #4171B0",
"+&	c #3E74BC",
"@&	c #3B74C1",
"#&	c #3F76BD",
"$&	c #4477BB",
"%&	c #4877B7",
"&&	c #4A76B3",
"*&	c #4D75AC",
"=&	c #5D7595",
"-&	c #737374",
"                                                          . + @ # $ % & *                       ",
"                                                      = - ; > , ' ) ! ~ { ] ^                   ",
"                                                  / ( _ : < [ } | 1 2 3 4 5 6 7 8               ",
"                                                9 0 a b c d e f g h i j k l m n o               ",
"                                                            p q r s t u v w x y z A             ",
"                                                B C                 D E F G H I J K             ",
"                                    L M N O P Q R S T U V W X           Y Z `  ...+.            ",
"                                @.#.$.%.&.*.=.-.;.>.,.'.).!.~.{.].^.      /.(._.:.<.            ",
"                            [.}.|.1.2.3.4.5.6.7.8.*.=.9.;.>.0.a.b.c.d.e.      f.g.h.            ",
"                        i.j.k.l.m.n.o.p.|.1.q.r.s.t.u.v.%.w.x.9.y.z.0.A.B.      C.D.            ",
"                      E.F.G.H.I.J.K.L.M.N.O.o.P.Q.R.q.r.s.4.u.v.7.&.*.=.-.S.      T.            ",
"                    U.V.W.X.Y.Z.`.G.H.I. +.+L.M.l.m.n.++p.|.1.2.3.4.5.6.7.8.@+#+                ",
"                  $+%+&+*+=+-+;+>+X.,+'+)+!+~+{+ +]+^+k.l.m.n.o.p.|.R.q.r.s.t./+(+              ",
"                _+:+<+[+}+|+1+&+2+3+-+4+>+5+X.'+6+!+G.H.I.J.K.L.M.N.O.7+P.Q.R.q.8+              ",
"              9+0+a+b+c+d+e+<+f+}+g+1+h+&+3+i+4+;+W.X.Y.Z.`.G.H.I. +.+L.k.l.m.n.++j+            ",
"              k+l+m+n+o+p+a+b+q+d+r+e+f+s+g+|+t+&+*+=+-+;+>+X.,+'+)+!+~+{+ +]+^+k.l.u+          ",
"            v+w+x+y+z+A+l+B+n+C+D+E+b+q+F+G+H+I+J+K+L+M+N+2+3+-+4+>+5+X.'+6+`.G.H.I.O+          ",
"            P+Q+R+S+T+U+V+W+X+Y+l+Z+m+`+ @                .@+@1+h+&+3+i+4+;+W.X.Y.Z.`.@@        ",
"          #@$@%@&@*@=@-@R+;@>@,@'@)@!@                      ~@{@f+s+g+|+t+&+*+=+-+;+>+]@        ",
"          ^@/@(@_@:@$@<@%@*@[@-@Q+}@                            |@c+r+e+<+[+}+|+1+&+2+3+1@      ",
"          2@3@4@5@6@/@(@7@:@8@<@9@                              0@a@E+a+b+c+d+r+<+f+}+g+b@      ",
"        c@d@e@f@g@h@i@4@j@6@k@l@                                  m@l+m+n+o+p+a+b+q+d+r+n@      ",
"        o@p@q@r@s@d@t@f@u@v@w@x@                                    y@y+z+A+l+B+n+C+D+E+b+z@    ",
"        A@B@C@D@E@F@G@r@H@I@J@                                      K@S+T+U+V+W+X+Y+L@Z+m+M@    ",
"        N@O@P@Q@R@B@S@C@T@U@V@                                      W@*@=@-@R+;@>@,@'@W+y+X@    ",
"        Y@Z@`@ #.#+#P@@#R@##$#                                      %#&#$@<@%@*@[@-@Q+;@>@*#    ",
"        =#-#;#>#,#Z@`@'#.#+#)#                                        !#/@(@7@:@8@<@%@&@[@~#    ",
"        {#]#^#/#(#_#;#:#<#[#}#                                        |#i@4@j@6@k@/@7@1#8@2#    ",
"        3#4#5#6#7#8#^#/#9#0#a#                                      b#d@t@f@u@v@w@3@c#5@k@d#    ",
"        e#f#g#h#i#4#j#k#l#8#m#                                      n#F@G@r@H@I@o#e@u@g@w@p#    ",
"        q#r#s#t#u#f#v#h#w#4#j#x#                                    y#B@S@C@T@U@G@q@H@I@d@z#    ",
"        A#B#C#D#E#r#F#s#u#G#v#H#                                  I#J#+#P@@#R@##S@C@D@U@K#      ",
"        L#M#N#O#P#B#Q#R#E#S#F#s#T#                                U#,#[#`@'# #+#O@@#V###W#      ",
"          X#Y#Z#`# $N#.$+$@$Q##$$$%$                            &$/#(#_#;#:#<#[#*$=$ #.#-$      ",
"          ;$>$,$'$)$!$~${$]$^$/$($_$:$                        <$[$6#7#8#^#/#9#0#-#:#>#}$|$      ",
"        1$2$3$4$5$6$7$8$9$0$a$a$a$a$b$c$d$                e$f$f#g#h#i#4#j#k#l#8#]#/#9#g$        ",
"        h$i$i$j$k$l$m$i$i$n$n$n$n$o$o$p$q$r$s$t$  u$v$w$x$y$z$r#s#t#u#f#v#h#w#i#j#5#A$B$        ",
"        C$D$D$D$D$D$D$D$D$E$E$F$F$F$F$F$F$G$H$I$J$K$L$ $M$O#@$B#C#D#E#r#F#s#u#G#v#N$O$          ",
"      P$Q$Q$R$R$R$R$R$R$S$S$S$T$T$T$T$T$T$T$T$U$V$W$)$X$~$Z#L$ $N#O#P#B#Q#R#E#S#F#Y$            ",
"      Z$`$`$ % % %.%.%.%.%.%.%+%+%+%+%+%+%+%+%+%x @%#%$%%%,$'$X$Y#Z#`# $N#.$+$@$&%*%            ",
"      =%-%-%-%;%;%;%;%;%;%;%;%;%>%>%>%>%>%>%,%,%,%'%)%!%~%{%]%]%^%/%(%)$!$~$`#.$_%              ",
"      :%<%<%<%[%[%[%[%[%[%[%[%[%}%}%}%|%|%|%|%|%|%1%1%1%1%2%3%3%4%5%6%7%8%%%9%0%                ",
"      a%b%b%b%b%c%c%c%c%c%c%c%c%c%d%d%d%d%d%d%d%d%d%d%e%e%e%e%e%e%f%f%g%h%i%j%                  ",
"    k%l%l%l%l%l%l%l%m%m%m%m%n%n%n%n%n%o%o%o%o%o%o%o%o%o%p%p%p%q%q%q%q%r%s%t%                    ",
"    u%v%v%v%v%v%v%v%w%x%x%x%x%x%x%x%x%y%y%y%y%y%y%y%y%y%z%z%z%z%z%z%z%A%                        ",
"    B%C%D%D%D%D%D%E%F%F%F%F%F%F%F%F%F%G%G%G%G%G%G%H%H%H%H%I%I%I%I%J%K%                          ",
"      L%M%M%M%M%M%M%M%M%M%N%O%P%Q%R%M%M%M%M%M%M%M%M%M%M%M%R%S%T%U%                              ",
"        V%W%X%X%X%X%X%X%Y%Z%        `% &.&+&@&#&$&%&&&*&=&-&                                    "};
