/* XPM */
static char * tourbook48_32_xpm[] = {
"48 48 526 2",
"  	c None",
". 	c #1760BE",
"+ 	c #1D66C5",
"@ 	c #246CCB",
"# 	c #2A72D0",
"$ 	c #2F76D3",
"% 	c #347BD7",
"& 	c #387EDB",
"* 	c #3A80DD",
"= 	c #0952B1",
"- 	c #105BBD",
"; 	c #1969D0",
"> 	c #2577E2",
", 	c #2F7EE5",
"' 	c #3884E7",
") 	c #408AE9",
"! 	c #498FEB",
"~ 	c #5295EC",
"{ 	c #5B9BEE",
"] 	c #5E9CEE",
"^ 	c #4E91E7",
"/ 	c #458BE6",
"( 	c #0854B7",
"_ 	c #0D66D8",
": 	c #176EE1",
"< 	c #1F74E2",
"[ 	c #287AE4",
"} 	c #317FE6",
"| 	c #3985E8",
"1 	c #428BE9",
"2 	c #4B90EB",
"3 	c #5396ED",
"4 	c #5C9CEF",
"5 	c #65A1F0",
"6 	c #6DA7F2",
"7 	c #75ACF4",
"8 	c #084EAD",
"9 	c #0851AE",
"0 	c #0855B7",
"a 	c #0D58BA",
"b 	c #125DBE",
"c 	c #1863C6",
"d 	c #2371D5",
"e 	c #307EE3",
"f 	c #3B86E8",
"g 	c #448CEA",
"h 	c #4C91EB",
"i 	c #5597ED",
"j 	c #5E9DEF",
"k 	c #66A2F1",
"l 	c #6FA8F2",
"m 	c #78AEF4",
"n 	c #80B3F6",
"o 	c #5F9FF3",
"p 	c #2067C6",
"q 	c #276FCC",
"r 	c #3179D7",
"s 	c #478CE7",
"t 	c #5798ED",
"u 	c #5F9EEF",
"v 	c #68A3F1",
"w 	c #71A9F3",
"x 	c #79AFF4",
"y 	c #82B4F6",
"z 	c #86B7F7",
"A 	c #569CF5",
"B 	c #E43200",
"C 	c #E42D00",
"D 	c #2D76D2",
"E 	c #3B81DC",
"F 	c #5B9AEC",
"G 	c #69A4F1",
"H 	c #72AAF3",
"I 	c #7BB0F5",
"J 	c #83B5F6",
"K 	c #8CBBF8",
"L 	c #61A2F7",
"M 	c #E74400",
"N 	c #EA4300",
"O 	c #F14300",
"P 	c #F64100",
"Q 	c #F93D00",
"R 	c #FC3800",
"S 	c #FF3400",
"T 	c #FD2F00",
"U 	c #FA2900",
"V 	c #F72500",
"W 	c #F21F00",
"X 	c #EA1C00",
"Y 	c #E61900",
"Z 	c #3A80DF",
"` 	c #4B8EE6",
" .	c #7CB1F5",
"..	c #85B6F7",
"+.	c #8EBCF9",
"@.	c #66A6F8",
"#.	c #EB4A00",
"$.	c #F44B00",
"%.	c #FE4B00",
"&.	c #FF4900",
"*.	c #FF4600",
"=.	c #FF4200",
"-.	c #FF3D00",
";.	c #FF3800",
">.	c #FF3300",
",.	c #FF2E00",
"'.	c #FF2900",
").	c #FF2400",
"!.	c #FF1F00",
"~.	c #FF1A00",
"{.	c #FF1500",
"].	c #F81100",
"^.	c #EB0F00",
"/.	c #E31100",
"(.	c #448AE6",
"_.	c #87B7F7",
":.	c #8FBDF9",
"<.	c #6BA9F8",
"[.	c #EA4F00",
"}.	c #FA5100",
"|.	c #FF5000",
"1.	c #FF4E00",
"2.	c #FF4B00",
"3.	c #FF3200",
"4.	c #FF2D00",
"5.	c #FF2800",
"6.	c #FF2300",
"7.	c #FF1E00",
"8.	c #FF1900",
"9.	c #FF1300",
"0.	c #FF0E00",
"a.	c #FF0900",
"b.	c #FD0E00",
"c.	c #EC1300",
"d.	c #E31600",
"e.	c #4891EA",
"f.	c #6BA6F3",
"g.	c #91BEF9",
"h.	c #62A4F9",
"i.	c #E75300",
"j.	c #F75500",
"k.	c #FF5500",
"l.	c #FF5300",
"m.	c #FF1100",
"n.	c #FF0F00",
"o.	c #FB1A00",
"p.	c #E71D00",
"q.	c #69A6F6",
"r.	c #5BA0F8",
"s.	c #E95600",
"t.	c #FD5A00",
"u.	c #FF5800",
"v.	c #FF5600",
"w.	c #FF5100",
"x.	c #FF4C00",
"y.	c #FF4700",
"z.	c #FF4300",
"A.	c #FF3E00",
"B.	c #FF3900",
"C.	c #FF2F00",
"D.	c #FF2A00",
"E.	c #FF2500",
"F.	c #FF2100",
"G.	c #FF1D00",
"H.	c #FF1600",
"I.	c #EC2400",
"J.	c #ED5900",
"K.	c #FF5E00",
"L.	c #FF5B00",
"M.	c #FF5900",
"N.	c #FF5400",
"O.	c #FF4F00",
"P.	c #FF4A00",
"Q.	c #FF4400",
"R.	c #FF4000",
"S.	c #FF3B00",
"T.	c #FF3600",
"U.	c #FF3100",
"V.	c #FF1B00",
"W.	c #FF1C00",
"X.	c #F22B00",
"Y.	c #ED5C00",
"Z.	c #FF6100",
"`.	c #FF5C00",
" +	c #FF5700",
".+	c #FF5200",
"++	c #FF4D00",
"@+	c #FF4800",
"#+	c #FF3000",
"$+	c #FF2C00",
"%+	c #F43300",
"&+	c #EB5E00",
"*+	c #FF6400",
"=+	c #FF5F00",
"-+	c #FF5A00",
";+	c #FF3C00",
">+	c #FF2700",
",+	c #EF3900",
"'+	c #E85F00",
")+	c #FD6600",
"!+	c #FF6500",
"~+	c #FF6200",
"{+	c #FF6000",
"]+	c #FF5D00",
"^+	c #FF3F00",
"/+	c #FF3500",
"(+	c #EA3E00",
"_+	c #F96700",
":+	c #FF6800",
"<+	c #FF6300",
"[+	c #FF3A00",
"}+	c #FF3700",
"|+	c #FE4600",
"1+	c #E64100",
"2+	c #EB6500",
"3+	c #FF6B00",
"4+	c #FF6900",
"5+	c #FF6700",
"6+	c #FE4E00",
"7+	c #F84A00",
"8+	c #F04600",
"9+	c #ED4300",
"0+	c #E94000",
"a+	c #EB4000",
"b+	c #EF3D00",
"c+	c #F63D00",
"d+	c #FD3C00",
"e+	c #FF4500",
"f+	c #F24600",
"g+	c #FB6D00",
"h+	c #FF6C00",
"i+	c #FF6A00",
"j+	c #F44F00",
"k+	c #E64800",
"l+	c #E63B00",
"m+	c #EF3C00",
"n+	c #FE3F00",
"o+	c #FF4100",
"p+	c #E84700",
"q+	c #ED6A00",
"r+	c #FF7000",
"s+	c #FF6D00",
"t+	c #FD5700",
"u+	c #ED4F00",
"v+	c #E83F00",
"w+	c #FA4400",
"x+	c #F34C00",
"y+	c #F97000",
"z+	c #FF7100",
"A+	c #FF6F00",
"B+	c #FF6600",
"C+	c #FC5A00",
"D+	c #E65100",
"E+	c #F84600",
"F+	c #FE5200",
"G+	c #E74C00",
"H+	c #E96D00",
"I+	c #FF7500",
"J+	c #FF7200",
"K+	c #FF6E00",
"L+	c #EB5600",
"M+	c #EB5000",
"N+	c #EE7000",
"O+	c #FF7600",
"P+	c #FF7400",
"Q+	c #F45C00",
"R+	c #EE4900",
"S+	c #F35300",
"T+	c #F47500",
"U+	c #FF7700",
"V+	c #FF7300",
"W+	c #FD6400",
"X+	c #E75A00",
"Y+	c #FA4F00",
"Z+	c #F97800",
"`+	c #FF7900",
" @	c #F66300",
".@	c #F04F00",
"+@	c #E85600",
"@@	c #FD7D02",
"#@	c #FF7B00",
"$@	c #F06200",
"%@	c #EE5100",
"&@	c #E85800",
"*@	c #E97A03",
"=@	c #FF8105",
"-@	c #FF7D01",
";@	c #FF7A00",
">@	c #FF7800",
",@	c #EC6300",
"'@	c #E95200",
")@	c #EA5C00",
"!@	c #EC8006",
"~@	c #FF8609",
"{@	c #FF7C00",
"]@	c #E96400",
"^@	c #E75400",
"/@	c #FE5D00",
"(@	c #EB8308",
"_@	c #FF8A0E",
":@	c #FF8509",
"<@	c #EB6600",
"[@	c #EB6100",
"}@	c #EB8508",
"|@	c #FE8D11",
"1@	c #FF8A0D",
"2@	c #EE6A00",
"3@	c #ED5B00",
"4@	c #E96100",
"5@	c #FB9113",
"6@	c #FF8E12",
"7@	c #F46F00",
"8@	c #EF5F00",
"9@	c #E86300",
"0@	c #F99314",
"a@	c #FF9316",
"b@	c #FF860A",
"c@	c #FF8206",
"d@	c #FF7E02",
"e@	c #FB7500",
"f@	c #F56400",
"g@	c #FE6F00",
"h@	c #E66600",
"i@	c #F49413",
"j@	c #FF981B",
"k@	c #FF9317",
"l@	c #FF8F13",
"m@	c #FF8B0F",
"n@	c #FF870B",
"o@	c #FF8307",
"p@	c #FF7F03",
"q@	c #EE6F00",
"r@	c #EA6200",
"s@	c #F76E00",
"t@	c #F29610",
"u@	c #FF9D20",
"v@	c #FF981C",
"w@	c #FF9418",
"x@	c #FF9014",
"y@	c #FF8C10",
"z@	c #FF890C",
"A@	c #FE7900",
"B@	c #E96E00",
"C@	c #E56400",
"D@	c #FA6C00",
"E@	c #EE6C00",
"F@	c #FD9F22",
"G@	c #FF9D21",
"H@	c #FF991D",
"I@	c #FF9619",
"J@	c #FF9215",
"K@	c #FF8004",
"L@	c #ED7E17",
"M@	c #F77802",
"N@	c #F16B00",
"O@	c #E86C00",
"P@	c #90A5BD",
"Q@	c #DCA04F",
"R@	c #FF9F22",
"S@	c #FF9B1E",
"T@	c #FF971A",
"U@	c #FF9417",
"V@	c #D58E45",
"W@	c #9E969A",
"X@	c #90A2C6",
"Y@	c #90B4EA",
"Z@	c #8DA6D3",
"`@	c #9596AA",
" #	c #B77D4F",
".#	c #F16E00",
"+#	c #F97700",
"@#	c #67A3F7",
"##	c #ADCEFD",
"$#	c #8BADDA",
"%#	c #D8A055",
"&#	c #FFA024",
"*#	c #F99C27",
"=#	c #B2987E",
"-#	c #91A3C2",
";#	c #97BCF4",
">#	c #AECEFE",
",#	c #94B5E8",
"'#	c #8C8FA4",
")#	c #FA7400",
"!#	c #EB7300",
"~#	c #89B7F8",
"{#	c #A3C7FB",
"]#	c #88B0E7",
"^#	c #86A6D3",
"/#	c #87A8D6",
"(#	c #9CC2FA",
"_#	c #A4C7FB",
":#	c #A1C5FB",
"<#	c #819DCD",
"[#	c #A7826B",
"}#	c #ED7603",
"|#	c #E87200",
"1#	c #E96F00",
"2#	c #EC7200",
"3#	c #EF7400",
"4#	c #F27400",
"5#	c #F87C03",
"6#	c #498DE9",
"7#	c #98BFF8",
"8#	c #98C0F8",
"9#	c #99C0F8",
"0#	c #99C0F9",
"a#	c #8AB3ED",
"b#	c #858EA7",
"c#	c #E88320",
"d#	c #FC8105",
"e#	c #FE8105",
"f#	c #FF8408",
"g#	c #EC7C04",
"h#	c #518FE6",
"i#	c #8DB8F6",
"j#	c #8EB8F6",
"k#	c #8EB9F6",
"l#	c #8FB9F6",
"m#	c #789ACE",
"n#	c #A8886F",
"o#	c #FF880C",
"p#	c #F4850B",
"q#	c #5391E4",
"r#	c #82B1F3",
"s#	c #83B1F3",
"t#	c #83B2F3",
"u#	c #84B2F3",
"v#	c #7BA9ED",
"w#	c #788AAB",
"x#	c #D98A35",
"y#	c #FF8D11",
"z#	c #FA8D11",
"A#	c #5A94E4",
"B#	c #78AAF0",
"C#	c #78AAF1",
"D#	c #79AAF1",
"E#	c #79ABF1",
"F#	c #6A99DC",
"G#	c #718DB7",
"H#	c #868994",
"I#	c #A78868",
"J#	c #C1894E",
"K#	c #C1894D",
"L#	c #C68946",
"M#	c #D68B36",
"N#	c #EC8E26",
"O#	c #FF9519",
"P#	c #FD9517",
"Q#	c #ED8B0B",
"R#	c #649CE9",
"S#	c #6DA3EE",
"T#	c #6EA3EE",
"U#	c #6EA4EE",
"V#	c #6FA4EE",
"W#	c #6AA0EC",
"X#	c #639BE8",
"Y#	c #5E96E4",
"Z#	c #5E8ED0",
"`#	c #7B8494",
" $	c #FF9A1E",
".$	c #FD9B1D",
"+$	c #F0910E",
"@$	c #2C6ECA",
"#$	c #629CEB",
"$$	c #639CEB",
"%$	c #639CEC",
"&$	c #649CEC",
"*$	c #649DEC",
"=$	c #659DEC",
"-$	c #5B92DF",
";$	c #C39250",
">$	c #FC9E1F",
",$	c #2F71CA",
"'$	c #5894E9",
")$	c #5895E9",
"!$	c #5995E9",
"~$	c #5996E9",
"{$	c #5A96E9",
"]$	c #5284C8",
"^$	c #DD9B33",
"/$	c #2A6DC7",
"($	c #4D8DE6",
"_$	c #4D8EE6",
":$	c #4E8EE6",
"<$	c #4F8EE6",
"[$	c #4F8EE7",
"}$	c #4F8FE7",
"|$	c #5E7894",
"1$	c #2063BD",
"2$	c #4286E4",
"3$	c #4386E4",
"4$	c #4387E4",
"5$	c #4487E4",
"6$	c #4488E4",
"7$	c #427BC9",
"8$	c #4B7096",
"9$	c #3176D4",
"0$	c #3C82E2",
"a$	c #3B80E0",
"b$	c #2B6FCC",
"c$	c #2266C2",
"d$	c #3073CB",
"e$	c #397FDF",
"f$	c #357AD8",
"g$	c #3D72B7",
"h$	c #4A739E",
"i$	c #4B6E93",
"j$	c #2367C3",
"k$	c #2568C4",
"l$	c #2569C4",
"m$	c #2468C4",
"n$	c #1F62BD",
"o$	c #1558B0",
"p$	c #175AB3",
"q$	c #2F68AC",
"r$	c #3F70A6",
"s$	c #396FAF",
"t$	c #3970B2",
"u$	c #3F72AD",
"v$	c #4473A8",
"w$	c #4773A4",
"x$	c #4974A1",
"y$	c #4E749A",
"z$	c #5F7883",
"A$	c #797F66",
"                                                          . + @ # $ % & *                       ",
"                                                    = - ; > , ' ) ! ~ { ] ^ /                   ",
"                                                  ( _ : < [ } | 1 2 3 4 5 6 7 {                 ",
"                                              8 9 0 a b c d e f g h i j k l m n o               ",
"                                                            p q r s t u v w x y z A             ",
"                                                B C               D E F G H I J K L             ",
"                                    M N O P Q R S T U V W X Y         Z ` l  ...+.@.            ",
"                                #.$.%.&.*.=.-.;.>.,.'.).!.~.{.].^./.      (.6 _.:.<.            ",
"                            [.}.|.1.2.&.*.=.-.;.3.4.5.6.7.8.9.0.a.b.c.d.    e.f.g.h.            ",
"                        i.j.k.l.|.1.2.&.*.=.-.;.>.,.5.).!.~.{.m.n.m.{.o.p.      q.r.            ",
"                      s.t.u.v.l.w.1.x.&.y.z.A.B.S C.D.E.F.G.8.H.{.H.8.G.F.I.                    ",
"                    J.K.L.M.v.N.w.O.x.P.y.Q.R.S.T.U.4.5.).F.7.V.V.W.7.F.).5.X.                  ",
"                  Y.Z.K.`.M. +N..+O.++2.@+*.=.-.B.S #+$+5.E.6.F.F.F.6.E.5.$+#+%+                ",
"                &+*+Z.=+`.-+u.k.l.|.1.x.&.y.Q.R.;+;.S #+4.D.5.>+>+>+5.D.4.#+S ;.,+              ",
"              '+)+!+~+{+]+L.u.v.N.w.O.++2.&.*.z.^+;+;./+3.#+,.4.4.4.,.#+3./+;.;+R.(+            ",
"              _+:+!+<+Z.K.`.-+ +k.l.w.1.x.P.@+*.z.R.-.[+}+/+S >.>.>.S /+;.[+-.R.Q.|+1+          ",
"            2+3+4+5+*+~+=+]+L.M.v.N..+|.6+7+8+9+0+a+b+c+d+S.[+B.B.B.[+S.-.^+=.e+y.@+f+          ",
"            g+h+i+:+!+<+Z.K.`.-+u.v.N.j+k+              l+m+n+^+A.^+^+o+=.Q.*.y.&.P.x.p+        ",
"          q+r+s+3+4+5+*+~+{+K.`.-+t+u+                      v+w+Q.e+e+*.*.y.&.P.2.++1.x+        ",
"          y+z+A+s+i+:+B+*+~+=+]+C+D+                            E+@+@+&.&.P.2.x.1.O.w.F+G+      ",
"        H+I+J+r+K+h+i+5+!+<+Z.=+L+                              M %.2.2.x.++1.O.|.w.l.N.M+      ",
"        N+O+P+J+A+s+3+4+5+!+<+Q+                                  R+1.1.O.|.w..+l.N.k. +S+      ",
"        T+U+I+V+z+A+s+3+4+5+W+X+                                    Y+w..+.+l.N.k.v.u.M.C+      ",
"        Z+`+U+I+V+z+A+s+3+4+ @                                      .@N.k.k.v. +u.M.-+`.]++@    ",
"        @@#@`+U+P+J+r+K+s+3+$@                                      %@ + +u.M.-+L.`.]+K.=+&@    ",
"      *@=@-@;@>@O+P+J+z+A+s+,@                                      '@-+-+L.`.`.]+K.=+Z.~+)@    ",
"      !@~@=@{@;@>@O+P+J+z+A+]@                                      ^@/@]+K.K.=+{+Z.~+<+*+&+    ",
"      (@_@:@=@{@;@>@O+I+V+z+<@                                      +@{+{+Z.Z.~+<+*+!+B+5+[@    ",
"      }@|@1@:@=@{@;@>@U+I+V+2@                                      3@<+<+<+*+!+B+B+5+:+i+4@    ",
"        5@6@1@:@=@-@#@`+U+O+7@                                      8@B+B+B+5+:+:+4+i+3+h+9@    ",
"        0@a@6@_@b@c@d@#@;@>@e@                                      f@:+4+4+i+i+3+h+s+K+g@h@    ",
"        i@j@k@l@m@n@o@p@{@;@`+q@                                  r@3+3+h+h+s+s+K+A+r+z+s@      ",
"        t@u@v@w@x@y@z@:@=@d@#@A@B@                              C@D@K+K+A+A+A+r+z+J+J+V+E@      ",
"          F@G@H@I@J@6@_@n@o@K@L@M@                              N@z+z+z+J+J+J+V+P+P+I+O+O@      ",
"          P@Q@R@S@T@U@x@V@W@X@Y@Z@`@ #                        .#P+P+P+P+P+I+I+O+O+U+>@+#        ",
"        @###$#%#&#*#=#-#;#>#>#>#>#>#,#'#                  H+)#U+U+U+U+U+U+>@>@`+`+;@#@!#        ",
"        ~#{#{#]#^#/#(#{#{#{#{#_#_#_#_#:#<#[#}#|#  1#2#3#4#;@;@;@;@;@;@;@;@#@#@{@{@d@5#          ",
"      6#7#7#7#7#8#8#8#9#9#9#9#9#9#9#9#0#0#a#b#c#d#e#K@p@p@d@-@-@-@-@-@d@p@p@K@=@o@f#g#          ",
"      h#i#i#i#j#j#j#k#k#k#k#k#k#k#k#k#k#k#l#j#m#n#o#n@b@~@:@f#f#f#f#f#:@~@b@n@o#_@p#            ",
"      q#r#s#s#s#s#s#s#s#s#s#t#t#t#u#u#u#u#u#u#u#v#w#x#y#y@y@m@m@m@m@m@y@y@y#6@l@z#              ",
"      A#B#B#B#C#C#C#C#C#C#D#D#D#E#E#E#E#E#E#E#E#E#E#F#G#H#I#J#K#L#M#N#a@k@U@O#P#Q#              ",
"      R#S#S#S#S#T#T#T#T#T#T#T#T#T#T#T#U#U#U#V#V#V#V#V#V#V#W#R#R#X#Y#Z#`# $S@.$+$                ",
"    @$#$#$#$$$$$$$$$$$$$$$$$$$$$%$%$&$&$&$*$*$*$*$*$*$*$*$*$*$*$=$=$=$-$;$>$t@                  ",
"    ,$'$'$)$)$)$)$)$)$)$)$)$!$!$!$!$!$!$!$!$!$!$~$~$~${${${${${${${${$]$^$                      ",
"    /$($($($($($_$_$_$:$:$:$:$:$:$:$:$:$:$:$:$<$<$[$}$}$}$}$}$}$}$}$_$|$                        ",
"    1$2$2$2$2$3$3$3$4$4$4$4$4$4$4$4$4$5$5$5$5$5$5$5$5$5$5$5$6$6$6$7$8$                          ",
"      9$0$0$0$0$0$0$0$0$0$a$b$c$d$e$0$0$0$0$0$0$0$0$0$0$0$f$g$h$i$                              ",
"        1$j$k$l$l$l$l$m$n$o$        p$q$r$s$t$u$v$w$x$y$z$A$                                    "};
