/* XPM */
static char * tourbook48_32_xpm[] = {
"48 48 380 2",
"  	c None",
". 	c #2361B2",
"+ 	c #2567BD",
"@ 	c #256AC3",
"# 	c #266AC5",
"$ 	c #266BC4",
"% 	c #266AC4",
"& 	c #2466BB",
"* 	c #225DAD",
"= 	c #2567BF",
"- 	c #2A7CE6",
"; 	c #2D84F6",
"> 	c #2C82F2",
", 	c #2874D6",
"' 	c #2360B0",
") 	c #2464B8",
"! 	c #2C80EF",
"~ 	c #2C7EED",
"{ 	c #2364B7",
"] 	c #2466BA",
"^ 	c #2A7AE3",
"/ 	c #2976DC",
"( 	c #2872D4",
"_ 	c #276FCD",
": 	c #2A76DA",
"< 	c #2B7DE9",
"[ 	c #2D83F5",
"} 	c #2463B6",
"| 	c #2260AF",
"1 	c #2363B6",
"2 	c #2567BE",
"3 	c #2975DA",
"4 	c #2D84F5",
"5 	c #F18D0A",
"6 	c #F49211",
"7 	c #F59312",
"8 	c #F49314",
"9 	c #F69518",
"0 	c #F8991C",
"a 	c #EF8D0A",
"b 	c #2261B3",
"c 	c #266BC6",
"d 	c #2B7DEA",
"e 	c #2361B1",
"f 	c #F08E0B",
"g 	c #F49213",
"h 	c #F9991F",
"i 	c #FEA22B",
"j 	c #FFA32C",
"k 	c #FFA22B",
"l 	c #F08D0B",
"m 	c #2D83F4",
"n 	c #235FAE",
"o 	c #F18F0C",
"p 	c #F8981A",
"q 	c #FFA32B",
"r 	c #F7971A",
"s 	c #F08F0C",
"t 	c #2361B4",
"u 	c #2975D9",
"v 	c #F79516",
"w 	c #FEA22A",
"x 	c #F08E0C",
"y 	c #FB9D24",
"z 	c #FC9E25",
"A 	c #F38F0E",
"B 	c #FEA129",
"C 	c #FC9E24",
"D 	c #F69516",
"E 	c #F49212",
"F 	c #F39110",
"G 	c #F29010",
"H 	c #F49313",
"I 	c #F99A1E",
"J 	c #F3900E",
"K 	c #F39211",
"L 	c #F69617",
"M 	c #F18F0E",
"N 	c #F28E0B",
"O 	c #F59314",
"P 	c #FDA027",
"Q 	c #F38F0F",
"R 	c #F7981A",
"S 	c #F08D0C",
"T 	c #F28D0D",
"U 	c #F99A1F",
"V 	c #F28F0E",
"W 	c #F18E0B",
"X 	c #FEA128",
"Y 	c #F18D0C",
"Z 	c #FB9E23",
"` 	c #F38F0C",
" .	c #F3900F",
"..	c #F38F0D",
"+.	c #F59416",
"@.	c #F69719",
"#.	c #F69517",
"$.	c #FC9D22",
"%.	c #FDA028",
"&.	c #F08D09",
"*.	c #F08C0B",
"=.	c #F39212",
"-.	c #FA9C21",
";.	c #FA9B21",
">.	c #F49415",
",.	c #F8981B",
"'.	c #F49111",
").	c #FB9D23",
"!.	c #FA9A1F",
"~.	c #F59214",
"{.	c #F59415",
"].	c #FA9A1E",
"^.	c #F69416",
"/.	c #DE8E24",
"(.	c #EEA03D",
"_.	c #F2A138",
":.	c #F7A233",
"<.	c #FCA32F",
"[.	c #F28E0C",
"}.	c #C68735",
"|.	c #D79D52",
"1.	c #DC9E4E",
"2.	c #E19F49",
"3.	c #E69F44",
"4.	c #EBA03F",
"5.	c #F0A13B",
"6.	c #EB901C",
"7.	c #F59313",
"8.	c #B18247",
"9.	c #C19A68",
"0.	c #C69B63",
"a.	c #CB9B5E",
"b.	c #D09C5A",
"c.	c #D59D55",
"d.	c #D99D50",
"e.	c #D9943B",
"f.	c #F18E0D",
"g.	c #9B7E58",
"h.	c #AB977D",
"i.	c #B09778",
"j.	c #B49874",
"k.	c #B9996F",
"l.	c #BE996A",
"m.	c #C39A66",
"n.	c #C89B61",
"o.	c #C18536",
"p.	c #F28F0D",
"q.	c #857968",
"r.	c #949393",
"s.	c #99948E",
"t.	c #9E9589",
"u.	c #A39584",
"v.	c #A89680",
"w.	c #AD977B",
"x.	c #B29876",
"y.	c #B28D60",
"z.	c #F9991E",
"A.	c #70747C",
"B.	c #7E90A8",
"C.	c #8391A3",
"D.	c #88919F",
"E.	c #8D929A",
"F.	c #929395",
"G.	c #979491",
"H.	c #9B948C",
"I.	c #A09587",
"J.	c #9B7E5A",
"K.	c #F2900F",
"L.	c #FEA12A",
"M.	c #59708F",
"N.	c #688DBE",
"O.	c #6C8DB9",
"P.	c #718EB4",
"Q.	c #768FB0",
"R.	c #7B90AB",
"S.	c #8090A6",
"T.	c #8591A1",
"U.	c #8A929D",
"V.	c #8E9094",
"W.	c #887761",
"X.	c #436DA2",
"Y.	c #5189D3",
"Z.	c #568ACF",
"`.	c #5B8BCA",
" +	c #608CC5",
".+	c #658CC0",
"++	c #6A8DBC",
"@+	c #6F8EB7",
"#+	c #748EB2",
"$+	c #798FAD",
"%+	c #7A8B9E",
"&+	c #75726D",
"*+	c #D68921",
"=+	c #E79B38",
"-+	c #EFA13C",
";+	c #F4A137",
">+	c #F8A232",
",+	c #FDA32E",
"'+	c #2E68B6",
")+	c #3B86E9",
"!+	c #4087E4",
"~+	c #4587DF",
"{+	c #4A88DB",
"]+	c #4E89D6",
"^+	c #538AD1",
"/+	c #588ACC",
"(+	c #5D8BC8",
"_+	c #628CC3",
":+	c #678DBE",
"<+	c #6B89B1",
"[+	c #66717D",
"}+	c #BE8439",
"|+	c #CC9955",
"1+	c #D39D56",
"2+	c #D89D51",
"3+	c #DD9E4D",
"4+	c #E29F48",
"5+	c #E79F43",
"6+	c #ECA03E",
"7+	c #F1A13A",
"8+	c #E98D15",
"9+	c #2E84F5",
"0+	c #3385F0",
"a+	c #3886EB",
"b+	c #3D86E7",
"c+	c #4287E2",
"d+	c #4788DD",
"e+	c #4C89D8",
"f+	c #5189D4",
"g+	c #5A89C7",
"h+	c #577499",
"i+	c #A48358",
"j+	c #B29773",
"k+	c #B89970",
"l+	c #BD996C",
"m+	c #C29A67",
"n+	c #C79B62",
"o+	c #CC9B5D",
"p+	c #D19C59",
"q+	c #D69D54",
"r+	c #D38F38",
"s+	c #2567C0",
"t+	c #3085F3",
"u+	c #3585EE",
"v+	c #3A86E9",
"w+	c #3F87E4",
"x+	c #4487E0",
"y+	c #4988DB",
"z+	c #4B82CA",
"A+	c #496E9E",
"B+	c #4C678A",
"C+	c #7C7264",
"D+	c #857A6C",
"E+	c #908D8A",
"F+	c #98948F",
"G+	c #9D958A",
"H+	c #A29586",
"I+	c #A79681",
"J+	c #AB977C",
"K+	c #B59873",
"L+	c #BA996E",
"M+	c #BE9764",
"N+	c #B68038",
"O+	c #2669C1",
"P+	c #3886EC",
"Q+	c #4185DE",
"R+	c #4177BD",
"S+	c #426EA6",
"T+	c #476EA0",
"U+	c #4B6C96",
"V+	c #506D91",
"W+	c #546E90",
"X+	c #5A718F",
"Y+	c #60738D",
"Z+	c #687E9A",
"`+	c #728CAF",
" @	c #788FAE",
".@	c #7D90A9",
"+@	c #8290A5",
"@@	c #8791A0",
"#@	c #8B929B",
"$@	c #909396",
"%@	c #959392",
"&@	c #9A948D",
"*@	c #9F9588",
"=@	c #A49683",
"-@	c #A0815A",
";@	c #2568C1",
">@	c #3084F3",
",@	c #3A86EA",
"'@	c #3F87E5",
")@	c #4E89D7",
"!@	c #538AD2",
"~@	c #578ACD",
"{@	c #5C8BC8",
"]@	c #618CC4",
"^@	c #668CBF",
"/@	c #6B8DBA",
"(@	c #708EB5",
"_@	c #758FB1",
":@	c #7A8FAC",
"<@	c #7F90A7",
"[@	c #8491A2",
"}@	c #89929E",
"|@	c #8E9299",
"1@	c #897A67",
"2@	c #3285F1",
"3@	c #3786EC",
"4@	c #3C86E7",
"5@	c #4187E3",
"6@	c #4688DE",
"7@	c #4B88D9",
"8@	c #5089D4",
"9@	c #558AD0",
"0@	c #5A8BCB",
"a@	c #5F8BC6",
"b@	c #648CC1",
"c@	c #698DBD",
"d@	c #6D8EB8",
"e@	c #728EB3",
"f@	c #778FAF",
"g@	c #78879A",
"h@	c #2462B4",
"i@	c #3585EF",
"j@	c #3E87E5",
"k@	c #4387E0",
"l@	c #4888DC",
"m@	c #4D89D7",
"n@	c #5289D2",
"o@	c #578ACE",
"p@	c #5C8BC9",
"q@	c #657E9E",
"r@	c #225EAC",
"s@	c #3785ED",
"t@	c #3C86E8",
"u@	c #4B88DA",
"v@	c #4F89D5",
"w@	c #548AD0",
"x@	c #507099",
"y@	c #2B7EEA",
"z@	c #2C81F0",
"A@	c #2F84F4",
"B@	c #3485EF",
"C@	c #3986EA",
"D@	c #3E87E6",
"E@	c #3F7BC8",
"F@	c #266CC7",
"G@	c #2363B7",
"H@	c #2262B1",
"I@	c #215EAD",
"J@	c #2260B1",
"K@	c #2465BA",
"L@	c #2569C2",
"M@	c #2976DB",
"N@	c #2975D8",
"O@	c #2464B6",
"P@	c #2B7FEB",
"Q@	c #2260B0",
"R@	c #2468BF",
"S@	c #2873D5",
"T@	c #2C82F1",
"U@	c #2D83F3",
"V@	c #2977DE",
"W@	c #2465B9",
"X@	c #2669C0",
"Y@	c #256CC5",
"Z@	c #276CC6",
"`@	c #256AC6",
" #	c #266BC5",
".#	c #235DAD",
"+#	c #215DAB",
"@#	c #2362B7",
"##	c #2466BC",
"$#	c #2568C0",
"%#	c #256AC4",
"&#	c #2569C3",
"*#	c #2566BC",
"=#	c #2465BB",
"-#	c #2464B9",
";#	c #2260AE",
"                                                  . + @ # $ % & *                               ",
"                                              = - ; ; ; ; ; ; ; > , '                           ",
"                                          ) ! ; ; ; ; ; ; ; ; ; ; ; ~ {                         ",
"                                        ] ^ / ( _ : < [ ; ; ; ; ; ; ; [ }                       ",
"                                                      | 1 2 3 4 ; ; ; ; (                       ",
"                                    5 6 7 8 9 0 9 8 7 6 a     b c d ; ; 4 e                     ",
"                              f g h i j j j j j j j j j k h g l     $ m ; n                     ",
"                          o p q j j j j j j j j j j j j j j j q r s   t u                       ",
"                        v w j j j j j j j j j j j j j j j j j j j w 9                           ",
"                    x y j j j j j j j j j j j j j j j j j j j j j j j z s                       ",
"                  A B j j j j j j j j C D 8 E F G H D I i j j j j j j j B J                     ",
"                K q j j j j j j w L M                   N O P j j j j j j q E                   ",
"              Q k j j j j j j R S                           T U j j j j j j q V                 ",
"            W X j j j j j w F                                   D j j j j j j B Y               ",
"            Z j j j j j B `                                       G B j j j j j C               ",
"          H j j j j j q  .                                          ..j j j j j j +.            ",
"        l B j j j j j g                                               @.j j j j j B W           ",
"        #.j j j j j $.                                                f %.j j j j j 9           ",
"      &.w j j j j j F                                                   E j j j j j w *.        ",
"      =.j j j j j -.                                                      ;.j j j j j 6         ",
"      r j j j j j >.                                                      g j j j j j ,.        ",
"      B j j j j j V                                                       M j j j j j B         ",
"    M j j j j j B                                                           P j j j j j G       ",
"    '.j j j j j C                                                           ).j j j j j '.      ",
"    O j j j j j I                                                           !.j j j j j ~.      ",
"    {.j j j j j ].                                                          ].j j j j j {.      ",
"    D j j j j j Z                                                           ).j j j j j ^.      ",
"    O j j j j j %.                                                          P j j j j j {.      ",
"    /.(._.:.<.j j [.                                                      l q j j j j j ~.      ",
"    }.|.1.2.3.4.5.6.                                                      7.j j j j j j '.      ",
"    8.9.0.a.b.c.d.e.                                                      I j j j j j j f.      ",
"    g.h.i.j.k.l.m.n.o.                                                  p.q j j j j j -.        ",
"    q.r.s.t.u.v.w.x.y.                                                  z.j j j j j j 8         ",
"    A.B.C.D.E.F.G.H.I.J.                                              K.j j j j j j L.Y         ",
"    M.N.O.P.Q.R.S.T.U.V.W.                                          [.B j j j j j j H           ",
"    X.Y.Z.`. +.+++@+#+$+%+&+                                      *+=+-+;+>+,+j j Z             ",
"    '+)+!+~+{+]+^+/+(+_+:+<+[+                                  }+|+1+2+3+4+5+6+7+8+            ",
"    2 ; ; 9+0+a+b+c+d+e+f+Z.g+h+                              i+j+k+l+m+n+o+p+q+r+              ",
"    s+; ; ; ; ; ; ; t+u+v+w+x+y+z+A+B+                  C+D+E+F+G+H+I+J+i.K+L+M+N+              ",
"    O+; ; ; ; ; ; ; ; ; ; ; 9+0+P+b+Q+R+S+T+U+V+W+X+Y+Z+`+ @.@+@@@#@$@%@&@*@=@-@                ",
"    ;@; ; ; ; ; ; ; ; ; ; ; ; ; ; ; ; >@u+,@'@x+y+)@!@~@{@]@^@/@(@_@:@<@[@}@|@1@                ",
"    & ; ; ; ; ; ; ; ; ; ; ; ; ; ; ; ; ; ; ; ; ; 2@3@4@5@6@7@8@9@0@a@b@c@d@e@f@g@                ",
"    h@; ; ; ; ; ; ; ; ; ; ; ; ; ; ; ; ; ; ; ; ; ; ; ; ; >@i@,@j@k@l@m@n@o@p@]@^@q@              ",
"    r@[ ; ; ; ; ; ; ; ; ; ; ; ; ; ; ; ; ; ; ; ; ; ; ; ; ; ; ; ; ; 2@s@t@5@6@u@v@w@x@            ",
"      y@; ; ; ; ; ; ; ; ; ; ; ; ; ; 4 z@; ; ; ; ; ; ; ; ; ; ; ; ; ; ; ; ; A@B@C@D@E@            ",
"      / ; ; ; ; ; ; ; ; ; ; > F@G@H@I@  J@K@L@M@[ ; ; ; ; ; ; ; ; ; ; ; ; ; ; ; ; N@            ",
"      O@P@; ; ; ; ; ; ; ; - .                   Q@R@S@T@; ; ; ; ; ; ; ; ; ; U@V@%               ",
"          W@X@Y@Z@`@ ## % .#                          +#@###$#%#&#;@$#*#=#-#;#                  "};
