<?xml version="1.0" encoding="UTF-8" standalone="no"?>
<svg
   version="1.1"
   id="svg2985"
   height="16.150566"
   width="16.154202"
   xml:space="preserve"
   sodipodi:docname="fit-logo-hdr.svg"
   inkscape:export-filename="fit-logo-hdr.svg"
   inkscape:export-xdpi="96"
   inkscape:export-ydpi="96"
   inkscape:version="1.4.2 (f4327f4, 2025-05-13)"
   xmlns:inkscape="http://www.inkscape.org/namespaces/inkscape"
   xmlns:sodipodi="http://sodipodi.sourceforge.net/DTD/sodipodi-0.dtd"
   xmlns="http://www.w3.org/2000/svg"
   xmlns:svg="http://www.w3.org/2000/svg"
   xmlns:rdf="http://www.w3.org/1999/02/22-rdf-syntax-ns#"
   xmlns:cc="http://creativecommons.org/ns#"
   xmlns:dc="http://purl.org/dc/elements/1.1/"><sodipodi:namedview
     id="namedview1"
     pagecolor="#ffffff"
     bordercolor="#666666"
     borderopacity="1.0"
     inkscape:showpageshadow="2"
     inkscape:pageopacity="0.0"
     inkscape:pagecheckerboard="0"
     inkscape:deskcolor="#d1d1d1"
     inkscape:zoom="85.322087"
     inkscape:cx="8.0752831"
     inkscape:cy="8.0752831"
     inkscape:window-width="2880"
     inkscape:window-height="1620"
     inkscape:window-x="179"
     inkscape:window-y="253"
     inkscape:window-maximized="0"
     inkscape:current-layer="svg2985" /><defs
     id="defs2987" /><metadata
     id="metadata2990"><rdf:RDF><cc:Work
         rdf:about=""><dc:format>image/svg+xml</dc:format><dc:type
           rdf:resource="http://purl.org/dc/dcmitype/StillImage" /></cc:Work></rdf:RDF></metadata><path
     class="cls-1"
     d="M 7.9030526,9.5146301 H 8.8639637 L 9.5824671,8.5484872 10.534658,9.9977015 11.734489,7.5823443 12.693656,10.963844 13.413903,9.5146301 H 14.613734"
     id="path1-8"
     style="fill:none;stroke:#6fb9e1;stroke-width:0.348788px;stroke-linecap:round;stroke-linejoin:round;stroke-opacity:1" /><path
     class="cls-1"
     d="M 8.4279786,3.0376362 A 1.1265854,1.1265854 0 1 1 7.3013933,1.9023311 1.1318172,1.1318172 0 0 1 8.4279786,3.0376362 M 4.6052617,10.336026 C 4.1936918,10.894087 3.6391188,11.769545 3.1926702,12.306678 2.6694881,12.936241 2.031206,13.379201 1.476633,13.980861 A 0.66269728,0.66269728 0 0 1 0.64651751,14.158743 0.61909877,0.61909877 0 0 1 0.32737645,13.461167 0.70629578,0.70629578 0 0 1 0.51920987,13.112379 C 1.7207846,12.12182 2.3660425,11.584687 3.0932656,10.097106 3.1298883,10.025604 3.4420536,9.2791981 3.548434,8.963545 M 5.9428639,11.401573 C 5.5853561,11.087664 5.2452878,10.79817 4.9139391,10.5017 4.6593239,10.278476 4.4012207,10.055251 4.1518373,9.8233075 3.4246142,9.1501466 3.4420536,8.6513797 3.7768901,7.9764748 4.0890554,7.3451685 4.3366949,6.6842151 4.6139814,6.0354694 A 0.34878804,0.34878804 0 0 0 4.6052617,5.9622239 C 4.1936918,5.9622239 3.8187447,5.9953587 3.6234234,6.4644787 A 4.0459413,4.0459413 0 0 1 3.1944141,7.1742623 C 2.9764216,7.4934034 2.6346093,7.5858322 2.3677864,7.4149261 2.1009636,7.2440199 2.0486454,6.9632456 2.2491985,6.5970181 2.498582,6.1383618 2.760173,5.6866813 3.0147883,5.229769 A 0.8719701,0.8719701 0 0 1 3.6984128,4.7658809 C 4.3314631,4.6734521 4.9540498,4.5670717 5.5923319,4.4920823 A 2.0473858,2.0473858 0 0 1 6.987484,4.8408703 C 7.4827631,5.1896584 7.9431633,5.580301 8.4436741,5.9744315 8.7052651,5.6047161 8.9825516,5.2036099 9.2615821,4.8042476 9.5057337,4.4554595 9.8144111,4.3595428 10.096929,4.5374247 10.379448,4.7153066 10.457925,5.0763023 10.224237,5.4407858 9.845802,6.0337254 9.4516715,6.6162015 9.0505653,7.1934457 8.8203652,7.5230504 8.5465666,7.5736246 8.1785952,7.3678397 7.7722571,7.1428714 7.3711509,6.9039516 6.9264461,6.6458484 6.4608141,7.4323655 6.0056457,8.2066749 5.531294,9.0158632 5.9951821,9.4797513 6.4555823,9.9366636 6.9124946,10.39532 7.4077736,10.894087 7.4653236,11.314376 7.1252553,11.919523 6.785187,12.524671 6.4276792,13.164697 6.0666836,13.783795 5.8260199,14.205829 5.4632803,14.341856 5.1284438,14.158743 4.7936073,13.975629 4.7029224,13.558827 4.9540498,13.129818 5.2801666,12.566525 5.6080273,12.004976 5.9533275,11.410293"
     id="path2-5"
     style="fill:none;stroke:#6fb9e1;stroke-width:0.348788px;stroke-linecap:round;stroke-linejoin:round;stroke-opacity:1" /><path
     class="cls-1"
     d="M 3.0147883,14.033179 A 7.8268036,7.8268036 0 1 0 0.95345098,11.312632"
     id="path3-7"
     style="fill:none;stroke:#6fb9e1;stroke-width:0.348788px;stroke-linecap:round;stroke-linejoin:round;stroke-opacity:1" /></svg>
