<?xml version="1.0" encoding="UTF-8" standalone="no"?>
<svg
   version="1.1"
   id="svg2985"
   height="15.997986"
   width="15.997864"
   xml:space="preserve"
   xmlns="http://www.w3.org/2000/svg"
   xmlns:svg="http://www.w3.org/2000/svg"
   xmlns:rdf="http://www.w3.org/1999/02/22-rdf-syntax-ns#"
   xmlns:cc="http://creativecommons.org/ns#"
   xmlns:dc="http://purl.org/dc/elements/1.1/"><defs
     id="defs2987"><linearGradient
       id="linearGradient6402"><stop
         id="stop6404"
         offset="0"
         style="stop-color:#000000;stop-opacity:1;" /><stop
         id="stop6406"
         offset="1"
         style="stop-color:#000000;stop-opacity:0;" /></linearGradient><linearGradient
       id="linearGradient3816"><stop
         id="stop3818"
         offset="0"
         style="stop-color:#ffa576;stop-opacity:1;" /><stop
         style="stop-color:#f45400;stop-opacity:1;"
         offset="1"
         id="stop3782" /></linearGradient></defs><metadata
     id="metadata2990"><rdf:RDF><cc:Work
         rdf:about=""><dc:format>image/svg+xml</dc:format><dc:type
           rdf:resource="http://purl.org/dc/dcmitype/StillImage" /></cc:Work></rdf:RDF></metadata><g
     style="display:inline"
     id="layer1"
     transform="translate(-300.00159,-848.99994)"><g
       id="g7"
       transform="matrix(0.99011443,0,0,0.99034631,186.20988,-224.47402)"
       style="stroke-width:1.00987"><path
         class="cls-1"
         d="m 122.83256,1093.4542 h 0.96091 l 0.7185,-0.9661 0.95219,1.4492 1.19983,-2.4154 0.95917,3.3815 0.72025,-1.4492 h 1.19983"
         id="path1-8-8-5-2"
         style="display:inline;fill:none;stroke:#bddff2;stroke-width:0.352229px;stroke-linecap:round;stroke-linejoin:round;stroke-opacity:1" /><path
         class="cls-1"
         d="m 123.35748,1086.9772 a 1.1265854,1.1265854 0 1 1 -1.12658,-1.1353 1.1318172,1.1318172 0 0 1 1.12658,1.1353 m -3.82271,7.2984 c -0.41157,0.5581 -0.96615,1.4335 -1.4126,1.9707 -0.52318,0.6295 -1.16146,1.0725 -1.71603,1.6741 a 0.66269728,0.66269728 0 0 1 -0.83012,0.1779 0.61909877,0.61909877 0 0 1 -0.31914,-0.6975 0.70629578,0.70629578 0 0 1 0.19183,-0.3488 c 1.20158,-0.9906 1.84684,-1.5277 2.57406,-3.0153 0.0366,-0.072 0.34879,-0.8179 0.45517,-1.1336 m 2.39443,2.4381 c -0.35751,-0.3139 -0.69758,-0.6034 -1.02893,-0.8999 -0.25461,-0.2232 -0.51272,-0.4465 -0.7621,-0.6784 -0.72722,-0.6732 -0.70978,-1.1719 -0.37495,-1.8468 0.31217,-0.6313 0.55981,-1.2923 0.83709,-1.941 a 0.34878804,0.34878804 0 0 0 -0.009,-0.073 c -0.41157,0 -0.78652,0.033 -0.98184,0.5023 a 4.0459413,4.0459413 0 0 1 -0.42901,0.7097 c -0.218,0.3192 -0.55981,0.4116 -0.82663,0.2407 -0.26682,-0.1709 -0.31914,-0.4517 -0.11859,-0.8179 0.24939,-0.4587 0.51098,-0.9103 0.76559,-1.3672 a 0.8719701,0.8719701 0 0 1 0.68363,-0.4639 c 0.63305,-0.092 1.25563,-0.1988 1.89392,-0.2738 a 2.0473858,2.0473858 0 0 1 1.39515,0.3488 c 0.49528,0.3487 0.95568,0.7394 1.45619,1.1335 0.26159,-0.3697 0.53887,-0.7708 0.81791,-1.1702 0.24415,-0.3488 0.55282,-0.4447 0.83534,-0.2668 0.28252,0.1779 0.361,0.5389 0.12731,0.9034 -0.37843,0.5929 -0.77257,1.1754 -1.17367,1.7526 -0.2302,0.3296 -0.504,0.3802 -0.87197,0.1744 -0.40634,-0.2249 -0.80745,-0.4639 -1.25215,-0.722 -0.46563,0.7866 -0.9208,1.5609 -1.39515,2.3701 0.46389,0.4638 0.92429,0.9208 1.3812,1.3794 0.49528,0.4988 0.55283,0.9191 0.21276,1.5242 -0.34007,0.6052 -0.69758,1.2452 -1.05857,1.8643 -0.24067,0.422 -0.60341,0.558 -0.93824,0.3749 -0.33484,-0.1831 -0.42552,-0.5999 -0.1744,-1.0289 0.32612,-0.5633 0.65398,-1.1248 0.99928,-1.7195"
         id="path2-5-9-4-3"
         style="display:inline;fill:none;stroke:#bddff2;stroke-width:0.352229px;stroke-linecap:round;stroke-linejoin:round;stroke-opacity:1" /><path
         class="cls-1"
         d="m 117.94429,1097.9728 a 7.8268036,7.8268036 0 1 0 -2.06134,-2.7206"
         id="path3-7-2-3-3"
         style="display:inline;fill:none;stroke:#bddff2;stroke-width:0.352229px;stroke-linecap:round;stroke-linejoin:round;stroke-opacity:1" /></g></g></svg>
