<?xml version="1.0" encoding="UTF-8" standalone="no"?>
<svg
   version="1.1"
   id="svg2985"
   height="15.997986"
   width="15.997864"
   xml:space="preserve"
   sodipodi:docname="fit-logo-dark.svg"
   inkscape:export-filename="fit-logo-dark.svg"
   inkscape:export-xdpi="96"
   inkscape:export-ydpi="96"
   inkscape:version="1.4.2 (f4327f4, 2025-05-13)"
   xmlns:inkscape="http://www.inkscape.org/namespaces/inkscape"
   xmlns:sodipodi="http://sodipodi.sourceforge.net/DTD/sodipodi-0.dtd"
   xmlns="http://www.w3.org/2000/svg"
   xmlns:svg="http://www.w3.org/2000/svg"
   xmlns:rdf="http://www.w3.org/1999/02/22-rdf-syntax-ns#"
   xmlns:cc="http://creativecommons.org/ns#"
   xmlns:dc="http://purl.org/dc/elements/1.1/"><sodipodi:namedview
     id="namedview1"
     pagecolor="#ffffff"
     bordercolor="#666666"
     borderopacity="1.0"
     inkscape:showpageshadow="2"
     inkscape:pageopacity="0.0"
     inkscape:pagecheckerboard="0"
     inkscape:deskcolor="#d1d1d1"
     inkscape:zoom="86.135843"
     inkscape:cx="7.9989929"
     inkscape:cy="7.9989929"
     inkscape:window-width="2880"
     inkscape:window-height="1620"
     inkscape:window-x="386"
     inkscape:window-y="266"
     inkscape:window-maximized="0"
     inkscape:current-layer="g7" /><defs
     id="defs2987"><linearGradient
       id="linearGradient6402"><stop
         id="stop6404"
         offset="0"
         style="stop-color:#000000;stop-opacity:1;" /><stop
         id="stop6406"
         offset="1"
         style="stop-color:#000000;stop-opacity:0;" /></linearGradient><linearGradient
       id="linearGradient3816"><stop
         id="stop3818"
         offset="0"
         style="stop-color:#ffa576;stop-opacity:1;" /><stop
         style="stop-color:#f45400;stop-opacity:1;"
         offset="1"
         id="stop3782" /></linearGradient></defs><metadata
     id="metadata2990"><rdf:RDF><cc:Work
         rdf:about=""><dc:format>image/svg+xml</dc:format><dc:type
           rdf:resource="http://purl.org/dc/dcmitype/StillImage" /></cc:Work></rdf:RDF></metadata><g
     id="g7"
     transform="matrix(0.99011443,0,0,0.99034631,-113.79171,-1073.474)"
     style="stroke-width:1.00987"><path
       class="cls-1"
       d="M 122.83256,1093.4542 H 123.79347 L 124.51197,1092.4881 125.46416,1093.9373 126.66399,1091.5219 127.62316,1094.9034 128.34341,1093.4542 H 129.54324"
       id="path1-8-8-5-2"
       style="display:inline;fill:none;stroke:#e5f3fa;stroke-width:0.352229px;stroke-linecap:round;stroke-linejoin:round;stroke-opacity:1" /><path
       class="cls-1"
       d="M 123.35748,1086.9772 A 1.1265854,1.1265854 0 1 1 122.2309,1085.8419 1.1318172,1.1318172 0 0 1 123.35748,1086.9772 M 119.53477,1094.2756 C 119.1232,1094.8337 118.56862,1095.7091 118.12217,1096.2463 117.59899,1096.8758 116.96071,1097.3188 116.40614,1097.9204 A 0.66269728,0.66269728 0 0 1 115.57602,1098.0983 0.61909877,0.61909877 0 0 1 115.25688,1097.4008 0.70629578,0.70629578 0 0 1 115.44871,1097.052 C 116.65029,1096.0614 117.29555,1095.5243 118.02277,1094.0367 118.05937,1093.9647 118.37156,1093.2188 118.47794,1092.9031 M 120.87237,1095.3412 C 120.51486,1095.0273 120.17479,1094.7378 119.84344,1094.4413 119.58883,1094.2181 119.33072,1093.9948 119.08134,1093.7629 118.35412,1093.0897 118.37156,1092.591 118.70639,1091.9161 119.01856,1091.2848 119.2662,1090.6238 119.54348,1089.9751 A 0.34878804,0.34878804 0 0 0 119.53448,1089.9021 C 119.12291,1089.9021 118.74796,1089.9351 118.55264,1090.4044 A 4.0459413,4.0459413 0 0 1 118.12363,1091.1141 C 117.90563,1091.4333 117.56382,1091.5257 117.297,1091.3548 117.03018,1091.1839 116.97786,1090.9031 117.17841,1090.5369 117.4278,1090.0782 117.68939,1089.6266 117.944,1089.1697 A 0.8719701,0.8719701 0 0 1 118.62763,1088.7058 C 119.26068,1088.6138 119.88326,1088.507 120.52155,1088.432 A 2.0473858,2.0473858 0 0 1 121.9167,1088.7808 C 122.41198,1089.1295 122.87238,1089.5202 123.37289,1089.9143 123.63448,1089.5446 123.91176,1089.1435 124.1908,1088.7441 124.43495,1088.3953 124.74362,1088.2994 125.02614,1088.4773 125.30866,1088.6552 125.38714,1089.0162 125.15345,1089.3807 124.77502,1089.9736 124.38088,1090.5561 123.97978,1091.1333 123.74958,1091.4629 123.47578,1091.5135 123.10781,1091.3077 122.70147,1091.0828 122.30036,1090.8438 121.85566,1090.5857 121.39003,1091.3723 120.93486,1092.1466 120.46051,1092.9558 120.9244,1093.4196 121.3848,1093.8766 121.84171,1094.3352 122.33699,1094.834 122.39454,1095.2543 122.05447,1095.8594 121.7144,1096.4646 121.35689,1097.1046 120.9959,1097.7237 120.75523,1098.1457 120.39249,1098.2817 120.05766,1098.0986 119.72282,1097.9155 119.63214,1097.4987 119.88326,1097.0697 120.20938,1096.5064 120.53724,1095.9449 120.88254,1095.3502"
       id="path2-5-9-4-3"
       style="display:inline;fill:none;stroke:#e5f3fa;stroke-width:0.352229px;stroke-linecap:round;stroke-linejoin:round;stroke-opacity:1" /><path
       class="cls-1"
       d="M 117.94429,1097.9728 A 7.8268036,7.8268036 0 1 0 115.88295,1095.2522"
       id="path3-7-2-3-3"
       style="display:inline;fill:none;stroke:#e5f3fa;stroke-width:0.352229px;stroke-linecap:round;stroke-linejoin:round;stroke-opacity:1" /></g></svg>
