<?xml version="1.0" encoding="UTF-8" standalone="no"?>
<svg
   version="1.1"
   id="svg2985"
   height="16"
   width="15.999542"
   xml:space="preserve"
   xmlns="http://www.w3.org/2000/svg"
   xmlns:svg="http://www.w3.org/2000/svg"
   xmlns:rdf="http://www.w3.org/1999/02/22-rdf-syntax-ns#"
   xmlns:cc="http://creativecommons.org/ns#"
   xmlns:dc="http://purl.org/dc/elements/1.1/"><defs
     id="defs2987"><linearGradient
       id="linearGradient6402"><stop
         id="stop6404"
         offset="0"
         style="stop-color:#000000;stop-opacity:1;" /><stop
         id="stop6406"
         offset="1"
         style="stop-color:#000000;stop-opacity:0;" /></linearGradient><linearGradient
       id="linearGradient3816"><stop
         id="stop3818"
         offset="0"
         style="stop-color:#ffa576;stop-opacity:1;" /><stop
         style="stop-color:#f45400;stop-opacity:1;"
         offset="1"
         id="stop3782" /></linearGradient></defs><metadata
     id="metadata2990"><rdf:RDF><cc:Work
         rdf:about=""><dc:format>image/svg+xml</dc:format><dc:type
           rdf:resource="http://purl.org/dc/dcmitype/StillImage" /></cc:Work></rdf:RDF></metadata><g
     style="display:inline"
     id="layer1"
     transform="translate(-300,-819.00043)"><g
       id="Layer_1-2"
       data-name="Layer 1"
       transform="matrix(0.17439402,0,0,0.17439402,300.00052,818.97285)"><path
         class="cls-1"
         d="m 44.91,54.37 h 5.51 l 4.12,-5.54 5.46,8.31 6.88,-13.85 5.5,19.39 4.13,-8.31 h 6.88"
         id="path1-8"
         style="fill:none;stroke:#144662;stroke-width:2px;stroke-linecap:round;stroke-linejoin:round" /><path
         class="cls-1"
         d="m 47.92,17.23 a 6.46,6.46 0 1 1 -6.46,-6.51 6.49,6.49 0 0 1 6.46,6.51 M 26,59.08 c -2.36,3.2 -5.54,8.22 -8.1,11.3 -3,3.61 -6.66,6.15 -9.84,9.6 A 3.8,3.8 0 0 1 3.3,81 3.55,3.55 0 0 1 1.47,77 4.05,4.05 0 0 1 2.57,75 c 6.89,-5.68 10.59,-8.76 14.76,-17.29 0.21,-0.41 2,-4.69 2.61,-6.5 m 13.73,13.98 c -2.05,-1.8 -4,-3.46 -5.9,-5.16 -1.46,-1.28 -2.94,-2.56 -4.37,-3.89 -4.17,-3.86 -4.07,-6.72 -2.15,-10.59 1.79,-3.62 3.21,-7.41 4.8,-11.13 A 2,2 0 0 0 26,34 c -2.36,0 -4.51,0.19 -5.63,2.88 a 23.2,23.2 0 0 1 -2.46,4.07 c -1.25,1.83 -3.21,2.36 -4.74,1.38 -1.53,-0.98 -1.83,-2.59 -0.68,-4.69 1.43,-2.63 2.93,-5.22 4.39,-7.84 A 5,5 0 0 1 20.8,27.14 C 24.43,26.61 28,26 31.66,25.57 a 11.74,11.74 0 0 1 8,2 c 2.84,2 5.48,4.24 8.35,6.5 1.5,-2.12 3.09,-4.42 4.69,-6.71 1.4,-2 3.17,-2.55 4.79,-1.53 1.62,1.02 2.07,3.09 0.73,5.18 -2.17,3.4 -4.43,6.74 -6.73,10.05 -1.32,1.89 -2.89,2.18 -5,1 -2.33,-1.29 -4.63,-2.66 -7.18,-4.14 -2.67,4.51 -5.28,8.95 -8,13.59 2.66,2.66 5.3,5.28 7.92,7.91 2.84,2.86 3.17,5.27 1.22,8.74 -1.95,3.47 -4,7.14 -6.07,10.69 C 33,81.27 30.92,82.05 29,81 c -1.92,-1.05 -2.44,-3.44 -1,-5.9 1.87,-3.23 3.75,-6.45 5.73,-9.86"
         id="path2-5"
         style="fill:none;stroke:#144662;stroke-width:2px;stroke-linecap:round;stroke-linejoin:round" /><path
         class="cls-1"
         d="M 16.88,80.28 A 44.88,44.88 0 1 0 5.06,64.68"
         id="path3-7"
         style="fill:none;stroke:#144662;stroke-width:2px;stroke-linecap:round;stroke-linejoin:round" /></g></g></svg>
