<?xml version="1.0" encoding="UTF-8" standalone="no"?>
<!-- Created with Inkscape (http://www.inkscape.org/) -->

<svg
   width="16"
   height="16"
   id="svg2"
   version="1.1"
   xmlns="http://www.w3.org/2000/svg"
   xmlns:svg="http://www.w3.org/2000/svg"
   xmlns:rdf="http://www.w3.org/1999/02/22-rdf-syntax-ns#"
   xmlns:cc="http://creativecommons.org/ns#"
   xmlns:dc="http://purl.org/dc/elements/1.1/">
  <defs
     id="defs4" />
  <metadata
     id="metadata7">
    <rdf:RDF>
      <cc:Work
         rdf:about="">
        <dc:format>image/svg+xml</dc:format>
        <dc:type
           rdf:resource="http://purl.org/dc/dcmitype/StillImage" />
      </cc:Work>
    </rdf:RDF>
  </metadata>
  <g
     id="layer1"
     transform="translate(-624,-79)">
    <rect
       style="fill:none;fill-opacity:1;stroke:none;stroke-width:0.377953;stroke-linecap:square;stroke-linejoin:miter;stroke-miterlimit:4;stroke-dasharray:none;stroke-opacity:1;paint-order:normal"
       id="rect1645-7"
       width="16"
       height="15.999994"
       x="624"
       y="79.000008" />
    <path
       style="fill:#d0ec86;fill-opacity:1;stroke:none;stroke-width:0.377953;stroke-miterlimit:4;stroke-dasharray:none;stroke-opacity:1"
       d="m 631.98244,80.579347 c -3.8917,0 -7.06195,3.170306 -7.06195,7.100393 0,3.93006 3.17025,7.131689 7.06195,7.131689 3.89171,0 7.03106,-3.201629 7.03106,-7.131689 0,-3.930087 -3.13935,-7.100393 -7.03106,-7.100393 z m 0,3.613013 c 1.90727,0 3.42214,1.561412 3.42214,3.48738 0,1.926035 -1.51487,3.487356 -3.42214,3.487356 -1.90713,0 -3.48427,-1.561321 -3.48427,-3.487356 0,-1.925968 1.57714,-3.48738 3.48427,-3.48738 z"
       id="path4529-2-9-2-4-6-7-4" />
    <path
       id="path3829-9-2-3-0-1-6-5-4-2-9-1-7-7-0"
       d="m 631.76766,80.111817 c 2.14878,-0.265813 4.50103,0.734905 5.96607,2.344133 0.96884,-3.020051 -1.7089,-3.500711 -2.72675,-3.452868 -0.14344,0.0066 -1.65847,-0.0778 -3.23932,1.108735 z"
       style="fill:#6c7b1b;fill-opacity:1;stroke:none;stroke-width:0.5;stroke-linecap:round;stroke-linejoin:round;stroke-miterlimit:3.05;stroke-dasharray:none;stroke-opacity:1" />
    <path
       style="fill:#6c7b1b;fill-opacity:1;stroke:none;stroke-width:0.5;stroke-miterlimit:4;stroke-dasharray:none;stroke-opacity:1"
       d="m 627.6995,94.848757 c 0.54086,0 0.63022,-0.407635 1.14307,-0.390099 0.40207,0.01349 0.32501,-0.0027 0.84739,0.213727 0.52247,0.215874 2.098,0.230862 3.18234,0.106096 1.27607,-0.146253 2.98174,-0.563792 2.98174,-1.614874 0,-0.72048 -1.06415,-0.646171 -1.33099,-0.635643 -0.63637,0.02482 -0.84135,0.07046 -1.96839,-0.313548 -1.23624,-0.62382 -2.72634,-2.036109 -3.59709,-2.036109 -0.63607,0 -1.58786,0.66193 -2.14664,0.784163 -0.55888,0.121843 -0.65122,-0.07701 -1.14585,-0.599396 0,0 -0.1343,-0.121977 -0.35133,-0.004 -0.21742,0.117171 -0.36897,1.056834 -0.59154,2.081642 -0.22259,1.025646 -0.38447,1.578813 0.0559,2.135291 0.22999,0.290836 0.76734,0.275527 1.07135,0.275527 0.73472,0 1.40648,-0.01068 1.85047,-0.0027 z"
       id="path4333-0-52-7-1-9-8-0-9" />
  </g>
</svg>
