<svg id="Layer_1" data-name="Layer 1" xmlns="http://www.w3.org/2000/svg" xmlns:xlink="http://www.w3.org/1999/xlink" viewBox="0 0 1500 1500"><defs><style>.cls-1{fill:url(#linear-gradient);}.cls-2{fill:#ff6700;}.cls-3{fill:#fff;}.cls-4{fill:url(#linear-gradient-2);}</style><linearGradient id="linear-gradient" x1="94.36" y1="750" x2="1405.64" y2="750" gradientUnits="userSpaceOnUse"><stop offset="0" stop-color="#414042"/><stop offset="1" stop-color="#231f20"/></linearGradient><linearGradient id="linear-gradient-2" x1="1319.56" y1="2450.9" x2="767.63" y2="1122.03" xlink:href="#linear-gradient"/></defs><polygon points="1421.26 1032.79 78.74 1032.79 200.73 965.7 1299.27 965.7 1421.26 1032.79"/><circle class="cls-1" cx="750" cy="750" r="655.64"/><circle class="cls-2" cx="750" cy="750" r="575.63"/><path class="cls-3" d="M271.67,758.71a48.62,48.62,0,0,1,19-19.22,55.08,55.08,0,0,1,27.61-6.88q18.92,0,32.38,10t18,27.23H340.21a23,23,0,0,0-9-10.14A25.28,25.28,0,0,0,318,756.21q-12,0-19.37,8.32t-7.41,22.24q0,13.93,7.41,22.25T318,817.34a25.28,25.28,0,0,0,13.23-3.48,23,23,0,0,0,9-10.14h28.44q-4.53,17.25-18,27.16t-32.38,9.91a55.08,55.08,0,0,1-27.61-6.88,48.75,48.75,0,0,1-19-19.14q-6.81-12.25-6.81-28A57.08,57.08,0,0,1,271.67,758.71Z"/><path class="cls-3" d="M407.31,834.13a52,52,0,0,1-19.82-19.44,57.19,57.19,0,0,1,0-56.06,52.18,52.18,0,0,1,19.82-19.36,57.65,57.65,0,0,1,54.92,0,51.1,51.1,0,0,1,19.67,19.36,58,58,0,0,1-.08,56.06,51.64,51.64,0,0,1-19.67,19.44,57.49,57.49,0,0,1-54.84,0ZM455.12,809q7.63-8.47,7.64-22.4t-7.64-22.46q-7.65-8.4-20.35-8.4-12.87,0-20.5,8.32t-7.64,22.54q0,14.07,7.64,22.47t20.5,8.4Q447.48,817.49,455.12,809Z"/><path class="cls-3" d="M623.74,733.82V840H597.87v-63.7L574.11,840H553.23l-23.9-63.85V840H503.46V733.82H534l29.81,73.53,29.5-73.53Z"/><path class="cls-3" d="M762.64,733.82V840H736.76v-63.7L713,840H692.13l-23.91-63.85V840H642.35V733.82h30.56l29.81,73.53,29.5-73.53Z"/><path class="cls-3" d="M806.66,733.82v63.55q0,9.52,4.69,14.67t13.77,5.15q9.09,0,13.92-5.15t4.84-14.67V733.82h25.88v63.39q0,14.24-6.06,24.06a38.7,38.7,0,0,1-16.26,14.83,51.14,51.14,0,0,1-22.77,5,49.88,49.88,0,0,1-22.47-4.92,36.54,36.54,0,0,1-15.66-14.82q-5.74-9.92-5.75-24.14V733.82Z"/><path class="cls-3" d="M982.93,840H957.05l-43.27-65.51V840H887.91V733.82h25.87l43.27,65.82V733.82h25.88Z"/><path class="cls-3" d="M1027.56,733.82V840h-25.87V733.82Z"/><path class="cls-3" d="M1122.73,733.82v20.73h-28.14V840h-25.88V754.55h-28.14V733.82Z"/><path class="cls-3" d="M1226.82,733.82l-36.77,71.11V840h-25.87v-35.1l-36.77-71.11h29.36l20.57,44.48,20.43-44.48Z"/><path class="cls-3" d="M462.38,903.21a48.69,48.69,0,0,1,19-19.22A55.11,55.11,0,0,1,509,877.11q18.91,0,32.38,10t18,27.24H530.92a23,23,0,0,0-9-10.14,25.34,25.34,0,0,0-13.24-3.48q-12,0-19.37,8.32t-7.41,22.24q0,13.93,7.41,22.25t19.37,8.32a25.34,25.34,0,0,0,13.24-3.48,23,23,0,0,0,9-10.14h28.45q-4.54,17.25-18,27.16T509,985.29a55.21,55.21,0,0,1-27.61-6.88,48.77,48.77,0,0,1-19-19.15q-6.81-12.24-6.81-28A57.08,57.08,0,0,1,462.38,903.21Z"/><path class="cls-3" d="M667.24,878.32V984.53H641.37V940.81H601.12v43.72H575.25V878.32h25.87v41.61h40.25V878.32Z"/><path class="cls-3" d="M708.62,978.63a52,52,0,0,1-19.82-19.44,57.19,57.19,0,0,1,0-56.06,52.18,52.18,0,0,1,19.82-19.36,57.65,57.65,0,0,1,54.92,0,51.1,51.1,0,0,1,19.67,19.36,58,58,0,0,1-.07,56.06,51.71,51.71,0,0,1-19.67,19.44,57.51,57.51,0,0,1-54.85,0Zm47.81-25.11q7.64-8.47,7.64-22.4t-7.64-22.46q-7.63-8.4-20.35-8.4t-20.5,8.32q-7.65,8.32-7.64,22.54t7.64,22.47q7.63,8.4,20.5,8.4Q748.78,962,756.43,953.52Z"/><path class="cls-3" d="M830.64,878.32V984.53H804.77V878.32Z"/><path class="cls-3" d="M851.82,903.21a48.69,48.69,0,0,1,19-19.22,55.13,55.13,0,0,1,27.61-6.88q18.92,0,32.38,10t18,27.24H920.36a22.94,22.94,0,0,0-9-10.14,25.31,25.31,0,0,0-13.24-3.48q-12,0-19.36,8.32t-7.42,22.24q0,13.93,7.42,22.25t19.36,8.32a25.31,25.31,0,0,0,13.24-3.48,22.94,22.94,0,0,0,9-10.14h28.45q-4.54,17.25-18,27.16t-32.38,9.91a55.24,55.24,0,0,1-27.61-6.88,48.77,48.77,0,0,1-19-19.15q-6.8-12.24-6.8-28A57.19,57.19,0,0,1,851.82,903.21Z"/><path class="cls-3" d="M990.57,899.05v21.48h34.64v20H990.57v23.3h39.18v20.73H964.69V878.32h65.06v20.73Z"/><path class="cls-4" d="M1421.26,1032.78H78.74l33.72,166.56A168,168,0,0,0,277.13,1334h945.74a168,168,0,0,0,164.67-134.66Z"/><path class="cls-2" d="M345.4,1186.65c0-30-10.59-43.72-16.2-48.91a1.6,1.6,0,0,0-2.65,1.42c1.09,17-20.11,21.22-20.11,47.8v.16c0,16.19,12.16,29.4,27.12,29.4s27.11-13.21,27.11-29.4V1187c0-7.55-2.8-14.78-5.61-20.13-.62-1.1-2.18-.63-2,.32C358.18,1190.11,345.4,1204.26,345.4,1186.65Z"/><path class="cls-2" d="M313.14,1250a2.89,2.89,0,0,1-1.87-.79l-69.34-70a2.88,2.88,0,0,1,0-3.78l73.24-73.91a3.29,3.29,0,0,1,1.71-.63h21a2.46,2.46,0,0,1,2.34,1.58,2.58,2.58,0,0,1-.62,2.83l-68.73,69.5a3.54,3.54,0,0,0,0,5l54.39,55a2.91,2.91,0,0,1,0,3.78l-10.44,10.69a3.3,3.3,0,0,1-1.72.63ZM327,1262.29a2.45,2.45,0,0,1-2.33-1.58,2.54,2.54,0,0,1,.62-2.83l68.88-69.5a3.76,3.76,0,0,0,1.09-2.52,3.15,3.15,0,0,0-1.09-2.52l-54.54-55a2.87,2.87,0,0,1,0-3.77l10.59-10.69a2.58,2.58,0,0,1,1.87-.79,2.39,2.39,0,0,1,1.72.94L423,1184a2.68,2.68,0,0,1,0,3.78l-73.24,73.91a2.57,2.57,0,0,1-1.87.78H327Z"/><path class="cls-3" d="M501.71,1151.26a1.57,1.57,0,0,1-1.56,1,3,3,0,0,1-1.87-1.1,17.47,17.47,0,0,0-3.12-2.36,18.29,18.29,0,0,0-5-2.36,20.82,20.82,0,0,0-7.48-1.1,23.8,23.8,0,0,0-7.8,1.26,16.8,16.8,0,0,0-5.61,3.46,13.77,13.77,0,0,0-3.42,5,15.76,15.76,0,0,0-1.25,6,13.35,13.35,0,0,0,1.71,6.92,14.4,14.4,0,0,0,4.68,4.56,25.46,25.46,0,0,0,6.54,3.15c2.5.94,5,1.73,7.48,2.51a72.69,72.69,0,0,1,7.48,2.83,29.81,29.81,0,0,1,6.55,3.78,16.48,16.48,0,0,1,4.68,5.66,18.84,18.84,0,0,1,1.71,8.33,27.63,27.63,0,0,1-1.71,9.6,22,22,0,0,1-5,7.86,27.12,27.12,0,0,1-8.11,5.35,30.1,30.1,0,0,1-10.9,1.88,30.49,30.49,0,0,1-13.72-2.83,32.7,32.7,0,0,1-10.13-7.86l1.56-2.52a1.74,1.74,0,0,1,1.56-.78,1.88,1.88,0,0,1,1.25.63c.46.47,1.24,1.1,1.87,1.73.78.63,1.71,1.41,2.8,2.2a21.94,21.94,0,0,0,3.74,2.2,28.35,28.35,0,0,0,4.83,1.73,25.5,25.5,0,0,0,6.24.63,23.8,23.8,0,0,0,8.57-1.42,20.11,20.11,0,0,0,6.39-3.93,17.69,17.69,0,0,0,4.05-6,20.2,20.2,0,0,0,1.4-7.39,14,14,0,0,0-1.71-7.08,13.46,13.46,0,0,0-4.68-4.72,25.12,25.12,0,0,0-6.54-3.14c-2.5-.79-5-1.73-7.48-2.52s-5-1.73-7.48-2.67a24.57,24.57,0,0,1-6.55-3.78,19,19,0,0,1-4.67-5.82,20.39,20.39,0,0,1-1.72-8.8,19.63,19.63,0,0,1,1.56-7.86,21.37,21.37,0,0,1,4.52-6.77,24.48,24.48,0,0,1,7.32-4.71,28.28,28.28,0,0,1,10-1.73,29.44,29.44,0,0,1,11.37,2,31.55,31.55,0,0,1,9.2,6.13Z"/><path class="cls-3" d="M479.42,1224.86c-5.45,0-10.28-.94-14.18-3a34.61,34.61,0,0,1-10.44-8l-.47-.47,2-3.15a2.86,2.86,0,0,1,2.34-1.25,2.69,2.69,0,0,1,1.87.94c.47.47,1.24,1.1,2,1.73s1.72,1.41,2.65,2.2a19.17,19.17,0,0,0,3.59,2.05,21.17,21.17,0,0,0,4.67,1.57,23.42,23.42,0,0,0,6.08.63,22.05,22.05,0,0,0,8.26-1.42,19.94,19.94,0,0,0,6.08-3.77,15.64,15.64,0,0,0,3.74-5.66,17.94,17.94,0,0,0,1.24-7.08,12.18,12.18,0,0,0-1.55-6.6,14.79,14.79,0,0,0-4.37-4.41,25.49,25.49,0,0,0-6.23-3c-2.34-.78-4.83-1.73-7.48-2.51s-5.14-1.73-7.48-2.68a27.56,27.56,0,0,1-6.7-3.93,18.5,18.5,0,0,1-4.83-6.13,20.17,20.17,0,0,1-1.87-9.12,21.94,21.94,0,0,1,1.55-8.33,21.48,21.48,0,0,1,4.68-7.08,23.58,23.58,0,0,1,7.64-4.88,26.79,26.79,0,0,1,10.28-1.88,30.54,30.54,0,0,1,11.69,2,31,31,0,0,1,9.5,6.45l.47.47-1.71,3.3c-.94,1.73-2.65,2.2-4.83.16a20.46,20.46,0,0,0-3.12-2.2,35.23,35.23,0,0,0-4.83-2.36,22.18,22.18,0,0,0-7.17-1.1,21.86,21.86,0,0,0-7.48,1.26,15,15,0,0,0-5.3,3.3,16,16,0,0,0-3.27,4.72,14.06,14.06,0,0,0-1.09,5.66,11.08,11.08,0,0,0,1.56,6.29,14.61,14.61,0,0,0,4.36,4.4,33.61,33.61,0,0,0,6.23,3.15c2.34.78,4.83,1.73,7.48,2.51a61,61,0,0,1,7.48,2.83,28,28,0,0,1,6.71,3.93,18.29,18.29,0,0,1,4.83,6,18.94,18.94,0,0,1,1.87,8.81,27.56,27.56,0,0,1-1.87,10.06,23.81,23.81,0,0,1-5.3,8.18,26,26,0,0,1-8.42,5.5,30.9,30.9,0,0,1-10.91,1.89Zm-22.59-11.8a29.13,29.13,0,0,0,22.75,9.91,28.28,28.28,0,0,0,10.6-1.89,24.56,24.56,0,0,0,7.79-5,22.37,22.37,0,0,0,4.83-7.55,25.8,25.8,0,0,0,1.71-9.27,20.45,20.45,0,0,0-1.55-8,16.17,16.17,0,0,0-4.37-5.35,34.26,34.26,0,0,0-6.23-3.77c-2.34-.95-4.83-1.89-7.33-2.83-2.49-.79-5-1.73-7.48-2.52a38.69,38.69,0,0,1-6.7-3.3,16.05,16.05,0,0,1-4.83-4.88,13.36,13.36,0,0,1-1.87-7.39,18.26,18.26,0,0,1,1.25-6.45,14,14,0,0,1,3.58-5.34,15.11,15.11,0,0,1,5.92-3.62,22.08,22.08,0,0,1,8.11-1.26,23.48,23.48,0,0,1,7.79,1.1,22.57,22.57,0,0,1,5.14,2.52,22,22,0,0,1,3.28,2.51c.93.79,1.24.79,1.24.79a.59.59,0,0,0,.63-.47l1.09-2a28.29,28.29,0,0,0-8.26-5.51,30,30,0,0,0-10.91-1.89,26.45,26.45,0,0,0-9.66,1.73,22.32,22.32,0,0,0-7,4.41,18.9,18.9,0,0,0-5.76,14,18.88,18.88,0,0,0,1.71,8.34,15.13,15.13,0,0,0,4.37,5.5,27,27,0,0,0,6.23,3.62c2.34.94,4.83,1.88,7.32,2.67s5,1.57,7.48,2.52a29,29,0,0,1,6.7,3.3,13.64,13.64,0,0,1,4.84,5,14.53,14.53,0,0,1,1.87,7.71,21.87,21.87,0,0,1-1.41,7.86,15.85,15.85,0,0,1-4.2,6.29,22.3,22.3,0,0,1-6.71,4.25,26.34,26.34,0,0,1-8.88,1.57,28.71,28.71,0,0,1-6.54-.79,30.43,30.43,0,0,1-5-1.73,16,16,0,0,1-3.9-2.36c-1.09-.78-2-1.57-2.8-2.2a23,23,0,0,1-1.87-1.73c-.47-.47-.78-.47-.78-.47a.84.84,0,0,0-.78.47Z"/><path class="cls-3" d="M594.43,1182.09a50,50,0,0,1-2.8,17.14,36.34,36.34,0,0,1-20.1,21.7,42.53,42.53,0,0,1-31.33,0,34.85,34.85,0,0,1-12.15-8.49,37.3,37.3,0,0,1-7.95-13.21,53.71,53.71,0,0,1,0-34.29,36.41,36.41,0,0,1,20.1-21.7,42.66,42.66,0,0,1,31.33,0,34.83,34.83,0,0,1,12.15,8.5,37.25,37.25,0,0,1,8,13.2A50.08,50.08,0,0,1,594.43,1182.09Zm-6.07,0a47.73,47.73,0,0,0-2.34-15.42,32.79,32.79,0,0,0-6.55-11.47,28.37,28.37,0,0,0-10.28-7.24,36.23,36.23,0,0,0-26.5,0,28.37,28.37,0,0,0-10.28,7.24,33.06,33.06,0,0,0-6.7,11.47,47.09,47.09,0,0,0-2.34,15.42,47.67,47.67,0,0,0,2.34,15.41,31,31,0,0,0,6.7,11.48,28.47,28.47,0,0,0,10.28,7.23,33.22,33.22,0,0,0,13.25,2.52,32.69,32.69,0,0,0,13.25-2.52,26.66,26.66,0,0,0,10.28-7.23A32.93,32.93,0,0,0,586,1197.5,47,47,0,0,0,588.36,1182.09Z"/><path class="cls-3" d="M555.94,1224.7a42.66,42.66,0,0,1-15.89-3,34.79,34.79,0,0,1-12.47-8.65,38.9,38.9,0,0,1-8.11-13.52,51.83,51.83,0,0,1-3-17.45,48.41,48.41,0,0,1,3-17.46,40.43,40.43,0,0,1,8.11-13.52,34.79,34.79,0,0,1,12.47-8.65,40.3,40.3,0,0,1,15.89-3.15,43.52,43.52,0,0,1,16,3,35,35,0,0,1,12.47,8.65,40.41,40.41,0,0,1,8.1,13.52,55.62,55.62,0,0,1,0,34.91,40.56,40.56,0,0,1-8.1,13.53,35.13,35.13,0,0,1-12.47,8.65A38.53,38.53,0,0,1,555.94,1224.7Zm0-83.34a37.89,37.89,0,0,0-15.27,3,34.31,34.31,0,0,0-19.48,21.08,51.78,51.78,0,0,0,0,33.65,39,39,0,0,0,7.64,12.89,34.85,34.85,0,0,0,11.84,8.18,42.61,42.61,0,0,0,30.54,0,35,35,0,0,0,11.85-8.18,36,36,0,0,0,7.63-12.73,51.81,51.81,0,0,0,0-33.66,39.23,39.23,0,0,0-7.63-12.89,35,35,0,0,0-11.85-8.18A34.53,34.53,0,0,0,555.94,1141.36Z"/><path class="cls-3" d="M640.72,1218.73a24.73,24.73,0,0,0,10.44-2A23.64,23.64,0,0,0,659,1211a24.1,24.1,0,0,0,4.83-8.49,33.41,33.41,0,0,0,1.72-10.69v-50.48h5.76v50.48a36.84,36.84,0,0,1-2.18,12.58,30.6,30.6,0,0,1-6.08,10.22,28.27,28.27,0,0,1-9.66,6.76,33.12,33.12,0,0,1-12.78,2.52,30.05,30.05,0,0,1-22.44-9.28,29.25,29.25,0,0,1-6.08-10.22,37.54,37.54,0,0,1-2.18-12.58v-50.48h5.92v50.32a34.16,34.16,0,0,0,1.72,10.69,25,25,0,0,0,4.83,8.49,23.64,23.64,0,0,0,7.79,5.66,23.21,23.21,0,0,0,10.6,2.21Z"/><path class="cls-3" d="M640.72,1224.86a31.88,31.88,0,0,1-13.09-2.52,28.93,28.93,0,0,1-10-7.07,32.43,32.43,0,0,1-6.23-10.54,38.61,38.61,0,0,1-2.18-12.89v-51.43H617v51.43a37.75,37.75,0,0,0,1.56,10.37,23.35,23.35,0,0,0,4.67,8.18,22.23,22.23,0,0,0,7.48,5.51,25.27,25.27,0,0,0,10,2,24.49,24.49,0,0,0,10-1.89,20.18,20.18,0,0,0,7.48-5.5,24.72,24.72,0,0,0,4.68-8.18,31.49,31.49,0,0,0,1.56-10.38v-51.58h7.79v51.43a38.61,38.61,0,0,1-2.18,12.89,32.64,32.64,0,0,1-6.24,10.54,29,29,0,0,1-10,7.07,31.92,31.92,0,0,1-13.09,2.52ZM611,1142.3v49.54a34.94,34.94,0,0,0,2,12.26,28.76,28.76,0,0,0,5.92,9.91,25.26,25.26,0,0,0,9.35,6.6,30.82,30.82,0,0,0,12.47,2.36,31.87,31.87,0,0,0,12.46-2.36,26.68,26.68,0,0,0,9.36-6.6,31.66,31.66,0,0,0,5.92-9.91,34.94,34.94,0,0,0,2-12.26V1142.3h-3.89v49.54a36.15,36.15,0,0,1-1.72,11,23.24,23.24,0,0,1-5.14,9,23.75,23.75,0,0,1-8.1,6,26.24,26.24,0,0,1-10.76,2.2,25.69,25.69,0,0,1-10.75-2.2,23.66,23.66,0,0,1-8.1-6,25.17,25.17,0,0,1-5-9,35.38,35.38,0,0,1-1.71-11V1142.3Z"/><path class="cls-3" d="M704.77,1181.61h4.83a36.27,36.27,0,0,0,9.66-1.25,19.58,19.58,0,0,0,7.17-3.78,16.25,16.25,0,0,0,4.52-5.82,17.44,17.44,0,0,0,1.56-7.7c0-5.82-1.87-10.07-5.61-12.9s-9.2-4.24-16.52-4.24H695.57v77h-5.76v-81.61h20.57c9.35,0,16.36,1.88,20.88,5.5,4.68,3.62,6.86,9,6.86,16a21.11,21.11,0,0,1-1.56,8.49,20,20,0,0,1-4.68,6.76,22.71,22.71,0,0,1-7.16,4.72,35.12,35.12,0,0,1-9.51,2.52,11.75,11.75,0,0,1,2.49,2.36L745.6,1223h-5.15a4.68,4.68,0,0,1-1.55-.31,2.79,2.79,0,0,1-1.25-1.1l-25.87-33a6.67,6.67,0,0,0-2-1.73,43,43,0,0,0-6.85-.47c0-4.24.62-4.72,1.87-4.72Z"/><path class="cls-3" d="M747.62,1223.92h-7a4.25,4.25,0,0,1-2-.48A4.31,4.31,0,0,1,737,1222l-25.87-33a5.33,5.33,0,0,0-1.72-1.57,52.69,52.69,0,0,0-6.39-.47h-.93v-4.09c0-1.41.31-2.2,2.8-2.2h5a34.32,34.32,0,0,0,9.35-1.26,19,19,0,0,0,6.86-3.61,14.58,14.58,0,0,0,4.21-5.51,18.21,18.21,0,0,0,1.4-7.23c0-5.51-1.72-9.44-5.3-12.11s-8.88-4.09-15.9-4.09H696.66v76.9h-7.79v-83.35h21.66q14.26,0,21.51,5.66c4.83,3.78,7.32,9.44,7.32,16.83a23.53,23.53,0,0,1-1.71,9,21.9,21.9,0,0,1-4.83,7.08,28.6,28.6,0,0,1-7.48,5,35.71,35.71,0,0,1-7.64,2.2,6.81,6.81,0,0,1,.94,1.11Zm-43.79-38.85c1.72,0,5.3.16,6.24.63a7.52,7.52,0,0,1,2.49,2l25.87,33a2.59,2.59,0,0,0,.93.94,2.26,2.26,0,0,0,1.09.32h3.12l-26.65-33.65a6.57,6.57,0,0,0-2.18-2.05l-2.34-1.41,2.81-.32a27.62,27.62,0,0,0,16.21-6.92,18.16,18.16,0,0,0,4.36-6.44,23.25,23.25,0,0,0,1.56-8.18c0-6.76-2.18-11.8-6.55-15.26s-11.22-5.19-20.26-5.19H690.9V1222h3.89V1145h15.74c7.33,0,13.09,1.42,17,4.41q6.08,4.47,6.08,13.68a21.7,21.7,0,0,1-1.56,8,16.52,16.52,0,0,1-4.83,6.13,21.2,21.2,0,0,1-7.48,3.93,32.37,32.37,0,0,1-10,1.42h-4.83c-.46,0-.93,0-1.09,2.51Z"/><path class="cls-3" d="M814,1209.13a1.12,1.12,0,0,1,.94.48l2.33,2.51a40.22,40.22,0,0,1-5.45,4.88,33.32,33.32,0,0,1-6.55,3.61,53.17,53.17,0,0,1-7.63,2.36,42.63,42.63,0,0,1-9.2.79,38.08,38.08,0,0,1-15.42-3,32.76,32.76,0,0,1-12-8.49,39.32,39.32,0,0,1-7.8-13.21,50,50,0,0,1-2.8-17.14,46.25,46.25,0,0,1,3-17,39.05,39.05,0,0,1,8.1-13.2,36.78,36.78,0,0,1,12.47-8.5,41.21,41.21,0,0,1,16-3,42.93,42.93,0,0,1,8.11.63,44.19,44.19,0,0,1,6.85,1.88,26.85,26.85,0,0,1,5.92,3.15,47.35,47.35,0,0,1,5.46,4.24l-1.72,2.52a1.51,1.51,0,0,1-1.4.63,1.84,1.84,0,0,1-1.24-.63c-.47-.47-1.25-.94-2-1.57a24.6,24.6,0,0,0-3-1.89,13,13,0,0,0-4.21-1.89,35.1,35.1,0,0,0-5.61-1.57,33,33,0,0,0-7.17-.63,34.21,34.21,0,0,0-13.56,2.52,29.44,29.44,0,0,0-10.59,7.39,35.38,35.38,0,0,0-7,11.48,42.36,42.36,0,0,0-2.49,15.25,43.26,43.26,0,0,0,2.49,15.41,33.55,33.55,0,0,0,6.86,11.48,30.77,30.77,0,0,0,23.06,9.75,39.29,39.29,0,0,0,7.8-.63,23.88,23.88,0,0,0,6.23-1.73,31.82,31.82,0,0,0,10.13-6.76c.16-.16.31-.31.47-.31C813.54,1209.29,813.86,1209.13,814,1209.13Z"/><path class="cls-3" d="M788.3,1224.86a41.83,41.83,0,0,1-15.74-3,34.19,34.19,0,0,1-12.31-8.65,38.68,38.68,0,0,1-8-13.52,51.9,51.9,0,0,1-2.81-17.46,47.54,47.54,0,0,1,3-17.3,44,44,0,0,1,8.26-13.52,38.28,38.28,0,0,1,12.78-8.81,43.07,43.07,0,0,1,16.52-3.14,41.57,41.57,0,0,1,15.27,2.52,27.33,27.33,0,0,1,6.08,3.14,45.84,45.84,0,0,1,5.61,4.4l.63.63-2.19,3.31a2.44,2.44,0,0,1-2.18,1.1,3.72,3.72,0,0,1-1.87-.79,12.32,12.32,0,0,0-2-1.42,16.87,16.87,0,0,0-3-1.88,33.37,33.37,0,0,0-4-1.89,24.88,24.88,0,0,0-5.45-1.41,44,44,0,0,0-7-.63,33.15,33.15,0,0,0-13.25,2.51,30.06,30.06,0,0,0-17,18.24,44.52,44.52,0,0,0-2.49,14.79,45,45,0,0,0,2.34,15.09,31.54,31.54,0,0,0,6.54,11.17,28.08,28.08,0,0,0,10,6.92,32.05,32.05,0,0,0,12.46,2.36,37.63,37.63,0,0,0,7.64-.63,25.35,25.35,0,0,0,6.08-1.73,39.3,39.3,0,0,0,5.14-2.68,48.54,48.54,0,0,0,4.67-3.77,2,2,0,0,1,.78-.47,2.14,2.14,0,0,1,2.65.47l3,3.14-.62.63a42.74,42.74,0,0,1-5.61,5,31.13,31.13,0,0,1-6.7,3.77,29.48,29.48,0,0,1-8,2.36A33,33,0,0,1,788.3,1224.86Zm1.71-83.5a39.16,39.16,0,0,0-15.74,3,33,33,0,0,0-12.15,8.34,37.34,37.34,0,0,0-8,12.89,47.37,47.37,0,0,0-2.81,16.67,48.2,48.2,0,0,0,2.81,16.83A39.13,39.13,0,0,0,761.8,1212a34.35,34.35,0,0,0,11.69,8.18,38.42,38.42,0,0,0,15,2.83,53.89,53.89,0,0,0,9-.78,28.11,28.11,0,0,0,7.48-2.36,27.12,27.12,0,0,0,6.24-3.62,39.62,39.62,0,0,0,4.67-4.09l-1.71-1.89a.3.3,0,0,0-.47,0c-.16,0-.31.16-.47.32a39.32,39.32,0,0,1-5,3.93,37,37,0,0,1-5.45,3,30.32,30.32,0,0,1-6.39,1.73,59.1,59.1,0,0,1-7.95.63,36.81,36.81,0,0,1-13.24-2.52,31.6,31.6,0,0,1-10.6-7.39,35.24,35.24,0,0,1-7-11.79,50.23,50.23,0,0,1,0-31.3,33,33,0,0,1,7.17-11.79,31,31,0,0,1,10.9-7.55,36.38,36.38,0,0,1,13.87-2.67,34.83,34.83,0,0,1,7.33.63,42.68,42.68,0,0,1,5.76,1.57,23.15,23.15,0,0,1,4.37,2,32.86,32.86,0,0,1,3,2c.78.63,1.56,1.1,2,1.57s.78.47.78.47c.47,0,.63-.16.63-.31l1.24-1.89a45,45,0,0,0-4.67-3.62,28.77,28.77,0,0,0-5.77-3,42,42,0,0,0-6.7-1.88,21.33,21.33,0,0,0-7.48-1.1Z"/><path class="cls-3" d="M880.55,1141.36v4.87H838v33h35.38V1184H838v34h42.54v4.87H832.09v-81.45Z"/><path class="cls-3" d="M881.49,1223.92H831.15v-83.51h50.34v6.77H839v31h35.37v6.77H839V1217h42.54ZM833,1222h46.6v-3H837.08v-36h35.37v-2.83H837.08v-34.91h42.54v-3H833Z"/><path class="cls-3" d="M953,1140.41v12.43H916.4v24.69h30.85V1190H916.4v34H901v-83.35h52Zm89.61,41.68a46.4,46.4,0,0,1-3,17,39,39,0,0,1-8.58,13.52,39.59,39.59,0,0,1-13.24,9,43.29,43.29,0,0,1-17.14,3.14,46.37,46.37,0,0,1-17.15-3.14,39.26,39.26,0,0,1-21.81-22.49,50.21,50.21,0,0,1,0-34,39,39,0,0,1,8.57-13.52,41.27,41.27,0,0,1,13.24-9,47.26,47.26,0,0,1,34.29.16,39.32,39.32,0,0,1,21.82,22.49A48.18,48.18,0,0,1,1042.63,1182.09Zm-15.74,0a37.73,37.73,0,0,0-1.87-12.27,27.92,27.92,0,0,0-5.15-9.28,22.65,22.65,0,0,0-8.25-5.82,30.19,30.19,0,0,0-21.82,0,24,24,0,0,0-8.26,5.82,25.77,25.77,0,0,0-5.3,9.28,41.16,41.16,0,0,0,0,24.53,25.77,25.77,0,0,0,5.3,9.28,23.89,23.89,0,0,0,8.26,5.82,30.19,30.19,0,0,0,21.82,0,23.85,23.85,0,0,0,8.25-5.82,27.92,27.92,0,0,0,5.15-9.28A37.67,37.67,0,0,0,1026.89,1182.09Zm47.84-1.89h3.58a22.52,22.52,0,0,0,7.64-1.1,15.68,15.68,0,0,0,5.3-3,11.46,11.46,0,0,0,3.12-4.56,17.6,17.6,0,0,0,1.09-5.82c0-4.24-1.41-7.55-4.21-9.75s-7-3.46-12.62-3.46h-10v71.4h-15.43v-83.35h25.25a55.53,55.53,0,0,1,14.49,1.73,26.12,26.12,0,0,1,9.82,4.88,18.76,18.76,0,0,1,5.61,7.54,24.67,24.67,0,0,1,1.87,9.75,26.93,26.93,0,0,1-1.25,8,21.47,21.47,0,0,1-3.58,6.77,23.7,23.7,0,0,1-5.77,5.34,25.45,25.45,0,0,1-7.79,3.62,15.69,15.69,0,0,1,5,4.72l20.73,30.82h-13.87a7.36,7.36,0,0,1-3.43-.79,5.6,5.6,0,0,1-2.34-2.36l-17.3-26.73c-.47-.63-1.4-2-2.34-2.2h-5.45v-10.07c.16-1.41,1.87-1.41,1.87-1.41Zm88,32.24a38,38,0,0,0,9-1,41.15,41.15,0,0,0,7.32-2.67V1190h-10.28a3.81,3.81,0,0,1-2.34-.79,2.8,2.8,0,0,1-.94-2v-8.81H1193v37.43a34.6,34.6,0,0,1-6.54,3.93,51.4,51.4,0,0,1-7.33,2.83,44.59,44.59,0,0,1-8.26,1.57,88,88,0,0,1-9.5.47,44.46,44.46,0,0,1-16.68-3.14,36.49,36.49,0,0,1-13.09-8.81,42,42,0,0,1-8.73-13.52,47.31,47.31,0,0,1-3.11-17.14,47.93,47.93,0,0,1,3-17.3,39,39,0,0,1,8.57-13.52,38.17,38.17,0,0,1,13.56-8.81,49.09,49.09,0,0,1,17.76-3.14c6.7,0,12.63.94,17.46,3a41.34,41.34,0,0,1,12.46,7.87l-4.51,7.07a4.09,4.09,0,0,1-3.43,2.2,5,5,0,0,1-2.81-.94c-1.25-.79-2.49-1.41-3.74-2.2a17,17,0,0,0-4.21-1.89,42.05,42.05,0,0,0-5.14-1.26,42.52,42.52,0,0,0-6.7-.47,27.67,27.67,0,0,0-11.06,2,22.89,22.89,0,0,0-8.42,6,25.77,25.77,0,0,0-5.3,9.28,37.16,37.16,0,0,0-1.87,12.11,36.5,36.5,0,0,0,2,12.89,27.91,27.91,0,0,0,5.61,9.44,25.62,25.62,0,0,0,8.57,6,29,29,0,0,0,11.22,2.21Zm84.62-22.18h-25.09v21.07h36.47v12.43h-52v-83.35h52v12.43h-36.63v25.63H1251v9.12s-.15,2.67-3.58,2.67Z"/><path class="cls-3" d="M846.36,578.22c-1.85,11-3.72,22-5.54,33-.91,5.46-2,10.91-2.54,16.41-.37,3.5-2.08,4.75-5.33,5.5a353.22,353.22,0,0,1-159.3,0c-3.61-.82-4.91-2.45-5.44-6.07-2.21-15-4.78-30-7.25-45a5,5,0,0,0-2-3.39v50c-3-.82-5.2-1.1-7.11-2-12.61-5.89-25.21-11.8-37.66-18-1.88-.94-4.22-3.53-4.19-5.33.32-22.55.36-45.14,1.9-67.63A67.41,67.41,0,0,1,631,493.21a100.61,100.61,0,0,1,26.08-19.09,133.86,133.86,0,0,1,51.15-14.22c6.4-.49,13.31,1.42,19.53,3.56,18.23,6.29,36.65,6.3,54-1.11,9.13-3.91,17.19-3.19,25.56-1.35a259.18,259.18,0,0,1,35.3,10.11c28.15,10.59,45.34,31.25,48.39,61.07,2.48,24.21,1.72,48.75,2.25,73.15a5.5,5.5,0,0,1-1.86,4.14C878.22,618,864,624.08,847.89,628.84V578.31Z"/><path class="cls-3" d="M753.81,299c41.6.13,74.78,33.83,74.56,75.73-.2,41.15-34.24,74.78-75.36,74.46a75,75,0,0,1-74.84-75C678.19,332.1,711.59,298.88,753.81,299Z"/><path class="cls-3" d="M938.07,552.91V519.48l-1.32-.19c-1.13,6.51-2.4,13-3.37,19.54-2.3,15.34-2.24,15.35-17.52,18.29-2,.39-4,.63-7,1.09-.4-27.8-4.76-54.18-23.57-75.85-18.61-21.44-44-29.62-70.77-37.05,8.3-2.07,16.57-4.3,24.92-6.18a27.45,27.45,0,0,1,16.74,1.22c12.48,4.95,25.22,4.24,37.89-.27a26.13,26.13,0,0,1,11.2-1.46c15.59,1.73,30.51,5.5,43.4,15.28,12,9.11,17.55,21.66,18.68,36,1.17,14.9.91,29.92,1,44.89a6.4,6.4,0,0,1-2.68,4.84C957.05,544,948.16,548.11,938.07,552.91Z"/><path class="cls-3" d="M594.4,557a10.41,10.41,0,0,1-1.79.4c-16.58-2.64-16.56-2.64-19.27-19.37a89.88,89.88,0,0,0-4.48-18.43V552.9c-10.19-4.83-19.21-9-28.09-13.46a5.08,5.08,0,0,1-2.37-3.81c.29-16.2-.5-32.56,1.57-48.54,3.28-25.32,19.69-40.32,47.06-45.95,3.61-.74,7.2-1.61,10.83-2.21,5.47-.9,10.63-.92,16.15,1.31,12.46,5,25.19,4.42,37.9-.08a24.81,24.81,0,0,1,11.82-1.39A193.58,193.58,0,0,1,692.36,446C631.62,458.85,594.32,491.67,594.4,557Z"/><path class="cls-3" d="M924.74,377c0,24.17-12,42.26-30.84,50.13a50.9,50.9,0,0,1-54.79-10.35c-2.94-2.87-3.49-5.22-1.89-9.09a86.45,86.45,0,0,0,3.21-57.83c-1.23-4.37-.3-6.83,3.14-9.28,16.64-11.88,34.46-14.09,52.83-5.22C915.11,344.34,924,360.14,924.74,377Z"/><path class="cls-3" d="M632.55,431a50.45,50.45,0,0,1-30-91.1,50.8,50.8,0,0,1,59.81,0c3.73,2.7,5.11,5.14,3.66,10.14a84.81,84.81,0,0,0,3.1,57.2c1.93,4.67,1.07,7.32-2.43,10.49A51.35,51.35,0,0,1,632.55,431Z"/></svg>