<?xml version="1.0" encoding="UTF-8" standalone="no"?>
<svg
   version="1.1"
   id="svg2985"
   height="16"
   width="16"
   xml:space="preserve"
   xmlns="http://www.w3.org/2000/svg"
   xmlns:svg="http://www.w3.org/2000/svg"
   xmlns:rdf="http://www.w3.org/1999/02/22-rdf-syntax-ns#"
   xmlns:cc="http://creativecommons.org/ns#"
   xmlns:dc="http://purl.org/dc/elements/1.1/"><defs
     id="defs2987"><linearGradient
       id="linearGradient6402"><stop
         id="stop6404"
         offset="0"
         style="stop-color:#000000;stop-opacity:1;" /><stop
         id="stop6406"
         offset="1"
         style="stop-color:#000000;stop-opacity:0;" /></linearGradient><linearGradient
       id="linearGradient3816"><stop
         id="stop3818"
         offset="0"
         style="stop-color:#ffa576;stop-opacity:1;" /><stop
         style="stop-color:#f45400;stop-opacity:1;"
         offset="1"
         id="stop3782" /></linearGradient></defs><metadata
     id="metadata2990"><rdf:RDF><cc:Work
         rdf:about=""><dc:format>image/svg+xml</dc:format><dc:type
           rdf:resource="http://purl.org/dc/dcmitype/StillImage" /></cc:Work></rdf:RDF></metadata><g
     style="display:inline"
     id="layer1"
     transform="translate(-375,-399)"><path
       id="path2352-7"
       style="display:inline;fill:#666666;fill-opacity:1;stroke:none;stroke-width:1px;stroke-linecap:butt;stroke-linejoin:miter;stroke-opacity:1"
       d="M 383.00009,402.00024 C 377.28611,402.00024 375.0001,407.00024 375.0001,407.00024 375.0001,407.00024 377.28611,412.00023 383.00009,412.00023 388.71408,412.00023 391.00009,407.00024 391.00009,407.00024 391.00009,407.00024 388.71408,402.00024 383.00009,402.00024 Z M 382.99609,403.11279 C 383.05769,403.11256 383.11928,403.11379 383.18082,403.11679 383.24252,403.12079 383.3041,403.12579 383.36554,403.13209 383.42654,403.13809 383.48747,403.14499 383.54817,403.15379 383.60927,403.16279 383.67019,403.17389 383.7308,403.18629 383.7906,403.19929 383.85011,403.21379 383.90924,403.22979 383.96914,403.24489 384.02859,403.26159 384.08766,403.27969 384.14686,403.29839 384.20571,403.31869 384.264,403.34039 384.3219,403.36129 384.37929,403.38369 384.43613,403.40749 384.49273,403.43209 384.54871,403.45819 384.60406,403.48559 384.66006,403.51309 384.71532,403.54199 384.7699,403.57229 384.8238,403.60199 384.877,403.63309 384.92944,403.66549 384.98274,403.69809 385.03522,403.73209 385.08688,403.76745 385.13738,403.80305 385.18712,403.83995 385.23592,403.87805 385.28582,403.91585 385.33482,403.95485 385.38286,403.99516 385.43006,404.03516 385.47616,404.07646 385.52141,404.11878 385.56721,404.16178 385.61201,404.20588 385.65576,404.25107 385.69956,404.29627 385.74226,404.34257 385.7838,404.38987 385.8248,404.43657 385.8647,404.48427 385.90346,404.53301 385.94246,404.58261 385.98026,404.63326 386.01682,404.68482 386.05372,404.73522 386.08942,404.78658 386.12387,404.8388 386.15807,404.8922 386.19097,404.9464 386.22257,405.00145 386.25397,405.05565 386.28407,405.11058 386.31287,405.16627 386.34217,405.22267 386.37017,405.27978 386.39677,405.3376 386.42327,405.3948 386.44847,405.45265 386.47227,405.51111 386.49537,405.56981 386.51697,405.62912 386.53727,405.68893 386.55837,405.74913 386.57797,405.8099 386.59607,405.87112 386.61367,405.93212 386.62977,405.99361 386.64437,406.05545 386.65987,406.11655 386.67387,406.17801 386.68647,406.2398 386.69847,406.3024 386.70897,406.36533 386.71797,406.42848 386.72597,406.49118 386.73337,406.55409 386.73887,406.61715 386.74487,406.68065 386.75017,406.74427 386.75357,406.808 386.75657,406.8716 386.75757,406.9352 386.75757,406.99884 386.75773,407.18388 386.74507,407.3687 386.71977,407.55188 386.69387,407.73522 386.65527,407.9164 386.60432,408.09405 386.55402,408.27119 386.4916,408.4444 386.41749,408.61237 386.34349,408.78113 386.25791,408.9442 386.16139,409.10034 386.06409,409.25632 385.95601,409.4049 385.83812,409.54493 385.72129,409.68414 385.59502,409.81459 385.46027,409.9353 385.32473,410.0571 385.18092,410.16871 385.02994,410.26928 384.8788,410.36898 384.72096,410.45741 384.55761,410.53386 384.39503,410.61046 384.22737,410.67493 384.05592,410.72688 383.88396,410.77948 383.70858,410.81938 383.53112,410.84616 383.35381,410.87226 383.17492,410.88526 382.99582,410.88506 382.81672,410.88524 382.63783,410.87216 382.46052,410.84606 382.28306,410.81926 382.10768,410.77946 381.93573,410.72678 381.76427,410.67488 381.59661,410.61033 381.43403,410.53376 381.27068,410.45726 381.11284,410.36889 380.9617,410.26918 380.81072,410.16861 380.66691,410.057 380.53137,409.9352 380.39662,409.8145 380.27035,409.68405 380.15352,409.54484 380.03562,409.40481 379.92759,409.25622 379.83024,409.10024 379.73374,408.9441 379.64815,408.78102 379.57415,408.61227 379.50005,408.4443 379.4376,408.27109 379.38731,408.09395 379.33641,407.9163 379.29781,407.73511 379.27186,407.55177 379.24656,407.36861 379.23386,407.18381 379.23406,406.99879 379.2339,406.81376 379.24656,406.62895 379.27186,406.44577 379.29776,406.26243 379.33636,406.08124 379.38732,405.90358 379.43762,405.72645 379.50004,405.55324 379.57415,405.38527 379.64815,405.21651 379.73373,405.05344 379.83024,404.89729 379.92764,404.74131 380.03562,404.59273 380.15352,404.4527 380.27035,404.31349 380.39662,404.18304 380.53137,404.06234 380.66691,403.94054 380.81072,403.82893 380.9617,403.72836 381.11284,403.62866 381.27068,403.54023 381.43403,403.46378 381.59661,403.38718 381.76427,403.3227 381.93573,403.27075 382.10768,403.21815 382.28306,403.17825 382.46052,403.15147 382.63781,403.12537 382.81669,403.11227 382.99578,403.11247 Z" /><rect
       y="399"
       x="375"
       height="16"
       width="15.999992"
       id="rect4471-8-4-0-4-2-6-7-1"
       style="color:#000000;display:inline;overflow:visible;visibility:visible;fill:none;stroke:none;stroke-width:0;stroke-linecap:round;stroke-linejoin:miter;stroke-miterlimit:4;stroke-dasharray:none;stroke-dashoffset:0;stroke-opacity:1;marker:none;enable-background:accumulate" /></g></svg>
