<?xml version="1.0" encoding="UTF-8" standalone="no"?>
<svg
   version="1.1"
   id="svg2985"
   height="16"
   width="16"
   xml:space="preserve"
   xmlns="http://www.w3.org/2000/svg"
   xmlns:svg="http://www.w3.org/2000/svg"
   xmlns:rdf="http://www.w3.org/1999/02/22-rdf-syntax-ns#"
   xmlns:cc="http://creativecommons.org/ns#"
   xmlns:dc="http://purl.org/dc/elements/1.1/"><defs
     id="defs2987"><linearGradient
       id="linearGradient6402"><stop
         id="stop6404"
         offset="0"
         style="stop-color:#000000;stop-opacity:1;" /><stop
         id="stop6406"
         offset="1"
         style="stop-color:#000000;stop-opacity:0;" /></linearGradient><linearGradient
       id="linearGradient3816"><stop
         id="stop3818"
         offset="0"
         style="stop-color:#ffa576;stop-opacity:1;" /><stop
         style="stop-color:#f45400;stop-opacity:1;"
         offset="1"
         id="stop3782" /></linearGradient></defs><metadata
     id="metadata2990"><rdf:RDF><cc:Work
         rdf:about=""><dc:format>image/svg+xml</dc:format><dc:type
           rdf:resource="http://purl.org/dc/dcmitype/StillImage" /></cc:Work></rdf:RDF></metadata><g
     style="display:inline"
     id="layer1"
     transform="translate(-375,-429)"><rect
       y="429"
       x="375"
       height="16"
       width="15.999992"
       id="rect4471-8-4-0-4-2-6-7"
       style="color:#000000;display:inline;overflow:visible;visibility:visible;fill:none;stroke:none;stroke-width:0;stroke-linecap:round;stroke-linejoin:miter;stroke-miterlimit:4;stroke-dasharray:none;stroke-dashoffset:0;stroke-opacity:1;marker:none;enable-background:accumulate" /><path
       id="path2625"
       style="fill:none;stroke:none;stroke-width:1px;stroke-linecap:butt;stroke-linejoin:miter;stroke-opacity:1"
       d="M 383.0001,433.50024 A 3.5,3.5 0 0 0 382.50205,433.53544 3.5,3.5 0 0 0 382.01377,433.64286 3.5,3.5 0 0 0 381.54698,433.81669 3.5,3.5 0 0 0 381.10752,434.05497 3.5,3.5 0 0 0 380.70713,434.35575 3.5,3.5 0 0 0 380.35557,434.70731 3.5,3.5 0 0 0 380.05479,435.1077 3.5,3.5 0 0 0 379.81651,435.54716 3.5,3.5 0 0 0 379.64268,436.01395 3.5,3.5 0 0 0 379.53526,436.50223 3.5,3.5 0 0 0 379.50006,437.00024 3.5,3.5 0 0 0 379.53526,437.49829 3.5,3.5 0 0 0 379.64268,437.98657 3.5,3.5 0 0 0 379.81651,438.45336 3.5,3.5 0 0 0 380.05479,438.89282 3.5,3.5 0 0 0 380.35557,439.29321 3.5,3.5 0 0 0 380.70713,439.64477 3.5,3.5 0 0 0 381.10752,439.94555 3.5,3.5 0 0 0 381.54698,440.18383 3.5,3.5 0 0 0 382.01377,440.35766 3.5,3.5 0 0 0 382.50205,440.46508 3.5,3.5 0 0 0 383.00006,440.50028 3.5,3.5 0 0 0 383.49811,440.46508 3.5,3.5 0 0 0 383.98639,440.35766 3.5,3.5 0 0 0 384.45318,440.18383 3.5,3.5 0 0 0 384.89264,439.94555 3.5,3.5 0 0 0 385.29303,439.64477 3.5,3.5 0 0 0 385.64459,439.29321 3.5,3.5 0 0 0 385.94537,438.89282 3.5,3.5 0 0 0 386.18365,438.45336 3.5,3.5 0 0 0 386.35748,437.98657 3.5,3.5 0 0 0 386.4649,437.49829 3.5,3.5 0 0 0 386.5001,437.00028 3.5,3.5 0 0 0 386.4961,436.8284 3.5,3.5 0 0 0 386.4824,436.65653 3.5,3.5 0 0 0 386.4629,436.48661 3.5,3.5 0 0 0 386.4336,436.31669 3.5,3.5 0 0 0 386.3945,436.15067 3.5,3.5 0 0 0 386.3496,435.98466 3.5,3.5 0 0 0 386.2949,435.82059 3.5,3.5 0 0 0 386.2344,435.66044 3.5,3.5 0 0 0 386.1641,435.50419 3.5,3.5 0 0 0 386.086,435.34989 3.5,3.5 0 0 0 386.002,435.20145 3.5,3.5 0 0 0 385.9102,435.05497 3.5,3.5 0 0 0 385.8106,434.9163 3.5,3.5 0 0 0 385.70513,434.77958 3.5,3.5 0 0 0 385.5938,434.65067 3.5,3.5 0 0 0 385.47466,434.52567 3.5,3.5 0 0 0 385.34966,434.40653 3.5,3.5 0 0 0 385.22075,434.2952 3.5,3.5 0 0 0 385.08403,434.18973 3.5,3.5 0 0 0 384.94536,434.09013 3.5,3.5 0 0 0 384.79888,433.99833 3.5,3.5 0 0 0 384.65044,433.91433 3.5,3.5 0 0 0 384.49614,433.83623 3.5,3.5 0 0 0 384.33989,433.76593 3.5,3.5 0 0 0 384.17974,433.70543 3.5,3.5 0 0 0 384.01567,433.65073 3.5,3.5 0 0 0 383.84966,433.60583 3.5,3.5 0 0 0 383.68364,433.56673 3.5,3.5 0 0 0 383.51372,433.53743 3.5,3.5 0 0 0 383.3438,433.51793 3.5,3.5 0 0 0 383.17193,433.50423 3.5,3.5 0 0 0 383.0001,433.50023 Z" /><path
       id="path2352"
       style="fill:#e5e5e5;fill-opacity:1;stroke:none;stroke-width:1px;stroke-linecap:butt;stroke-linejoin:miter;stroke-opacity:1"
       d="M 383.0001,432.00027 C 377.28612,432.00027 375.00011,437.00024 375.00011,437.00024 375.00011,437.00024 377.28612,442.00026 383.0001,442.00026 388.71409,442.00026 391.0001,437.00024 391.0001,437.00024 391.0001,437.00024 388.71409,432.00027 383.0001,432.00027 Z M 382.9961,433.11282 C 383.0577,433.11259 383.11929,433.11382 383.18083,433.11682 383.24253,433.12082 383.30411,433.12582 383.36555,433.13212 383.42655,433.13812 383.48748,433.14502 383.54818,433.15382 383.60928,433.16282 383.6702,433.17392 383.73081,433.18632 383.79061,433.19932 383.85012,433.21382 383.90925,433.22982 383.96915,433.24492 384.0286,433.26162 384.08767,433.27972 384.14687,433.29842 384.20572,433.31872 384.26401,433.34042 384.32191,433.36132 384.3793,433.38372 384.43614,433.40752 384.49274,433.43212 384.54872,433.45812 384.60407,433.48562 384.66007,433.51312 384.71533,433.54202 384.76991,433.57232 384.82381,433.60202 384.87701,433.63312 384.92945,433.66552 384.98275,433.69812 385.03523,433.73212 385.08689,433.76748 385.13739,433.80308 385.18713,433.83998 385.23593,433.87808 385.28583,433.91588 385.33483,433.95488 385.38287,433.99519 385.43007,434.03519 385.47617,434.07649 385.52142,434.11881 385.56722,434.16181 385.61202,434.20591 385.65577,434.2511 385.69957,434.2963 385.74227,434.3426 385.78381,434.3899 385.82481,434.4366 385.86471,434.4843 385.90347,434.53304 385.94247,434.58264 385.98027,434.63329 386.01683,434.68485 386.05373,434.73525 386.08943,434.78661 386.12388,434.83883 386.15808,434.89223 386.19098,434.94643 386.22258,435.00148 386.25398,435.05568 386.28408,435.11061 386.31288,435.1663 386.34218,435.2227 386.37018,435.27981 386.39678,435.33763 386.42328,435.39483 386.44848,435.45268 386.47228,435.51114 386.49538,435.56984 386.51698,435.62915 386.53728,435.68896 386.55838,435.74916 386.57798,435.80993 386.59608,435.87115 386.61368,435.93215 386.62978,435.99364 386.64438,436.05548 386.65988,436.11658 386.67388,436.17804 386.68648,436.23983 386.69848,436.30243 386.70898,436.36536 386.71798,436.42851 386.72598,436.49121 386.73338,436.55412 386.73888,436.61718 386.74488,436.68068 386.75018,436.7443 386.75358,436.80803 386.75658,436.87163 386.75758,436.93523 386.75758,436.99887 386.75774,437.18391 386.74508,437.36873 386.71978,437.55191 386.69388,437.73525 386.65528,437.91643 386.60433,438.09408 386.55403,438.27122 386.49161,438.44443 386.4175,438.6124 386.3435,438.78116 386.25792,438.94423 386.1614,439.10037 386.0641,439.25635 385.95602,439.40493 385.83813,439.54496 385.7213,439.68417 385.59503,439.81462 385.46028,439.93533 385.32474,440.05713 385.18093,440.16874 385.02995,440.26931 384.87881,440.36901 384.72097,440.45744 384.55762,440.53389 384.39504,440.61049 384.22738,440.67496 384.05593,440.72691 383.88397,440.77951 383.70859,440.81941 383.53113,440.84619 383.35382,440.87229 383.17493,440.88529 382.99583,440.88509 382.81673,440.88527 382.63784,440.87229 382.46053,440.84609 382.28307,440.81929 382.10769,440.77949 381.93574,440.72681 381.76428,440.67491 381.59662,440.61036 381.43404,440.53379 381.27069,440.45739 381.11285,440.36892 380.96171,440.26921 380.81073,440.16864 380.66692,440.05703 380.53138,439.93523 380.39663,439.81453 380.27036,439.68408 380.15353,439.54487 380.03563,439.40484 379.9276,439.25625 379.83025,439.10027 379.73375,438.94413 379.64816,438.78105 379.57416,438.6123 379.50006,438.44433 379.43761,438.27112 379.38732,438.09398 379.33642,437.91633 379.29782,437.73514 379.27187,437.5518 379.24657,437.36864 379.23387,437.18384 379.23407,436.99882 379.23391,436.81379 379.24657,436.62898 379.27187,436.4458 379.29777,436.26246 379.33637,436.08127 379.38733,435.90361 379.43763,435.72648 379.50005,435.55327 379.57416,435.3853 379.64816,435.21654 379.73374,435.05347 379.83025,434.89732 379.92765,434.74134 380.03563,434.59276 380.15353,434.45273 380.27036,434.31352 380.39663,434.18307 380.53138,434.06237 380.66692,433.94057 380.81073,433.82896 380.96171,433.72839 381.11285,433.62869 381.27069,433.54026 381.43404,433.46381 381.59662,433.38721 381.76428,433.32273 381.93574,433.27078 382.10769,433.21818 382.28307,433.17828 382.46053,433.1515 382.63782,433.1254 382.8167,433.1123 382.99579,433.1125 Z" /></g></svg>
