<?xml version="1.0" encoding="UTF-8" standalone="no"?>
<svg
   version="1.1"
   id="svg2985"
   height="16"
   width="16"
   xml:space="preserve"
   xmlns="http://www.w3.org/2000/svg"
   xmlns:svg="http://www.w3.org/2000/svg"
   xmlns:rdf="http://www.w3.org/1999/02/22-rdf-syntax-ns#"
   xmlns:cc="http://creativecommons.org/ns#"
   xmlns:dc="http://purl.org/dc/elements/1.1/"><defs
     id="defs2987"><linearGradient
       id="linearGradient6402"><stop
         id="stop6404"
         offset="0"
         style="stop-color:#000000;stop-opacity:1;" /><stop
         id="stop6406"
         offset="1"
         style="stop-color:#000000;stop-opacity:0;" /></linearGradient><linearGradient
       id="linearGradient3816"><stop
         id="stop3818"
         offset="0"
         style="stop-color:#ffa576;stop-opacity:1;" /><stop
         style="stop-color:#f45400;stop-opacity:1;"
         offset="1"
         id="stop3782" /></linearGradient></defs><metadata
     id="metadata2990"><rdf:RDF><cc:Work
         rdf:about=""><dc:format>image/svg+xml</dc:format><dc:type
           rdf:resource="http://purl.org/dc/dcmitype/StillImage" /></cc:Work></rdf:RDF></metadata><g
     style="display:inline"
     id="layer1"
     transform="translate(-405.00012,-399)"><path
       id="path2352-7-9"
       style="display:inline;fill:#666666;fill-opacity:1;stroke:none;stroke-width:1px;stroke-linecap:butt;stroke-linejoin:miter;stroke-opacity:1"
       d="M 412.97025,402.00024 C 407.25627,402.00024 405.0001,407.00024 405.0001,407.00024 405.0001,407.00024 407.25627,412.00023 412.97025,412.00023 418.68424,412.00023 421.0001,407.00024 421.0001,407.00024 421.0001,407.00024 418.68424,402.00024 412.97025,402.00024 Z M 412.96625,403.11279 C 413.02785,403.11256 413.08944,403.11379 413.15098,403.11679 413.21268,403.12079 413.27426,403.12579 413.3357,403.13209 413.3967,403.13809 413.45763,403.14499 413.51833,403.15379 413.57943,403.16279 413.64035,403.17389 413.70096,403.18629 413.76076,403.19929 413.82027,403.21379 413.8794,403.22979 413.9393,403.24489 413.99875,403.26159 414.05782,403.27969 414.11702,403.29839 414.17587,403.31869 414.23416,403.34039 414.29206,403.36129 414.34945,403.38369 414.40629,403.40749 414.46289,403.43209 414.51887,403.45819 414.57422,403.48559 414.63022,403.51309 414.68548,403.54199 414.74006,403.57229 414.79396,403.60199 414.84716,403.63309 414.8996,403.66549 414.9529,403.69809 415.00538,403.73209 415.05704,403.76745 415.10754,403.80305 415.15728,403.83995 415.20608,403.87805 415.25598,403.91585 415.30498,403.95485 415.35302,403.99516 415.40022,404.03516 415.44632,404.07646 415.49157,404.11878 415.53737,404.16178 415.58217,404.20588 415.62592,404.25107 415.66972,404.29627 415.71242,404.34257 415.75396,404.38987 415.79496,404.43657 415.83486,404.48427 415.87362,404.53301 415.91262,404.58261 415.95042,404.63326 415.98698,404.68482 416.02388,404.73522 416.05958,404.78658 416.09403,404.8388 416.12823,404.8922 416.16113,404.9464 416.19273,405.00145 416.22413,405.05565 416.25423,405.11058 416.28303,405.16627 416.31233,405.22267 416.34033,405.27978 416.36693,405.3376 416.39343,405.3948 416.41863,405.45265 416.44243,405.51111 416.46553,405.56981 416.48713,405.62912 416.50743,405.68893 416.52853,405.74913 416.54813,405.8099 416.56623,405.87112 416.58383,405.93212 416.59993,405.99361 416.61453,406.05545 416.63003,406.11655 416.64403,406.17801 416.65663,406.2398 416.66863,406.3024 416.67913,406.36533 416.68813,406.42848 416.69613,406.49118 416.70353,406.55409 416.70903,406.61715 416.71503,406.68065 416.72033,406.74427 416.72373,406.808 416.72673,406.8716 416.72773,406.9352 416.72773,406.99884 416.72789,407.18388 416.71523,407.3687 416.68993,407.55188 416.66403,407.73522 416.62543,407.9164 416.57448,408.09405 416.52418,408.27119 416.46176,408.4444 416.38765,408.61237 416.31365,408.78113 416.22807,408.9442 416.13155,409.10034 416.03425,409.25632 415.92617,409.4049 415.80828,409.54493 415.69145,409.68414 415.56518,409.81459 415.43043,409.9353 415.29489,410.0571 415.15108,410.16871 415.0001,410.26928 414.84896,410.36898 414.69112,410.45741 414.52777,410.53386 414.36519,410.61046 414.19753,410.67493 414.02608,410.72688 413.85412,410.77948 413.67874,410.81938 413.50128,410.84616 413.32397,410.87226 413.14508,410.88526 412.96598,410.88506 412.78688,410.88524 412.60799,410.87216 412.43068,410.84606 412.25322,410.81926 412.07784,410.77946 411.90589,410.72678 411.73443,410.67488 411.56677,410.61033 411.40419,410.53376 411.24084,410.45726 411.083,410.36889 410.93186,410.26918 410.78088,410.16861 410.63707,410.057 410.50153,409.9352 410.36678,409.8145 410.24051,409.68405 410.12368,409.54484 410.00578,409.40481 409.89775,409.25622 409.8004,409.10024 409.7039,408.9441 409.61831,408.78102 409.54431,408.61227 409.47021,408.4443 409.40776,408.27109 409.35747,408.09395 409.30657,407.9163 409.26797,407.73511 409.24202,407.55177 409.21672,407.36861 409.20402,407.18381 409.20422,406.99879 409.20406,406.81376 409.21672,406.62895 409.24202,406.44577 409.26792,406.26243 409.30652,406.08124 409.35748,405.90358 409.40778,405.72645 409.4702,405.55324 409.54431,405.38527 409.61831,405.21651 409.70389,405.05344 409.8004,404.89729 409.8978,404.74131 410.00578,404.59273 410.12368,404.4527 410.24051,404.31349 410.36678,404.18304 410.50153,404.06234 410.63707,403.94054 410.78088,403.82893 410.93186,403.72836 411.083,403.62866 411.24084,403.54023 411.40419,403.46378 411.56677,403.38718 411.73443,403.3227 411.90589,403.27075 412.07784,403.21815 412.25322,403.17825 412.43068,403.15147 412.60797,403.12537 412.78685,403.11227 412.96594,403.11247 Z" /><rect
       y="399"
       x="405.00012"
       height="16"
       width="15.999992"
       id="rect4471-8-4-0-4-2-6-7-1-2"
       style="color:#000000;display:inline;overflow:visible;visibility:visible;fill:none;stroke:none;stroke-width:0;stroke-linecap:round;stroke-linejoin:miter;stroke-miterlimit:4;stroke-dasharray:none;stroke-dashoffset:0;stroke-opacity:1;marker:none;enable-background:accumulate" /><path
       style="display:inline;fill:none;stroke:#ff0000;stroke-width:2;stroke-linecap:butt;stroke-linejoin:miter;stroke-miterlimit:4;stroke-dasharray:none;stroke-opacity:1"
       d="M 405.64828,413.23873 420.35257,400.76227 V 400.76227 400.76227"
       id="path13151-7-6" /></g></svg>
