<?xml version="1.0" encoding="UTF-8" standalone="no"?>
<svg
   version="1.1"
   id="svg2985"
   height="16"
   width="16"
   xml:space="preserve"
   xmlns="http://www.w3.org/2000/svg"
   xmlns:svg="http://www.w3.org/2000/svg"
   xmlns:rdf="http://www.w3.org/1999/02/22-rdf-syntax-ns#"
   xmlns:cc="http://creativecommons.org/ns#"
   xmlns:dc="http://purl.org/dc/elements/1.1/"><defs
     id="defs2987"><linearGradient
       id="linearGradient6402"><stop
         id="stop6404"
         offset="0"
         style="stop-color:#000000;stop-opacity:1;" /><stop
         id="stop6406"
         offset="1"
         style="stop-color:#000000;stop-opacity:0;" /></linearGradient><linearGradient
       id="linearGradient3816"><stop
         id="stop3818"
         offset="0"
         style="stop-color:#ffa576;stop-opacity:1;" /><stop
         style="stop-color:#f45400;stop-opacity:1;"
         offset="1"
         id="stop3782" /></linearGradient></defs><metadata
     id="metadata2990"><rdf:RDF><cc:Work
         rdf:about=""><dc:format>image/svg+xml</dc:format><dc:type
           rdf:resource="http://purl.org/dc/dcmitype/StillImage" /></cc:Work></rdf:RDF></metadata><g
     style="display:inline"
     id="layer1"
     transform="translate(-405,-429)"><path
       id="path2352-0"
       style="display:inline;fill:#e5e5e5;fill-opacity:1;stroke:none;stroke-width:1px;stroke-linecap:butt;stroke-linejoin:miter;stroke-opacity:1"
       d="M 413.0001,432.00027 C 407.28612,432.00027 405.00011,437.00024 405.00011,437.00024 405.00011,437.00024 407.28612,442.00026 413.0001,442.00026 418.71409,442.00026 421.0001,437.00024 421.0001,437.00024 421.0001,437.00024 418.71409,432.00027 413.0001,432.00027 Z M 412.9961,433.11282 C 413.0577,433.11259 413.11929,433.11382 413.18083,433.11682 413.24253,433.12082 413.30411,433.12582 413.36555,433.13212 413.42655,433.13812 413.48748,433.14502 413.54818,433.15382 413.60928,433.16282 413.6702,433.17392 413.73081,433.18632 413.79061,433.19932 413.85012,433.21382 413.90925,433.22982 413.96915,433.24492 414.0286,433.26162 414.08767,433.27972 414.14687,433.29842 414.20572,433.31872 414.26401,433.34042 414.32191,433.36132 414.3793,433.38372 414.43614,433.40752 414.49274,433.43212 414.54872,433.45812 414.60407,433.48562 414.66007,433.51312 414.71533,433.54202 414.76991,433.57232 414.82381,433.60202 414.87701,433.63312 414.92945,433.66552 414.98275,433.69812 415.03523,433.73212 415.08689,433.76748 415.13739,433.80308 415.18713,433.83998 415.23593,433.87808 415.28583,433.91588 415.33483,433.95488 415.38287,433.99519 415.42997,434.03519 415.47617,434.07649 415.52142,434.11881 415.56722,434.16181 415.61202,434.20591 415.65577,434.2511 415.69957,434.2963 415.74227,434.3426 415.78381,434.3899 415.82481,434.4366 415.86471,434.4843 415.90347,434.53304 415.94247,434.58264 415.98027,434.63329 416.01683,434.68485 416.05373,434.73525 416.08943,434.78661 416.12388,434.83883 416.15808,434.89223 416.19098,434.94643 416.22258,435.00148 416.25398,435.05568 416.28408,435.11061 416.31288,435.1663 416.34218,435.2227 416.37018,435.27981 416.39678,435.33763 416.42328,435.39483 416.44848,435.45268 416.47228,435.51114 416.49538,435.56984 416.51698,435.62915 416.53728,435.68896 416.55838,435.74916 416.57798,435.80993 416.59608,435.87115 416.61368,435.93215 416.62978,435.99364 416.64438,436.05548 416.65988,436.11658 416.67388,436.17804 416.68648,436.23983 416.69848,436.30243 416.70898,436.36536 416.71798,436.42851 416.72598,436.49121 416.73338,436.55412 416.73888,436.61718 416.74488,436.68068 416.75018,436.7443 416.75358,436.80803 416.75658,436.87163 416.75758,436.93523 416.75758,436.99887 416.75774,437.18391 416.74508,437.36873 416.71978,437.55191 416.69388,437.73525 416.65528,437.91643 416.60433,438.09408 416.55403,438.27122 416.49161,438.44443 416.4175,438.6124 416.3435,438.78116 416.25792,438.94423 416.1614,439.10037 416.0641,439.25635 415.95602,439.40493 415.83813,439.54496 415.7213,439.68417 415.59503,439.81462 415.46028,439.93533 415.32474,440.05713 415.18093,440.16874 415.02995,440.26931 414.87881,440.36901 414.72097,440.45744 414.55762,440.53389 414.39504,440.61049 414.22738,440.67496 414.05593,440.72691 413.88397,440.77951 413.70859,440.81941 413.53113,440.84619 413.35382,440.87229 413.17493,440.88529 412.99583,440.88509 412.81673,440.88527 412.63784,440.87229 412.46053,440.84609 412.28307,440.81929 412.10769,440.77949 411.93574,440.72681 411.76428,440.67491 411.59662,440.61036 411.43404,440.53379 411.27069,440.45739 411.11285,440.36892 410.96171,440.26921 410.81073,440.16864 410.66692,440.05703 410.53138,439.93523 410.39663,439.81453 410.27036,439.68408 410.15353,439.54487 410.03563,439.40484 409.9276,439.25625 409.83025,439.10027 409.73375,438.94413 409.64816,438.78105 409.57416,438.6123 409.50006,438.44433 409.43761,438.27112 409.38732,438.09398 409.33642,437.91633 409.29782,437.73514 409.27187,437.5518 409.24657,437.36864 409.23387,437.18384 409.23407,436.99882 409.23391,436.81379 409.24657,436.62898 409.27187,436.4458 409.29777,436.26246 409.33637,436.08127 409.38733,435.90361 409.43763,435.72648 409.50005,435.55327 409.57416,435.3853 409.64816,435.21654 409.73374,435.05347 409.83025,434.89732 409.92765,434.74134 410.03563,434.59276 410.15353,434.45273 410.27036,434.31352 410.39663,434.18307 410.53138,434.06237 410.66692,433.94057 410.81073,433.82896 410.96171,433.72839 411.11285,433.62869 411.27069,433.54026 411.43404,433.46381 411.59662,433.38721 411.76428,433.32273 411.93574,433.27078 412.10769,433.21818 412.28307,433.17828 412.46053,433.1515 412.63782,433.1254 412.8167,433.1123 412.99579,433.1125 Z" /><rect
       y="429"
       x="405"
       height="16"
       width="15.999992"
       id="rect4471-8-4-0-4-2-6-7-2"
       style="color:#000000;display:inline;overflow:visible;visibility:visible;fill:none;stroke:none;stroke-width:0;stroke-linecap:round;stroke-linejoin:miter;stroke-miterlimit:4;stroke-dasharray:none;stroke-dashoffset:0;stroke-opacity:1;marker:none;enable-background:accumulate" /><path
       style="display:inline;fill:none;stroke:#ff3333;stroke-width:3;stroke-linecap:butt;stroke-linejoin:miter;stroke-miterlimit:4;stroke-dasharray:none;stroke-opacity:1"
       d="M 405.97435,442.8622 420.03235,431.14494 V 431.14494 431.14494"
       id="path13151-7" /></g></svg>
