<?xml version="1.0" encoding="UTF-8" standalone="no"?>
<svg
   version="1.1"
   id="svg2985"
   height="16"
   width="16.000092"
   xml:space="preserve"
   xmlns="http://www.w3.org/2000/svg"
   xmlns:svg="http://www.w3.org/2000/svg"
   xmlns:rdf="http://www.w3.org/1999/02/22-rdf-syntax-ns#"
   xmlns:cc="http://creativecommons.org/ns#"
   xmlns:dc="http://purl.org/dc/elements/1.1/"><defs
     id="defs2987"><linearGradient
       id="linearGradient6402"><stop
         id="stop6404"
         offset="0"
         style="stop-color:#000000;stop-opacity:1;" /><stop
         id="stop6406"
         offset="1"
         style="stop-color:#000000;stop-opacity:0;" /></linearGradient><linearGradient
       id="linearGradient3816"><stop
         id="stop3818"
         offset="0"
         style="stop-color:#ffa576;stop-opacity:1;" /><stop
         style="stop-color:#f45400;stop-opacity:1;"
         offset="1"
         id="stop3782" /></linearGradient></defs><metadata
     id="metadata2990"><rdf:RDF><cc:Work
         rdf:about=""><dc:format>image/svg+xml</dc:format><dc:type
           rdf:resource="http://purl.org/dc/dcmitype/StillImage" /></cc:Work></rdf:RDF></metadata><g
     style="display:inline"
     id="layer1"
     transform="translate(-459.99988,-573.00024)"><path
       id="path2352-0"
       style="display:inline;fill:#e5e5e5;fill-opacity:1;stroke:none;stroke-width:1px;stroke-linecap:butt;stroke-linejoin:miter;stroke-opacity:1"
       d="m 467.99998,576.00029 c -5.71398,0 -7.99999,4.99997 -7.99999,4.99997 0,0 2.28601,5.00002 7.99999,5.00002 5.71399,0 8,-5.00002 8,-5.00002 0,0 -2.28601,-4.99997 -8,-4.99997 z m -0.004,1.11255 c 0.0616,-2.3e-4 0.12319,10e-4 0.18473,0.004 0.0617,0.004 0.12328,0.009 0.18472,0.0153 0.061,0.006 0.12193,0.0129 0.18263,0.0217 0.0611,0.009 0.12202,0.0201 0.18263,0.0325 0.0598,0.013 0.11931,0.0275 0.17844,0.0435 0.0599,0.0151 0.11935,0.0318 0.17842,0.0499 0.0592,0.0187 0.11805,0.039 0.17634,0.0607 0.0579,0.0209 0.11529,0.0433 0.17213,0.0671 0.0566,0.0246 0.11258,0.0506 0.16793,0.0781 0.056,0.0275 0.11126,0.0564 0.16584,0.0867 0.0539,0.0297 0.1071,0.0608 0.15954,0.0932 0.0533,0.0326 0.10578,0.0666 0.15744,0.10196 0.0505,0.0356 0.10024,0.0725 0.14904,0.1106 0.0499,0.0378 0.0989,0.0768 0.14694,0.11711 0.0471,0.04 0.0933,0.0813 0.13855,0.12362 0.0458,0.043 0.0906,0.0871 0.13435,0.13229 0.0438,0.0452 0.0865,0.0915 0.12804,0.1388 0.041,0.0467 0.0809,0.0944 0.11966,0.14314 0.039,0.0496 0.0768,0.10025 0.11336,0.15181 0.0369,0.0504 0.0726,0.10176 0.10705,0.15398 0.0342,0.0534 0.0671,0.1076 0.0987,0.16265 0.0314,0.0542 0.0615,0.10913 0.0903,0.16482 0.0293,0.0564 0.0573,0.11351 0.0839,0.17133 0.0265,0.0572 0.0517,0.11505 0.0755,0.17351 0.0231,0.0587 0.0447,0.11801 0.065,0.17782 0.0211,0.0602 0.0407,0.12097 0.0588,0.18219 0.0176,0.061 0.0337,0.12249 0.0483,0.18433 0.0155,0.0611 0.0295,0.12256 0.0421,0.18435 0.012,0.0626 0.0225,0.12553 0.0315,0.18868 0.008,0.0627 0.0154,0.12561 0.0209,0.18867 0.006,0.0635 0.0113,0.12712 0.0147,0.19085 0.003,0.0636 0.004,0.1272 0.004,0.19084 1.6e-4,0.18504 -0.0125,0.36986 -0.0378,0.55304 -0.0259,0.18334 -0.0645,0.36452 -0.11545,0.54217 -0.0503,0.17714 -0.11272,0.35035 -0.18683,0.51832 -0.074,0.16876 -0.15958,0.33183 -0.2561,0.48797 -0.0973,0.15598 -0.20538,0.30456 -0.32327,0.44459 -0.11683,0.13921 -0.2431,0.26966 -0.37785,0.39037 -0.13554,0.1218 -0.27935,0.23341 -0.43033,0.33398 -0.15114,0.0997 -0.30898,0.18813 -0.47233,0.26458 -0.16258,0.0766 -0.33024,0.14107 -0.50169,0.19302 -0.17196,0.0526 -0.34734,0.0925 -0.5248,0.11928 -0.17731,0.0261 -0.3562,0.0391 -0.5353,0.0389 -0.1791,1.8e-4 -0.35799,-0.0128 -0.5353,-0.039 -0.17746,-0.0268 -0.35284,-0.0666 -0.52479,-0.11928 -0.17146,-0.0519 -0.33912,-0.11645 -0.5017,-0.19302 -0.16335,-0.0764 -0.32119,-0.16487 -0.47233,-0.26458 -0.15098,-0.10057 -0.29479,-0.21218 -0.43033,-0.33398 -0.13475,-0.1207 -0.26102,-0.25115 -0.37785,-0.39036 -0.1179,-0.14003 -0.22593,-0.28862 -0.32328,-0.4446 -0.0965,-0.15614 -0.18209,-0.31922 -0.25609,-0.48797 -0.0741,-0.16797 -0.13655,-0.34118 -0.18684,-0.51832 -0.0509,-0.17765 -0.0895,-0.35884 -0.11545,-0.54218 -0.0253,-0.18316 -0.038,-0.36796 -0.0378,-0.55298 -1.6e-4,-0.18503 0.0125,-0.36984 0.0378,-0.55302 0.0259,-0.18334 0.0645,-0.36453 0.11546,-0.54219 0.0503,-0.17713 0.11272,-0.35034 0.18683,-0.51831 0.074,-0.16876 0.15958,-0.33183 0.25609,-0.48798 0.0974,-0.15598 0.20538,-0.30456 0.32328,-0.44459 0.11683,-0.13921 0.2431,-0.26966 0.37785,-0.39036 0.13554,-0.1218 0.27935,-0.23341 0.43033,-0.33398 0.15114,-0.0997 0.30898,-0.18813 0.47233,-0.26458 0.16258,-0.0766 0.33024,-0.14108 0.5017,-0.19303 0.17195,-0.0526 0.34733,-0.0925 0.52479,-0.11928 0.17729,-0.0261 0.35617,-0.0392 0.53526,-0.039 z" /><rect
       y="573.00024"
       x="459.99988"
       height="16"
       width="15.999992"
       id="rect4471-8-4-0-4-2-6-7-2"
       style="color:#000000;display:inline;overflow:visible;visibility:visible;fill:none;stroke:#e5e5e5;stroke-width:0;stroke-linecap:round;stroke-linejoin:miter;stroke-miterlimit:4;stroke-dasharray:none;stroke-dashoffset:0;stroke-opacity:1;marker:none;enable-background:accumulate" /><path
       style="display:inline;fill:none;stroke:#ff3333;stroke-width:3;stroke-linecap:butt;stroke-linejoin:miter;stroke-miterlimit:4;stroke-dasharray:none;stroke-opacity:1"
       d="m 460.97423,586.86222 14.058,-11.71726 v 0 0"
       id="path13151-7" /></g></svg>
