<?xml version="1.0" encoding="UTF-8" standalone="no"?>
<svg
   version="1.1"
   id="svg2985"
   height="16.000244"
   width="16"
   xml:space="preserve"
   xmlns="http://www.w3.org/2000/svg"
   xmlns:svg="http://www.w3.org/2000/svg"
   xmlns:rdf="http://www.w3.org/1999/02/22-rdf-syntax-ns#"
   xmlns:cc="http://creativecommons.org/ns#"
   xmlns:dc="http://purl.org/dc/elements/1.1/"><defs
     id="defs2987"><linearGradient
       id="linearGradient6402"><stop
         id="stop6404"
         offset="0"
         style="stop-color:#000000;stop-opacity:1;" /><stop
         id="stop6406"
         offset="1"
         style="stop-color:#000000;stop-opacity:0;" /></linearGradient><linearGradient
       id="linearGradient3816"><stop
         id="stop3818"
         offset="0"
         style="stop-color:#ffa576;stop-opacity:1;" /><stop
         style="stop-color:#f45400;stop-opacity:1;"
         offset="1"
         id="stop3782" /></linearGradient></defs><metadata
     id="metadata2990"><rdf:RDF><cc:Work
         rdf:about=""><dc:format>image/svg+xml</dc:format><dc:type
           rdf:resource="http://purl.org/dc/dcmitype/StillImage" /></cc:Work></rdf:RDF></metadata><g
     style="display:inline"
     id="layer1"
     transform="translate(-400,-468.99976)"><path
       id="rect54"
       style="fill:#d0ec86;fill-opacity:1;stroke:#969696;stroke-width:0;stroke-miterlimit:4;stroke-dasharray:none;stroke-opacity:1"
       d="M 403.37582,472 C 401.50559,472 400,473.6126 400,475.61561 v 5.76877 C 400,483.3874 401.50559,485 403.37582,485 h 9.24824 C 414.49429,485 416,483.3874 416,481.38438 v -5.76877 C 416,473.6126 414.49429,472 412.62406,472 Z m 4.71601,2.88593 a 3.0958898,3.3776439 0 0 1 0.002,0 3.0958898,3.3776439 0 0 1 3.09594,3.37772 3.0958898,3.3776439 0 0 1 -3.09594,3.3776 3.0958898,3.3776439 0 0 1 -3.09592,-3.3776 3.0958898,3.3776439 0 0 1 3.09407,-3.37772 z" /><path
       id="path63"
       style="fill:#d0ec86;fill-opacity:1;stroke:#969696;stroke-width:0;stroke-miterlimit:4;stroke-dasharray:none;stroke-opacity:1"
       d="m 405.47725,469.00034 c -1.3724,0 -2.47726,1.33696 -2.47726,2.99766 0,7.9e-4 1.5e-4,0.002 1.5e-4,0.002 L 413,471.993 c -0.002,-1.65858 -1.10582,-2.99323 -2.47697,-2.99323 z" /></g></svg>
