<?xml version="1.0" encoding="UTF-8" standalone="no"?>
<svg
   width="16.000023"
   height="16"
   id="svg2985"
   version="1.1"
   xmlns="http://www.w3.org/2000/svg"
   xmlns:svg="http://www.w3.org/2000/svg"
   xmlns:rdf="http://www.w3.org/1999/02/22-rdf-syntax-ns#"
   xmlns:cc="http://creativecommons.org/ns#"
   xmlns:dc="http://purl.org/dc/elements/1.1/">
  <defs
     id="defs2987">
    <linearGradient
       id="linearGradient5090">
      <stop
         style="stop-color:#435800;stop-opacity:1;"
         offset="0"
         id="stop5088" />
    </linearGradient>
    <linearGradient
       id="linearGradient6402">
      <stop
         id="stop6404"
         offset="0"
         style="stop-color:#000000;stop-opacity:1;" />
      <stop
         id="stop6406"
         offset="1"
         style="stop-color:#000000;stop-opacity:0;" />
    </linearGradient>
    <linearGradient
       id="linearGradient3816">
      <stop
         id="stop3818"
         offset="0"
         style="stop-color:#ffa576;stop-opacity:1;" />
      <stop
         style="stop-color:#f45400;stop-opacity:1;"
         offset="1"
         id="stop3782" />
    </linearGradient>
  </defs>
  <metadata
     id="metadata2990">
    <rdf:RDF>
      <cc:Work
         rdf:about="">
        <dc:format>image/svg+xml</dc:format>
        <dc:type
           rdf:resource="http://purl.org/dc/dcmitype/StillImage" />
      </cc:Work>
    </rdf:RDF>
  </metadata>
  <g
     id="layer1"
     style="display:inline"
     transform="translate(-120,-208.98011)">
    <path
       id="path2248-9-4"
       d="m 121.18363,224.81928 c -2.26555,-0.94375 -0.69232,-4.12708 -0.0777,-6.36222 0.57935,-2.10689 0.55712,-4.0454 1.22976,-4.76444 2.04316,-2.18404 8.38374,1.04957 8.1349,3.16198 -0.23774,2.0182 -3.33681,0.0458 -5.17221,4.45764 -0.32619,0.78405 -1.78916,4.4758 -4.11473,3.50704 z"
       style="fill:#ff4d00;fill-opacity:1;stroke:none;stroke-width:0.5;stroke-linecap:butt;stroke-linejoin:miter;stroke-miterlimit:4;stroke-dasharray:none;stroke-opacity:1" />
    <path
       id="path2286-1-5"
       d="m 131.81902,215.67065 c -1.06931,-1.48511 2.34165,-4.74032 3.84408,-2.55436 1.57271,2.2882 -2.81375,3.98538 -3.84408,2.55436 z"
       style="fill:#ff4d00;fill-opacity:1;stroke:none;stroke-width:0.3;stroke-linecap:square;stroke-linejoin:miter;stroke-miterlimit:4;stroke-dasharray:none;stroke-opacity:1;paint-order:normal" />
    <path
       id="path2286-8-39-6"
       d="m 129.61209,213.44353 c -1.02917,-0.94028 0.99287,-3.96368 2.47357,-2.5051 1.36648,1.34602 -1.4819,3.41115 -2.47357,2.5051 z"
       style="fill:#ff4d00;fill-opacity:1;stroke:none;stroke-width:0.3;stroke-linecap:square;stroke-linejoin:miter;stroke-miterlimit:4;stroke-dasharray:none;stroke-opacity:1;paint-order:normal" />
    <path
       id="path2286-8-3-2-8"
       d="m 127.36657,212.16093 c -1.04092,-0.51789 -0.11222,-3.41285 1.4096,-2.5828 1.4044,0.766 -0.40663,3.08184 -1.4096,2.5828 z"
       style="fill:#ff4d00;fill-opacity:1;stroke:none;stroke-width:0.3;stroke-linecap:square;stroke-linejoin:miter;stroke-miterlimit:4;stroke-dasharray:none;stroke-opacity:1;paint-order:normal" />
    <path
       id="path2286-8-8-25-9"
       d="m 125.24064,211.57321 c -1.00713,-0.17634 -0.9448,-2.87008 0.54583,-2.55037 1.37561,0.29505 0.42463,2.72031 -0.54583,2.55037 z"
       style="fill:#ff4d00;fill-opacity:1;stroke:none;stroke-width:0.3;stroke-linecap:square;stroke-linejoin:miter;stroke-miterlimit:4;stroke-dasharray:none;stroke-opacity:1;paint-order:normal" />
    <path
       id="path2286-8-9-5-6"
       d="m 123.08403,211.49815 c -0.98018,0.0934 -1.59486,-2.43283 -0.12944,-2.5163 1.35234,-0.077 1.07396,2.42635 0.12944,2.5163 z"
       style="fill:#ff4d00;fill-opacity:1;stroke:none;stroke-width:0.3;stroke-linecap:square;stroke-linejoin:miter;stroke-miterlimit:4;stroke-dasharray:none;stroke-opacity:1;paint-order:normal" />
  </g>
</svg>
