<?xml version="1.0" encoding="UTF-8" standalone="no"?>
<svg
   width="16.00008"
   height="16.000015"
   id="svg2985"
   version="1.1"
   xmlns="http://www.w3.org/2000/svg"
   xmlns:svg="http://www.w3.org/2000/svg"
   xmlns:rdf="http://www.w3.org/1999/02/22-rdf-syntax-ns#"
   xmlns:cc="http://creativecommons.org/ns#"
   xmlns:dc="http://purl.org/dc/elements/1.1/">
  <defs
     id="defs2987">
    <linearGradient
       id="linearGradient5090">
      <stop
         style="stop-color:#435800;stop-opacity:1;"
         offset="0"
         id="stop5088" />
    </linearGradient>
    <linearGradient
       id="linearGradient6402">
      <stop
         id="stop6404"
         offset="0"
         style="stop-color:#000000;stop-opacity:1;" />
      <stop
         id="stop6406"
         offset="1"
         style="stop-color:#000000;stop-opacity:0;" />
    </linearGradient>
    <linearGradient
       id="linearGradient3816">
      <stop
         id="stop3818"
         offset="0"
         style="stop-color:#ffa576;stop-opacity:1;" />
      <stop
         style="stop-color:#f45400;stop-opacity:1;"
         offset="1"
         id="stop3782" />
    </linearGradient>
  </defs>
  <metadata
     id="metadata2990">
    <rdf:RDF>
      <cc:Work
         rdf:about="">
        <dc:format>image/svg+xml</dc:format>
        <dc:type
           rdf:resource="http://purl.org/dc/dcmitype/StillImage" />
      </cc:Work>
    </rdf:RDF>
  </metadata>
  <g
     id="layer1"
     style="display:inline"
     transform="translate(-70.000139,-183.9831)">
    <rect
       y="183.98309"
       x="70.000137"
       height="15.999999"
       width="16.000084"
       id="rect6561-8-1-8-0-2-9"
       style="opacity:0.99;fill:none;stroke:none;stroke-width:1" />
    <path
       id="path2248-1"
       d="m 71.39902,199.58016 c -2.19767,-0.91289 -0.67159,-3.99211 -0.0754,-6.15415 0.56198,-2.03799 0.54041,-3.9131 1.19291,-4.60862 1.98195,-2.11262 8.13257,1.01524 7.89118,3.05856 -0.23062,1.9522 -3.23683,0.0443 -5.01726,4.31186 -0.31641,0.75841 -1.73556,4.32942 -3.99144,3.39235 z"
       style="fill:#915be4;fill-opacity:1;stroke:#3b1477;stroke-width:0.5;stroke-linecap:butt;stroke-linejoin:miter;stroke-miterlimit:4;stroke-dasharray:none;stroke-opacity:1" />
    <path
       id="path2286-83"
       d="m 81.71576,190.73072 c -1.03727,-1.43654 2.2715,-4.58528 3.72891,-2.47082 1.52559,2.21337 -2.72944,3.85505 -3.72891,2.47082 z"
       style="opacity:1;fill:#915be4;fill-opacity:1;stroke:#3b1477;stroke-width:0.3;stroke-linecap:square;stroke-linejoin:miter;stroke-miterlimit:4;stroke-dasharray:none;stroke-opacity:1;paint-order:normal" />
    <path
       id="path2286-8-1"
       d="m 79.57495,188.57645 c -0.99833,-0.90954 0.96313,-3.83406 2.39948,-2.42319 1.32551,1.30201 -1.43752,3.2996 -2.39948,2.42319 z"
       style="opacity:1;fill:#915be4;fill-opacity:1;stroke:#3b1477;stroke-width:0.3;stroke-linecap:square;stroke-linejoin:miter;stroke-miterlimit:4;stroke-dasharray:none;stroke-opacity:1;paint-order:normal" />
    <path
       id="path2286-8-3-4"
       d="m 77.3967,187.33579 c -1.00971,-0.50095 -0.10886,-3.30123 1.36738,-2.49833 1.36233,0.74094 -0.39444,2.98105 -1.36738,2.49833 z"
       style="opacity:1;fill:#915be4;fill-opacity:1;stroke:#3b1477;stroke-width:0.3;stroke-linecap:square;stroke-linejoin:miter;stroke-miterlimit:4;stroke-dasharray:none;stroke-opacity:1;paint-order:normal" />
    <path
       id="path2286-8-8-2"
       d="m 75.33448,186.76729 c -0.97695,-0.17057 -0.91649,-2.77622 0.52947,-2.46696 1.3344,0.2854 0.41192,2.63134 -0.52947,2.46696 z"
       style="opacity:1;fill:#915be4;fill-opacity:1;stroke:#3b1477;stroke-width:0.3;stroke-linecap:square;stroke-linejoin:miter;stroke-miterlimit:4;stroke-dasharray:none;stroke-opacity:1;paint-order:normal" />
    <path
       id="path2286-8-9-7"
       d="m 73.24249,186.69469 c -0.95082,0.0903 -1.54709,-2.35327 -0.12557,-2.43401 1.31183,-0.0745 1.04179,2.347 0.12557,2.43401 z"
       style="opacity:1;fill:#915be4;fill-opacity:1;stroke:#3b1477;stroke-width:0.3;stroke-linecap:square;stroke-linejoin:miter;stroke-miterlimit:4;stroke-dasharray:none;stroke-opacity:1;paint-order:normal" />
  </g>
</svg>
