<?xml version="1.0" encoding="UTF-8" standalone="no"?>
<svg
   width="16.000031"
   height="16"
   id="svg2985"
   version="1.1"
   xmlns="http://www.w3.org/2000/svg"
   xmlns:svg="http://www.w3.org/2000/svg"
   xmlns:rdf="http://www.w3.org/1999/02/22-rdf-syntax-ns#"
   xmlns:cc="http://creativecommons.org/ns#"
   xmlns:dc="http://purl.org/dc/elements/1.1/">
  <defs
     id="defs2987">
    <linearGradient
       id="linearGradient5090">
      <stop
         style="stop-color:#435800;stop-opacity:1;"
         offset="0"
         id="stop5088" />
    </linearGradient>
    <linearGradient
       id="linearGradient6402">
      <stop
         id="stop6404"
         offset="0"
         style="stop-color:#000000;stop-opacity:1;" />
      <stop
         id="stop6406"
         offset="1"
         style="stop-color:#000000;stop-opacity:0;" />
    </linearGradient>
    <linearGradient
       id="linearGradient3816">
      <stop
         id="stop3818"
         offset="0"
         style="stop-color:#ffa576;stop-opacity:1;" />
      <stop
         style="stop-color:#f45400;stop-opacity:1;"
         offset="1"
         id="stop3782" />
    </linearGradient>
  </defs>
  <metadata
     id="metadata2990">
    <rdf:RDF>
      <cc:Work
         rdf:about="">
        <dc:format>image/svg+xml</dc:format>
        <dc:type
           rdf:resource="http://purl.org/dc/dcmitype/StillImage" />
      </cc:Work>
    </rdf:RDF>
  </metadata>
  <g
     id="layer1"
     style="display:inline"
     transform="translate(-170.00001,-208.98011)">
    <path
       id="path2248-7-7"
       d="m 171.18364,224.81928 c -2.26554,-0.94375 -0.69232,-4.12708 -0.0777,-6.36222 0.57934,-2.10689 0.5571,-4.04541 1.22974,-4.76444 2.04317,-2.18404 8.38376,1.04957 8.13493,3.16198 -0.23776,2.01819 -3.33681,0.0458 -5.17223,4.45764 -0.32618,0.78404 -1.78916,4.47579 -4.11472,3.50704 z"
       style="fill:#a3d40e;fill-opacity:1;stroke:none;stroke-width:0.5;stroke-linecap:butt;stroke-linejoin:miter;stroke-miterlimit:4;stroke-dasharray:none;stroke-opacity:1" />
    <path
       id="path2286-5-0"
       d="m 181.81903,215.67065 c -1.06931,-1.48512 2.34164,-4.74032 3.84409,-2.55436 1.5727,2.2882 -2.81375,3.98538 -3.84409,2.55436 z"
       style="fill:#a3d40e;fill-opacity:1;stroke:none;stroke-width:0.3;stroke-linecap:square;stroke-linejoin:miter;stroke-miterlimit:4;stroke-dasharray:none;stroke-opacity:1;paint-order:normal" />
    <path
       id="path2286-8-80-8"
       d="m 179.61209,213.44353 c -1.02916,-0.94028 0.99288,-3.96368 2.47359,-2.50511 1.36646,1.34602 -1.48192,3.41115 -2.47359,2.50511 z"
       style="fill:#a3d40e;fill-opacity:1;stroke:none;stroke-width:0.3;stroke-linecap:square;stroke-linejoin:miter;stroke-miterlimit:4;stroke-dasharray:none;stroke-opacity:1;paint-order:normal" />
    <path
       id="path2286-8-3-8-1"
       d="m 177.36657,212.16093 c -1.04091,-0.51789 -0.11223,-3.41285 1.40961,-2.5828 1.40439,0.766 -0.40663,3.08184 -1.40961,2.5828 z"
       style="fill:#a3d40e;fill-opacity:1;stroke:none;stroke-width:0.3;stroke-linecap:square;stroke-linejoin:miter;stroke-miterlimit:4;stroke-dasharray:none;stroke-opacity:1;paint-order:normal" />
    <path
       id="path2286-8-8-8-1"
       d="m 175.24065,211.57321 c -1.00713,-0.17634 -0.94481,-2.87008 0.54582,-2.55037 1.37562,0.29505 0.42463,2.72031 -0.54582,2.55037 z"
       style="fill:#a3d40e;fill-opacity:1;stroke:none;stroke-width:0.3;stroke-linecap:square;stroke-linejoin:miter;stroke-miterlimit:4;stroke-dasharray:none;stroke-opacity:1;paint-order:normal" />
    <path
       id="path2286-8-9-6-0"
       d="m 173.08405,211.49815 c -0.98021,0.0934 -1.59487,-2.43283 -0.12945,-2.5163 1.35234,-0.077 1.07396,2.42635 0.12945,2.5163 z"
       style="fill:#a3d40e;fill-opacity:1;stroke:none;stroke-width:0.3;stroke-linecap:square;stroke-linejoin:miter;stroke-miterlimit:4;stroke-dasharray:none;stroke-opacity:1;paint-order:normal" />
  </g>
</svg>
