<?xml version="1.0" encoding="UTF-8" standalone="no"?>
<svg
   width="15.91861"
   height="15.873978"
   id="svg2985"
   version="1.1"
   xmlns="http://www.w3.org/2000/svg"
   xmlns:svg="http://www.w3.org/2000/svg"
   xmlns:rdf="http://www.w3.org/1999/02/22-rdf-syntax-ns#"
   xmlns:cc="http://creativecommons.org/ns#"
   xmlns:dc="http://purl.org/dc/elements/1.1/">
  <defs
     id="defs2987">
    <linearGradient
       id="linearGradient5090">
      <stop
         style="stop-color:#435800;stop-opacity:1;"
         offset="0"
         id="stop5088" />
    </linearGradient>
    <linearGradient
       id="linearGradient6402">
      <stop
         id="stop6404"
         offset="0"
         style="stop-color:#000000;stop-opacity:1;" />
      <stop
         id="stop6406"
         offset="1"
         style="stop-color:#000000;stop-opacity:0;" />
    </linearGradient>
    <linearGradient
       id="linearGradient3816">
      <stop
         id="stop3818"
         offset="0"
         style="stop-color:#ffa576;stop-opacity:1;" />
      <stop
         style="stop-color:#f45400;stop-opacity:1;"
         offset="1"
         id="stop3782" />
    </linearGradient>
  </defs>
  <metadata
     id="metadata2990">
    <rdf:RDF>
      <cc:Work
         rdf:about="">
        <dc:format>image/svg+xml</dc:format>
        <dc:type
           rdf:resource="http://purl.org/dc/dcmitype/StillImage" />
      </cc:Work>
    </rdf:RDF>
  </metadata>
  <g
     id="layer1"
     style="display:inline"
     transform="translate(-120.0003,-184.10914)">
    <path
       id="path2248-9"
       d="m 121.39917,199.58016 c -2.19767,-0.91289 -0.67158,-3.99211 -0.0754,-6.15416 0.56199,-2.03798 0.54042,-3.9131 1.19291,-4.60861 1.98195,-2.11262 8.13257,1.01524 7.89118,3.05856 -0.23062,1.9522 -3.23683,0.0443 -5.01725,4.31186 -0.31642,0.75841 -1.73556,4.32942 -3.99145,3.39235 z"
       style="fill:#ff4d00;fill-opacity:1;stroke:#a43100;stroke-width:0.5;stroke-linecap:butt;stroke-linejoin:miter;stroke-miterlimit:4;stroke-dasharray:none;stroke-opacity:1" />
    <path
       id="path2286-1"
       d="m 131.71592,190.73072 c -1.03728,-1.43654 2.27149,-4.58528 3.72891,-2.47082 1.52559,2.21337 -2.72945,3.85505 -3.72891,2.47082 z"
       style="opacity:1;fill:#ff4d00;fill-opacity:1;stroke:#a43100;stroke-width:0.3;stroke-linecap:square;stroke-linejoin:miter;stroke-miterlimit:4;stroke-dasharray:none;stroke-opacity:1;paint-order:normal" />
    <path
       id="path2286-8-39"
       d="m 129.57511,188.57644 c -0.99834,-0.90953 0.96312,-3.83405 2.39947,-2.42318 1.32552,1.302 -1.43752,3.2996 -2.39947,2.42318 z"
       style="opacity:1;fill:#ff4d00;fill-opacity:1;stroke:#a43100;stroke-width:0.3;stroke-linecap:square;stroke-linejoin:miter;stroke-miterlimit:4;stroke-dasharray:none;stroke-opacity:1;paint-order:normal" />
    <path
       id="path2286-8-3-2"
       d="m 127.39686,187.33579 c -1.00972,-0.50095 -0.10886,-3.30123 1.36737,-2.49833 1.36233,0.74094 -0.39444,2.98105 -1.36737,2.49833 z"
       style="opacity:1;fill:#ff4d00;fill-opacity:1;stroke:#a43100;stroke-width:0.3;stroke-linecap:square;stroke-linejoin:miter;stroke-miterlimit:4;stroke-dasharray:none;stroke-opacity:1;paint-order:normal" />
    <path
       id="path2286-8-8-25"
       d="m 125.33464,186.76729 c -0.97696,-0.17057 -0.9165,-2.77622 0.52947,-2.46696 1.33439,0.2854 0.41191,2.63134 -0.52947,2.46696 z"
       style="opacity:1;fill:#ff4d00;fill-opacity:1;stroke:#a43100;stroke-width:0.3;stroke-linecap:square;stroke-linejoin:miter;stroke-miterlimit:4;stroke-dasharray:none;stroke-opacity:1;paint-order:normal" />
    <path
       id="path2286-8-9-5"
       d="m 123.24264,186.69469 c -0.95082,0.0903 -1.54708,-2.35327 -0.12557,-2.43401 1.31183,-0.0745 1.04179,2.347 0.12557,2.43401 z"
       style="opacity:1;fill:#ff4d00;fill-opacity:1;stroke:#a43100;stroke-width:0.3;stroke-linecap:square;stroke-linejoin:miter;stroke-miterlimit:4;stroke-dasharray:none;stroke-opacity:1;paint-order:normal" />
  </g>
</svg>
