<?xml version="1.0" encoding="UTF-8" standalone="no"?>
<svg
   width="15.91861"
   height="15.873978"
   id="svg2985"
   version="1.1"
   xmlns="http://www.w3.org/2000/svg"
   xmlns:svg="http://www.w3.org/2000/svg"
   xmlns:rdf="http://www.w3.org/1999/02/22-rdf-syntax-ns#"
   xmlns:cc="http://creativecommons.org/ns#"
   xmlns:dc="http://purl.org/dc/elements/1.1/">
  <defs
     id="defs2987">
    <linearGradient
       id="linearGradient5090">
      <stop
         style="stop-color:#435800;stop-opacity:1;"
         offset="0"
         id="stop5088" />
    </linearGradient>
    <linearGradient
       id="linearGradient6402">
      <stop
         id="stop6404"
         offset="0"
         style="stop-color:#000000;stop-opacity:1;" />
      <stop
         id="stop6406"
         offset="1"
         style="stop-color:#000000;stop-opacity:0;" />
    </linearGradient>
    <linearGradient
       id="linearGradient3816">
      <stop
         id="stop3818"
         offset="0"
         style="stop-color:#ffa576;stop-opacity:1;" />
      <stop
         style="stop-color:#f45400;stop-opacity:1;"
         offset="1"
         id="stop3782" />
    </linearGradient>
  </defs>
  <metadata
     id="metadata2990">
    <rdf:RDF>
      <cc:Work
         rdf:about="">
        <dc:format>image/svg+xml</dc:format>
        <dc:type
           rdf:resource="http://purl.org/dc/dcmitype/StillImage" />
      </cc:Work>
    </rdf:RDF>
  </metadata>
  <g
     id="layer1"
     style="display:inline"
     transform="translate(-220.00052,-184.10911)">
    <path
       id="path2248-19"
       d="m 221.39938,199.58013 c -2.19766,-0.91288 -0.67158,-3.99211 -0.0754,-6.15416 0.56199,-2.03798 0.54042,-3.91309 1.1929,-4.60861 1.98196,-2.11262 8.13258,1.01524 7.89119,3.05856 -0.23062,1.9522 -3.23683,0.0443 -5.01726,4.31186 -0.31641,0.75841 -1.73556,4.32942 -3.99144,3.39235 z"
       style="fill:#ffce17;fill-opacity:1;stroke:#9d7c00;stroke-width:0.5;stroke-linecap:butt;stroke-linejoin:miter;stroke-miterlimit:4;stroke-dasharray:none;stroke-opacity:1" />
    <path
       id="path2286-81"
       d="m 231.71613,190.7307 c -1.03728,-1.43655 2.27149,-4.58529 3.72892,-2.47083 1.52558,2.21337 -2.72946,3.85505 -3.72892,2.47083 z"
       style="opacity:1;fill:#ffce17;fill-opacity:1;stroke:#9d7c00;stroke-width:0.3;stroke-linecap:square;stroke-linejoin:miter;stroke-miterlimit:4;stroke-dasharray:none;stroke-opacity:1;paint-order:normal" />
    <path
       id="path2286-8-5"
       d="m 229.57532,188.57642 c -0.99834,-0.90954 0.96312,-3.83406 2.39947,-2.42319 1.32551,1.30201 -1.43752,3.2996 -2.39947,2.42319 z"
       style="opacity:1;fill:#ffce17;fill-opacity:1;stroke:#9d7c00;stroke-width:0.3;stroke-linecap:square;stroke-linejoin:miter;stroke-miterlimit:4;stroke-dasharray:none;stroke-opacity:1;paint-order:normal" />
    <path
       id="path2286-8-3-1"
       d="m 227.39706,187.33576 c -1.00971,-0.50095 -0.10886,-3.30123 1.36738,-2.49833 1.36233,0.74094 -0.39444,2.98105 -1.36738,2.49833 z"
       style="opacity:1;fill:#ffce17;fill-opacity:1;stroke:#9d7c00;stroke-width:0.3;stroke-linecap:square;stroke-linejoin:miter;stroke-miterlimit:4;stroke-dasharray:none;stroke-opacity:1;paint-order:normal" />
    <path
       id="path2286-8-8-7"
       d="m 225.33484,186.76726 c -0.97695,-0.17057 -0.91649,-2.77622 0.52948,-2.46696 1.33439,0.2854 0.41191,2.63134 -0.52948,2.46696 z"
       style="opacity:1;fill:#ffce17;fill-opacity:1;stroke:#9d7c00;stroke-width:0.3;stroke-linecap:square;stroke-linejoin:miter;stroke-miterlimit:4;stroke-dasharray:none;stroke-opacity:1;paint-order:normal" />
    <path
       id="path2286-8-9-1"
       d="m 223.24285,186.69466 c -0.95083,0.0903 -1.54709,-2.35327 -0.12557,-2.43401 1.31183,-0.0745 1.04179,2.347 0.12557,2.43401 z"
       style="opacity:1;fill:#ffce17;fill-opacity:1;stroke:#9d7c00;stroke-width:0.3;stroke-linecap:square;stroke-linejoin:miter;stroke-miterlimit:4;stroke-dasharray:none;stroke-opacity:1;paint-order:normal" />
  </g>
</svg>
