<?xml version="1.0" encoding="UTF-8" standalone="no"?>
<svg
   width="15.91861"
   height="15.873978"
   id="svg2985"
   version="1.1"
   xmlns="http://www.w3.org/2000/svg"
   xmlns:svg="http://www.w3.org/2000/svg"
   xmlns:rdf="http://www.w3.org/1999/02/22-rdf-syntax-ns#"
   xmlns:cc="http://creativecommons.org/ns#"
   xmlns:dc="http://purl.org/dc/elements/1.1/">
  <defs
     id="defs2987">
    <linearGradient
       id="linearGradient5090">
      <stop
         style="stop-color:#435800;stop-opacity:1;"
         offset="0"
         id="stop5088" />
    </linearGradient>
    <linearGradient
       id="linearGradient6402">
      <stop
         id="stop6404"
         offset="0"
         style="stop-color:#000000;stop-opacity:1;" />
      <stop
         id="stop6406"
         offset="1"
         style="stop-color:#000000;stop-opacity:0;" />
    </linearGradient>
    <linearGradient
       id="linearGradient3816">
      <stop
         id="stop3818"
         offset="0"
         style="stop-color:#ffa576;stop-opacity:1;" />
      <stop
         style="stop-color:#f45400;stop-opacity:1;"
         offset="1"
         id="stop3782" />
    </linearGradient>
  </defs>
  <metadata
     id="metadata2990">
    <rdf:RDF>
      <cc:Work
         rdf:about="">
        <dc:format>image/svg+xml</dc:format>
        <dc:type
           rdf:resource="http://purl.org/dc/dcmitype/StillImage" />
      </cc:Work>
    </rdf:RDF>
  </metadata>
  <g
     id="layer1"
     style="display:inline"
     transform="translate(-170.00041,-184.10914)">
    <path
       id="path2248-7"
       d="m 171.39928,199.58016 c -2.19766,-0.91289 -0.67158,-3.99211 -0.0754,-6.15416 0.56198,-2.03798 0.54041,-3.9131 1.19289,-4.60861 1.98196,-2.11262 8.13259,1.01524 7.8912,3.05856 -0.23063,1.9522 -3.23683,0.0443 -5.01726,4.31186 -0.31641,0.75841 -1.73556,4.32942 -3.99144,3.39235 z"
       style="fill:#a3d40e;fill-opacity:1;stroke:#556f07;stroke-width:0.5;stroke-linecap:butt;stroke-linejoin:miter;stroke-miterlimit:4;stroke-dasharray:none;stroke-opacity:1" />
    <path
       id="path2286-5"
       d="m 181.71602,190.73072 c -1.03727,-1.43654 2.27149,-4.58528 3.72891,-2.47082 1.5256,2.21337 -2.72944,3.85505 -3.72891,2.47082 z"
       style="opacity:1;fill:#a3d40e;fill-opacity:1;stroke:#556f07;stroke-width:0.3;stroke-linecap:square;stroke-linejoin:miter;stroke-miterlimit:4;stroke-dasharray:none;stroke-opacity:1;paint-order:normal" />
    <path
       id="path2286-8-80"
       d="m 179.57521,188.57644 c -0.99833,-0.90953 0.96313,-3.83405 2.39947,-2.42318 1.32552,1.302 -1.43751,3.2996 -2.39947,2.42318 z"
       style="opacity:1;fill:#a3d40e;fill-opacity:1;stroke:#556f07;stroke-width:0.3;stroke-linecap:square;stroke-linejoin:miter;stroke-miterlimit:4;stroke-dasharray:none;stroke-opacity:1;paint-order:normal" />
    <path
       id="path2286-8-3-8"
       d="m 177.39696,187.33579 c -1.00972,-0.50095 -0.10886,-3.30123 1.36738,-2.49833 1.36232,0.74094 -0.39444,2.98105 -1.36738,2.49833 z"
       style="opacity:1;fill:#a3d40e;fill-opacity:1;stroke:#556f07;stroke-width:0.3;stroke-linecap:square;stroke-linejoin:miter;stroke-miterlimit:4;stroke-dasharray:none;stroke-opacity:1;paint-order:normal" />
    <path
       id="path2286-8-8-8"
       d="m 175.33474,186.76729 c -0.97696,-0.17057 -0.9165,-2.77622 0.52947,-2.46696 1.3344,0.2854 0.41191,2.63134 -0.52947,2.46696 z"
       style="opacity:1;fill:#a3d40e;fill-opacity:1;stroke:#556f07;stroke-width:0.3;stroke-linecap:square;stroke-linejoin:miter;stroke-miterlimit:4;stroke-dasharray:none;stroke-opacity:1;paint-order:normal" />
    <path
       id="path2286-8-9-6"
       d="m 173.24275,186.69469 c -0.95084,0.0903 -1.54709,-2.35327 -0.12557,-2.43401 1.31182,-0.0745 1.04178,2.347 0.12557,2.43401 z"
       style="opacity:1;fill:#a3d40e;fill-opacity:1;stroke:#556f07;stroke-width:0.3;stroke-linecap:square;stroke-linejoin:miter;stroke-miterlimit:4;stroke-dasharray:none;stroke-opacity:1;paint-order:normal" />
  </g>
</svg>
