<?xml version="1.0" encoding="UTF-8" standalone="no"?>
<svg
   version="1.1"
   id="svg2985"
   height="36.000031"
   width="25"
   xml:space="preserve"
   xmlns="http://www.w3.org/2000/svg"
   xmlns:svg="http://www.w3.org/2000/svg"
   xmlns:rdf="http://www.w3.org/1999/02/22-rdf-syntax-ns#"
   xmlns:cc="http://creativecommons.org/ns#"
   xmlns:dc="http://purl.org/dc/elements/1.1/"><defs
     id="defs2987"><linearGradient
       id="swatch22"><stop
         style="stop-color:#000000;stop-opacity:1;"
         offset="0"
         id="stop22" /></linearGradient><linearGradient
       id="linearGradient3816"><stop
         id="stop3818"
         offset="0"
         style="stop-color:#ffa576;stop-opacity:1;" /><stop
         style="stop-color:#f45400;stop-opacity:1;"
         offset="1"
         id="stop3782" /></linearGradient></defs><metadata
     id="metadata2990"><rdf:RDF><cc:Work
         rdf:about=""><dc:format>image/svg+xml</dc:format><dc:type
           rdf:resource="http://purl.org/dc/dcmitype/StillImage" /></cc:Work></rdf:RDF></metadata><g
     id="layer1"
     style="display:inline"
     transform="translate(-140,-469)"><path
       id="rect43-1-8-2"
       style="display:inline;fill:#d0ec86;fill-opacity:1"
       d="m 152.5,469.50002 c -0.50699,0 -1.41498,0.0506 -2.5,0.23242 v 2.26758 h 5 v -2.26758 c -1.08502,-0.1818 -1.99302,-0.23242 -2.5,-0.23242 z m 2.5,2.5 v 5 h 5 v -5 z m 5,0 h 0.73633 c -0.2401,-0.17607 -0.48637,-0.33771 -0.73633,-0.49023 z m 0,5 v 5 h 4.37891 c 0.0765,-0.59596 0.12109,-1.25259 0.12109,-2.00391 0,-1.11363 -0.13537,-2.10471 -0.36914,-2.99609 z m 0,5 h -5 v 5 h 5 z m 0,5 v 1.95312 c 0.69977,-0.72694 1.34875,-1.34952 1.92383,-1.95312 z m -5,0 h -5 v 5 h 5 z m 0,5 v 4.44727 c 0.83877,-1.83018 1.67835,-3.26981 2.49219,-4.44727 z m -5,0 h -2.58984 c 0.83922,1.21086 1.71108,2.70247 2.58984,4.60742 z m 0,-5 v -5 h -5 v 5 z m -5,0 h -1.98438 c 0.58875,0.62919 1.25724,1.27651 1.98438,2.04492 z m 0,-5 v -5 h -4.13086 c -0.23377,0.89138 -0.36914,1.88246 -0.36914,2.99609 0,0.75137 0.0431,1.40791 0.11719,2.00391 z m 0,-5 h 5 v -5 h -5 z m 0,-5 v -0.49023 c -0.24996,0.15252 -0.49623,0.31416 -0.73633,0.49023 z m 5,5 v 5 h 5 v -5 z m 0.17773,20 c 0.63899,1.42519 1.28219,3.07381 1.91602,5 h 0.79883 c 0.6114,-1.92596 1.235,-3.57494 1.86133,-5 z" /><path
       id="rect43-1-2-50"
       style="display:inline;fill:#ffffff;fill-opacity:1;stroke-width:1.00002"
       d="m 150,469.73244 c -1.49416,0.25035 -3.33127,0.7591 -5,1.77735 v 0.49023 h 5 z m 0,2.26758 v 5 h 5 v -5 z m 5,0 h 5 v -0.49023 c -1.66874,-1.01825 -3.50585,-1.527 -5,-1.77735 z m 5,0 v 5 h 4.13086 c -0.60028,-2.28892 -1.87937,-3.88887 -3.39453,-5 z m 0,5 h -5 v 5 h 5 z m 0,5 v 5 h 1.92383 c 1.24658,-1.30841 2.14729,-2.59955 2.45508,-5 z m 0,5 h -5 v 5 h 2.49219 c 0.87943,-1.27237 1.7221,-2.22866 2.50781,-3.04492 z m -5,5 h -5 v 4.60742 c 0.0592,0.12836 0.11847,0.26041 0.17773,0.39258 h 4.57618 c 0.0818,-0.18615 0.16423,-0.37412 0.24609,-0.55273 z m -5,0 v -5 h -5 v 2.04688 c 0.75359,0.79637 1.56172,1.72897 2.41016,2.95312 z m -5,-5 v -5 h -4.38281 c 0.29832,2.40044 1.17412,3.69158 2.39843,5 z m 0,-5 h 5 v -5 h -5 z m 0,-5 v -5 h -0.73633 c -1.51516,1.11113 -2.79425,2.71108 -3.39453,5 z m 5,5 v 5 h 5 v -5 z m 2.09375,20 c 0.13612,0.41364 0.27094,0.82984 0.40625,1.26953 0.13004,-0.43983 0.26122,-0.85576 0.39258,-1.26953 z" /><path
       id="path1887-0-7-0-3"
       style="fill:none;fill-opacity:1;fill-rule:nonzero;stroke:#698712;stroke-width:1px;stroke-linecap:butt;stroke-linejoin:miter;stroke-opacity:1"
       d="m 152.5,469.5 c -2.22669,0 -12,0.84808 -12,10.49652 0,9.64848 6.39003,5.04261 12,23.27243 5.38999,-18.22982 12,-13.62395 12,-23.27243 0,-9.64844 -9.77336,-10.49652 -12,-10.49652 z" /></g></svg>
