<?xml version="1.0" encoding="UTF-8" standalone="no"?>
<svg
   version="1.1"
   id="svg2985"
   height="35.998596"
   width="25"
   xml:space="preserve"
   xmlns="http://www.w3.org/2000/svg"
   xmlns:svg="http://www.w3.org/2000/svg"
   xmlns:rdf="http://www.w3.org/1999/02/22-rdf-syntax-ns#"
   xmlns:cc="http://creativecommons.org/ns#"
   xmlns:dc="http://purl.org/dc/elements/1.1/"><defs
     id="defs2987"><linearGradient
       id="swatch22"><stop
         style="stop-color:#000000;stop-opacity:1;"
         offset="0"
         id="stop22" /></linearGradient><linearGradient
       id="linearGradient3816"><stop
         id="stop3818"
         offset="0"
         style="stop-color:#ffa576;stop-opacity:1;" /><stop
         style="stop-color:#f45400;stop-opacity:1;"
         offset="1"
         id="stop3782" /></linearGradient></defs><metadata
     id="metadata2990"><rdf:RDF><cc:Work
         rdf:about=""><dc:format>image/svg+xml</dc:format><dc:type
           rdf:resource="http://purl.org/dc/dcmitype/StillImage" /></cc:Work></rdf:RDF></metadata><g
     id="layer1"
     style="display:inline"
     transform="translate(-60,-469.00003)"><path
       id="path1887-0-9"
       style="fill:#d0ec86;fill-opacity:1;stroke:#697743;stroke-width:1px;stroke-linecap:butt;stroke-linejoin:miter;stroke-opacity:1"
       d="m 72.5,469.50003 c -2.22669,0 -12,0.84805 -12,10.49609 0,9.64809 6.39003,5.04241 12,23.27149 5.38999,-18.22908 12,-13.6234 12,-23.27149 0,-9.64804 -9.77336,-10.49609 -12,-10.49609 z m 0,6 a 5,4.9999981 0 0 1 5,5 5,4.9999981 0 0 1 -5,5 5,4.9999981 0 0 1 -5,-5 5,4.9999981 0 0 1 5,-5 z" /></g></svg>
