<?xml version="1.0" encoding="UTF-8" standalone="no"?>
<svg
   version="1.1"
   id="svg2985"
   height="16.000153"
   width="16.000015"
   xml:space="preserve"
   xmlns="http://www.w3.org/2000/svg"
   xmlns:svg="http://www.w3.org/2000/svg"
   xmlns:rdf="http://www.w3.org/1999/02/22-rdf-syntax-ns#"
   xmlns:cc="http://creativecommons.org/ns#"
   xmlns:dc="http://purl.org/dc/elements/1.1/"><defs
     id="defs2987"><linearGradient
       id="swatch22"><stop
         style="stop-color:#000000;stop-opacity:1;"
         offset="0"
         id="stop22" /></linearGradient><linearGradient
       id="linearGradient3816"><stop
         id="stop3818"
         offset="0"
         style="stop-color:#ffa576;stop-opacity:1;" /><stop
         style="stop-color:#f45400;stop-opacity:1;"
         offset="1"
         id="stop3782" /></linearGradient></defs><metadata
     id="metadata2990"><rdf:RDF><cc:Work
         rdf:about=""><dc:format>image/svg+xml</dc:format><dc:type
           rdf:resource="http://purl.org/dc/dcmitype/StillImage" /></cc:Work></rdf:RDF></metadata><g
     id="layer1"
     style="display:inline"
     transform="translate(-169.99998,-429)"><path
       id="path2-1-7-5-5"
       style="display:inline;fill:#ff8507;fill-opacity:1;stroke:none;stroke-width:0.600001;stroke-linejoin:miter;stroke-miterlimit:3.9;stroke-opacity:1"
       d="m 178.001,429.00002 c -3.31414,0 -6,2.73422 -6,6.10799 0,3.3738 3.89448,4.71564 6,9.89201 2.07267,-5.07059 6,-6.51821 6,-9.89201 0,-3.37377 -2.68582,-6.10799 -6,-6.10799 z M 178,432.00004 c 1.6126,3.4e-4 2.99964,1.4948 3,3 4.9e-4,1.50573 -1.3868,2.84342 -3,2.84375 -1.61319,-3.3e-4 -3.00053,-1.33802 -3,-2.84375 3.4e-4,-1.5052 1.38743,-2.99966 3,-3 z" /><rect
       transform="scale(1,-1)"
       y="-445.00006"
       x="170"
       height="16"
       width="15.999999"
       id="rect6561-8-1-9-9-5-5-9-9-1-3-94-1-6-6-4-5-85-3-8-0-8-5-1-6-5-3-2-3-0-8-9-1-7"
       style="display:inline;opacity:0.99;fill:none;stroke:none;stroke-width:1" /><rect
       style="display:inline;fill:#f3fde0;fill-opacity:0.3;stroke:none;stroke-width:0.999995;stroke-miterlimit:3.9;stroke-opacity:1;paint-order:stroke fill markers"
       id="rect14502-8-9"
       width="8"
       height="6"
       x="174"
       y="429" /><rect
       rx="0"
       ry="0"
       y="-445"
       x="-186"
       height="16"
       width="15.99999"
       id="rect4525-1-0-2-33-0-9-6-7-6"
       style="color:#000000;display:inline;overflow:visible;visibility:visible;opacity:0.99;fill:none;fill-opacity:1;stroke:#535353;stroke-width:0;stroke-opacity:1;marker:none;enable-background:accumulate"
       transform="scale(-1)" /><path
       id="path3505-8-9"
       d="m 182.99999,441.50016 h -10 v 0"
       style="display:inline;fill:none;fill-opacity:1;stroke:#d0ec86;stroke-width:1;stroke-linecap:butt;stroke-linejoin:miter;stroke-dasharray:none;stroke-opacity:1" /><path
       id="path3505-8-2-1"
       d="m 182.99999,438.50016 h -10 v 0"
       style="display:inline;fill:none;fill-opacity:1;stroke:#d0ec86;stroke-width:1;stroke-linecap:butt;stroke-linejoin:miter;stroke-dasharray:none;stroke-opacity:1" /><path
       id="path3505-8-2-6-9"
       d="m 183.99999,444.50016 h -12 v 0"
       style="display:inline;fill:none;fill-opacity:1;stroke:#d0ec86;stroke-width:0.999998px;stroke-linecap:butt;stroke-linejoin:miter;stroke-opacity:1" /><path
       id="path5016-9-2-8-9"
       d="m 178.99999,435.00016 h -5 v -6 h -3 l -1,1 v 14 l 1,1 h 1 v -9 h 12 v 9 h 1 l 1,-1 v -13 l -2,-2 h -2 v 6 h -1"
       style="display:inline;fill:#d0ec86;fill-opacity:1;stroke:none;stroke-width:1px;stroke-linecap:butt;stroke-linejoin:miter;stroke-opacity:1" /></g></svg>
