<?xml version="1.0" encoding="UTF-8" standalone="no"?>
<svg
   version="1.1"
   id="svg2985"
   height="16"
   width="16"
   xml:space="preserve"
   xmlns="http://www.w3.org/2000/svg"
   xmlns:svg="http://www.w3.org/2000/svg"
   xmlns:rdf="http://www.w3.org/1999/02/22-rdf-syntax-ns#"
   xmlns:cc="http://creativecommons.org/ns#"
   xmlns:dc="http://purl.org/dc/elements/1.1/"><defs
     id="defs2987"><linearGradient
       id="swatch22"><stop
         style="stop-color:#000000;stop-opacity:1;"
         offset="0"
         id="stop22" /></linearGradient><linearGradient
       id="linearGradient3816"><stop
         id="stop3818"
         offset="0"
         style="stop-color:#ffa576;stop-opacity:1;" /><stop
         style="stop-color:#f45400;stop-opacity:1;"
         offset="1"
         id="stop3782" /></linearGradient></defs><metadata
     id="metadata2990"><rdf:RDF><cc:Work
         rdf:about=""><dc:format>image/svg+xml</dc:format><dc:type
           rdf:resource="http://purl.org/dc/dcmitype/StillImage" /><dc:title /></cc:Work></rdf:RDF></metadata><g
     id="layer1"
     style="display:inline"
     transform="translate(-20,-489)"><rect
       transform="scale(1,-1)"
       y="-505"
       x="20"
       height="16"
       width="15.999999"
       id="rect6561-8-1-9-9-5-5-9-9-1-3-94-1-6-6-4-5-85-3-8-0-8-5-1-6-5-3-2-3-0-0"
       style="display:inline;opacity:0.99;fill:none;stroke:none;stroke-width:1" /><g
       id="g26"
       transform="translate(0,100)"><path
         id="rect25-1"
         style="display:inline;fill:#6bb0ff;fill-opacity:1;stroke:#00438b;stroke-width:0.6;stroke-linecap:butt;stroke-linejoin:miter;stroke-miterlimit:3.1;stroke-dasharray:none;stroke-opacity:1;paint-order:markers fill stroke"
         d="m 28,404.21484 c 1.969,-4.72654 5.69922,-6.07582 5.69922,-9.2207 0,-3.14486 -2.55075,-5.69336 -5.69922,-5.69336 m 0,2.79492 c 1.53118,10e-4 2.8493,1.39441 2.84961,2.79688 4.6e-4,1.40297 -1.31792,2.64901 -2.84961,2.65039" /><path
         id="rect25-7-9"
         style="display:inline;fill:#d0ec86;fill-opacity:1;stroke:#697743;stroke-width:0.6;stroke-linecap:butt;stroke-linejoin:miter;stroke-miterlimit:3;stroke-dasharray:none;stroke-opacity:1;paint-order:markers fill stroke"
         d="M 27.99922,404.21406 C 26.03022,399.48752 22.3,398.13824 22.3,394.99336 22.3,391.8485 24.85075,389.3 27.99922,389.3 m 0,2.79492 c -1.53118,10e-4 -2.8493,1.39441 -2.84961,2.79688 -4.6e-4,1.40297 1.31792,2.64901 2.84961,2.65039" /></g></g></svg>
