<?xml version="1.0" encoding="UTF-8" standalone="no"?>
<svg
   version="1.1"
   id="svg2985"
   height="16.000031"
   width="16"
   xml:space="preserve"
   xmlns="http://www.w3.org/2000/svg"
   xmlns:svg="http://www.w3.org/2000/svg"
   xmlns:rdf="http://www.w3.org/1999/02/22-rdf-syntax-ns#"
   xmlns:cc="http://creativecommons.org/ns#"
   xmlns:dc="http://purl.org/dc/elements/1.1/"><defs
     id="defs2987"><linearGradient
       id="swatch22"><stop
         style="stop-color:#000000;stop-opacity:1;"
         offset="0"
         id="stop22" /></linearGradient><linearGradient
       id="linearGradient3816"><stop
         id="stop3818"
         offset="0"
         style="stop-color:#ffa576;stop-opacity:1;" /><stop
         style="stop-color:#f45400;stop-opacity:1;"
         offset="1"
         id="stop3782" /></linearGradient></defs><metadata
     id="metadata2990"><rdf:RDF><cc:Work
         rdf:about=""><dc:format>image/svg+xml</dc:format><dc:type
           rdf:resource="http://purl.org/dc/dcmitype/StillImage" /></cc:Work></rdf:RDF></metadata><g
     id="layer1"
     style="display:inline"
     transform="translate(-140,-423.99997)"><path
       id="path2-1-7-5"
       style="display:inline;fill:#ff8507;fill-opacity:1;stroke:none;stroke-width:0.600001;stroke-linejoin:miter;stroke-miterlimit:3.9;stroke-opacity:1"
       d="m 148.001,423.99998 c -3.31414,0 -6,2.73422 -6,6.10799 0,3.3738 3.89448,4.71564 6,9.89201 2.07267,-5.07059 6,-6.51821 6,-9.89201 0,-3.37377 -2.68582,-6.10799 -6,-6.10799 z M 148,427 c 1.6126,3.4e-4 2.99964,1.4948 3,3 4.9e-4,1.50573 -1.3868,2.84342 -3,2.84375 -1.61319,-3.3e-4 -3.00053,-1.33802 -3,-2.84375 3.4e-4,-1.5052 1.38743,-2.99966 3,-3 z" /><rect
       transform="scale(1,-1)"
       y="-440"
       x="140"
       height="16"
       width="15.999999"
       id="rect6561-8-1-9-9-5-5-9-9-1-3-94-1-6-6-4-5-85-3-8-0-8-5-1-6-5-3-2-3-0-8-9-1"
       style="display:inline;opacity:0.99;fill:none;stroke:none;stroke-width:1" /></g></svg>
