<?xml version="1.0" encoding="UTF-8" standalone="no"?>
<svg
   version="1.1"
   id="svg2985"
   height="16"
   width="16"
   xml:space="preserve"
   xmlns="http://www.w3.org/2000/svg"
   xmlns:svg="http://www.w3.org/2000/svg"
   xmlns:rdf="http://www.w3.org/1999/02/22-rdf-syntax-ns#"
   xmlns:cc="http://creativecommons.org/ns#"
   xmlns:dc="http://purl.org/dc/elements/1.1/"><defs
     id="defs2987"><linearGradient
       id="swatch22"><stop
         style="stop-color:#000000;stop-opacity:1;"
         offset="0"
         id="stop22" /></linearGradient><linearGradient
       id="linearGradient3816"><stop
         id="stop3818"
         offset="0"
         style="stop-color:#ffa576;stop-opacity:1;" /><stop
         style="stop-color:#f45400;stop-opacity:1;"
         offset="1"
         id="stop3782" /></linearGradient></defs><metadata
     id="metadata2990"><rdf:RDF><cc:Work
         rdf:about=""><dc:format>image/svg+xml</dc:format><dc:type
           rdf:resource="http://purl.org/dc/dcmitype/StillImage" /></cc:Work></rdf:RDF></metadata><g
     id="layer1"
     style="display:inline"
     transform="translate(-185,-449.00006)"><path
       id="path2-1-7-5-5"
       style="display:inline;fill:#ff8507;fill-opacity:1;stroke:none;stroke-width:0.600001;stroke-linejoin:miter;stroke-miterlimit:3.9;stroke-opacity:1"
       d="M 193.001,449.00002 C 189.68686,449.00002 187.001,451.73424 187.001,455.10801 187.001,458.48181 190.89548,459.82365 193.001,465.00002 195.07367,459.92943 199.001,458.48181 199.001,455.10801 199.001,451.73424 196.31518,449.00002 193.001,449.00002 Z M 193,452.00004 C 194.6126,452.00038 195.99964,453.49484 196,455.00004 196.00049,456.50577 194.6132,457.84346 193,457.84379 191.38681,457.84346 189.99947,456.50577 190,455.00004 190.00034,453.49484 191.38743,452.00038 193,452.00004 Z" /><rect
       transform="scale(1,-1)"
       y="-465.00006"
       x="185"
       height="16"
       width="15.999999"
       id="rect6561-8-1-9-9-5-5-9-9-1-3-94-1-6-6-4-5-85-3-8-0-8-5-1-6-5-3-2-3-0-8-9-1-7"
       style="display:inline;opacity:0.99;fill:none;stroke:none;stroke-width:1" /><rect
       style="display:inline;fill:#f3fde0;fill-opacity:0.3;stroke:none;stroke-width:0.999995;stroke-miterlimit:3.9;stroke-opacity:1;paint-order:stroke fill markers"
       id="rect14502-8-9"
       width="8"
       height="6"
       x="189"
       y="449" /><path
       id="path3505-8-9"
       d="M 197.99999,461.50016 H 187.99999 V 461.50016"
       style="display:inline;fill:none;fill-opacity:1;stroke:#d0ec86;stroke-width:1;stroke-linecap:butt;stroke-linejoin:miter;stroke-dasharray:none;stroke-opacity:1" /><path
       id="path3505-8-2-1"
       d="M 197.99999,458.50016 H 187.99999 V 458.50016"
       style="display:inline;fill:none;fill-opacity:1;stroke:#d0ec86;stroke-width:1;stroke-linecap:butt;stroke-linejoin:miter;stroke-dasharray:none;stroke-opacity:1" /><path
       id="path3505-8-2-6-9"
       d="M 198.99999,464.50016 H 186.99999 V 464.50016"
       style="display:inline;fill:none;fill-opacity:1;stroke:#d0ec86;stroke-width:0.999998px;stroke-linecap:butt;stroke-linejoin:miter;stroke-opacity:1" /><path
       id="path5016-9-2-8-9"
       d="M 193.99999,455.00016 H 188.99999 V 449.00016 H 185.99999 L 184.99999,450.00016 V 464.00016 L 185.99999,465.00016 H 186.99999 V 456.00016 H 198.99999 V 465.00016 H 199.99999 L 200.99999,464.00016 V 451.00016 L 198.99999,449.00016 H 196.99999 V 455.00016 H 195.99999"
       style="display:inline;fill:#d0ec86;fill-opacity:1;stroke:none;stroke-width:1px;stroke-linecap:butt;stroke-linejoin:miter;stroke-opacity:1" /></g></svg>
