<?xml version="1.0" encoding="UTF-8" standalone="no"?>
<svg
   width="16.000107"
   height="16.008179"
   id="svg2985"
   version="1.1"
   viewBox="0 0 16.000107 16.00818"
   xmlns="http://www.w3.org/2000/svg"
   xmlns:svg="http://www.w3.org/2000/svg"
   xmlns:rdf="http://www.w3.org/1999/02/22-rdf-syntax-ns#"
   xmlns:cc="http://creativecommons.org/ns#"
   xmlns:dc="http://purl.org/dc/elements/1.1/">
  <defs
     id="defs2987">
    <linearGradient
       id="linearGradient6402">
      <stop
         id="stop6404"
         offset="0"
         style="stop-color:#000000;stop-opacity:1;" />
      <stop
         id="stop6406"
         offset="1"
         style="stop-color:#000000;stop-opacity:0;" />
    </linearGradient>
    <linearGradient
       id="linearGradient3816">
      <stop
         id="stop3818"
         offset="0"
         style="stop-color:#ffa576;stop-opacity:1;" />
      <stop
         style="stop-color:#f45400;stop-opacity:1;"
         offset="1"
         id="stop3782" />
    </linearGradient>
  </defs>
  <metadata
     id="metadata2990">
    <rdf:RDF>
      <cc:Work
         rdf:about="">
        <dc:format>image/svg+xml</dc:format>
        <dc:type
           rdf:resource="http://purl.org/dc/dcmitype/StillImage" />
      </cc:Work>
    </rdf:RDF>
  </metadata>
  <g
     id="layer1"
     transform="translate(-9.9999999,-424)">
    <rect
       transform="matrix(0,1,1,0,0,0)"
       y="10.000038"
       x="424"
       height="16.000015"
       width="16"
       id="rect6561-8-1-9-9-5-5-9-9-1-3-94-1-6-6-4-5-8"
       style="opacity:0.99;fill:none;stroke:none" />
    <path
       id="path11669-6-7-9-8-5-2-4"
       d="m 26.00002,432.00819 c 0,-4.4183 -3.58171,-8.00001 -8.00001,-8.00001 -4.41828,0 -8,3.58172 -8.00001,8.00001 10e-6,4.41825 3.58173,7.99998 8.00001,7.99999 4.4183,0 8.00001,-3.58174 8.00001,-7.99999 z m -3.58821,-0.0781 c -2e-5,2.47968 -2.01022,4.48986 -4.48993,4.48985 -2.4797,-10e-6 -4.48986,-2.01017 -4.48987,-4.48985 0,-2.47971 2.01017,-4.4899 4.48987,-4.4899 2.47972,-10e-6 4.48993,2.01018 4.48993,4.4899 z"
       style="fill:#646464;fill-opacity:1;stroke:none;stroke-width:0.8;stroke-linecap:butt;stroke-linejoin:miter;stroke-miterlimit:4;stroke-dasharray:none;stroke-opacity:1;paint-order:normal" />
    <path
       id="path11669-6-0-7-5-8-0-5"
       d="m 22.50002,432.00818 c -10e-6,-2.48534 -2.01467,-4.5 -4.50002,-4.5 -2.48534,0 -4.5,2.01466 -4.50001,4.5 10e-6,2.48536 2.01467,4.5 4.50001,4.5 2.48535,0 4.50001,-2.01464 4.50002,-4.5 z"
       style="fill:none;fill-opacity:1;stroke:#303030;stroke-width:1;stroke-linecap:butt;stroke-linejoin:miter;stroke-miterlimit:4;stroke-dasharray:none;stroke-opacity:1;paint-order:normal" />
    <rect
       transform="matrix(0,1,1,0,0,0)"
       y="10.000092"
       x="424.00815"
       height="16.000015"
       width="16"
       id="rect6561-8-1-9-9-5-5-9-9-1-3-94-1-6-6-4-5-8-7-3-9-8"
       style="opacity:0.99;fill:none;stroke:none" />
    <rect
       style="opacity:0.99;fill:none;stroke:none"
       id="rect6985"
       width="16"
       height="16.000015"
       x="424"
       y="10.000038"
       transform="matrix(0,1,1,0,0,0)" />
    <path
       style="fill:#d0ec86;fill-opacity:1;stroke:none;stroke-width:0.8;stroke-linecap:butt;stroke-linejoin:miter;stroke-miterlimit:4;stroke-dasharray:none;stroke-opacity:1;paint-order:normal"
       d="m 26.00002,432.00819 c 0,-4.4183 -3.58171,-8.00001 -8.00001,-8.00001 -4.41828,0 -8,3.58172 -8.00001,8.00001 10e-6,4.41825 3.58173,7.99998 8.00001,7.99999 4.4183,0 8.00001,-3.58174 8.00001,-7.99999 z m -3.58821,-0.0781 c -2e-5,2.47968 -2.01022,4.48986 -4.48993,4.48985 -2.4797,-10e-6 -4.48986,-2.01017 -4.48987,-4.48985 0,-2.47971 2.01017,-4.4899 4.48987,-4.4899 2.47972,-10e-6 4.48993,2.01018 4.48993,4.4899 z"
       id="path6987" />
    <path
       style="fill:none;fill-opacity:1;stroke:#435800;stroke-width:1;stroke-linecap:butt;stroke-linejoin:miter;stroke-miterlimit:4;stroke-dasharray:none;stroke-opacity:1;paint-order:normal"
       d="m 22.50002,432.00818 c -10e-6,-2.48534 -2.01467,-4.5 -4.50002,-4.5 -2.48534,0 -4.5,2.01466 -4.50001,4.5 10e-6,2.48536 2.01467,4.5 4.50001,4.5 2.48535,0 4.50001,-2.01464 4.50002,-4.5 z"
       id="path6989" />
    <rect
       style="opacity:0.99;fill:none;stroke:none"
       id="rect6991"
       width="16"
       height="16.000015"
       x="424.00815"
       y="10.000092"
       transform="matrix(0,1,1,0,0,0)" />
  </g>
</svg>
