<?xml version="1.0" encoding="UTF-8" standalone="no"?>
<svg
   width="16.000015"
   height="16.000061"
   id="svg2985"
   version="1.1"
   viewBox="0 0 16.000015 16.000062"
   xmlns="http://www.w3.org/2000/svg"
   xmlns:svg="http://www.w3.org/2000/svg"
   xmlns:rdf="http://www.w3.org/1999/02/22-rdf-syntax-ns#"
   xmlns:cc="http://creativecommons.org/ns#"
   xmlns:dc="http://purl.org/dc/elements/1.1/">
  <defs
     id="defs2987">
    <linearGradient
       id="linearGradient6402">
      <stop
         id="stop6404"
         offset="0"
         style="stop-color:#000000;stop-opacity:1;" />
      <stop
         id="stop6406"
         offset="1"
         style="stop-color:#000000;stop-opacity:0;" />
    </linearGradient>
    <linearGradient
       id="linearGradient3816">
      <stop
         id="stop3818"
         offset="0"
         style="stop-color:#ffa576;stop-opacity:1;" />
      <stop
         style="stop-color:#f45400;stop-opacity:1;"
         offset="1"
         id="stop3782" />
    </linearGradient>
  </defs>
  <metadata
     id="metadata2990">
    <rdf:RDF>
      <cc:Work
         rdf:about="">
        <dc:format>image/svg+xml</dc:format>
        <dc:type
           rdf:resource="http://purl.org/dc/dcmitype/StillImage" />
      </cc:Work>
    </rdf:RDF>
  </metadata>
  <g
     id="layer1"
     transform="translate(-190.00003,-698.99959)">
    <path
       id="path11669-6-7-9-8-5-1-8"
       d="m 198.00004,698.99956 c -4.4183,10e-6 -8.00001,3.58173 -8.00001,8.00006 0,4.41825 3.58172,7.99999 8.00001,8 4.41825,-1e-5 7.99999,-3.58175 8,-8 0,-4.41833 -3.58175,-8.00005 -8,-8.00006 z m -0.0781,3.58823 c 2.47968,2e-5 4.48986,2.01025 4.48985,4.48995 -1e-5,2.47969 -2.01017,4.48984 -4.48985,4.48985 -2.47971,0 -4.4899,-2.01016 -4.4899,-4.48985 -1e-5,-2.4797 2.01018,-4.48995 4.4899,-4.48995 z"
       style="fill:#d0ec86;fill-opacity:1;stroke:none;stroke-width:0.8;stroke-linecap:butt;stroke-linejoin:miter;stroke-miterlimit:4;stroke-dasharray:none;stroke-opacity:1;paint-order:normal" />
    <rect
       transform="scale(1,-1)"
       y="-714.99963"
       x="190"
       height="16.000048"
       width="16"
       id="rect6561-8-1-9-9-5-5-9-9-1-3-94-1-6-6-4-5-8-7-3-1-4"
       style="opacity:0.99;fill:none;stroke:none" />
    <rect
       style="opacity:0.99;fill:none;stroke:none"
       id="rect6999-5"
       width="16"
       height="16.000048"
       x="190"
       y="-714.99963"
       transform="scale(1,-1)" />
  </g>
</svg>
