<?xml version="1.0" encoding="UTF-8" standalone="no"?>
<svg
   width="16.000008"
   height="16"
   id="svg2985"
   version="1.1"
   viewBox="0 0 16.000008 16.000001"
   xmlns="http://www.w3.org/2000/svg"
   xmlns:svg="http://www.w3.org/2000/svg"
   xmlns:rdf="http://www.w3.org/1999/02/22-rdf-syntax-ns#"
   xmlns:cc="http://creativecommons.org/ns#"
   xmlns:dc="http://purl.org/dc/elements/1.1/">
  <defs
     id="defs2987">
    <linearGradient
       id="linearGradient6402">
      <stop
         id="stop6404"
         offset="0"
         style="stop-color:#000000;stop-opacity:1;" />
      <stop
         id="stop6406"
         offset="1"
         style="stop-color:#000000;stop-opacity:0;" />
    </linearGradient>
    <linearGradient
       id="linearGradient3816">
      <stop
         id="stop3818"
         offset="0"
         style="stop-color:#ffa576;stop-opacity:1;" />
      <stop
         style="stop-color:#f45400;stop-opacity:1;"
         offset="1"
         id="stop3782" />
    </linearGradient>
  </defs>
  <metadata
     id="metadata2990">
    <rdf:RDF>
      <cc:Work
         rdf:about="">
        <dc:format>image/svg+xml</dc:format>
        <dc:type
           rdf:resource="http://purl.org/dc/dcmitype/StillImage" />
      </cc:Work>
    </rdf:RDF>
  </metadata>
  <g
     id="layer1"
     transform="translate(-9.9999998,-698.91298)">
    <path
       style="fill:#c2c2c2;fill-opacity:1;stroke:none;stroke-width:0.8;stroke-linecap:butt;stroke-linejoin:miter;stroke-miterlimit:4;stroke-dasharray:none;stroke-opacity:1;paint-order:normal"
       d="m 18.000015,698.91295 c -4.4183,2e-5 -8.00001,3.58168 -8.00001,7.99999 0,4.41827 3.58172,8 8.00001,8.00002 4.418251,-2e-5 7.999981,-3.58175 7.999991,-8.00002 0,-4.4183 -3.58174,-7.99997 -7.999991,-7.99999 z m 0,2.86943 c 2.83349,2e-5 5.130481,2.29705 5.130471,5.13056 -10e-6,2.8335 -2.296991,5.13049 -5.130471,5.13049 -2.83352,0 -5.13053,-2.29699 -5.13053,-5.13049 -10e-6,-2.83351 2.297,-5.13056 5.13053,-5.13056 z"
       id="path6959-3" />
    <path
       id="path11669-6-7-9-8-0"
       d="m 18.000015,698.91295 c -4.4183,2e-5 -8.00001,3.58168 -8.00001,7.99999 0,4.41827 3.58172,8 8.00001,8.00002 4.418251,-2e-5 7.999981,-3.58175 7.999991,-8.00002 0,-4.4183 -3.58174,-7.99997 -7.999991,-7.99999 z m 0,2.86943 c 2.83349,2e-5 5.130481,2.29705 5.130471,5.13056 -10e-6,2.8335 -2.296991,5.13049 -5.130471,5.13049 -2.83352,0 -5.13053,-2.29699 -5.13053,-5.13049 -10e-6,-2.83351 2.297,-5.13056 5.13053,-5.13056 z"
       style="fill:#c2c2c2;fill-opacity:1;stroke:none;stroke-width:0.8;stroke-linecap:butt;stroke-linejoin:miter;stroke-miterlimit:4;stroke-dasharray:none;stroke-opacity:1;paint-order:normal" />
    <rect
       transform="scale(1,-1)"
       y="-714.91296"
       x="10"
       height="15.99999"
       width="16"
       id="rect6561-8-1-9-9-5-5-9-9-1-3-94-1-6-6-4-5-8-7-9"
       style="opacity:0.99;fill:none;stroke:none" />
    <rect
       style="opacity:0.99;fill:none;stroke:none"
       id="rect6963-8"
       width="16"
       height="15.99999"
       x="10"
       y="-714.91296"
       transform="scale(1,-1)" />
    <path
       style="fill:#d0ec86;fill-opacity:1;stroke:none;stroke-width:1;stroke-linecap:butt;stroke-linejoin:round;stroke-miterlimit:4;stroke-dasharray:none;stroke-opacity:1"
       d="m 26.000007,714.91291 c -0.983566,-3.50077 -3.847824,-6.97363 -7.997351,-7 -4.178667,0 -7.039917,3.43461 -8.00265,6.96402"
       id="path6967-9" />
  </g>
</svg>
