<?xml version="1.0" encoding="UTF-8" standalone="no"?>
<svg
   width="16"
   height="16"
   id="svg2985"
   version="1.1"
   viewBox="0 0 16 16.000001"
   xmlns="http://www.w3.org/2000/svg"
   xmlns:svg="http://www.w3.org/2000/svg"
   xmlns:rdf="http://www.w3.org/1999/02/22-rdf-syntax-ns#"
   xmlns:cc="http://creativecommons.org/ns#"
   xmlns:dc="http://purl.org/dc/elements/1.1/">
  <defs
     id="defs2987">
    <linearGradient
       id="linearGradient6402">
      <stop
         id="stop6404"
         offset="0"
         style="stop-color:#000000;stop-opacity:1;" />
      <stop
         id="stop6406"
         offset="1"
         style="stop-color:#000000;stop-opacity:0;" />
    </linearGradient>
    <linearGradient
       id="linearGradient3816">
      <stop
         id="stop3818"
         offset="0"
         style="stop-color:#ffa576;stop-opacity:1;" />
      <stop
         style="stop-color:#f45400;stop-opacity:1;"
         offset="1"
         id="stop3782" />
    </linearGradient>
  </defs>
  <metadata
     id="metadata2990">
    <rdf:RDF>
      <cc:Work
         rdf:about="">
        <dc:format>image/svg+xml</dc:format>
        <dc:type
           rdf:resource="http://purl.org/dc/dcmitype/StillImage" />
      </cc:Work>
    </rdf:RDF>
  </metadata>
  <g
     id="layer1"
     transform="translate(-220.00003,-669.00002)">
    <path
       id="path11669-6-7-9-8-5-1-2"
       d="m 228.00004,668.99999 c -4.4183,10e-6 -8.00001,3.58171 -8.00001,8.00002 0,4.41827 3.58172,8 8.00001,8.00001 4.41825,-10e-6 7.99998,-3.58174 7.99999,-8.00001 0,-4.41831 -3.58174,-8.00001 -7.99999,-8.00002 z m -0.0339,1.4622 c 2.47968,2e-5 6.43916,1.97072 6.39495,6.79272 -1e-5,2.12615 -2.20197,6.34737 -6.27266,6.34737 -4.07069,0 -6.34027,-3.29315 -6.34027,-6.43576 -1e-5,-4.15909 2.63341,-6.70433 6.21798,-6.70433 z"
       style="fill:#c2c2c2;fill-opacity:1;stroke:none;stroke-width:0.8;stroke-linecap:butt;stroke-linejoin:miter;stroke-miterlimit:4;stroke-dasharray:none;stroke-opacity:1;paint-order:normal" />
    <rect
       transform="scale(1,-1)"
       y="-685"
       x="220.00003"
       height="16.000015"
       width="16"
       id="rect6561-8-1-9-9-5-5-9-9-1-3-94-1-6-6-4-5-8-7-3-1-0"
       style="opacity:0.99;fill:none;stroke:none" />
    <path
       id="path3605"
       d="m 227.00003,682.00003 h 2 v -3.00001 h 3 l -4,-6.99999 -4,6.99999 h 3 z"
       style="fill:#303030;fill-opacity:1;stroke:none;stroke-width:1px;stroke-linecap:butt;stroke-linejoin:miter;stroke-opacity:1" />
    <path
       style="fill:#d0ec86;fill-opacity:1;stroke:none;stroke-width:0.8;stroke-linecap:butt;stroke-linejoin:miter;stroke-miterlimit:4;stroke-dasharray:none;stroke-opacity:1;paint-order:normal"
       d="m 228.00004,668.99999 c -4.4183,10e-6 -8.00001,3.58171 -8.00001,8.00002 0,4.41827 3.58172,8 8.00001,8.00001 4.41825,-10e-6 7.99998,-3.58174 7.99999,-8.00001 0,-4.41831 -3.58174,-8.00001 -7.99999,-8.00002 z m -0.0339,1.4622 c 2.47968,2e-5 6.43916,1.97072 6.39495,6.79272 -1e-5,2.12615 -2.20197,6.34737 -6.27266,6.34737 -4.07069,0 -6.34027,-3.29315 -6.34027,-6.43576 -1e-5,-4.15909 2.63341,-6.70433 6.21798,-6.70433 z"
       id="path7003" />
    <path
       style="fill:none;fill-opacity:1;stroke:#435800;stroke-width:0.5;stroke-linecap:butt;stroke-linejoin:miter;stroke-miterlimit:4;stroke-dasharray:none;stroke-opacity:1;paint-order:normal"
       d="m 228.08843,670.60226 c -3.58993,10e-6 -6.49999,2.91006 -6.49999,6.50001 0,3.58993 2.91006,6.5 6.49999,6.50001 3.58996,-10e-6 6.5,-2.91008 6.5,-6.50001 0,-3.58995 -2.91004,-6.5 -6.5,-6.50001 z"
       id="path7005" />
    <rect
       style="opacity:0.99;fill:none;stroke:none"
       id="rect7007"
       width="16"
       height="16.000015"
       x="220.00003"
       y="-685"
       transform="scale(1,-1)" />
    <path
       style="fill:#435800;fill-opacity:1;stroke:none;stroke-width:1px;stroke-linecap:butt;stroke-linejoin:miter;stroke-opacity:1"
       d="m 227.00003,682.00003 h 2 v -3.00001 h 3 l -4,-6.99999 -4,6.99999 h 3 z"
       id="path7009" />
  </g>
</svg>
