<?xml version="1.0" encoding="UTF-8" standalone="no"?>
<svg
   width="16.000031"
   height="16.000122"
   id="svg2985"
   version="1.1"
   viewBox="0 0 16.000031 16.000123"
   xmlns="http://www.w3.org/2000/svg"
   xmlns:svg="http://www.w3.org/2000/svg"
   xmlns:rdf="http://www.w3.org/1999/02/22-rdf-syntax-ns#"
   xmlns:cc="http://creativecommons.org/ns#"
   xmlns:dc="http://purl.org/dc/elements/1.1/">
  <defs
     id="defs2987">
    <linearGradient
       id="linearGradient6402">
      <stop
         id="stop6404"
         offset="0"
         style="stop-color:#000000;stop-opacity:1;" />
      <stop
         id="stop6406"
         offset="1"
         style="stop-color:#000000;stop-opacity:0;" />
    </linearGradient>
    <linearGradient
       id="linearGradient3816">
      <stop
         id="stop3818"
         offset="0"
         style="stop-color:#ffa576;stop-opacity:1;" />
      <stop
         style="stop-color:#f45400;stop-opacity:1;"
         offset="1"
         id="stop3782" />
    </linearGradient>
  </defs>
  <metadata
     id="metadata2990">
    <rdf:RDF>
      <cc:Work
         rdf:about="">
        <dc:format>image/svg+xml</dc:format>
        <dc:type
           rdf:resource="http://purl.org/dc/dcmitype/StillImage" />
      </cc:Work>
    </rdf:RDF>
  </metadata>
  <g
     id="layer1"
     transform="translate(-219.99999,-698.99996)">
    <path
       id="path11669-6-7-9-8-5-1-2-6"
       d="m 228.00004,699 c -4.41829,10e-6 -8,3.58172 -8,8.00004 0,4.41825 3.58172,7.99999 8,8 4.41826,-10e-6 7.99998,-3.58175 7.99999,-8 0,-4.41832 -3.58173,-8.00003 -7.99999,-8.00004 z m -0.0339,1.46221 c 2.47969,2e-5 6.43916,1.97072 6.39495,6.79273 -1e-5,2.12614 -2.20196,6.34735 -6.27266,6.34735 -4.07069,0 -6.34026,-3.29314 -6.34026,-6.43574 -10e-6,-4.1591 2.63341,-6.70434 6.21797,-6.70434 z"
       style="fill:#d0ec86;fill-opacity:1;stroke:none;stroke-width:0.8;stroke-linecap:butt;stroke-linejoin:miter;stroke-miterlimit:4;stroke-dasharray:none;stroke-opacity:1;paint-order:normal" />
    <rect
       transform="scale(1,-1)"
       y="-715"
       x="220.00003"
       height="16.000032"
       width="16"
       id="rect6561-8-1-9-9-5-5-9-9-1-3-94-1-6-6-4-5-8-7-3-1-0-1"
       style="opacity:0.99;fill:none;stroke:none" />
    <path
       id="path3605-6"
       d="m 227.00004,712.055 h 2.00001 v -3 h 3 l -4.00001,-6.99999 -4,6.99999 h 3 z"
       style="fill:#d0ec86;fill-opacity:1;stroke:none;stroke-width:1px;stroke-linecap:butt;stroke-linejoin:miter;stroke-opacity:1" />
    <rect
       style="opacity:0.99;fill:none;stroke:none"
       id="rect7007-0"
       width="16"
       height="16.000032"
       x="220"
       y="-715"
       transform="scale(1,-1)" />
  </g>
</svg>
