<?xml version="1.0" encoding="UTF-8" standalone="no"?>
<svg
   width="16"
   height="16"
   id="svg2985"
   version="1.1"
   viewBox="0 0 16 16.000001"
   xmlns="http://www.w3.org/2000/svg"
   xmlns:svg="http://www.w3.org/2000/svg"
   xmlns:rdf="http://www.w3.org/1999/02/22-rdf-syntax-ns#"
   xmlns:cc="http://creativecommons.org/ns#"
   xmlns:dc="http://purl.org/dc/elements/1.1/">
  <defs
     id="defs2987">
    <linearGradient
       id="linearGradient6402">
      <stop
         id="stop6404"
         offset="0"
         style="stop-color:#000000;stop-opacity:1;" />
      <stop
         id="stop6406"
         offset="1"
         style="stop-color:#000000;stop-opacity:0;" />
    </linearGradient>
    <linearGradient
       id="linearGradient3816">
      <stop
         id="stop3818"
         offset="0"
         style="stop-color:#ffa576;stop-opacity:1;" />
      <stop
         style="stop-color:#f45400;stop-opacity:1;"
         offset="1"
         id="stop3782" />
    </linearGradient>
  </defs>
  <metadata
     id="metadata2990">
    <rdf:RDF>
      <cc:Work
         rdf:about="">
        <dc:format>image/svg+xml</dc:format>
        <dc:type
           rdf:resource="http://purl.org/dc/dcmitype/StillImage" />
      </cc:Work>
    </rdf:RDF>
  </metadata>
  <g
     id="layer1"
     transform="translate(-125,-419.00056)">
    <path
       id="path11669-6-7-9-8-5-1-4-4"
       d="M 133.00001,420.00053 C 129.13394,420.00054 126,423.13449 126,427.00054 126,430.86658 129.13394,434.00054 133.00001,434.00056 136.86604,434.00054 139.99999,430.86658 140,427.00054 140,423.13449 136.86604,420.00054 133.00001,420.00053 Z M 132.93191,423.14015 C 135.10159,423.14015 136.86052,424.89915 136.86052,427.06887 136.86051,429.23856 135.10159,430.99752 132.93191,430.99754 130.76214,430.99754 129.00321,429.23856 129.00321,427.06887 129.0032,424.89915 130.76213,423.14015 132.93191,423.14015 Z"
       style="fill:#d0ec86;fill-opacity:1;stroke:none;stroke-width:0.8;stroke-linecap:butt;stroke-linejoin:miter;stroke-miterlimit:4;stroke-dasharray:none;stroke-opacity:1;paint-order:normal" />
    <path
       id="path11669-6-0-7-5-8-02-8-3"
       d="M 133,423.06301 C 130.82526,423.06303 129.06247,424.8258 129.06247,427.00054 129.06247,429.17529 130.82526,430.93803 133,430.93803 135.17476,430.93803 136.93747,429.17529 136.93747,427.00054 136.93747,424.8258 135.17476,423.06303 133,423.06301 Z"
       style="fill:none;fill-opacity:1;stroke:#435800;stroke-width:1;stroke-linecap:butt;stroke-linejoin:miter;stroke-miterlimit:4;stroke-dasharray:none;stroke-opacity:1;paint-order:normal" />
    <path
       id="rect6561-8-1-9-9-5-5-9-9-1-3-94-1-6-6-4-5-8-7-3-1-1-9"
       d="M 125.5,432.00054 V 434.50056 H 128"
       style="opacity:0.99;fill:none;stroke:#808080;stroke-width:1;stroke-opacity:1" />
    <path
       id="rect6561-8-1-9-9-5-5-9-9-1-3-94-1-6-6-4-5-8-7-3-1-1-2-8"
       d="M 128.00002,419.50056 H 125.5 V 422.00056"
       style="opacity:0.99;fill:none;stroke:#808080;stroke-width:1;stroke-opacity:1" />
    <path
       id="rect6561-8-1-9-9-5-5-9-9-1-3-94-1-6-6-4-5-8-7-3-1-1-2-5-80"
       d="M 140.5,422.00058 V 419.50056 H 138"
       style="opacity:0.99;fill:none;stroke:#808080;stroke-width:1;stroke-opacity:1" />
    <path
       id="rect6561-8-1-9-9-5-5-9-9-1-3-94-1-6-6-4-5-8-7-3-1-1-2-5-7-8"
       d="M 137.99998,434.50056 H 140.5 V 432.00056"
       style="opacity:0.99;fill:none;stroke:#808080;stroke-width:1;stroke-opacity:1" />
    <path
       style="opacity:0.99;fill:none;stroke:#808080;stroke-width:1;stroke-opacity:1"
       d="M 125.5,432.00054 V 434.50056 H 128"
       id="path7027-7" />
    <path
       style="opacity:0.99;fill:none;stroke:#808080;stroke-width:1;stroke-opacity:1"
       d="M 128.00002,419.50056 H 125.5 V 422.00056"
       id="path7039-7" />
    <path
       style="opacity:0.99;fill:none;stroke:#808080;stroke-width:1;stroke-opacity:1"
       d="M 140.5,422.00058 V 419.50056 H 138"
       id="path7041-8" />
    <path
       style="opacity:0.99;fill:none;stroke:#808080;stroke-width:1;stroke-opacity:1"
       d="M 137.99998,434.50056 H 140.5 V 432.00056"
       id="path7043-3" />
  </g>
</svg>
