<?xml version="1.0" encoding="utf-8"?>
<!DOCTYPE svg PUBLIC "-//W3C//DTD SVG 1.1//EN" "http://www.w3.org/Graphics/SVG/1.1/DTD/svg11.dtd">
<svg height="16px"
     width="16px"
     version="1.1"
     id="anchor"
     xmlns="http://www.w3.org/2000/svg"
     xmlns:xlink="http://www.w3.org/1999/xlink"
     viewBox="0 0 909.123 1010"
     enable-background="new 0 0 909.123 1010"
     xml:space="preserve">
   <g id="anchor-anchor">
      <g>
         <path fill="#A6DDDD"
               d="M879.873,656.333h-87.0342H689.9541l72.0869,72.0703
			c-55.3193,98.1905-156.0781,167.1651-273.8594,178.3555V488.1812h67.2578c18.5694,0,33.6377-15.0669,33.6377-33.6202
			c0-18.5869-15.0683-33.6372-33.6377-33.6372h-67.2578v-70.6245c76.7471-15.5771,134.4981-83.4126,134.4981-164.751
			c0-92.8676-75.2666-168.1347-168.1182-168.1347c-92.8506,0-168.1182,75.2671-168.1182,168.1347
			c0,81.3384,57.751,149.1739,134.4981,164.751v70.6245h-67.2578c-18.5703,0-33.6367,15.0503-33.6367,33.6372
			c0,18.5533,15.0664,33.6202,33.6367,33.6202h67.2578v418.5776c-117.7813-11.1904-218.5401-80.165-273.8594-178.3555
			l72.0869-72.0703H116.2851H29.25H17.414v201.7549l68.2266-68.2432c77.5459,121.8622,213.7607,202.7411,368.9209,202.7411
			s291.375-80.8789,368.9209-202.7411l68.2266,68.2432V656.333H879.873z"/>
         <path fill="#37474F"
               d="M454.5615,1010c-148.9863,0-286.3408-71.6963-371.5908-192.8437l-53.2442,53.2441
			c-4.9834,4.9824-12.4824,6.4795-18.9785,3.7754S0,865.1289,0,858.0879V656.333c0-9.6084,7.789-17.4131,17.414-17.4131h201.7549
			c7.0401,0,13.4004,4.2344,16.0879,10.7471c2.7031,6.5127,1.207,13.9951-3.7754,18.9785l-62.5469,62.5303
			c51.7315,84.0078,137.6602,141.0097,234.5928,155.873V505.5952h-49.8437c-28.1446,0-51.0508-22.8896-51.0508-51.0342
			c0-28.1528,22.9062-51.0507,51.0508-51.0507h49.8437v-39.5469c-78.7363-22.4898-134.498-95.3506-134.498-178.4151
			C269.0293,83.2339,352.2558,0,454.5615,0c102.3066,0,185.5313,83.2339,185.5313,185.5483
			c0,83.0645-55.7608,155.9253-134.4971,178.4151v39.5469h49.8437c28.1436,0,51.0508,22.8979,51.0508,51.0507
			c0,28.1446-22.9072,51.0342-51.0508,51.0342h-49.8437v381.4536c96.9326-14.8633,182.8623-71.8652,234.5928-155.873
			l-62.5469-62.5303c-4.9824-4.9834-6.4785-12.4658-3.7754-18.9785c2.6875-6.5127,9.0469-10.7471,16.0879-10.7471H891.709
			c9.6259,0,17.414,7.8047,17.414,17.4131v201.7549c0,7.041-4.251,13.3838-10.747,16.0879
			c-6.4961,2.7041-13.9795,1.207-18.9786-3.7754l-53.2451-53.2441C740.9033,938.3037,603.5478,1010,454.5615,1010L454.5615,1010z
			 M85.6406,772.4307c0.6299,0,1.2588,0.0341,1.9053,0.1025c5.2373,0.5781,9.9482,3.5029,12.7881,7.958
			c77.5625,121.8975,209.9853,194.6807,354.2275,194.6807s276.665-72.7832,354.2285-194.6807
			c2.8399-4.4551,7.5498-7.3799,12.7871-7.958c5.3916-0.5273,10.4932,1.2754,14.2168,4.999l38.502,38.501V673.7471H732.0088
			l42.3437,42.3447c5.5274,5.5264,6.7012,14.0625,2.8574,20.8652C717.6396,842.6982,610.1972,912.6592,489.831,924.0879
			c-5.0332,0.4248-9.7441-1.1572-13.3662-4.4561c-3.622-3.2988-5.6963-7.9589-5.6963-12.873V488.1812
			c0-9.6167,7.7881-17.4136,17.4131-17.4136h67.2578c8.9444,0,16.2237-7.27,16.2237-16.2066
			c0-8.9448-7.2793-16.2231-16.2237-16.2231h-67.2578c-9.625,0-17.4131-7.7974-17.4131-17.4141v-70.6245
			c0-8.2817,5.8321-15.4155,13.9444-17.0649c69.8584-14.1743,120.5527-76.2876,120.5527-147.6861
			c0-83.1064-67.5967-150.7207-150.7041-150.7207c-83.1064,0-150.7041,67.6143-150.7041,150.7207
			c0,71.3985,50.6934,133.5118,120.5527,147.6861c8.1123,1.6494,13.9453,8.7832,13.9453,17.0649v70.6245
			c0,9.6167-7.789,17.4141-17.414,17.4141h-67.2578c-8.9444,0-16.2227,7.2783-16.2227,16.2231
			c0,8.9366,7.2783,16.2066,16.2227,16.2066h67.2578c9.625,0,17.414,7.7969,17.414,17.4136v418.5776
			c0,4.9141-2.0751,9.5742-5.6972,12.873c-3.6221,3.299-8.3672,4.8633-13.3662,4.4561
			c-120.3662-11.4287-227.8076-81.3897-287.3789-187.1309c-3.8428-6.8027-2.67-15.3387,2.8574-20.8652l42.3437-42.3447H34.8281
			v142.2861l38.501-38.501C76.6103,774.25,81.0488,772.4307,85.6406,772.4307L85.6406,772.4307z"/>
      </g>
      <g>
         <path fill="#FFFFFF"
               d="M521.8193,185.5483c0,37.1407-30.1172,67.2408-67.2578,67.2408s-67.2578-30.1001-67.2578-67.2408
			c0-37.1401,30.1172-67.2573,67.2578-67.2573S521.8193,148.4082,521.8193,185.5483z"/>
         <path fill="#37474F"
               d="M454.5615,270.2026c-46.6807,0-84.6709-37.9736-84.6709-84.6543
			c0-46.6889,37.9902-84.6709,84.6709-84.6709s84.6719,37.982,84.6719,84.6709
			C539.2334,232.229,501.2422,270.2026,454.5615,270.2026L454.5615,270.2026z M454.5615,135.7051
			c-27.4814,0-49.8437,22.3623-49.8437,49.8432c0,27.4727,22.3623,49.8267,49.8437,49.8267
			c27.4814,0,49.8438-22.354,49.8438-49.8267C504.4053,158.0674,482.0429,135.7051,454.5615,135.7051L454.5615,135.7051z"/>
      </g>
   </g>
</svg>