<?xml version="1.0" encoding="UTF-8" standalone="no"?>
<svg
   height="16px"
   width="16px"
   version="1.1"
   id="Layer_1"
   viewBox="0 0 375.573 375.573"
   xml:space="preserve"
   sodipodi:docname="poi-star.svg"
   inkscape:export-filename="poi-star.svg"
   inkscape:export-xdpi="96"
   inkscape:export-ydpi="96"
   inkscape:version="1.4 (86a8ad7, 2024-10-11)"
   xmlns:inkscape="http://www.inkscape.org/namespaces/inkscape"
   xmlns:sodipodi="http://sodipodi.sourceforge.net/DTD/sodipodi-0.dtd"
   xmlns="http://www.w3.org/2000/svg"
   xmlns:svg="http://www.w3.org/2000/svg"><defs
   id="defs6">
      
      
      
      
   </defs><sodipodi:namedview
   id="namedview6"
   pagecolor="#ffffff"
   bordercolor="#666666"
   borderopacity="1.0"
   inkscape:showpageshadow="2"
   inkscape:pageopacity="0.0"
   inkscape:pagecheckerboard="0"
   inkscape:deskcolor="#d1d1d1"
   inkscape:zoom="86.125"
   inkscape:cx="8"
   inkscape:cy="8"
   inkscape:window-width="2880"
   inkscape:window-height="1620"
   inkscape:window-x="355"
   inkscape:window-y="228"
   inkscape:window-maximized="0"
   inkscape:current-layer="Layer_1" />
   <path
   style="fill:#ffe63c"
   d="m 187.586,16.786 62.8,102.8 117.2,27.6 -78.4,91.6 9.6,120 -111.2,-46.4 -110.8,46.4 9.6,-120 -78.4,-91.6 117.2,-27.6 z"
   id="path1" /><path
   style="fill:#c39314"
   d="m 298.786,366.786 c -1.2,0 -2,-0.4 -3.2,-0.8 l -108,-45.2 -107.6,45.2 c -2.4,1.2 -5.6,0.8 -7.6,-0.8 -2.4,-1.6 -3.6,-4.4 -3.2,-7.2 l 9.2,-116.8 -76.4,-88.8 c -2,-2 -2.4,-5.2 -1.6,-7.6 0.8,-2.8 3.2,-4.8 5.6,-5.2 l 114,-27.2 60.8,-99.6 c 1.6,-2.4 4,-4 6.8,-4 v 0 c 2.8,0 5.2,1.6 6.8,4 l 61.2,100 114,26.8 c 2.8,0.8 4.8,2.8 5.6,5.2 0.8,2.8 0.4,5.6 -1.6,7.6 l -76,89.2 9.2,116.8 c 0.4,2.8 -1.2,5.6 -3.2,7.2 -1.6,0.8 -3.2,1.2 -4.8,1.2 z m -111.2,-62.4 c 1.2,0 2,0.4 3.2,0.8 l 99.2,41.2 -8.4,-106.8 c 0,-2 0.4,-4.4 2,-6 l 70,-81.6 -104.4,-24.4 c -2,-0.4 -4,-1.6 -4.8,-3.6 l -56,-91.6 -56.4,91.2 c -1.2,2 -2.8,3.2 -5.2,3.6 l -104,24.8 70,81.6 c 1.2,1.6 2,3.6 2,6 l -8.4,106.8 98.8,-41.2 c 0.4,-0.4 1.2,-0.8 2.4,-0.8 z m -62.4,-184.8 z"
   id="path3" />
</svg>
