<?xml version="1.0" encoding="utf-8"?>
<svg width="16px"
     height="16px"
     viewBox="0 0 1024 1024"
     class="icon"
     version="1.1"
     xmlns="http://www.w3.org/2000/svg">
   <path d="M458.9 434.6c0 157-89.1 221.3-199 221.3s-199-64.3-199-221.3 199-410.2 199-410.2 199 253.2 199 410.2z"
         fill="#60C13D"/>
   <path d="M259.9 665.9c-60.6 0-111.7-18.9-147.7-54.7C71.6 570.9 51 511.5 51 434.6c0-66.9 33.9-157.5 100.9-269.1C201.3 83 251.5 18.9 252 18.3c1.9-2.4 4.8-3.8 7.9-3.8s6 1.4 7.9 3.8c0.5 0.6 50.7 64.7 100.2 147.3 67 111.6 100.9 202.2 100.9 269.1 0 76.9-20.6 136.3-61.2 176.6-36.2 35.7-87.2 54.6-147.8 54.6z m0-625c-15.9 21.2-53.7 72.8-91 135.1C124.2 250.5 71 355.9 71 434.6c0 71.4 18.6 126 55.3 162.4 32.2 32 78.5 48.9 133.6 48.9S361.3 629 393.5 597c36.7-36.4 55.3-91 55.3-162.4 0-78.8-53.3-184.2-98.1-258.8-37.2-62.2-74.9-113.8-90.8-134.9z"
         fill=""/>
   <path d="M259.9 771.1c-5.5 0-10-4.5-10-10V173.3c0-5.5 4.5-10 10-10s10 4.5 10 10v587.8c0 5.6-4.5 10-10 10z"
         fill=""/>
   <path d="M259.9 401.3c-2.7 0-5.5-1.1-7.4-3.3L150 283.9c-3.7-4.1-3.4-10.4 0.8-14.1 4.1-3.7 10.4-3.4 14.1 0.8l102.5 114.1c3.7 4.1 3.4 10.4-0.8 14.1-1.9 1.6-4.3 2.5-6.7 2.5zM231.4 518.5c-2.8 0-5.6-1.2-7.6-3.5L145 422.5c-3.6-4.2-3.1-10.5 1.1-14.1 4.2-3.6 10.5-3.1 14.1 1.1L239 502c3.6 4.2 3.1 10.5-1.1 14.1-1.9 1.6-4.2 2.4-6.5 2.4zM259.9 287.2c-2.6 0-5.1-1-7.1-2.9-3.9-3.9-3.9-10.2 0-14.1l69.4-69.4c3.9-3.9 10.2-3.9 14.1 0s3.9 10.2 0 14.1L267 284.3c-2 1.9-4.6 2.9-7.1 2.9zM266.6 491.7c-2.7 0-5.5-1.1-7.4-3.3-3.7-4.1-3.3-10.4 0.8-14.1l101.2-90.8c4.1-3.7 10.4-3.3 14.1 0.8 3.7 4.1 3.3 10.4-0.8 14.1l-101.2 90.8c-1.9 1.7-4.3 2.5-6.7 2.5z"
         fill=""/>
   <path d="M798.1 588.8h-67c-8.6-18.7-77.5-157.9-278.4-157.8-149.3 0-437.2 156.9-424.3 194.2 6.6 19.2 19.4 30.3 23.7 80.7 3.1 35.8 10.4 80.1 10.4 80.1 0 55.9 45.3 101.3 101.3 101.3H998v-133c0-110.5-89.5-165.5-199.9-165.5z"
         fill="#D64F34"/>
   <path d="M998 897.2H163.7c-61.1 0-110.8-49.5-111.3-110.4-1-6.2-7.5-46.9-10.4-80.1-3-35.1-10.1-49.8-16.4-62.7-2.5-5.1-4.8-10-6.8-15.6-2.3-6.8-0.5-14.5 5.6-23 19.8-27.8 91-73.2 177.3-113 98.4-45.4 189.8-71.5 250.8-71.5h0.2c189.9 0 265.8 121 284.5 157.8h60.7c59.2 0 110.2 15 147.4 43.4 40.9 31.2 62.5 76.8 62.5 132.1v133c0.2 5.5-4.2 10-9.8 10zM38 622.4c1.6 4.4 3.5 8.4 5.7 13 6.7 13.7 15 30.9 18.3 69.7 3 35 10.2 78.9 10.3 79.3 0.1 0.5 0.1 1.1 0.1 1.6 0 50.3 40.9 91.3 91.3 91.3H988v-123c0-48.8-18.9-89-54.6-116.2-33.7-25.7-80.5-39.3-135.3-39.3h-67c-3.9 0-7.4-2.3-9.1-5.8-11.7-25.4-79.8-152-269.2-152h-0.2c-62.1 0-159.9 29.5-261.7 78.7-42.6 20.6-81.8 43-110.5 62.9-38.2 26.7-42 38.1-42.4 39.8z m0 0.2z"
         fill=""/>
   <path d="M452.7 430.9c-63.5 0-143 31.8-221.6 71.8l61 160.6h370.2l68.9-74.6c-8.7-18.6-77.5-157.9-278.5-157.8z"
         fill="#80F9E7"/>
   <path d="M662.3 673.4H292.1c-4.2 0-7.9-2.6-9.3-6.5l-61-160.6c-1.8-4.8 0.3-10.1 4.8-12.5 97.6-49.7 169.5-72.9 226.2-72.9h0.2c201.6 0 274.7 136.3 287.3 163.7 1.7 3.7 1 8-1.7 11l-68.9 74.6c-2 2-4.6 3.2-7.4 3.2z m-363.3-20h358.9l61.3-66.4c-17.9-34.9-88.8-146.1-266.3-146.1h-0.2c-51.2 0-119.6 21.8-209.1 66.7L299 653.4z m153.7-222.5z"
         fill=""/>
   <path d="M477.2 430.9v232.5"
         fill="#80F9E7"/>
   <path d="M477.2 673.4c-5.5 0-10-4.5-10-10V430.9c0-5.5 4.5-10 10-10s10 4.5 10 10v232.5c0 5.5-4.5 10-10 10z"
         fill=""/>
   <path d="M274.8 887.2m-103.3 0a103.3 103.3 0 1 0 206.6 0 103.3 103.3 0 1 0-206.6 0Z"
         fill="#B6B7B7"/>
   <path d="M274.8 1000.5c-62.5 0-113.3-50.8-113.3-113.3s50.8-113.3 113.3-113.3 113.3 50.8 113.3 113.3-50.8 113.3-113.3 113.3z m0-206.6c-51.5 0-93.3 41.9-93.3 93.3 0 51.5 41.9 93.3 93.3 93.3 51.5 0 93.3-41.9 93.3-93.3s-41.8-93.3-93.3-93.3z"
         fill=""/>
   <path d="M765.6 887.2m-103.3 0a103.3 103.3 0 1 0 206.6 0 103.3 103.3 0 1 0-206.6 0Z"
         fill="#B6B7B7"/>
   <path d="M765.6 1000.5c-62.5 0-113.3-50.8-113.3-113.3s50.8-113.3 113.3-113.3 113.3 50.8 113.3 113.3-50.8 113.3-113.3 113.3z m0-206.6c-51.5 0-93.3 41.9-93.3 93.3 0 51.5 41.9 93.3 93.3 93.3s93.3-41.9 93.3-93.3-41.9-93.3-93.3-93.3z"
         fill=""/>
   <path d="M443.5 1009.1H59.6c-5.5 0-10-4.5-10-10s4.5-10 10-10h383.9c5.5 0 10 4.5 10 10s-4.5 10-10 10zM990.2 1009.1H606.3c-5.5 0-10-4.5-10-10s4.5-10 10-10h383.9c5.5 0 10 4.5 10 10s-4.5 10-10 10z"
         fill=""/>
</svg>