<?xml version="1.0" encoding="UTF-8" standalone="no"?>
<svg
   width="16"
   height="15.994751"
   id="svg2985"
   version="1.1"
   xmlns="http://www.w3.org/2000/svg"
   xmlns:svg="http://www.w3.org/2000/svg"
   xmlns:rdf="http://www.w3.org/1999/02/22-rdf-syntax-ns#"
   xmlns:cc="http://creativecommons.org/ns#"
   xmlns:dc="http://purl.org/dc/elements/1.1/">
  <defs
     id="defs2987">
    <linearGradient
       id="linearGradient5090">
      <stop
         style="stop-color:#435800;stop-opacity:1;"
         offset="0"
         id="stop5088" />
    </linearGradient>
    <linearGradient
       id="linearGradient6402">
      <stop
         id="stop6404"
         offset="0"
         style="stop-color:#000000;stop-opacity:1;" />
      <stop
         id="stop6406"
         offset="1"
         style="stop-color:#000000;stop-opacity:0;" />
    </linearGradient>
    <linearGradient
       id="linearGradient3816">
      <stop
         id="stop3818"
         offset="0"
         style="stop-color:#ffa576;stop-opacity:1;" />
      <stop
         style="stop-color:#f45400;stop-opacity:1;"
         offset="1"
         id="stop3782" />
    </linearGradient>
  </defs>
  <metadata
     id="metadata2990">
    <rdf:RDF>
      <cc:Work
         rdf:about="">
        <dc:format>image/svg+xml</dc:format>
        <dc:type
           rdf:resource="http://purl.org/dc/dcmitype/StillImage" />
      </cc:Work>
    </rdf:RDF>
  </metadata>
  <g
     id="layer1"
     style="display:inline"
     transform="translate(-95.000318,-1034.0001)">
    <rect
       transform="scale(1,-1)"
       y="-1049.9852"
       x="95.00032"
       height="15.985184"
       width="16"
       id="rect6561-8-1-9-9-5-5-9-9-1-3-94-1-6-6-4-5-85-3-8-0-8-5-1-6-5-7"
       style="display:inline;opacity:0.99;fill:none;stroke:none;stroke-width:0.999997" />
    <path
       id="path2-1-7"
       style="display:inline;fill:none;fill-opacity:1;stroke:#a3a3a3;stroke-width:0.999996;stroke-linejoin:miter;stroke-miterlimit:3.9;stroke-dasharray:none;stroke-opacity:1"
       d="m 103.00029,1034.5001 c -3.03796,0 -5.5,2.4276 -5.5,5.4231 0,2.9955 3.56994,4.1869 5.5,8.7829 1.89995,-4.5021 5.50001,-5.7874 5.50001,-8.7829 0,-2.9955 -2.462,-5.4231 -5.50001,-5.4231 z m -9.2e-4,3.0057 c 1.47822,3e-4 2.60059,1.1579 2.60092,2.4943 4.6e-4,1.3369 -1.12215,2.4997 -2.60092,2.5 -1.47875,-3e-4 -2.49957,-1.1631 -2.49908,-2.5 3.1e-4,-1.3364 1.0209,-2.494 2.49908,-2.4943 z" />
  </g>
</svg>
