<?xml version="1.0" encoding="UTF-8" standalone="no"?>
<svg
   version="1.1"
   id="svg2985"
   height="16"
   width="16"
   xml:space="preserve"
   xmlns="http://www.w3.org/2000/svg"
   xmlns:svg="http://www.w3.org/2000/svg"
   xmlns:rdf="http://www.w3.org/1999/02/22-rdf-syntax-ns#"
   xmlns:cc="http://creativecommons.org/ns#"
   xmlns:dc="http://purl.org/dc/elements/1.1/"><defs
     id="defs2987"><linearGradient
       id="swatch22"><stop
         style="stop-color:#000000;stop-opacity:1;"
         offset="0"
         id="stop22" /></linearGradient><linearGradient
       id="linearGradient3816"><stop
         id="stop3818"
         offset="0"
         style="stop-color:#ffa576;stop-opacity:1;" /><stop
         style="stop-color:#f45400;stop-opacity:1;"
         offset="1"
         id="stop3782" /></linearGradient></defs><metadata
     id="metadata2990"><rdf:RDF><cc:Work
         rdf:about=""><dc:format>image/svg+xml</dc:format><dc:type
           rdf:resource="http://purl.org/dc/dcmitype/StillImage" /><dc:title /></cc:Work></rdf:RDF></metadata><g
     id="layer1"
     style="display:inline"
     transform="translate(-345,-304)"><rect
       transform="scale(1,-1)"
       y="-320"
       x="345"
       height="16.000015"
       width="16"
       id="rect6561-8-1-9-9-5-5-9-9-1-3-94-1-6-6-4-2-2-8"
       style="display:inline;fill:none;stroke:none" /><path
       id="path17724-16-4-7"
       d="m 348.60002,306.48445 h 7.63455 l 1.33333,0.0312"
       style="display:inline;fill:none;stroke:#cccccc;stroke-width:1.00157;stroke-linecap:butt;stroke-linejoin:round;stroke-miterlimit:4;stroke-dasharray:none;stroke-opacity:1" /><path
       id="rect17705-6-2-6"
       d="m 348.9889,304.00007 v 4.99999 l -3,-2.49995 z"
       style="display:inline;fill:#cccccc;fill-opacity:1;stroke:none;stroke-width:0.999722;stroke-linecap:round;stroke-linejoin:round;stroke-miterlimit:4;stroke-dasharray:none;stroke-opacity:1;paint-order:normal" /><path
       id="rect17705-1-0-2-5"
       d="m 356.9889,309.00007 v -4.99999 l 3,2.50005 z"
       style="display:inline;fill:#cccccc;fill-opacity:1;stroke:none;stroke-width:1.00157;stroke-linecap:round;stroke-linejoin:round;stroke-miterlimit:4;stroke-dasharray:none;stroke-opacity:1;paint-order:normal" /><g
       id="g9"
       transform="translate(-220.00031,140.01686)"
       style="display:inline"><path
         id="rect24-9-4-2"
         style="display:inline;fill:#d0ec86;fill-opacity:1"
         d="m 573,169 c -3.31414,0 -6,2.73366 -6,6.10742 0,3.3738 3.89448,4.71622 6,9.89258 v -7.15625 c -1.61319,-3.3e-4 -3.00053,-1.33802 -3,-2.84375 3.4e-4,-1.5052 1.38743,-2.99966 3,-3 z" /><path
         id="rect24-7-6-7-0"
         style="display:inline;fill:#6bb0ff;fill-opacity:1"
         d="m 573,169 c 3.31414,0 6,2.73366 6,6.10742 0,3.3738 -3.89448,4.71622 -6,9.89258 v -7.15625 c 1.61319,-3.3e-4 3.00053,-1.33802 3,-2.84375 -3.4e-4,-1.5052 -1.38743,-2.99966 -3,-3 z" /></g></g></svg>
