<?xml version="1.0" encoding="UTF-8" standalone="no"?>
<svg
   width="16.000519"
   height="15.999756"
   id="svg2985"
   version="1.1"
   xml:space="preserve"
   xmlns="http://www.w3.org/2000/svg"
   xmlns:svg="http://www.w3.org/2000/svg"
   xmlns:rdf="http://www.w3.org/1999/02/22-rdf-syntax-ns#"
   xmlns:cc="http://creativecommons.org/ns#"
   xmlns:dc="http://purl.org/dc/elements/1.1/"><defs
     id="defs2987"><linearGradient
       id="linearGradient5090"><stop
         style="stop-color:#435800;stop-opacity:1;"
         offset="0"
         id="stop5088" /></linearGradient><linearGradient
       id="linearGradient6402"><stop
         id="stop6404"
         offset="0"
         style="stop-color:#000000;stop-opacity:1;" /><stop
         id="stop6406"
         offset="1"
         style="stop-color:#000000;stop-opacity:0;" /></linearGradient><linearGradient
       id="linearGradient3816"><stop
         id="stop3818"
         offset="0"
         style="stop-color:#ffa576;stop-opacity:1;" /><stop
         style="stop-color:#f45400;stop-opacity:1;"
         offset="1"
         id="stop3782" /></linearGradient></defs><metadata
     id="metadata2990"><rdf:RDF><cc:Work
         rdf:about=""><dc:format>image/svg+xml</dc:format><dc:type
           rdf:resource="http://purl.org/dc/dcmitype/StillImage" /></cc:Work></rdf:RDF></metadata><g
     id="layer1"
     style="display:inline"
     transform="translate(-375.00009,-1283.9832)"><path
       id="path6-3"
       style="display:inline;fill:#d2ec88;fill-opacity:1;stroke:none;stroke-width:0.0941177;stroke-linecap:square;stroke-miterlimit:3;stroke-dasharray:none;stroke-opacity:1;paint-order:fill markers stroke"
       d="m 386.88182,1288.6893 c -0.0427,0 -0.11795,0.011 -0.16788,0.029 -0.0807,0.029 -5.49141,4.407 -8.88976,7.1755 l 4.30779,4.0892 c 3.4227,-2.7618 8.81164,-7.1382 8.83874,-7.195 0.037,-0.078 0.0404,-0.2407 0.006,-0.3044 -0.0613,-0.115 -0.15601,-0.1671 -0.90318,-0.4799 -0.41436,-0.1735 -0.75755,-0.3189 -0.76298,-0.3239 -0.005,0 -0.0474,-0.2162 -0.0934,-0.4701 -0.0458,-0.2539 -0.0986,-0.4903 -0.1169,-0.5249 -0.0409,-0.078 -0.14706,-0.1647 -0.22529,-0.1853 -0.0323,-0.01 -0.28112,-0.065 -0.55255,-0.1249 l -0.49305,-0.1072 -0.29753,-0.6965 c -0.16367,-0.3833 -0.31921,-0.7208 -0.3464,-0.7492 -0.0653,-0.068 -0.20708,-0.1287 -0.3039,-0.1327 z" /><rect
       style="display:inline;fill:#1a96a1;fill-opacity:1;stroke:#000000;stroke-width:0;stroke-linecap:square;stroke-miterlimit:3;stroke-dasharray:none;stroke-opacity:1;paint-order:fill markers stroke"
       id="rect4-4"
       width="6.5882459"
       height="8.4705753"
       x="375.94177"
       y="1291.0421"
       rx="0"
       ry="0" /><path
       style="display:inline;fill:none;fill-opacity:1;stroke:#d1ec88;stroke-width:0.936035;stroke-linecap:butt;stroke-linejoin:miter;stroke-dasharray:none;stroke-opacity:1"
       d="m 545.91406,525.41016 -3.11914,0.0117 c 0,0 -0.76834,-0.10432 -0.88867,0.42969 -0.12033,0.53402 -0.10352,1.13281 -0.10352,1.13281 -0.003,0.50256 -1.37668,-0.1849 -1.33398,0.80665 l 0.01,0.24609 0.0156,2.82031 c 0,0 0.106,0.37364 0.57227,0.56055 0.46626,0.18691 0.34593,0.83943 0,1.0664 -0.34594,0.22695 -0.57227,0.45508 -0.57227,0.45508 l -0.0156,5.76758 c 0,0 -0.10504,0.707 1.11328,0.78711 1.21832,0.0802 5.53515,0 5.53515,0 0,0 0.70664,-0.0398 0.79688,-0.80078 0.0902,-0.76098 0,-5.75391 0,-5.75391 0,0 -0.34802,-0.42257 -0.52539,-0.45508 -0.35623,-0.0654 -0.15808,-1.02464 -0.0937,-1.0625 0,0 0.61583,-0.18643 0.65429,-0.69726 0.0284,-0.37887 0.0117,-2.60547 0.0117,-2.60547 0.0153,-0.39364 0.24916,-1.04019 -1.29101,-1 -0.40079,0.0104 0.27499,-1.73006 -0.76563,-1.70898 z"
       id="path33-6"
       transform="translate(-165.00007,759.98321)" /><rect
       style="display:inline;fill:none;stroke:#d1ec89;stroke-width:0.47046;stroke-linecap:butt;stroke-linejoin:miter;stroke-miterlimit:3;stroke-dasharray:none;stroke-opacity:1;paint-order:fill markers stroke"
       id="rect33-6"
       width="2.3530724"
       height="1.4118903"
       x="378.05945"
       y="1284.2184" /></g></svg>
