<?xml version="1.0" encoding="UTF-8" standalone="no"?>
<svg
   width="16.00769"
   height="15.999878"
   id="svg2985"
   version="1.1"
   xml:space="preserve"
   xmlns="http://www.w3.org/2000/svg"
   xmlns:svg="http://www.w3.org/2000/svg"
   xmlns:rdf="http://www.w3.org/1999/02/22-rdf-syntax-ns#"
   xmlns:cc="http://creativecommons.org/ns#"
   xmlns:dc="http://purl.org/dc/elements/1.1/"><defs
     id="defs2987"><linearGradient
       id="linearGradient5090"><stop
         style="stop-color:#435800;stop-opacity:1;"
         offset="0"
         id="stop5088" /></linearGradient><linearGradient
       id="linearGradient6402"><stop
         id="stop6404"
         offset="0"
         style="stop-color:#000000;stop-opacity:1;" /><stop
         id="stop6406"
         offset="1"
         style="stop-color:#000000;stop-opacity:0;" /></linearGradient><linearGradient
       id="linearGradient3816"><stop
         id="stop3818"
         offset="0"
         style="stop-color:#ffa576;stop-opacity:1;" /><stop
         style="stop-color:#f45400;stop-opacity:1;"
         offset="1"
         id="stop3782" /></linearGradient></defs><metadata
     id="metadata2990"><rdf:RDF><cc:Work
         rdf:about=""><dc:format>image/svg+xml</dc:format><dc:type
           rdf:resource="http://purl.org/dc/dcmitype/StillImage" /></cc:Work></rdf:RDF></metadata><g
     id="layer1"
     style="display:inline"
     transform="translate(-575,-1179.0036)"><path
       id="path5150-9-29-2-8-7-2-3-74-5-4-1-6-1-2"
       d="m 579.59997,1195.0013 c -0.01,-1.163 -0.87568,-2.5731 -2.3,-2.5821 -1.42021,0 -2.28735,1.4355 -2.3,2.5821"
       style="display:inline;fill:#d0ec86;fill-opacity:1;stroke:none;stroke-width:0.5;stroke-miterlimit:4;stroke-dasharray:none;stroke-opacity:1" /><rect
       y="1179.0035"
       x="575.00769"
       height="15.999921"
       width="15.999999"
       id="rect4471-81-5-8-1-8-4-3-3-4-1-3-5-5-5-2"
       style="color:#000000;display:inline;overflow:visible;visibility:visible;fill:none;fill-opacity:1;stroke:none;stroke-width:0;stroke-linecap:round;stroke-linejoin:miter;stroke-miterlimit:4;stroke-dasharray:none;stroke-dashoffset:0;stroke-opacity:1;marker:none;enable-background:accumulate" /><path
       id="path5150-9-29-2-8-7-2-3-74-5-4-1-6-0-4-0-6"
       d="m 591,1194.9843 c -0.009,-1.163 -0.85665,-2.5731 -2.25,-2.5821 -1.38935,0 -2.23763,1.4355 -2.25,2.5821"
       style="display:inline;fill:#d0ec86;fill-opacity:1;stroke:none;stroke-width:0.5;stroke-miterlimit:4;stroke-dasharray:none;stroke-opacity:1" /><path
       style="display:inline;fill:#d0ec86;fill-opacity:1;stroke:none;stroke-width:0.5;stroke-miterlimit:4;stroke-dasharray:none;stroke-opacity:1"
       d="m 585.2,1195.0012 c -0.01,-1.163 -0.85665,-2.5731 -2.25,-2.5821 -1.38934,0 -2.23763,1.4355 -2.25,2.5821"
       id="path5150-9-29-2-8-7-2-3-74-5-4-1-6-1-1-8" /><path
       style="display:inline;fill:#d0ec86;fill-opacity:1;stroke:none;stroke-width:0.5;stroke-miterlimit:4;stroke-dasharray:none;stroke-opacity:1"
       d="m 579.59997,1190.8615 c -0.01,-1.1629 -0.87568,-2.573 -2.3,-2.582 -1.42021,0 -2.28735,1.4354 -2.3,2.582"
       id="path5150-9-29-2-8-7-2-3-74-5-4-1-6-1-12-5" /><path
       style="display:inline;fill:#d0ec86;fill-opacity:1;stroke:none;stroke-width:0.5;stroke-miterlimit:4;stroke-dasharray:none;stroke-opacity:1"
       d="m 591,1190.8446 c -0.009,-1.163 -0.85665,-2.573 -2.25,-2.5821 -1.38935,0 -2.23763,1.4355 -2.25,2.5821"
       id="path5150-9-29-2-8-7-2-3-74-5-4-1-6-0-4-0-9-7" /><path
       id="path5150-9-29-2-8-7-2-3-74-5-4-1-6-1-1-4-6"
       d="m 585.2,1190.8615 c -0.01,-1.1629 -0.85665,-2.573 -2.25,-2.582 -1.38934,0 -2.23763,1.4354 -2.25,2.582"
       style="display:inline;fill:#d0ec86;fill-opacity:1;stroke:none;stroke-width:0.5;stroke-miterlimit:4;stroke-dasharray:none;stroke-opacity:1" /><path
       style="display:inline;fill:#d0ec86;fill-opacity:1;stroke:none;stroke-width:0.5;stroke-miterlimit:4;stroke-dasharray:none;stroke-opacity:1"
       d="m 579.59997,1186.7218 c -0.01,-1.163 -0.87568,-2.5731 -2.3,-2.5821 -1.42021,0 -2.28735,1.4355 -2.3,2.5821"
       id="path5150-9-29-2-8-7-2-3-74-5-4-1-6-1-17-1" /><path
       style="display:inline;fill:#d0ec86;fill-opacity:1;stroke:none;stroke-width:0.5;stroke-miterlimit:4;stroke-dasharray:none;stroke-opacity:1"
       d="m 591,1186.7049 c -0.009,-1.163 -0.85665,-2.573 -2.25,-2.582 -1.38935,0 -2.23763,1.4354 -2.25,2.582"
       id="path5150-9-29-2-8-7-2-3-74-5-4-1-6-0-4-0-8-8" /><path
       id="path5150-9-29-2-8-7-2-3-74-5-4-1-6-1-1-7-9"
       d="m 585.2,1186.7219 c -0.01,-1.163 -0.85665,-2.5731 -2.25,-2.5821 -1.38934,0 -2.23763,1.4355 -2.25,2.5821"
       style="display:inline;fill:#d0ec86;fill-opacity:1;stroke:none;stroke-width:0.5;stroke-miterlimit:4;stroke-dasharray:none;stroke-opacity:1" /><path
       style="display:inline;fill:#d0ec86;fill-opacity:1;stroke:none;stroke-width:0.5;stroke-miterlimit:4;stroke-dasharray:none;stroke-opacity:1"
       d="m 579.59997,1182.582 c -0.01,-1.1629 -0.87568,-2.573 -2.3,-2.582 -1.42021,0 -2.28735,1.4354 -2.3,2.582"
       id="path5150-9-29-2-8-7-2-3-74-5-4-1-6-1-3-2" /><path
       style="display:inline;fill:#d0ec86;fill-opacity:1;stroke:none;stroke-width:0.5;stroke-miterlimit:4;stroke-dasharray:none;stroke-opacity:1"
       d="m 591,1182.5652 c -0.009,-1.1629 -0.85665,-2.573 -2.25,-2.582 -1.38935,0 -2.23763,1.4354 -2.25,2.582"
       id="path5150-9-29-2-8-7-2-3-74-5-4-1-6-0-4-0-4-7" /><path
       id="path5150-9-29-2-8-7-2-3-74-5-4-1-6-1-1-6-9"
       d="m 585.2,1182.5821 c -0.01,-1.1628 -0.85665,-2.5729 -2.25,-2.5819 -1.38934,0 -2.23763,1.4354 -2.25,2.5819"
       style="display:inline;fill:#d0ec86;fill-opacity:1;stroke:none;stroke-width:0.5;stroke-miterlimit:4;stroke-dasharray:none;stroke-opacity:1" /></g></svg>
