<?xml version="1.0" encoding="UTF-8" standalone="no"?>
<svg
   width="16"
   height="16.000488"
   id="svg2985"
   version="1.1"
   xml:space="preserve"
   xmlns="http://www.w3.org/2000/svg"
   xmlns:svg="http://www.w3.org/2000/svg"
   xmlns:rdf="http://www.w3.org/1999/02/22-rdf-syntax-ns#"
   xmlns:cc="http://creativecommons.org/ns#"
   xmlns:dc="http://purl.org/dc/elements/1.1/"><defs
     id="defs2987"><linearGradient
       id="linearGradient5090"><stop
         style="stop-color:#435800;stop-opacity:1;"
         offset="0"
         id="stop5088" /></linearGradient><linearGradient
       id="linearGradient6402"><stop
         id="stop6404"
         offset="0"
         style="stop-color:#000000;stop-opacity:1;" /><stop
         id="stop6406"
         offset="1"
         style="stop-color:#000000;stop-opacity:0;" /></linearGradient><linearGradient
       id="linearGradient3816"><stop
         id="stop3818"
         offset="0"
         style="stop-color:#ffa576;stop-opacity:1;" /><stop
         style="stop-color:#f45400;stop-opacity:1;"
         offset="1"
         id="stop3782" /></linearGradient></defs><metadata
     id="metadata2990"><rdf:RDF><cc:Work
         rdf:about=""><dc:format>image/svg+xml</dc:format><dc:type
           rdf:resource="http://purl.org/dc/dcmitype/StillImage" /></cc:Work></rdf:RDF></metadata><g
     id="layer1"
     style="display:inline"
     transform="translate(-575.00799,-1149.0036)"><path
       id="path5150-9-29-2-8-7-2-3-74-5-4-1-6-1"
       d="m 579.76565,1165.0013 c -0.009,-1.1237 -0.85811,-2.4862 -2.25383,-2.4949 -1.39171,0 -2.24144,1.387 -2.25383,2.4949"
       style="fill:#d0ec86;fill-opacity:1;stroke:#435800;stroke-width:0.5;stroke-miterlimit:4;stroke-dasharray:none;stroke-opacity:1" /><rect
       y="1149.0035"
       x="575.008"
       height="15.999921"
       width="15.999999"
       id="rect4471-81-5-8-1-8-4-3-3-4-1-3-5-5-5"
       style="color:#000000;display:inline;overflow:visible;visibility:visible;fill:none;fill-opacity:1;stroke:none;stroke-width:0;stroke-linecap:round;stroke-linejoin:miter;stroke-miterlimit:4;stroke-dasharray:none;stroke-dashoffset:0;stroke-opacity:1;marker:none;enable-background:accumulate" /><path
       id="path5150-9-29-2-8-7-2-3-74-5-4-1-6-0-4-0"
       d="m 590.75803,1165.0013 c -0.009,-1.1237 -0.85811,-2.4862 -2.25383,-2.4949 -1.39171,0 -2.24144,1.387 -2.25383,2.4949"
       style="fill:#d0ec86;fill-opacity:1;stroke:#435800;stroke-width:0.5;stroke-miterlimit:4;stroke-dasharray:none;stroke-opacity:1" /><path
       style="fill:#d0ec86;fill-opacity:1;stroke:#435800;stroke-width:0.5;stroke-miterlimit:4;stroke-dasharray:none;stroke-opacity:1"
       d="m 585.26185,1165.0013 c -0.009,-1.1237 -0.85811,-2.4862 -2.25383,-2.4949 -1.39171,0 -2.24145,1.387 -2.25384,2.4949"
       id="path5150-9-29-2-8-7-2-3-74-5-4-1-6-1-1" /><path
       style="fill:#d0ec86;fill-opacity:1;stroke:#435800;stroke-width:0.5;stroke-miterlimit:4;stroke-dasharray:none;stroke-opacity:1"
       d="m 579.76565,1161.0013 c -0.009,-1.1237 -0.85811,-2.4862 -2.25383,-2.4949 -1.39171,0 -2.24144,1.387 -2.25383,2.4949"
       id="path5150-9-29-2-8-7-2-3-74-5-4-1-6-1-12" /><path
       style="fill:#d0ec86;fill-opacity:1;stroke:#435800;stroke-width:0.5;stroke-miterlimit:4;stroke-dasharray:none;stroke-opacity:1"
       d="m 590.75803,1161.0013 c -0.009,-1.1237 -0.85811,-2.4862 -2.25383,-2.4949 -1.39171,0 -2.24144,1.387 -2.25383,2.4949"
       id="path5150-9-29-2-8-7-2-3-74-5-4-1-6-0-4-0-9" /><path
       id="path5150-9-29-2-8-7-2-3-74-5-4-1-6-1-1-4"
       d="m 585.26185,1161.0013 c -0.009,-1.1237 -0.85811,-2.4862 -2.25383,-2.4949 -1.39171,0 -2.24145,1.387 -2.25384,2.4949"
       style="fill:#d0ec86;fill-opacity:1;stroke:#435800;stroke-width:0.5;stroke-miterlimit:4;stroke-dasharray:none;stroke-opacity:1" /><path
       style="fill:#d0ec86;fill-opacity:1;stroke:#435800;stroke-width:0.5;stroke-miterlimit:4;stroke-dasharray:none;stroke-opacity:1"
       d="m 579.76565,1157.0013 c -0.009,-1.1237 -0.85811,-2.4862 -2.25383,-2.4949 -1.39171,0 -2.24144,1.387 -2.25383,2.4949"
       id="path5150-9-29-2-8-7-2-3-74-5-4-1-6-1-17" /><path
       style="fill:#d0ec86;fill-opacity:1;stroke:#435800;stroke-width:0.5;stroke-miterlimit:4;stroke-dasharray:none;stroke-opacity:1"
       d="m 590.75803,1157.0013 c -0.009,-1.1237 -0.85811,-2.4862 -2.25383,-2.4949 -1.39171,0 -2.24144,1.387 -2.25383,2.4949"
       id="path5150-9-29-2-8-7-2-3-74-5-4-1-6-0-4-0-8" /><path
       id="path5150-9-29-2-8-7-2-3-74-5-4-1-6-1-1-7"
       d="m 585.26185,1157.0013 c -0.009,-1.1237 -0.85811,-2.4862 -2.25383,-2.4949 -1.39171,0 -2.24145,1.387 -2.25384,2.4949"
       style="fill:#d0ec86;fill-opacity:1;stroke:#435800;stroke-width:0.5;stroke-miterlimit:4;stroke-dasharray:none;stroke-opacity:1" /><path
       style="fill:#d0ec86;fill-opacity:1;stroke:#435800;stroke-width:0.5;stroke-miterlimit:4;stroke-dasharray:none;stroke-opacity:1"
       d="m 579.76565,1153.0013 c -0.009,-1.1237 -0.85811,-2.4862 -2.25383,-2.4949 -1.39171,0 -2.24144,1.387 -2.25383,2.4949"
       id="path5150-9-29-2-8-7-2-3-74-5-4-1-6-1-3" /><path
       style="fill:#d0ec86;fill-opacity:1;stroke:#435800;stroke-width:0.5;stroke-miterlimit:4;stroke-dasharray:none;stroke-opacity:1"
       d="m 590.75803,1153.0013 c -0.009,-1.1237 -0.85811,-2.4862 -2.25383,-2.4949 -1.39171,0 -2.24144,1.387 -2.25383,2.4949"
       id="path5150-9-29-2-8-7-2-3-74-5-4-1-6-0-4-0-4" /><path
       id="path5150-9-29-2-8-7-2-3-74-5-4-1-6-1-1-6"
       d="m 585.26185,1153.0013 c -0.009,-1.1237 -0.85811,-2.4862 -2.25383,-2.4949 -1.39171,0 -2.24145,1.387 -2.25384,2.4949"
       style="fill:#d0ec86;fill-opacity:1;stroke:#435800;stroke-width:0.5;stroke-miterlimit:4;stroke-dasharray:none;stroke-opacity:1" /></g></svg>
