<?xml version="1.0" encoding="UTF-8" standalone="no"?>
<svg
   width="15.999939"
   height="15.999756"
   id="svg2985"
   version="1.1"
   xml:space="preserve"
   xmlns="http://www.w3.org/2000/svg"
   xmlns:svg="http://www.w3.org/2000/svg"
   xmlns:rdf="http://www.w3.org/1999/02/22-rdf-syntax-ns#"
   xmlns:cc="http://creativecommons.org/ns#"
   xmlns:dc="http://purl.org/dc/elements/1.1/"><defs
     id="defs2987"><linearGradient
       id="linearGradient5090"><stop
         style="stop-color:#435800;stop-opacity:1;"
         offset="0"
         id="stop5088" /></linearGradient><linearGradient
       id="linearGradient6402"><stop
         id="stop6404"
         offset="0"
         style="stop-color:#000000;stop-opacity:1;" /><stop
         id="stop6406"
         offset="1"
         style="stop-color:#000000;stop-opacity:0;" /></linearGradient><linearGradient
       id="linearGradient3816"><stop
         id="stop3818"
         offset="0"
         style="stop-color:#ffa576;stop-opacity:1;" /><stop
         style="stop-color:#f45400;stop-opacity:1;"
         offset="1"
         id="stop3782" /></linearGradient></defs><metadata
     id="metadata2990"><rdf:RDF><cc:Work
         rdf:about=""><dc:format>image/svg+xml</dc:format><dc:type
           rdf:resource="http://purl.org/dc/dcmitype/StillImage" /></cc:Work></rdf:RDF></metadata><g
     id="layer1"
     style="display:inline"
     transform="translate(-375,-1258.9832)"><path
       id="path6-3-7"
       style="display:inline;fill:#d2ec88;fill-opacity:1;stroke:#000000;stroke-width:0.249066;stroke-linecap:square;stroke-miterlimit:3;stroke-dasharray:none;stroke-opacity:1;paint-order:fill markers stroke"
       d="m 386.78919,1263.4892 c -0.0424,0 -0.11701,0.011 -0.16654,0.034 -0.0801,0.034 -5.44791,4.4076 -8.81931,7.1766 l 4.27365,4.09 c 3.3956,-2.7623 8.74182,-7.1394 8.76871,-7.1963 0.0368,-0.084 0.0401,-0.2415 0.005,-0.3052 -0.0608,-0.1174 -0.15477,-0.1677 -0.89602,-0.4797 -0.41108,-0.1727 -0.75155,-0.3187 -0.75694,-0.3237 -0.005,0 -0.0471,-0.2164 -0.0927,-0.4696 -0.0454,-0.2533 -0.0978,-0.4897 -0.11597,-0.525 -0.0406,-0.084 -0.1459,-0.1677 -0.2235,-0.1845 -0.0322,-0.01 -0.2789,-0.067 -0.54816,-0.1174 l -0.48915,-0.1006 -0.29517,-0.696 c -0.16237,-0.3841 -0.31667,-0.7212 -0.34368,-0.7497 -0.0648,-0.067 -0.20542,-0.1342 -0.3015,-0.1342 z" /><rect
       style="display:inline;fill:#43d4e0;fill-opacity:1;stroke:#000000;stroke-width:0;stroke-linecap:square;stroke-miterlimit:3;stroke-dasharray:none;stroke-opacity:1;paint-order:fill markers stroke"
       id="rect4-4-7"
       width="6.5360336"
       height="8.4720287"
       x="375.93591"
       y="1266.0424"
       rx="0"
       ry="0" /><path
       style="display:inline;fill:none;fill-opacity:1;stroke:#425700;stroke-width:0.932428;stroke-linecap:butt;stroke-linejoin:miter;stroke-dasharray:none;stroke-opacity:1"
       d="m 545.86914,500.4082 -3.09375,0.0137 c 0,0 -0.76341,-0.10631 -0.88281,0.42774 -0.11939,0.53406 -0.10156,1.13476 -0.10156,1.13476 -0.003,0.50259 -1.36659,-0.18496 -1.32422,0.80665 l 0.01,0.24609 0.0156,2.81836 c 0,0 0.10375,0.37362 0.5664,0.56055 0.46263,0.18692 0.34324,0.84138 0,1.06835 -0.34325,0.22697 -0.5664,0.45508 -0.5664,0.45508 l -0.0156,5.76758 c 0,0 -0.10337,0.707 1.10547,0.78711 1.20883,0.0802 5.49219,0 5.49219,0 0,0 0.70147,-0.0398 0.79101,-0.80078 0.0895,-0.76104 0,-5.75391 0,-5.75391 0,0 -0.34744,-0.42257 -0.52343,-0.45508 -0.35345,-0.0654 -0.15754,-1.02463 -0.0937,-1.0625 0,0 0.61223,-0.18834 0.65039,-0.69921 0.0282,-0.37889 0.0117,-2.60352 0.0117,-2.60352 0.0152,-0.39367 0.24694,-1.04214 -1.28125,-1.00195 -0.39766,0.0104 0.27275,-1.73007 -0.75977,-1.70899 z"
       id="path33-6-3"
       transform="matrix(0.99985984,0,0,1.0001091,-164.92432,759.92881)" /><rect
       style="display:inline;fill:none;stroke:#425700;stroke-width:0.46864;stroke-linecap:butt;stroke-linejoin:miter;stroke-miterlimit:3;stroke-dasharray:none;stroke-opacity:1;paint-order:fill markers stroke"
       id="rect33-6-6"
       width="2.334424"
       height="1.4121327"
       x="378.0368"
       y="1259.2175" /></g></svg>
