<?xml version="1.0" encoding="UTF-8" standalone="no"?>
<svg
   width="16.000557"
   height="16.017761"
   id="svg2985"
   version="1.1"
   xml:space="preserve"
   xmlns="http://www.w3.org/2000/svg"
   xmlns:svg="http://www.w3.org/2000/svg"
   xmlns:rdf="http://www.w3.org/1999/02/22-rdf-syntax-ns#"
   xmlns:cc="http://creativecommons.org/ns#"
   xmlns:dc="http://purl.org/dc/elements/1.1/"><defs
     id="defs2987"><linearGradient
       id="linearGradient5090"><stop
         style="stop-color:#435800;stop-opacity:1;"
         offset="0"
         id="stop5088" /></linearGradient><linearGradient
       id="linearGradient6402"><stop
         id="stop6404"
         offset="0"
         style="stop-color:#000000;stop-opacity:1;" /><stop
         id="stop6406"
         offset="1"
         style="stop-color:#000000;stop-opacity:0;" /></linearGradient><linearGradient
       id="linearGradient3816"><stop
         id="stop3818"
         offset="0"
         style="stop-color:#ffa576;stop-opacity:1;" /><stop
         style="stop-color:#f45400;stop-opacity:1;"
         offset="1"
         id="stop3782" /></linearGradient></defs><metadata
     id="metadata2990"><rdf:RDF><cc:Work
         rdf:about=""><dc:format>image/svg+xml</dc:format><dc:type
           rdf:resource="http://purl.org/dc/dcmitype/StillImage" /></cc:Work></rdf:RDF></metadata><g
     id="layer1"
     style="display:inline"
     transform="translate(-19.999353,-933.99999)"><path
       id="path6-3-7"
       style="display:inline;fill:#d2ec88;fill-opacity:1;stroke:#000000;stroke-width:0.249066;stroke-linecap:square;stroke-miterlimit:3;stroke-dasharray:none;stroke-opacity:1;paint-order:fill markers stroke"
       d="M 31.796031,938.55105 C 31.753704,938.55105 31.679219,938.56205 31.629772,938.58505 31.549807,938.61905 26.191019,942.99264 22.825286,945.76163 L 27.091753,949.85163 C 30.481645,947.08933 35.818879,942.71224 35.845723,942.65534 35.882462,942.57134 35.885756,942.41384 35.850715,942.35014 35.790017,942.23274 35.696205,942.18244 34.9562,941.87044 34.545812,941.69774 34.205914,941.55174 34.200533,941.54674 34.195541,941.54674 34.153512,941.33034 34.107989,941.07714 34.062665,940.82384 34.010353,940.58744 33.992214,940.55214 33.951682,940.46814 33.846559,940.38444 33.76909,940.36764 33.736943,940.35764 33.490659,940.30064 33.221851,940.25024 L 32.733524,940.14964 32.43885,939.45365 C 32.276752,939.06955 32.122712,938.73245 32.095747,938.70395 32.031056,938.63695 31.890672,938.56975 31.794754,938.56975 Z" /><rect
       style="display:inline;fill:#43d4e0;fill-opacity:1;stroke:#000000;stroke-width:0;stroke-linecap:square;stroke-miterlimit:3;stroke-dasharray:none;stroke-opacity:1;paint-order:fill markers stroke"
       id="rect4-4-7"
       width="6.5360336"
       height="8.4720287"
       x="20.957924"
       y="941.104"
       rx="0"
       ry="0" /><rect
       style="display:inline;fill:none;stroke:#808080;stroke-width:0.46864;stroke-linecap:butt;stroke-linejoin:miter;stroke-miterlimit:3;stroke-dasharray:none;stroke-opacity:1;paint-order:fill markers stroke"
       id="rect33-6-6"
       width="2.334424"
       height="1.4569876"
       x="23.058813"
       y="934.23431" /><path
       style="display:inline;fill:none;fill-opacity:1;stroke:#808080;stroke-width:0.9326;stroke-linecap:butt;stroke-linejoin:miter;stroke-dasharray:none;stroke-opacity:1"
       d="M 545.86914,500.4082 542.77539,500.42187 C 542.77539,500.42187 542.01198,500.31556 541.89258,500.84961 541.77319,501.38367 541.79102,501.98438 541.79102,501.98437 541.78802,502.48695 540.42443,501.79941 540.4668,502.79102 L 540.47656,503.03711 540.49219,505.85547 C 540.49219,505.85547 540.59594,506.22909 541.05859,506.41602 541.52122,506.60294 541.40183,507.2574 541.05859,507.48437 540.71534,507.71134 540.49219,507.93945 540.49219,507.93945 L 540.47656,513.70703 C 540.47656,513.70703 540.37319,514.41403 541.58203,514.49414 542.79086,514.57434 547.07422,514.49414 547.07422,514.49414 547.07422,514.49414 547.77569,514.45436 547.86523,513.69336 547.95473,512.93232 547.86523,507.93945 547.86523,507.93945 547.86523,507.93945 547.51779,507.51689 547.3418,507.48437 546.99387,507.42 547.18134,506.48901 547.24805,506.42383 547.24805,506.42383 547.24805,506.42187 547.24805,506.42187 547.24805,506.42187 547.86028,506.23353 547.89844,505.72266 547.92664,505.34377 547.91016,503.11914 547.91016,503.11914 547.92536,502.72547 548.1571,502.077 546.62891,502.11719 546.23125,502.12759 546.90166,500.38712 545.86914,500.4082 Z"
       id="path33-6-3"
       transform="matrix(1.0027039,0,0,0.99690648,-521.46067,436.59369)" /></g></svg>
