<?xml version="1.0" encoding="UTF-8" standalone="no"?>
<svg
   version="1.1"
   id="svg2985"
   height="15.999939"
   width="16.000032"
   xml:space="preserve"
   xmlns="http://www.w3.org/2000/svg"
   xmlns:svg="http://www.w3.org/2000/svg"
   xmlns:rdf="http://www.w3.org/1999/02/22-rdf-syntax-ns#"
   xmlns:cc="http://creativecommons.org/ns#"
   xmlns:dc="http://purl.org/dc/elements/1.1/"><defs
     id="defs2987"><linearGradient
       id="swatch22"><stop
         style="stop-color:#000000;stop-opacity:1;"
         offset="0"
         id="stop22" /></linearGradient><linearGradient
       id="linearGradient3816"><stop
         id="stop3818"
         offset="0"
         style="stop-color:#ffa576;stop-opacity:1;" /><stop
         style="stop-color:#f45400;stop-opacity:1;"
         offset="1"
         id="stop3782" /></linearGradient></defs><metadata
     id="metadata2990"><rdf:RDF><cc:Work
         rdf:about=""><dc:format>image/svg+xml</dc:format><dc:type
           rdf:resource="http://purl.org/dc/dcmitype/StillImage" /><dc:title /></cc:Work></rdf:RDF></metadata><g
     id="layer1"
     style="display:inline"
     transform="translate(-10.000304,-279)"><path
       id="rect3842-2-4-7-7-8-2-8"
       d="m 10.00079,279 v 15.99995 H 26.000041 V 279 Z"
       style="display:inline;fill:none;stroke:none;stroke-width:0.999997" /><path
       id="path5150-9-29-2-8-7-2-1-2-3"
       style="display:inline;fill:#d0ec86;fill-opacity:1;stroke:none;stroke-width:0.700001;stroke-miterlimit:4;stroke-dasharray:none;stroke-opacity:1"
       d="m 25.649977,291.99609 c -0.0301,-3.89439 -2.912944,-8.6163 -7.650032,-8.64648 -4.723508,0 -7.607933,4.80689 -7.650031,8.64648 M 17.999945,285 c 1.656773,0 2.99986,1.34315 2.99986,3 0,1.65685 -1.343087,3 -2.99986,3 -1.656782,0 -2.999859,-1.34315 -2.999859,-3 0,-1.65685 1.343077,-3 2.999859,-3 z" /><path
       id="path5150-9-29-2-8-7-2-1-2-3-7"
       style="display:inline;fill:none;fill-opacity:1;stroke:#435800;stroke-width:0.700001;stroke-miterlimit:4;stroke-dasharray:none;stroke-opacity:1"
       d="m 25.650347,291.99616 c -0.0301,-3.89439 -2.912944,-8.6163 -7.650032,-8.64648 -4.723508,0 -7.607933,4.80689 -7.650031,8.64648" /></g></svg>
