<?xml version="1.0" encoding="UTF-8" standalone="no"?>
<svg
   version="1.1"
   id="svg2985"
   height="16"
   width="16"
   xml:space="preserve"
   xmlns="http://www.w3.org/2000/svg"
   xmlns:svg="http://www.w3.org/2000/svg"
   xmlns:rdf="http://www.w3.org/1999/02/22-rdf-syntax-ns#"
   xmlns:cc="http://creativecommons.org/ns#"
   xmlns:dc="http://purl.org/dc/elements/1.1/"><defs
     id="defs2987"><linearGradient
       id="swatch22"><stop
         style="stop-color:#000000;stop-opacity:1;"
         offset="0"
         id="stop22" /></linearGradient><linearGradient
       id="linearGradient3816"><stop
         id="stop3818"
         offset="0"
         style="stop-color:#ffa576;stop-opacity:1;" /><stop
         style="stop-color:#f45400;stop-opacity:1;"
         offset="1"
         id="stop3782" /></linearGradient></defs><metadata
     id="metadata2990"><rdf:RDF><cc:Work
         rdf:about=""><dc:format>image/svg+xml</dc:format><dc:type
           rdf:resource="http://purl.org/dc/dcmitype/StillImage" /><dc:title /></cc:Work></rdf:RDF></metadata><g
     id="layer1"
     style="display:inline"
     transform="translate(-40,-279)"><path
       id="rect3842-2-4-7-7-8-2-1-7"
       d="M 40,279.00005 V 295 h 16 v -15.99995 z"
       style="display:inline;fill:none;stroke:none" /><path
       id="path8732-6-7-7-4-4-7-7-5"
       style="color:#000000;display:inline;overflow:visible;visibility:visible;fill:#91c7ff;fill-opacity:1;stroke:none;stroke-width:0.8;stroke-linecap:round;stroke-linejoin:round;stroke-miterlimit:4;stroke-dasharray:none;stroke-dashoffset:0;stroke-opacity:1;marker:none;enable-background:accumulate"
       d="m 48,279 a 8.0002337,8.0002508 0 0 0 -8,8 8.0002337,8.0002508 0 0 0 8,8 8.0002337,8.0002508 0 0 0 8,-8 8.0002337,8.0002508 0 0 0 -8,-8 z m 0,5 a 3,3.0000062 0 0 1 3,3 3,3.0000062 0 0 1 -3,3 3,3.0000062 0 0 1 -3,-3 3,3.0000062 0 0 1 3,-3 z" /><path
       id="path8732-6-7-7-4-4-7-7-5-3"
       style="color:#000000;display:inline;overflow:visible;visibility:visible;fill:none;fill-opacity:1;stroke:#004794;stroke-width:0.8;stroke-linecap:round;stroke-linejoin:round;stroke-miterlimit:4;stroke-dasharray:none;stroke-dashoffset:0;stroke-opacity:1;marker:none;enable-background:accumulate"
       d="m 48,279.4 c -4.19732,1.2e-4 -7.59986,3.40269 -7.6,7.6 1.4e-4,4.19731 3.40268,7.59988 7.6,7.6 4.19729,-1.2e-4 7.59986,-3.40269 7.6,-7.6 -1.4e-4,-4.19732 -3.40271,-7.59988 -7.6,-7.6 z" /></g></svg>
