<?xml version="1.0" encoding="UTF-8" standalone="no"?>
<svg
   version="1.1"
   id="svg2985"
   height="16"
   width="15.999985"
   xml:space="preserve"
   xmlns="http://www.w3.org/2000/svg"
   xmlns:svg="http://www.w3.org/2000/svg"
   xmlns:rdf="http://www.w3.org/1999/02/22-rdf-syntax-ns#"
   xmlns:cc="http://creativecommons.org/ns#"
   xmlns:dc="http://purl.org/dc/elements/1.1/"><defs
     id="defs2987"><linearGradient
       id="linearGradient6402"><stop
         id="stop6404"
         offset="0"
         style="stop-color:#000000;stop-opacity:1;" /><stop
         id="stop6406"
         offset="1"
         style="stop-color:#000000;stop-opacity:0;" /></linearGradient><linearGradient
       id="linearGradient3816"><stop
         id="stop3818"
         offset="0"
         style="stop-color:#ffa576;stop-opacity:1;" /><stop
         style="stop-color:#f45400;stop-opacity:1;"
         offset="1"
         id="stop3782" /></linearGradient></defs><metadata
     id="metadata2990"><rdf:RDF><cc:Work
         rdf:about=""><dc:format>image/svg+xml</dc:format><dc:type
           rdf:resource="http://purl.org/dc/dcmitype/StillImage" /></cc:Work></rdf:RDF></metadata><g
     style="display:inline"
     id="layer1"
     transform="translate(-220,-1058.9701)"><rect
       y="1058.9701"
       x="220"
       height="15.999983"
       width="15.99999"
       id="rect4471-8-4-0-6-1-4-5-2-7-3"
       style="color:#000000;display:inline;overflow:visible;visibility:visible;fill:none;fill-opacity:0.0511628;stroke:none;stroke-width:0;stroke-linecap:round;stroke-linejoin:miter;stroke-miterlimit:4;stroke-dasharray:none;stroke-dashoffset:0;stroke-opacity:1;marker:none;enable-background:accumulate" /><path
       id="path37741-9-4-4"
       style="display:inline;fill:#b5b5b5;fill-opacity:1;stroke:#585858;stroke-width:0.499999;stroke-linecap:square;stroke-dasharray:none;stroke-opacity:1"
       d="m 227.00007,1059.2201 c -1.51879,0 -2.75,1.2312 -2.75,2.75 0.002,0.095 0.008,0.1892 0.0195,0.2832 -0.0241,-9e-4 -0.0482,0 -0.0723,0 -1.62767,-2e-4 -2.94727,1.2241 -2.94727,2.7344 0,1.5103 1.3196,2.7346 2.94727,2.7344 2.56736,-0.01 5.28011,7e-4 7.52148,0 h 0.0313 v 0 c 1.79921,-0.017 3.24901,-1.48 3.25,-3.2793 0,-1.8122 -1.46907,-3.2813 -3.28125,-3.2813 -0.71287,0 -1.40534,0.2383 -1.97266,0.6699 -0.0759,-1.4612 -1.2828,-2.6072 -2.74609,-2.6073 z" /><path
       style="fill:#ffe700;fill-opacity:1;stroke:#a39300;stroke-width:0.5;stroke-linecap:butt;stroke-linejoin:miter;stroke-miterlimit:4;stroke-dasharray:none;stroke-dashoffset:0;stroke-opacity:1"
       d="m 229.52792,1063.1364 -4.0453,7.074 1.88682,10e-4 -1.15069,4.5524 4.37102,-6.0278 -2.26765,0.01 z"
       id="path103713" /></g></svg>
