<?xml version="1.0" encoding="UTF-8" standalone="no"?>
<svg
   version="1.1"
   id="svg2985"
   height="16"
   width="16"
   xml:space="preserve"
   xmlns="http://www.w3.org/2000/svg"
   xmlns:svg="http://www.w3.org/2000/svg"
   xmlns:rdf="http://www.w3.org/1999/02/22-rdf-syntax-ns#"
   xmlns:cc="http://creativecommons.org/ns#"
   xmlns:dc="http://purl.org/dc/elements/1.1/"><defs
     id="defs2987"><linearGradient
       id="linearGradient6402"><stop
         id="stop6404"
         offset="0"
         style="stop-color:#000000;stop-opacity:1;" /><stop
         id="stop6406"
         offset="1"
         style="stop-color:#000000;stop-opacity:0;" /></linearGradient><linearGradient
       id="linearGradient3816"><stop
         id="stop3818"
         offset="0"
         style="stop-color:#ffa576;stop-opacity:1;" /><stop
         style="stop-color:#f45400;stop-opacity:1;"
         offset="1"
         id="stop3782" /></linearGradient></defs><metadata
     id="metadata2990"><rdf:RDF><cc:Work
         rdf:about=""><dc:format>image/svg+xml</dc:format><dc:type
           rdf:resource="http://purl.org/dc/dcmitype/StillImage" /></cc:Work></rdf:RDF></metadata><g
     style="display:inline"
     id="layer1"
     transform="translate(-310,-1058.9701)"><rect
       y="1058.9701"
       x="310"
       height="15.999983"
       width="15.99999"
       id="rect4471-8-4-0-6-1-4-5-2-7-3-1-1"
       style="color:#000000;display:inline;overflow:visible;visibility:visible;fill:none;fill-opacity:0.0511628;stroke:none;stroke-width:0;stroke-linecap:round;stroke-linejoin:miter;stroke-miterlimit:4;stroke-dasharray:none;stroke-dashoffset:0;stroke-opacity:1;marker:none;enable-background:accumulate" /><path
       style="display:inline;fill:none;fill-opacity:1;stroke:#b5b5b5;stroke-width:0.999986px;stroke-linecap:butt;stroke-linejoin:miter;stroke-opacity:1"
       d="m 323.76375,1067.5 c 0,0 -1.76474,1 -2.76044,1 -0.99571,0 -4.96706,-2 -5.97125,-2 -1.00151,0 -2.77817,1 -2.77817,1"
       id="path8356-2-5-9-4-1-22-25-9-6" /><path
       style="display:inline;fill:none;fill-opacity:1;stroke:#4d4d4d;stroke-width:0.5;stroke-linecap:butt;stroke-linejoin:miter;stroke-dasharray:none;stroke-opacity:1"
       d="m 323.60045,1067.25 c 0,0 -1.70188,0.8999 -2.64644,0.8999 -0.94456,0 -4.94456,-1.8999 -5.89249,-1.8999 -1.02544,0 -2.94607,1 -2.94607,1"
       id="path8356-2-5-9-4-1-22-25-9-4-1" /><path
       style="display:inline;fill:none;fill-opacity:1;stroke:#b5b5b5;stroke-width:0.999987px;stroke-linecap:butt;stroke-linejoin:miter;stroke-opacity:1"
       d="m 323.76366,1072.5 c 0,0 -1.76471,1 -2.7604,1 -0.99569,0 -4.96697,-2 -5.97114,-2 -1.00149,0 -2.77813,1 -2.77813,1"
       id="path8356-2-5-9-4-1-22-25-9-5-9" /><path
       style="display:inline;fill:none;fill-opacity:1;stroke:#4d4d4d;stroke-width:0.5;stroke-linecap:butt;stroke-linejoin:miter;stroke-dasharray:none;stroke-opacity:1"
       d="m 323.58309,1072.25 c 0,0 -1.69454,0.8999 -2.63503,0.8999 -0.94049,0 -4.92324,-1.8999 -5.86708,-1.8999 -1.02102,0 -2.93337,1 -2.93337,1"
       id="path8356-2-5-9-4-1-22-25-9-4-3-3" /><path
       style="display:inline;fill:none;fill-opacity:1;stroke:#b5b5b5;stroke-width:0.999986px;stroke-linecap:butt;stroke-linejoin:miter;stroke-opacity:1"
       d="m 323.76375,1062.5 c 0,0 -1.76474,1 -2.76044,1 -0.99571,0 -4.96706,-2 -5.97125,-2 -1.00151,0 -2.77817,1 -2.77817,1"
       id="path8356-2-5-9-4-1-22-25-9-1-3" /><path
       style="display:inline;fill:none;fill-opacity:1;stroke:#4d4d4d;stroke-width:0.5;stroke-linecap:butt;stroke-linejoin:miter;stroke-dasharray:none;stroke-opacity:1"
       d="m 323.63205,1062.25 c 0,0 -1.70188,0.8999 -2.64644,0.8999 -0.94456,0 -4.94456,-1.8999 -5.89249,-1.8999 -1.02544,0 -2.94607,1 -2.94607,1"
       id="path8356-2-5-9-4-1-22-25-9-4-8-1" /></g></svg>
