<?xml version="1.0" encoding="UTF-8" standalone="no"?>
<svg
   version="1.1"
   id="svg2985"
   height="16"
   width="15.999985"
   xml:space="preserve"
   xmlns="http://www.w3.org/2000/svg"
   xmlns:svg="http://www.w3.org/2000/svg"
   xmlns:rdf="http://www.w3.org/1999/02/22-rdf-syntax-ns#"
   xmlns:cc="http://creativecommons.org/ns#"
   xmlns:dc="http://purl.org/dc/elements/1.1/"><defs
     id="defs2987"><linearGradient
       id="linearGradient6402"><stop
         id="stop6404"
         offset="0"
         style="stop-color:#000000;stop-opacity:1;" /><stop
         id="stop6406"
         offset="1"
         style="stop-color:#000000;stop-opacity:0;" /></linearGradient><linearGradient
       id="linearGradient3816"><stop
         id="stop3818"
         offset="0"
         style="stop-color:#ffa576;stop-opacity:1;" /><stop
         style="stop-color:#f45400;stop-opacity:1;"
         offset="1"
         id="stop3782" /></linearGradient></defs><metadata
     id="metadata2990"><rdf:RDF><cc:Work
         rdf:about=""><dc:format>image/svg+xml</dc:format><dc:type
           rdf:resource="http://purl.org/dc/dcmitype/StillImage" /></cc:Work></rdf:RDF></metadata><g
     style="display:inline"
     id="layer1"
     transform="translate(-195.01114,-1059)"><rect
       y="1059"
       x="195.01114"
       height="15.999983"
       width="15.99999"
       id="rect4471-8-4-0-6-1-4-5-2-7-0"
       style="color:#000000;display:inline;overflow:visible;visibility:visible;fill:none;fill-opacity:0.0511628;stroke:none;stroke-width:0;stroke-linecap:round;stroke-linejoin:miter;stroke-miterlimit:4;stroke-dasharray:none;stroke-dashoffset:0;stroke-opacity:1;marker:none;enable-background:accumulate" /><path
       id="path37741-9-4-3"
       style="display:inline;fill:#b5b5b5;fill-opacity:1;stroke:#585858;stroke-width:0.499999;stroke-linecap:square;stroke-dasharray:none;stroke-opacity:1"
       d="m 201.8955,1060.2201 c -1.49117,0 -2.69999,1.2312 -2.69999,2.75 0.002,0.095 0.008,0.1892 0.0191,0.2832 -0.0237,-9e-4 -0.0473,0 -0.071,0 -1.59807,-2e-4 -2.89367,1.2241 -2.89367,2.7344 0,1.5103 1.2956,2.7346 2.89367,2.7344 2.52067,-0.01 5.18409,7e-4 7.3847,0 h 0.0307 v 0 c 1.76649,-0.017 3.18993,-1.48 3.1909,-3.2793 0,-1.8122 -1.44235,-3.2813 -3.22158,-3.2813 -0.6999,0 -1.37978,0.2383 -1.93679,0.6699 -0.0745,-1.4612 -1.25947,-2.6072 -2.69615,-2.6073 z" /><path
       style="fill:#ffffff;fill-opacity:1;stroke:#ff0505;stroke-width:0.999995px;stroke-linecap:butt;stroke-linejoin:miter;stroke-opacity:1"
       d="m 202.45791,1062.9628 -6.59089,11.4774 h 13.264 z"
       id="path94701" /><path
       style="fill:none;stroke:#000000;stroke-width:1px;stroke-linecap:butt;stroke-linejoin:miter;stroke-opacity:1"
       d="m 202.5,1065.9701 c 0,5 0,5 0,5"
       id="path95429" /><path
       style="display:inline;fill:none;stroke:#000000;stroke-width:1px;stroke-linecap:butt;stroke-linejoin:miter;stroke-opacity:1"
       d="m 202.51446,1071.9701 c 0,1 0,1 0,1"
       id="path95429-3" /></g></svg>
