<?xml version="1.0" encoding="UTF-8" standalone="no"?>
<svg
   version="1.1"
   id="svg2985"
   height="16"
   width="15.999992"
   xml:space="preserve"
   xmlns="http://www.w3.org/2000/svg"
   xmlns:svg="http://www.w3.org/2000/svg"
   xmlns:rdf="http://www.w3.org/1999/02/22-rdf-syntax-ns#"
   xmlns:cc="http://creativecommons.org/ns#"
   xmlns:dc="http://purl.org/dc/elements/1.1/"><defs
     id="defs2987"><linearGradient
       id="linearGradient6402"><stop
         id="stop6404"
         offset="0"
         style="stop-color:#000000;stop-opacity:1;" /><stop
         id="stop6406"
         offset="1"
         style="stop-color:#000000;stop-opacity:0;" /></linearGradient><linearGradient
       id="linearGradient3816"><stop
         id="stop3818"
         offset="0"
         style="stop-color:#ffa576;stop-opacity:1;" /><stop
         style="stop-color:#f45400;stop-opacity:1;"
         offset="1"
         id="stop3782" /></linearGradient></defs><metadata
     id="metadata2990"><rdf:RDF><cc:Work
         rdf:about=""><dc:format>image/svg+xml</dc:format><dc:type
           rdf:resource="http://purl.org/dc/dcmitype/StillImage" /></cc:Work></rdf:RDF></metadata><g
     style="display:inline"
     id="layer1"
     transform="translate(-75.000061,-1059)"><rect
       y="1059"
       x="75.000061"
       height="15.999983"
       width="15.99999"
       id="rect4471-8-4-0-6-1-4-0"
       style="color:#000000;display:inline;overflow:visible;visibility:visible;fill:none;fill-opacity:0.0511628;stroke:none;stroke-width:0;stroke-linecap:round;stroke-linejoin:miter;stroke-miterlimit:4;stroke-dasharray:none;stroke-dashoffset:0;stroke-opacity:1;marker:none;enable-background:accumulate" /><circle
       style="display:inline;fill:#ffe700;fill-opacity:1;stroke:#a39300;stroke-width:0.5;stroke-linecap:square;stroke-dasharray:none;stroke-opacity:1"
       id="path6113-4"
       cx="83.500061"
       cy="1066.5"
       r="3" /><g
       id="path8356-0"
       style="display:inline"
       transform="translate(61.000056,329)"><path
         style="color:#000000;fill:#ffe700;stroke-width:1px"
         d="m 22.5,742 c 0,3 0,3 0,3"
         id="path23176-1" /><path
         style="color:#000000;fill:#ffe700"
         d="m 22,742 v 3 h 1 v -3 z"
         id="path23178-6" /></g><path
       style="display:inline;fill:#ffe700;fill-opacity:1;stroke:#ffe700;stroke-width:1px;stroke-linecap:butt;stroke-linejoin:miter;stroke-opacity:1"
       d="m 83.50006,1059 c 0,3 0,3 0,3"
       id="path8356-2-7" /><path
       style="display:inline;fill:#ffe700;fill-opacity:1;stroke:#ffe700;stroke-width:1px;stroke-linecap:butt;stroke-linejoin:miter;stroke-opacity:1"
       d="M 77.878739,1060.8787 C 80.00006,1063 80.00006,1063 80.00006,1063"
       id="path8356-2-5-6" /><path
       style="display:inline;fill:#ffe700;fill-opacity:1;stroke:#ffe700;stroke-width:1px;stroke-linecap:butt;stroke-linejoin:miter;stroke-opacity:1"
       d="M 86.87874,1069.8787 C 89.00006,1072 89.00006,1072 89.00006,1072"
       id="path8356-2-5-9-6" /><path
       style="display:inline;fill:#ffe700;fill-opacity:1;stroke:#ffe700;stroke-width:1px;stroke-linecap:butt;stroke-linejoin:miter;stroke-opacity:1"
       d="M 89.12138,1060.8787 C 87.00006,1063 87.00006,1063 87.00006,1063"
       id="path8356-2-5-9-4-4" /><path
       style="display:inline;fill:#ffe700;fill-opacity:1;stroke:#ffe700;stroke-width:1px;stroke-linecap:butt;stroke-linejoin:miter;stroke-opacity:1"
       d="m 80.06072,1070 c -2.121321,2.1213 -2.121321,2.1213 -2.121321,2.1213"
       id="path8356-2-5-9-4-5-7" /><path
       style="display:inline;fill:#ffe700;fill-opacity:1;stroke:#ffe700;stroke-width:1px;stroke-linecap:butt;stroke-linejoin:miter;stroke-opacity:1"
       d="m 91.00006,1066.5 c -3,0 -3,0 -3,0"
       id="path8356-4-43" /><path
       style="display:inline;fill:#ffe700;fill-opacity:1;stroke:#ffe700;stroke-width:1px;stroke-linecap:butt;stroke-linejoin:miter;stroke-opacity:1"
       d="m 79.000059,1066.5 c -3,0 -3,0 -3,0"
       id="path8356-4-9-4" /><g
       id="path8356-20-62"
       style="display:inline;fill:#a39300;fill-opacity:1;stroke:none;stroke-width:1.41421;stroke-opacity:1"
       transform="matrix(0.5,0,0,0.99999892,72.000058,329.00081)"><path
         style="color:#000000;fill:#a39300;fill-opacity:1;stroke:none;stroke-width:1.41421px;stroke-opacity:1"
         d="m 22.5,742 c 0,3 0,3 0,3"
         id="path23176-7-5" /><path
         style="color:#000000;fill:#a39300;fill-opacity:1;stroke:none;stroke-width:2.12132;stroke-opacity:1"
         d="m 22,742 v 3 h 1 v -3 z"
         id="path23178-8-82" /></g><g
       id="path8356-20-6-5"
       style="display:inline;fill:#a39300;fill-opacity:1;stroke:none;stroke-width:1.41421;stroke-opacity:1"
       transform="matrix(0.35355339,0.35355339,-0.70710602,0.70710602,596.58603,537.17792)"><path
         style="color:#000000;fill:#a39300;fill-opacity:1;stroke:none;stroke-width:1.41421px;stroke-opacity:1"
         d="m 22.5,742 c 0,3 0,3 0,3"
         id="path23176-7-2-4" /><path
         style="color:#000000;fill:#a39300;fill-opacity:1;stroke:none;stroke-width:2.12132;stroke-opacity:1"
         d="m 22,742 v 3 h 1 v -3 z"
         id="path23178-8-8-8" /></g><g
       id="path8356-20-6-2-4"
       style="display:inline;fill:#a39300;fill-opacity:1;stroke:none;stroke-width:1.41421;stroke-opacity:1"
       transform="matrix(0.35355339,0.35355339,-0.70710602,0.70710602,605.66889,528.07296)"><path
         style="color:#000000;fill:#a39300;fill-opacity:1;stroke:none;stroke-width:1.41421px;stroke-opacity:1"
         d="m 22.5,742 c 0,3 0,3 0,3"
         id="path23176-7-2-6-9" /><path
         style="color:#000000;fill:#a39300;fill-opacity:1;stroke:none;stroke-width:2.12132;stroke-opacity:1"
         d="m 22,742 v 3 h 1 v -3 z"
         id="path23178-8-8-4-3" /></g><g
       id="path8356-20-6-2-2-2"
       style="display:inline;fill:#a39300;fill-opacity:1;stroke:none;stroke-width:1.41421;stroke-opacity:1"
       transform="matrix(-0.35355339,0.35355339,-0.70710602,-0.70710602,621.44621,1588.8989)"><path
         style="color:#000000;fill:#a39300;fill-opacity:1;stroke:none;stroke-width:1.41421px;stroke-opacity:1"
         d="m 22.5,742 c 0,3 0,3 0,3"
         id="path23176-7-2-6-3-3" /><path
         style="color:#000000;fill:#a39300;fill-opacity:1;stroke:none;stroke-width:2.12132;stroke-opacity:1"
         d="m 22,742 v 3 h 1 v -3 z"
         id="path23178-8-8-4-5-8" /></g><g
       id="path8356-20-6-2-2-3-7"
       style="display:inline;fill:#a39300;fill-opacity:1;stroke:none;stroke-width:1.41421;stroke-opacity:1"
       transform="matrix(-0.35355339,0.35355339,-0.70710602,-0.70710602,612.44621,1579.8989)"><path
         style="color:#000000;fill:#a39300;fill-opacity:1;stroke:none;stroke-width:1.41421px;stroke-opacity:1"
         d="m 22.5,742 c 0,3 0,3 0,3"
         id="path23176-7-2-6-3-8-1" /><path
         style="color:#000000;fill:#a39300;fill-opacity:1;stroke:none;stroke-width:2.12132;stroke-opacity:1"
         d="m 22,742 v 3 h 1 v -3 z"
         id="path23178-8-8-4-5-2-2" /></g><g
       id="path8356-20-0-5"
       style="display:inline;fill:#a39300;fill-opacity:1;stroke:none;stroke-width:1.41421;stroke-opacity:1"
       transform="matrix(0.5,0,0,0.99999892,72.000058,317.00081)"><path
         style="color:#000000;fill:#a39300;fill-opacity:1;stroke:none;stroke-width:1.41421px;stroke-opacity:1"
         d="m 22.5,742 c 0,3 0,3 0,3"
         id="path23176-7-4-6" /><path
         style="color:#000000;fill:#a39300;fill-opacity:1;stroke:none;stroke-width:2.12132;stroke-opacity:1"
         d="m 22,742 v 3 h 1 v -3 z"
         id="path23178-8-3-5" /></g><g
       id="path8356-20-2-1"
       style="display:inline;fill:#a39300;fill-opacity:1;stroke:none;stroke-width:1.41421;stroke-opacity:1"
       transform="matrix(0,0.5,-0.99999892,0,832.99926,1055.5)"><path
         style="color:#000000;fill:#a39300;fill-opacity:1;stroke:none;stroke-width:1.41421px;stroke-opacity:1"
         d="m 22.5,742 c 0,3 0,3 0,3"
         id="path23176-7-6-8" /><path
         style="color:#000000;fill:#a39300;fill-opacity:1;stroke:none;stroke-width:2.12132;stroke-opacity:1"
         d="m 22,742 v 3 h 1 v -3 z"
         id="path23178-8-9-6" /></g><g
       id="path8356-20-2-5-7"
       style="display:inline;fill:#a39300;fill-opacity:1;stroke:none;stroke-width:1.41421;stroke-opacity:1"
       transform="matrix(0,0.5,-0.99999892,0,820.99926,1055)"><path
         style="color:#000000;fill:#a39300;fill-opacity:1;stroke:none;stroke-width:1.41421px;stroke-opacity:1"
         d="m 22.5,742 c 0,3 0,3 0,3"
         id="path23176-7-6-0-7" /><path
         style="color:#000000;fill:#a39300;fill-opacity:1;stroke:none;stroke-width:2.12132;stroke-opacity:1"
         d="m 22,742 v 3 h 1 v -3 z"
         id="path23178-8-9-4-9" /></g><path
       id="path37741-20"
       style="display:inline;fill:#b5b5b5;fill-opacity:1;stroke:#585858;stroke-width:0.499999;stroke-linecap:square;stroke-dasharray:none;stroke-opacity:1"
       d="m 81.00007,1066.25 c -1.518791,0 -2.750001,1.2312 -2.750001,2.75 0.002,0.095 0.008,0.1892 0.0195,0.2832 -0.0241,-9e-4 -0.0482,0 -0.0723,0 -1.62767,-2e-4 -2.94727,1.2241 -2.94727,2.7344 0,1.5103 1.3196,2.7346 2.94727,2.7344 2.567361,-0.01 5.280111,7e-4 7.521481,0 h 0.0313 v 0 c 1.79921,-0.017 3.24901,-1.4801 3.25,-3.2793 0,-1.8122 -1.46907,-3.2813 -3.28125,-3.2813 -0.71287,0 -1.40533,0.2383 -1.97266,0.6699 -0.0759,-1.4612 -1.2828,-2.6072 -2.74609,-2.6073 z" /></g></svg>
