<?xml version="1.0" encoding="UTF-8" standalone="no"?>
<svg
   version="1.1"
   id="svg2985"
   height="16"
   width="15.999992"
   xml:space="preserve"
   xmlns="http://www.w3.org/2000/svg"
   xmlns:svg="http://www.w3.org/2000/svg"
   xmlns:rdf="http://www.w3.org/1999/02/22-rdf-syntax-ns#"
   xmlns:cc="http://creativecommons.org/ns#"
   xmlns:dc="http://purl.org/dc/elements/1.1/"><defs
     id="defs2987"><linearGradient
       id="linearGradient6402"><stop
         id="stop6404"
         offset="0"
         style="stop-color:#000000;stop-opacity:1;" /><stop
         id="stop6406"
         offset="1"
         style="stop-color:#000000;stop-opacity:0;" /></linearGradient><linearGradient
       id="linearGradient3816"><stop
         id="stop3818"
         offset="0"
         style="stop-color:#ffa576;stop-opacity:1;" /><stop
         style="stop-color:#f45400;stop-opacity:1;"
         offset="1"
         id="stop3782" /></linearGradient></defs><metadata
     id="metadata2990"><rdf:RDF><cc:Work
         rdf:about=""><dc:format>image/svg+xml</dc:format><dc:type
           rdf:resource="http://purl.org/dc/dcmitype/StillImage" /></cc:Work></rdf:RDF></metadata><g
     style="display:inline"
     id="layer1"
     transform="translate(-75.000061,-1084)"><rect
       y="1084"
       x="75.000061"
       height="15.999983"
       width="15.99999"
       id="rect4471-8-4-0-6-1-4-8-4"
       style="color:#000000;display:inline;overflow:visible;visibility:visible;fill:none;fill-opacity:0.0511628;stroke:none;stroke-width:0;stroke-linecap:round;stroke-linejoin:miter;stroke-miterlimit:4;stroke-dasharray:none;stroke-dashoffset:0;stroke-opacity:1;marker:none;enable-background:accumulate" /><circle
       style="display:inline;fill:#ffe700;fill-opacity:1;stroke-width:1.002;stroke-linecap:square"
       id="path6113-1-2"
       cx="83.500061"
       cy="1091.5"
       r="3" /><path
       style="display:inline;fill:#ffe700;fill-opacity:1;stroke:#ffe700;stroke-width:1px;stroke-linecap:butt;stroke-linejoin:miter;stroke-opacity:1"
       d="m 83.50006,1096 c 0,3 0,3 0,3"
       id="path8356-9-5" /><path
       style="display:inline;fill:#ffe700;fill-opacity:1;stroke:#ffe700;stroke-width:1px;stroke-linecap:butt;stroke-linejoin:miter;stroke-opacity:1"
       d="m 83.50006,1084 c 0,3 0,3 0,3"
       id="path8356-2-0-0" /><path
       style="display:inline;fill:#ffe700;fill-opacity:1;stroke:#ffe700;stroke-width:1px;stroke-linecap:butt;stroke-linejoin:miter;stroke-opacity:1"
       d="M 77.878739,1085.8787 C 80.00006,1088 80.00006,1088 80.00006,1088"
       id="path8356-2-5-4-3" /><path
       style="display:inline;fill:#ffe700;fill-opacity:1;stroke:#ffe700;stroke-width:1px;stroke-linecap:butt;stroke-linejoin:miter;stroke-opacity:1"
       d="M 86.87874,1094.8787 C 89.00006,1097 89.00006,1097 89.00006,1097"
       id="path8356-2-5-9-3-9" /><path
       style="display:inline;fill:#ffe700;fill-opacity:1;stroke:#ffe700;stroke-width:1px;stroke-linecap:butt;stroke-linejoin:miter;stroke-opacity:1"
       d="M 89.12138,1085.8787 C 87.00006,1088 87.00006,1088 87.00006,1088"
       id="path8356-2-5-9-4-7-7" /><path
       style="display:inline;fill:#ffe700;fill-opacity:1;stroke:#ffe700;stroke-width:1px;stroke-linecap:butt;stroke-linejoin:miter;stroke-opacity:1"
       d="m 80.06072,1095 c -2.121321,2.1213 -2.121321,2.1213 -2.121321,2.1213"
       id="path8356-2-5-9-4-5-8-0" /><path
       style="display:inline;fill:#ffe700;fill-opacity:1;stroke:#ffe700;stroke-width:1px;stroke-linecap:butt;stroke-linejoin:miter;stroke-opacity:1"
       d="m 91.00006,1091.5 c -3,0 -3,0 -3,0"
       id="path8356-4-4-0" /><path
       style="display:inline;fill:#ffe700;fill-opacity:1;stroke:#ffe700;stroke-width:1px;stroke-linecap:butt;stroke-linejoin:miter;stroke-opacity:1"
       d="m 79.000059,1091.5 c -3,0 -3,0 -3,0"
       id="path8356-4-9-5-0" /><path
       id="path37741-2-5"
       style="display:inline;fill:#c9c9c9;fill-opacity:1;stroke:none;stroke-width:0.499999;stroke-linecap:square;stroke-dasharray:none;stroke-opacity:1"
       d="m 80.85461,1090.9999 c -1.546401,0 -2.800001,1.3036 -2.800001,2.9117 0.002,0.1003 0.008,0.2004 0.0199,0.2999 -0.0245,-10e-4 -0.049,0 -0.0736,0 -1.65726,-2e-4 -3.00085,1.2961 -3.00085,2.8952 0,1.5991 1.34359,2.8955 3.00085,2.8953 2.614041,-0.01 5.376121,8e-4 7.658231,0 h 0.0318 v 0 c 1.83192,-0.018 3.30808,-1.5671 3.30909,-3.4722 0,-1.9188 -1.49577,-3.4743 -3.34091,-3.4743 -0.72582,0 -1.43088,0.2523 -2.00852,0.7093 -0.0773,-1.5472 -1.30612,-2.7606 -2.79602,-2.7607 z" /></g></svg>
