<?xml version="1.0" encoding="UTF-8" standalone="no"?>
<svg
   version="1.1"
   id="svg2985"
   height="16"
   width="15.999985"
   xml:space="preserve"
   xmlns="http://www.w3.org/2000/svg"
   xmlns:svg="http://www.w3.org/2000/svg"
   xmlns:rdf="http://www.w3.org/1999/02/22-rdf-syntax-ns#"
   xmlns:cc="http://creativecommons.org/ns#"
   xmlns:dc="http://purl.org/dc/elements/1.1/"><defs
     id="defs2987"><linearGradient
       id="linearGradient6402"><stop
         id="stop6404"
         offset="0"
         style="stop-color:#000000;stop-opacity:1;" /><stop
         id="stop6406"
         offset="1"
         style="stop-color:#000000;stop-opacity:0;" /></linearGradient><linearGradient
       id="linearGradient3816"><stop
         id="stop3818"
         offset="0"
         style="stop-color:#ffa576;stop-opacity:1;" /><stop
         style="stop-color:#f45400;stop-opacity:1;"
         offset="1"
         id="stop3782" /></linearGradient></defs><metadata
     id="metadata2990"><rdf:RDF><cc:Work
         rdf:about=""><dc:format>image/svg+xml</dc:format><dc:type
           rdf:resource="http://purl.org/dc/dcmitype/StillImage" /></cc:Work></rdf:RDF></metadata><g
     style="display:inline"
     id="layer1"
     transform="translate(-135,-1059)"><g
       id="g54173-7-5"
       transform="matrix(1.074544,0,0,1.0708338,43.35925,278.08838)"
       style="display:inline;stroke-width:0.932238"><path
         style="display:inline;fill:#ffe700;fill-opacity:1;stroke:#0074f7;stroke-width:0.932238px;stroke-linecap:butt;stroke-linejoin:miter;stroke-opacity:1"
         d="M 96.12132,739.87868 C 94,742 94,742 94,742"
         id="path8356-2-5-9-4-1-0-3" /><g
         id="path8356-20-6-2-6-9-4"
         style="display:inline;fill:#004899;fill-opacity:1;stroke:none;stroke-width:1.31838;stroke-opacity:1"
         transform="matrix(0.35355339,0.35355339,-0.70710602,0.70710602,612.66883,207.07296)"><path
           style="color:#000000;fill:#004899;fill-opacity:1;stroke:none;stroke-width:1.31838px;stroke-opacity:1"
           d="m 22.5,742 c 0,3 0,3 0,3"
           id="path23176-7-2-6-6-2-4" /><path
           style="color:#000000;fill:#004899;fill-opacity:1;stroke:none;stroke-width:1.97758;stroke-opacity:1"
           d="m 22,742 v 3 h 1 v -3 z"
           id="path23178-8-8-4-4-4-0" /></g></g><g
       id="g54173-7-5-0"
       transform="matrix(1.074544,0,0,1.0708338,37.35925,278.08838)"
       style="display:inline;stroke-width:0.932238"><path
         style="display:inline;fill:#ffe700;fill-opacity:1;stroke:#0074f7;stroke-width:0.932238px;stroke-linecap:butt;stroke-linejoin:miter;stroke-opacity:1"
         d="M 96.12132,739.87868 C 94,742 94,742 94,742"
         id="path8356-2-5-9-4-1-0-3-9" /><g
         id="path8356-20-6-2-6-9-4-0"
         style="display:inline;fill:#004899;fill-opacity:1;stroke:none;stroke-width:1.31838;stroke-opacity:1"
         transform="matrix(0.35355339,0.35355339,-0.70710602,0.70710602,612.66883,207.07296)"><path
           style="color:#000000;fill:#004899;fill-opacity:1;stroke:none;stroke-width:1.31838px;stroke-opacity:1"
           d="m 22.5,742 c 0,3 0,3 0,3"
           id="path23176-7-2-6-6-2-4-3" /><path
           style="color:#000000;fill:#004899;fill-opacity:1;stroke:none;stroke-width:1.97758;stroke-opacity:1"
           d="m 22,742 v 3 h 1 v -3 z"
           id="path23178-8-8-4-4-4-0-1" /></g></g><rect
       y="1059"
       x="135"
       height="15.999983"
       width="15.99999"
       id="rect4471-8-4-0-6-1-4-5-2-7"
       style="color:#000000;display:inline;overflow:visible;visibility:visible;fill:none;fill-opacity:0.0511628;stroke:none;stroke-width:0;stroke-linecap:round;stroke-linejoin:miter;stroke-miterlimit:4;stroke-dasharray:none;stroke-dashoffset:0;stroke-opacity:1;marker:none;enable-background:accumulate" /><path
       id="path37741-9-4"
       style="display:inline;fill:#b5b5b5;fill-opacity:1;stroke:#585858;stroke-width:0.499999;stroke-linecap:square;stroke-dasharray:none;stroke-opacity:1"
       d="m 142.00002,1060.25 c -1.51879,0 -2.75,1.2313 -2.75,2.75 0.002,0.095 0.008,0.1892 0.0195,0.2832 -0.0241,-9e-4 -0.0482,0 -0.0723,0 -1.62767,-2e-4 -2.94727,1.2241 -2.94727,2.7344 0,1.5103 1.3196,2.7346 2.94727,2.7344 2.56736,-0.01 5.28011,8e-4 7.52148,0 h 0.0313 v 0 c 1.79921,-0.017 3.24901,-1.48 3.25,-3.2793 0,-1.8122 -1.46907,-3.2813 -3.28125,-3.2813 -0.71287,0 -1.40534,0.2383 -1.97266,0.67 -0.0759,-1.4613 -1.2828,-2.6072 -2.74609,-2.6074 z" /></g></svg>
