<?xml version="1.0" encoding="UTF-8" standalone="no"?>
<svg
   version="1.1"
   id="svg2985"
   height="16"
   width="15.999985"
   xml:space="preserve"
   xmlns="http://www.w3.org/2000/svg"
   xmlns:svg="http://www.w3.org/2000/svg"
   xmlns:rdf="http://www.w3.org/1999/02/22-rdf-syntax-ns#"
   xmlns:cc="http://creativecommons.org/ns#"
   xmlns:dc="http://purl.org/dc/elements/1.1/"><defs
     id="defs2987"><linearGradient
       id="linearGradient6402"><stop
         id="stop6404"
         offset="0"
         style="stop-color:#000000;stop-opacity:1;" /><stop
         id="stop6406"
         offset="1"
         style="stop-color:#000000;stop-opacity:0;" /></linearGradient><linearGradient
       id="linearGradient3816"><stop
         id="stop3818"
         offset="0"
         style="stop-color:#ffa576;stop-opacity:1;" /><stop
         style="stop-color:#f45400;stop-opacity:1;"
         offset="1"
         id="stop3782" /></linearGradient></defs><metadata
     id="metadata2990"><rdf:RDF><cc:Work
         rdf:about=""><dc:format>image/svg+xml</dc:format><dc:type
           rdf:resource="http://purl.org/dc/dcmitype/StillImage" /></cc:Work></rdf:RDF></metadata><g
     style="display:inline"
     id="layer1"
     transform="translate(-195.01114,-1084)"><rect
       y="1084"
       x="195.01114"
       height="15.999983"
       width="15.99999"
       id="rect4471-8-4-0-6-1-4-5-2-3-3-0"
       style="color:#000000;display:inline;overflow:visible;visibility:visible;fill:none;fill-opacity:0.0511628;stroke:none;stroke-width:0;stroke-linecap:round;stroke-linejoin:miter;stroke-miterlimit:4;stroke-dasharray:none;stroke-dashoffset:0;stroke-opacity:1;marker:none;enable-background:accumulate" /><path
       id="path37741-2-5-2-7-0"
       style="display:inline;fill:#c9c9c9;fill-opacity:1;stroke:none;stroke-width:0.499999;stroke-linecap:square;stroke-dasharray:none;stroke-opacity:1"
       d="m 201.85455,1084.9701 c -1.5464,0 -2.8,1.3036 -2.8,2.9118 0.002,0.1002 0.008,0.2003 0.0199,0.2998 -0.0245,-9e-4 -0.049,0 -0.0736,0 -1.65726,-2e-4 -3.00085,1.2961 -3.00085,2.8952 0,1.5992 1.34359,2.8955 3.00085,2.8953 2.61404,-0.01 5.37612,8e-4 7.65823,0 h 0.0318 v 0 c 1.83192,-0.018 3.30808,-1.5671 3.30909,-3.4722 0,-1.9188 -1.49577,-3.4743 -3.34091,-3.4743 -0.72582,0 -1.43088,0.2523 -2.00852,0.7093 -0.0773,-1.5471 -1.30612,-2.7605 -2.79602,-2.7607 z" /><path
       style="display:inline;fill:#ffffff;fill-opacity:1;stroke:#ff0505;stroke-width:0.999995px;stroke-linecap:butt;stroke-linejoin:miter;stroke-opacity:1"
       d="m 202.45459,1087.9927 -6.59089,11.4774 h 13.264 z"
       id="path94701-0" /><path
       style="display:inline;fill:none;stroke:#000000;stroke-width:1px;stroke-linecap:butt;stroke-linejoin:miter;stroke-opacity:1"
       d="m 202.49668,1091 c 0,5 0,5 0,5"
       id="path95429-2" /><path
       style="display:inline;fill:none;stroke:#000000;stroke-width:1px;stroke-linecap:butt;stroke-linejoin:miter;stroke-opacity:1"
       d="m 202.51114,1097 c 0,1 0,1 0,1"
       id="path95429-3-9" /></g></svg>
