<?xml version="1.0" encoding="UTF-8" standalone="no"?>
<svg
   version="1.1"
   id="svg2985"
   height="16"
   width="15.999991"
   xml:space="preserve"
   xmlns="http://www.w3.org/2000/svg"
   xmlns:svg="http://www.w3.org/2000/svg"
   xmlns:rdf="http://www.w3.org/1999/02/22-rdf-syntax-ns#"
   xmlns:cc="http://creativecommons.org/ns#"
   xmlns:dc="http://purl.org/dc/elements/1.1/"><defs
     id="defs2987"><linearGradient
       id="linearGradient6402"><stop
         id="stop6404"
         offset="0"
         style="stop-color:#000000;stop-opacity:1;" /><stop
         id="stop6406"
         offset="1"
         style="stop-color:#000000;stop-opacity:0;" /></linearGradient><linearGradient
       id="linearGradient3816"><stop
         id="stop3818"
         offset="0"
         style="stop-color:#ffa576;stop-opacity:1;" /><stop
         style="stop-color:#f45400;stop-opacity:1;"
         offset="1"
         id="stop3782" /></linearGradient></defs><metadata
     id="metadata2990"><rdf:RDF><cc:Work
         rdf:about=""><dc:format>image/svg+xml</dc:format><dc:type
           rdf:resource="http://purl.org/dc/dcmitype/StillImage" /></cc:Work></rdf:RDF></metadata><g
     style="display:inline"
     id="layer1"
     transform="translate(-15.000001,-1059)"><rect
       y="1059"
       x="15.000001"
       height="15.999983"
       width="15.99999"
       id="rect4471-8-4-0-6-1-4"
       style="color:#000000;display:inline;overflow:visible;visibility:visible;fill:none;fill-opacity:0.0511628;stroke:none;stroke-width:0;stroke-linecap:round;stroke-linejoin:miter;stroke-miterlimit:4;stroke-dasharray:none;stroke-dashoffset:0;stroke-opacity:1;marker:none;enable-background:accumulate" /><circle
       style="fill:#ffe700;fill-opacity:1;stroke:#a39300;stroke-width:0.5;stroke-linecap:square;stroke-dasharray:none;stroke-opacity:1"
       id="path6113"
       cx="22.5"
       cy="1067.5"
       r="3" /><g
       id="path8356"
       transform="translate(0,330)"><path
         style="color:#000000;fill:#ffe700;stroke-width:1px;-inkscape-stroke:none"
         d="m 22.5,742 c 0,3 0,3 0,3"
         id="path23176" /><path
         style="color:#000000;fill:#ffe700;-inkscape-stroke:none"
         d="m 22,742 v 3 h 1 v -3 z"
         id="path23178" /></g><path
       style="display:inline;fill:#ffe700;fill-opacity:1;stroke:#ffe700;stroke-width:1px;stroke-linecap:butt;stroke-linejoin:miter;stroke-opacity:1"
       d="m 22.5,1060 c 0,3 0,3 0,3"
       id="path8356-2" /><path
       style="display:inline;fill:#ffe700;fill-opacity:1;stroke:#ffe700;stroke-width:1px;stroke-linecap:butt;stroke-linejoin:miter;stroke-opacity:1"
       d="M 16.87868,1061.8787 C 19,1064 19,1064 19,1064"
       id="path8356-2-5" /><path
       style="display:inline;fill:#ffe700;fill-opacity:1;stroke:#ffe700;stroke-width:1px;stroke-linecap:butt;stroke-linejoin:miter;stroke-opacity:1"
       d="M 25.87868,1070.8787 C 28,1073 28,1073 28,1073"
       id="path8356-2-5-9" /><path
       style="display:inline;fill:#ffe700;fill-opacity:1;stroke:#ffe700;stroke-width:1px;stroke-linecap:butt;stroke-linejoin:miter;stroke-opacity:1"
       d="M 28.12132,1061.8787 C 26,1064 26,1064 26,1064"
       id="path8356-2-5-9-4" /><path
       style="display:inline;fill:#ffe700;fill-opacity:1;stroke:#ffe700;stroke-width:1px;stroke-linecap:butt;stroke-linejoin:miter;stroke-opacity:1"
       d="m 19.06066,1071 c -2.12132,2.1213 -2.12132,2.1213 -2.12132,2.1213"
       id="path8356-2-5-9-4-5" /><path
       style="display:inline;fill:#ffe700;fill-opacity:1;stroke:#ffe700;stroke-width:1px;stroke-linecap:butt;stroke-linejoin:miter;stroke-opacity:1"
       d="m 30,1067.5 c -3,0 -3,0 -3,0"
       id="path8356-4" /><path
       style="display:inline;fill:#ffe700;fill-opacity:1;stroke:#ffe700;stroke-width:1px;stroke-linecap:butt;stroke-linejoin:miter;stroke-opacity:1"
       d="m 18,1067.5 c -3,0 -3,0 -3,0"
       id="path8356-4-9" /><g
       id="path8356-20"
       style="display:inline;fill:#a39300;fill-opacity:1;stroke:none;stroke-width:1.41421;stroke-opacity:1"
       transform="matrix(0.5,0,0,0.99999892,11,330.00081)"><path
         style="color:#000000;fill:#a39300;fill-opacity:1;stroke:none;stroke-width:1.41421px;stroke-opacity:1"
         d="m 22.5,742 c 0,3 0,3 0,3"
         id="path23176-7" /><path
         style="color:#000000;fill:#a39300;fill-opacity:1;stroke:none;stroke-width:2.12132;stroke-opacity:1"
         d="m 22,742 v 3 h 1 v -3 z"
         id="path23178-8" /></g><g
       id="path8356-20-6"
       style="display:inline;fill:#a39300;fill-opacity:1;stroke:none;stroke-width:1.41421;stroke-opacity:1"
       transform="matrix(0.35355339,0.35355339,-0.70710602,0.70710602,535.58597,538.17792)"><path
         style="color:#000000;fill:#a39300;fill-opacity:1;stroke:none;stroke-width:1.41421px;stroke-opacity:1"
         d="m 22.5,742 c 0,3 0,3 0,3"
         id="path23176-7-2" /><path
         style="color:#000000;fill:#a39300;fill-opacity:1;stroke:none;stroke-width:2.12132;stroke-opacity:1"
         d="m 22,742 v 3 h 1 v -3 z"
         id="path23178-8-8" /></g><g
       id="path8356-20-6-2"
       style="display:inline;fill:#a39300;fill-opacity:1;stroke:none;stroke-width:1.41421;stroke-opacity:1"
       transform="matrix(0.35355339,0.35355339,-0.70710602,0.70710602,544.66883,529.07296)"><path
         style="color:#000000;fill:#a39300;fill-opacity:1;stroke:none;stroke-width:1.41421px;stroke-opacity:1"
         d="m 22.5,742 c 0,3 0,3 0,3"
         id="path23176-7-2-6" /><path
         style="color:#000000;fill:#a39300;fill-opacity:1;stroke:none;stroke-width:2.12132;stroke-opacity:1"
         d="m 22,742 v 3 h 1 v -3 z"
         id="path23178-8-8-4" /></g><g
       id="path8356-20-6-2-2"
       style="display:inline;fill:#a39300;fill-opacity:1;stroke:none;stroke-width:1.41421;stroke-opacity:1"
       transform="matrix(-0.35355339,0.35355339,-0.70710602,-0.70710602,560.44615,1589.8988)"><path
         style="color:#000000;fill:#a39300;fill-opacity:1;stroke:none;stroke-width:1.41421px;stroke-opacity:1"
         d="m 22.5,742 c 0,3 0,3 0,3"
         id="path23176-7-2-6-3" /><path
         style="color:#000000;fill:#a39300;fill-opacity:1;stroke:none;stroke-width:2.12132;stroke-opacity:1"
         d="m 22,742 v 3 h 1 v -3 z"
         id="path23178-8-8-4-5" /></g><g
       id="path8356-20-6-2-2-3"
       style="display:inline;fill:#a39300;fill-opacity:1;stroke:none;stroke-width:1.41421;stroke-opacity:1"
       transform="matrix(-0.35355339,0.35355339,-0.70710602,-0.70710602,551.44615,1580.8988)"><path
         style="color:#000000;fill:#a39300;fill-opacity:1;stroke:none;stroke-width:1.41421px;stroke-opacity:1"
         d="m 22.5,742 c 0,3 0,3 0,3"
         id="path23176-7-2-6-3-8" /><path
         style="color:#000000;fill:#a39300;fill-opacity:1;stroke:none;stroke-width:2.12132;stroke-opacity:1"
         d="m 22,742 v 3 h 1 v -3 z"
         id="path23178-8-8-4-5-2" /></g><g
       id="path8356-20-0"
       style="display:inline;fill:#a39300;fill-opacity:1;stroke:none;stroke-width:1.41421;stroke-opacity:1"
       transform="matrix(0.5,0,0,0.99999892,11,318.00081)"><path
         style="color:#000000;fill:#a39300;fill-opacity:1;stroke:none;stroke-width:1.41421px;stroke-opacity:1"
         d="m 22.5,742 c 0,3 0,3 0,3"
         id="path23176-7-4" /><path
         style="color:#000000;fill:#a39300;fill-opacity:1;stroke:none;stroke-width:2.12132;stroke-opacity:1"
         d="m 22,742 v 3 h 1 v -3 z"
         id="path23178-8-3" /></g><g
       id="path8356-20-2"
       style="display:inline;fill:#a39300;fill-opacity:1;stroke:none;stroke-width:1.41421;stroke-opacity:1"
       transform="matrix(0,0.5,-0.99999892,0,771.9992,1056.5)"><path
         style="color:#000000;fill:#a39300;fill-opacity:1;stroke:none;stroke-width:1.41421px;stroke-opacity:1"
         d="m 22.5,742 c 0,3 0,3 0,3"
         id="path23176-7-6" /><path
         style="color:#000000;fill:#a39300;fill-opacity:1;stroke:none;stroke-width:2.12132;stroke-opacity:1"
         d="m 22,742 v 3 h 1 v -3 z"
         id="path23178-8-9" /></g><g
       id="path8356-20-2-5"
       style="display:inline;fill:#a39300;fill-opacity:1;stroke:none;stroke-width:1.41421;stroke-opacity:1"
       transform="matrix(0,0.5,-0.99999892,0,759.9992,1056)"><path
         style="color:#000000;fill:#a39300;fill-opacity:1;stroke:none;stroke-width:1.41421px;stroke-opacity:1"
         d="m 22.5,742 c 0,3 0,3 0,3"
         id="path23176-7-6-0" /><path
         style="color:#000000;fill:#a39300;fill-opacity:1;stroke:none;stroke-width:2.12132;stroke-opacity:1"
         d="m 22,742 v 3 h 1 v -3 z"
         id="path23178-8-9-4" /></g></g></svg>
