<?xml version="1.0" encoding="UTF-8" standalone="no"?>
<svg
   version="1.1"
   id="svg2985"
   height="16"
   width="15.999985"
   xml:space="preserve"
   xmlns="http://www.w3.org/2000/svg"
   xmlns:svg="http://www.w3.org/2000/svg"
   xmlns:rdf="http://www.w3.org/1999/02/22-rdf-syntax-ns#"
   xmlns:cc="http://creativecommons.org/ns#"
   xmlns:dc="http://purl.org/dc/elements/1.1/"><defs
     id="defs2987"><linearGradient
       id="linearGradient6402"><stop
         id="stop6404"
         offset="0"
         style="stop-color:#000000;stop-opacity:1;" /><stop
         id="stop6406"
         offset="1"
         style="stop-color:#000000;stop-opacity:0;" /></linearGradient><linearGradient
       id="linearGradient3816"><stop
         id="stop3818"
         offset="0"
         style="stop-color:#ffa576;stop-opacity:1;" /><stop
         style="stop-color:#f45400;stop-opacity:1;"
         offset="1"
         id="stop3782" /></linearGradient></defs><metadata
     id="metadata2990"><rdf:RDF><cc:Work
         rdf:about=""><dc:format>image/svg+xml</dc:format><dc:type
           rdf:resource="http://purl.org/dc/dcmitype/StillImage" /></cc:Work></rdf:RDF></metadata><g
     style="display:inline"
     id="layer1"
     transform="translate(-135,-1084)"><path
       style="display:inline;fill:#ffe700;fill-opacity:1;stroke:#7ebbff;stroke-width:1px;stroke-linecap:butt;stroke-linejoin:miter;stroke-opacity:1"
       d="m 146.64645,1095.3536 c -2.29289,2.2929 -2.29289,2.2929 -2.29289,2.2929"
       id="path8356-2-5-9-4-1-0-0-2" /><path
       style="display:inline;fill:#ffe700;fill-opacity:1;stroke:#7ebbff;stroke-width:1px;stroke-linecap:butt;stroke-linejoin:miter;stroke-opacity:1"
       d="m 140.64645,1095.3536 c -2.29289,2.2929 -2.29289,2.2929 -2.29289,2.2929"
       id="path8356-2-5-9-4-1-0-0-2-5" /><rect
       y="1084"
       x="135"
       height="15.999983"
       width="15.99999"
       id="rect4471-8-4-0-6-1-4-5-2-3-3"
       style="color:#000000;display:inline;overflow:visible;visibility:visible;fill:none;fill-opacity:0.0511628;stroke:none;stroke-width:0;stroke-linecap:round;stroke-linejoin:miter;stroke-miterlimit:4;stroke-dasharray:none;stroke-dashoffset:0;stroke-opacity:1;marker:none;enable-background:accumulate" /><path
       id="path37741-2-5-2-7"
       style="display:inline;fill:#c9c9c9;fill-opacity:1;stroke:none;stroke-width:0.499999;stroke-linecap:square;stroke-dasharray:none;stroke-opacity:1"
       d="m 141.85455,1084.9999 c -1.5464,0 -2.8,1.3036 -2.8,2.9117 0.002,0.1003 0.008,0.2004 0.0199,0.2999 -0.0245,-10e-4 -0.049,0 -0.0736,0 -1.65726,-2e-4 -3.00085,1.2961 -3.00085,2.8952 0,1.5991 1.34359,2.8955 3.00085,2.8953 2.61404,-0.01 5.37612,8e-4 7.65823,0 h 0.0318 v 0 c 1.83192,-0.018 3.30808,-1.5671 3.30909,-3.4722 0,-1.9188 -1.49577,-3.4743 -3.34091,-3.4743 -0.72582,0 -1.43088,0.2523 -2.00852,0.7093 -0.0773,-1.5472 -1.30612,-2.7606 -2.79602,-2.7607 z" /></g></svg>
